%FSLAX24Y24*%
%MOIN*%
G70*
G01*
G75*
G04 Layer_Physical_Order=2*
%ADD10C,0.0110*%
%ADD11R,0.0512X0.0591*%
%ADD12R,0.0433X0.0394*%
%ADD13R,0.0591X0.0512*%
%ADD14R,0.0394X0.0433*%
%ADD15R,0.0709X0.0630*%
%ADD16R,0.0433X0.0394*%
%ADD17R,0.0177X0.0630*%
%ADD18R,0.0630X0.0177*%
%ADD19R,0.0630X0.0177*%
%ADD20R,0.0630X0.0512*%
%ADD21C,0.0100*%
%ADD22C,0.0250*%
%ADD23C,0.0214*%
%ADD24C,0.0150*%
%ADD25C,0.0200*%
%ADD26C,0.0157*%
%ADD27C,0.0197*%
%ADD28R,0.2600X0.3210*%
%ADD29R,0.1890X0.1800*%
%ADD30R,0.1950X0.0470*%
%ADD31R,0.0880X0.1810*%
%ADD32R,0.0820X0.0830*%
%ADD33R,0.0591X0.0591*%
%ADD34R,0.0591X0.0591*%
%ADD35C,0.0591*%
%ADD36C,0.0591*%
%ADD37C,0.0598*%
%ADD38C,0.1220*%
%ADD39C,0.0433*%
%ADD40C,0.0433*%
%ADD41R,0.0400X0.0400*%
%ADD42R,0.2300X0.2000*%
%ADD43R,0.1160X0.2450*%
%ADD44R,0.2700X0.3500*%
D10*
X37668Y26500D02*
G03*
X37480Y25700I332J-500D01*
G01*
X38500Y27332D02*
G03*
X37668Y26500I-500J-332D01*
G01*
X38700Y24480D02*
G03*
X39500Y24668I300J520D01*
G01*
Y27332D02*
G03*
X38500Y27332I-500J-332D01*
G01*
X39500Y24668D02*
G03*
X40500Y24668I500J332D01*
G01*
Y27332D02*
G03*
X39500Y27332I-500J-332D01*
G01*
X38600Y30700D02*
G03*
X38600Y30700I-600J0D01*
G01*
Y32621D02*
G03*
X38600Y32621I-600J0D01*
G01*
X40500Y24668D02*
G03*
X41500Y24668I500J332D01*
G01*
Y27332D02*
G03*
X40500Y27332I-500J-332D01*
G01*
X42345Y27491D02*
G03*
X41500Y27332I-345J-491D01*
G01*
Y24668D02*
G03*
X42500Y24668I500J332D01*
G01*
Y25332D02*
G03*
X42332Y25500I-500J-332D01*
G01*
G03*
X42600Y26000I-332J500D01*
G01*
X42500Y24668D02*
G03*
X43500Y24668I500J332D01*
G01*
Y25332D02*
G03*
X42500Y25332I-500J-332D01*
G01*
X42600Y26000D02*
G03*
X42375Y26469I-600J0D01*
G01*
X42750Y26595D02*
G03*
X43155Y27000I0J405D01*
G01*
X42750Y26595D02*
G03*
X43155Y27000I0J405D01*
G01*
X42255Y32423D02*
G03*
X42345Y31931I496J-163D01*
G01*
X39595Y35250D02*
G03*
X39714Y34963I405J0D01*
G01*
X39595Y35250D02*
G03*
X39714Y34964I405J0D01*
G01*
X40645Y37000D02*
G03*
X40749Y36749I355J0D01*
G01*
X40645Y37000D02*
G03*
X40749Y36749I355J0D01*
G01*
X37716Y40900D02*
G03*
X39545Y40854I914J-45D01*
G01*
G03*
X38100Y41601I-915J0D01*
G01*
X40042Y39394D02*
G03*
X39913Y38855I458J-394D01*
G01*
X41000Y40127D02*
G03*
X40042Y39394I-500J-339D01*
G01*
X42450Y34500D02*
G03*
X41254Y34569I-600J0D01*
G01*
X41919Y33904D02*
G03*
X42450Y34500I-69J596D01*
G01*
X41749Y35749D02*
G03*
X42000Y35645I251J251D01*
G01*
X41749Y35749D02*
G03*
X42000Y35645I251J251D01*
G01*
X42450Y37500D02*
G03*
X41500Y37988I-600J0D01*
G01*
X41446Y37056D02*
G03*
X42450Y37500I404J444D01*
G01*
X41205Y38473D02*
G03*
X42104Y39000I295J527D01*
G01*
Y39787D02*
G03*
X41000Y40127I-604J0D01*
G01*
X42104Y39000D02*
G03*
X41958Y39394I-604J0D01*
G01*
G03*
X42104Y39787I-458J394D01*
G01*
X44285Y40854D02*
G03*
X44285Y40854I-915J0D01*
G01*
X43500Y24668D02*
G03*
X44500Y24668I500J332D01*
G01*
Y25332D02*
G03*
X43500Y25332I-500J-332D01*
G01*
X44500Y24668D02*
G03*
X45500Y24668I500J332D01*
G01*
Y25332D02*
G03*
X44500Y25332I-500J-332D01*
G01*
X45668Y26500D02*
G03*
X45668Y25500I332J-500D01*
G01*
X45500Y24668D02*
G03*
X46500Y24668I500J332D01*
G01*
X45668Y25500D02*
G03*
X45500Y25332I332J-500D01*
G01*
X46500Y24668D02*
G03*
X47500Y24668I500J332D01*
G01*
G03*
X48500Y24668I500J332D01*
G01*
X44882Y32855D02*
G03*
X44523Y33021I-382J-355D01*
G01*
X45920Y27595D02*
G03*
X45668Y26500I80J-595D01*
G01*
X48500Y27332D02*
G03*
X47578Y27427I-500J-332D01*
G01*
X48128Y28663D02*
G03*
X48500Y28918I-128J587D01*
G01*
Y24668D02*
G03*
X49500Y24668I500J332D01*
G01*
Y27332D02*
G03*
X48500Y27332I-500J-332D01*
G01*
X49500Y24668D02*
G03*
X50600Y25000I500J332D01*
G01*
Y27000D02*
G03*
X49500Y27332I-600J0D01*
G01*
X50600Y25000D02*
G03*
X50332Y25500I-600J0D01*
G01*
G03*
X50600Y26000I-332J500D01*
G01*
G03*
X50332Y26500I-600J0D01*
G01*
G03*
X50600Y27000I-332J500D01*
G01*
X48500Y28918D02*
G03*
X49500Y28918I500J332D01*
G01*
G03*
X50600Y29250I500J332D01*
G01*
G03*
X50332Y29750I-600J0D01*
G01*
X50600Y30250D02*
G03*
X50000Y30850I-600J0D01*
G01*
X50332Y29750D02*
G03*
X50600Y30250I-332J500D01*
G01*
X49751Y32751D02*
G03*
X49500Y32855I-251J-251D01*
G01*
X49751Y32751D02*
G03*
X49500Y32855I-251J-251D01*
G01*
X50000Y31150D02*
G03*
X50600Y31750I0J600D01*
G01*
G03*
X50179Y32323I-600J0D01*
G01*
X43781Y35645D02*
G03*
X44822Y35700I519J55D01*
G01*
X44251Y36251D02*
G03*
X44000Y36355I-251J-251D01*
G01*
X44251Y36251D02*
G03*
X44000Y36355I-251J-251D01*
G01*
X44822Y35700D02*
G03*
X44281Y36221I-522J0D01*
G01*
X47500Y35332D02*
G03*
X46480Y34700I-500J-332D01*
G01*
X46251Y34749D02*
G03*
X46355Y35000I-251J251D01*
G01*
X46251Y34749D02*
G03*
X46355Y35000I-251J251D01*
G01*
Y38868D02*
G03*
X46522Y39250I-355J382D01*
G01*
G03*
X45645Y38868I-522J0D01*
G01*
X47700Y33480D02*
G03*
X48600Y34000I300J520D01*
G01*
G03*
X48332Y34500I-600J0D01*
G01*
G03*
X48600Y35000I-332J500D01*
G01*
G03*
X47500Y35332I-600J0D01*
G01*
X43210Y40010D02*
X43510D01*
X41423Y38064D02*
X41500Y37988D01*
X41205Y38064D02*
X41423D01*
X39795Y38855D02*
X39913D01*
X42427Y26595D02*
X42443D01*
X42332Y26500D02*
X42427Y26595D01*
X37480Y25680D02*
X37480D01*
Y25700D01*
X37400Y25600D02*
X37480Y25680D01*
X38681Y24480D02*
X38700D01*
X38600Y24400D02*
X38681Y24480D01*
X47680Y33480D02*
X47700D01*
X47600Y33400D02*
X47680Y33480D01*
X46480Y34680D02*
Y34700D01*
X46400Y34600D02*
X46480Y34680D01*
X46370Y34700D02*
Y34890D01*
X46355Y36100D02*
Y37850D01*
X49900Y42300D02*
X49905Y42295D01*
Y40845D02*
Y42295D01*
X37000Y24400D02*
X37400D01*
X37000Y24500D02*
X37400D01*
X37400Y23750D02*
Y24400D01*
X37000Y24600D02*
X37400D01*
X37000Y24700D02*
X37400D01*
X37000Y24800D02*
X37400D01*
X37000Y24900D02*
X37400D01*
X37000Y25000D02*
X37400D01*
Y24400D02*
Y25600D01*
X37000Y25100D02*
X37400D01*
X37000Y25200D02*
X37400D01*
Y24400D02*
X38600D01*
X37000Y25300D02*
X37400D01*
X37500Y23750D02*
Y24400D01*
X37600Y23750D02*
Y24400D01*
X37700Y23750D02*
Y24400D01*
X37000Y25400D02*
X37400D01*
X37000Y25500D02*
X37400D01*
X37000Y25600D02*
X37400D01*
X37000Y25800D02*
X37434D01*
X37000Y25700D02*
X37480D01*
X37000Y25900D02*
X37408D01*
X37000Y26000D02*
X37400D01*
X37000Y26100D02*
X37408D01*
X37000Y26200D02*
X37434D01*
X37000Y26300D02*
X37480D01*
X37000Y26800D02*
X37434D01*
X37000Y26900D02*
X37408D01*
X37000Y27000D02*
X37400D01*
X37400Y26018D02*
Y26982D01*
X37000Y27100D02*
X37408D01*
X37000Y27200D02*
X37434D01*
X37000Y26400D02*
X37552D01*
X37000Y26500D02*
X37668D01*
X37500Y26332D02*
Y26668D01*
X37000Y26700D02*
X37480D01*
X37000Y26600D02*
X37552D01*
X37000Y27300D02*
X37480D01*
X37000Y27400D02*
X37552D01*
X37000Y27500D02*
X37668D01*
X37000Y27600D02*
X37982D01*
X37000Y30100D02*
X37982D01*
X37800Y23750D02*
Y24400D01*
X37900Y23750D02*
Y24400D01*
X38000Y23750D02*
Y24400D01*
X38100Y23750D02*
Y24400D01*
X38200Y23750D02*
Y24400D01*
X38300Y23750D02*
Y24400D01*
X38400Y23750D02*
Y24400D01*
X38500Y23750D02*
Y24400D01*
X38600Y23750D02*
Y24400D01*
X38700Y23750D02*
Y24480D01*
X38800Y23750D02*
Y24434D01*
X38900Y23750D02*
Y24408D01*
X39000Y23750D02*
Y24400D01*
X39100Y23750D02*
Y24408D01*
X39200Y23750D02*
Y24434D01*
X39900Y23750D02*
Y24408D01*
X39300Y23750D02*
Y24480D01*
X39400Y23750D02*
Y24552D01*
X39500Y23750D02*
Y24668D01*
X39600Y23750D02*
Y24552D01*
X39700Y23750D02*
Y24480D01*
X39800Y23750D02*
Y24434D01*
X39018Y24400D02*
X39982D01*
X40000Y23750D02*
Y24400D01*
X39332Y24500D02*
X39668D01*
X40100Y23750D02*
Y24408D01*
X38332Y27500D02*
X38668D01*
X37900Y27592D02*
Y30108D01*
X38018Y27600D02*
X38982D01*
X39332Y27500D02*
X39668D01*
X39018Y27600D02*
X39982D01*
X40200Y23750D02*
Y24434D01*
X40300Y23750D02*
Y24480D01*
X40332Y24500D02*
X40668D01*
X40700Y23750D02*
Y24480D01*
X40800Y23750D02*
Y24434D01*
X40900Y23750D02*
Y24408D01*
X40332Y27500D02*
X40668D01*
X40400Y23750D02*
Y24552D01*
X40500Y23750D02*
Y24668D01*
X40600Y23750D02*
Y24552D01*
X37000Y30500D02*
X37434D01*
X37000Y30600D02*
X37408D01*
X37400Y27018D02*
Y30682D01*
X37000Y30700D02*
X37400D01*
X37000Y30800D02*
X37408D01*
X37000Y23750D02*
Y40900D01*
Y23750D02*
Y40900D01*
X37100Y23750D02*
Y40900D01*
X37200Y23750D02*
Y40900D01*
X37300Y23750D02*
Y40900D01*
X37400Y30718D02*
Y32603D01*
X37000Y30200D02*
X37668D01*
X37000Y30300D02*
X37552D01*
X37600Y27448D02*
Y30252D01*
X37700Y27520D02*
Y30180D01*
X37800Y27566D02*
Y30134D01*
X37000Y30400D02*
X37480D01*
X37000Y30900D02*
X37434D01*
X37000Y31000D02*
X37480D01*
X37500Y27332D02*
Y30368D01*
Y31032D02*
Y32289D01*
X37000Y31100D02*
X37552D01*
X37000Y32300D02*
X37493D01*
X37000Y32400D02*
X37442D01*
X37000Y32500D02*
X37412D01*
X37000Y32600D02*
X37400D01*
X37000Y32700D02*
X37405D01*
X37000Y32800D02*
X37427D01*
X37000Y32900D02*
X37468D01*
X37400Y32639D02*
Y40900D01*
X37500Y32953D02*
Y40900D01*
X37000Y33000D02*
X37534D01*
X37000Y31200D02*
X37668D01*
X37000Y31300D02*
X37982D01*
X37600Y31148D02*
Y32174D01*
X37700Y31220D02*
Y32101D01*
X37000Y32100D02*
X37702D01*
X37000Y32200D02*
X37572D01*
X37000Y33100D02*
X37638D01*
X37000Y33200D02*
X37841D01*
X37600Y33069D02*
Y40900D01*
X37700Y33141D02*
Y40900D01*
X38200Y27566D02*
Y30134D01*
X38000Y27600D02*
Y30100D01*
X38500Y27332D02*
Y30368D01*
X38300Y27520D02*
Y30180D01*
X38400Y27448D02*
Y30252D01*
X38600Y27448D02*
Y30682D01*
X38700Y27520D02*
Y36900D01*
X38800Y27566D02*
Y36900D01*
X39400Y27448D02*
Y36900D01*
X39200Y27566D02*
Y36900D01*
X39300Y27520D02*
Y36900D01*
X40500Y27332D02*
Y34177D01*
X40400Y27448D02*
Y34277D01*
X40600Y27448D02*
Y34077D01*
X40700Y27520D02*
Y33977D01*
X40800Y27566D02*
Y33877D01*
X39500Y27332D02*
Y36900D01*
X39600Y27448D02*
Y35187D01*
X39700Y27520D02*
Y34978D01*
X40300Y27520D02*
Y34377D01*
X39800Y27566D02*
Y34877D01*
X40200Y27566D02*
Y34477D01*
X37800Y31266D02*
Y32055D01*
X37900Y31292D02*
Y32029D01*
X38100Y27592D02*
Y30108D01*
X38000Y31300D02*
Y32021D01*
X38100Y31292D02*
Y32029D01*
X37800Y33187D02*
Y40468D01*
X37900Y33213D02*
Y40302D01*
X38100Y33213D02*
Y40108D01*
X38300Y31220D02*
Y32101D01*
X38200Y31266D02*
Y32055D01*
X38300Y33141D02*
Y40001D01*
X38600Y30718D02*
Y32603D01*
X38400Y31148D02*
Y32174D01*
X38500Y31032D02*
Y32289D01*
X39900Y27592D02*
Y34777D01*
X40000Y27600D02*
Y34677D01*
X40100Y27592D02*
Y34577D01*
X38600Y32639D02*
Y36900D01*
X38400Y33069D02*
Y36900D01*
X38500Y32953D02*
Y36900D01*
X38900Y27592D02*
Y36900D01*
X39000Y27600D02*
Y36900D01*
X39100Y27592D02*
Y36900D01*
X41000Y23750D02*
Y24400D01*
X40018Y24400D02*
X40982D01*
X41100Y23750D02*
Y24408D01*
X41200Y23750D02*
Y24434D01*
X41800Y23750D02*
Y24434D01*
X41300Y23750D02*
Y24480D01*
X41400Y23750D02*
Y24552D01*
X41500Y23750D02*
Y24668D01*
X41600Y23750D02*
Y24552D01*
X41700Y23750D02*
Y24480D01*
X37000Y23750D02*
X51000D01*
X37000Y23800D02*
X51000D01*
X37000Y23900D02*
X51000D01*
X37000Y24000D02*
X51000D01*
X37000Y24100D02*
X51000D01*
X41900Y23750D02*
Y24408D01*
X37000Y24200D02*
X51000D01*
X37000Y24300D02*
X51000D01*
X42000Y23750D02*
Y24400D01*
X42100Y23750D02*
Y24408D01*
X42200Y23750D02*
Y24434D01*
X40018Y27600D02*
X40982D01*
X41018Y24400D02*
X41982D01*
X41332Y24500D02*
X41668D01*
X41332Y27500D02*
X41668D01*
X37000Y27700D02*
X42345D01*
X37000Y27800D02*
X42345D01*
X37000Y27900D02*
X42345D01*
X41018Y27600D02*
X41982D01*
X42018D02*
X42345D01*
X37000Y28000D02*
X42345D01*
X37000Y28100D02*
X42345D01*
X42018Y24400D02*
X42982D01*
X37000Y28200D02*
X42345D01*
X37000Y28300D02*
X42345D01*
X37000Y28400D02*
X42345D01*
X37000Y28500D02*
X42345D01*
X37000Y28600D02*
X42345D01*
X37000Y28700D02*
X42345D01*
X42300Y23750D02*
Y24480D01*
X42332Y24500D02*
X42668D01*
X42400Y23750D02*
Y24552D01*
X42600Y23750D02*
Y24552D01*
X42700Y23750D02*
Y24480D01*
X42332Y25500D02*
X42668D01*
X42500Y23750D02*
Y24668D01*
Y25332D02*
Y25668D01*
X42600Y25448D02*
Y25982D01*
X42800Y23750D02*
Y24434D01*
X42900Y23750D02*
Y24408D01*
X43000Y23750D02*
Y24400D01*
X43100Y23750D02*
Y24408D01*
X43018Y24400D02*
X43982D01*
X42448Y25600D02*
X42982D01*
X42700Y25520D02*
Y26595D01*
X42800Y25566D02*
Y26598D01*
X42900Y25592D02*
Y26624D01*
X42500Y26332D02*
Y26595D01*
X43018Y25600D02*
X43982D01*
X42592Y25900D02*
X45408D01*
X42600Y26000D02*
X45400D01*
X42600Y26018D02*
Y26595D01*
X42443D02*
X42750D01*
X43000Y25600D02*
Y26681D01*
X43100Y25592D02*
Y26796D01*
X42520Y25700D02*
X45480D01*
X42520Y26300D02*
X45480D01*
X42448Y26400D02*
X45552D01*
X42566Y25800D02*
X45434D01*
X42592Y26100D02*
X45408D01*
X42566Y26200D02*
X45434D01*
X42332Y26500D02*
X45668D01*
X43022Y26700D02*
X45480D01*
X42813Y26600D02*
X45552D01*
X43102Y26800D02*
X45434D01*
X43142Y26900D02*
X45408D01*
X43155Y28700D02*
X46523D01*
X37000Y28800D02*
X42345D01*
X37000Y28900D02*
X42345D01*
X37000Y29000D02*
X42345D01*
X37000Y29100D02*
X42345D01*
X37000Y29200D02*
X42345D01*
X37000Y29300D02*
X42345D01*
X37000Y29400D02*
X42345D01*
X37000Y29500D02*
X42345D01*
X37000Y29600D02*
X42345D01*
X37000Y29700D02*
X42345D01*
X37000Y29800D02*
X42345D01*
X37000Y29900D02*
X42345D01*
X37000Y30000D02*
X42345D01*
X38018Y30100D02*
X42345D01*
X38332Y30200D02*
X42345D01*
X38448Y30300D02*
X42345D01*
X38520Y30400D02*
X42345D01*
X38566Y30500D02*
X42345D01*
X38566Y30900D02*
X42345D01*
X38592Y30600D02*
X42345D01*
X38600Y30700D02*
X42345D01*
X38592Y30800D02*
X42345D01*
X38298Y32100D02*
X42254D01*
X38428Y32200D02*
X42232D01*
X38507Y32300D02*
X42230D01*
X38588Y32500D02*
X42177D01*
X38558Y32400D02*
X42248D01*
X38466Y33000D02*
X41677D01*
X38159Y33200D02*
X41477D01*
X38362Y33100D02*
X41577D01*
X38600Y32600D02*
X42077D01*
X38532Y32900D02*
X41777D01*
X38573Y32800D02*
X41877D01*
X38018Y31300D02*
X42345D01*
X37000Y31400D02*
X42345D01*
X38520Y31000D02*
X42345D01*
X38448Y31100D02*
X42345D01*
X38332Y31200D02*
X42345D01*
X37000Y31500D02*
X42345D01*
X37000Y31600D02*
X42345D01*
X37000Y31700D02*
X42345D01*
X37000Y31800D02*
X42345D01*
X37000Y32000D02*
X42298D01*
X37000Y31900D02*
X42345D01*
X41500Y27332D02*
Y33177D01*
X41600Y27448D02*
Y33077D01*
X41700Y27520D02*
Y32977D01*
X41800Y27566D02*
Y32877D01*
X41900Y27592D02*
Y32777D01*
X40900Y27592D02*
Y33777D01*
X41000Y27600D02*
Y33677D01*
X41100Y27592D02*
Y33577D01*
X41400Y27448D02*
Y33277D01*
X41200Y27566D02*
Y33477D01*
X41300Y27520D02*
Y33377D01*
X43155Y28800D02*
X46577D01*
X43155Y28900D02*
X46632D01*
X43155Y29000D02*
X46687D01*
X43155Y29100D02*
X46741D01*
X43155Y29200D02*
X46796D01*
X42200Y27566D02*
Y32477D01*
X42000Y27600D02*
Y32677D01*
X42100Y27592D02*
Y32577D01*
X43155Y27000D02*
Y29845D01*
X42300Y27520D02*
Y31996D01*
X42345Y27491D02*
Y30250D01*
X38595Y32700D02*
X41977D01*
X41919Y33904D02*
X43036Y32787D01*
X42345Y30250D02*
Y31931D01*
X39714Y34963D02*
X42255Y32423D01*
X42700Y33123D02*
Y35645D01*
X42800Y33023D02*
Y35645D01*
X43100Y32704D02*
Y35645D01*
X42900Y32923D02*
Y35645D01*
X43000Y32823D02*
Y35645D01*
X43155Y29300D02*
X46850D01*
X43155Y29400D02*
X46905D01*
X43155Y29500D02*
X46959D01*
X43155Y29600D02*
X47014D01*
X43155Y29700D02*
X47068D01*
X43155Y29800D02*
X47123D01*
X42923Y32900D02*
X43398D01*
X42823Y33000D02*
X43498D01*
X42723Y33100D02*
X43598D01*
X43155Y29845D02*
X47147D01*
X43023Y32800D02*
X43298D01*
X37000Y34500D02*
X40177D01*
X37000Y34600D02*
X40077D01*
X37000Y34700D02*
X39977D01*
X37000Y34900D02*
X39777D01*
X37000Y34800D02*
X39877D01*
X37000Y35000D02*
X39681D01*
X37000Y35100D02*
X39624D01*
X37000Y35200D02*
X39598D01*
X37000Y35300D02*
X39595D01*
X37000Y35400D02*
X39595D01*
X37000Y35500D02*
X39595D01*
X37000Y33400D02*
X41277D01*
X37000Y33500D02*
X41177D01*
X37000Y33600D02*
X41077D01*
X37000Y33800D02*
X40877D01*
X37000Y33700D02*
X40977D01*
X37000Y33900D02*
X40777D01*
X37000Y34100D02*
X40577D01*
X37000Y34000D02*
X40677D01*
X37000Y34200D02*
X40477D01*
X37000Y34400D02*
X40277D01*
X37000Y34300D02*
X40377D01*
X37000Y35600D02*
X39595D01*
X37000Y35700D02*
X39595D01*
X37000Y36900D02*
X38400D01*
X37000Y37000D02*
X38400D01*
X37000Y37100D02*
X38400D01*
X37000Y37200D02*
X38400D01*
X37000Y37300D02*
X38400D01*
X37000Y37400D02*
X38400D01*
X37000Y37500D02*
X38400D01*
X37000Y37600D02*
X38400D01*
X37000Y37700D02*
X38400D01*
X37000Y35800D02*
X39595D01*
X37000Y35900D02*
X39595D01*
X37000Y36000D02*
X39595D01*
X37000Y36100D02*
X39595D01*
X37000Y36200D02*
X39595D01*
X37000Y36300D02*
X39595D01*
X37000Y36400D02*
X39595D01*
X37000Y36500D02*
X39595D01*
X37000Y36600D02*
X39595D01*
X37000Y36700D02*
X39595D01*
X37000Y36800D02*
X39595D01*
X40900Y34923D02*
Y36598D01*
X40800Y35023D02*
Y36698D01*
X40405Y36700D02*
X40798D01*
X39595Y35250D02*
Y36900D01*
X40405Y35418D02*
Y37000D01*
X40500Y35323D02*
Y37005D01*
X40700Y35123D02*
Y36810D01*
X40600Y35223D02*
Y37005D01*
X40405Y35418D02*
X41254Y34569D01*
X40405Y36200D02*
X41298D01*
X41300Y34740D02*
Y36198D01*
X40405Y36300D02*
X41198D01*
X41023Y34800D02*
X41330D01*
X40405Y36400D02*
X41098D01*
X40405Y36600D02*
X40898D01*
X40405Y36500D02*
X40998D01*
X41200Y34623D02*
Y36298D01*
X41000Y34823D02*
Y36498D01*
X41100Y34723D02*
Y36398D01*
X37000Y37800D02*
X38400D01*
X37000Y37900D02*
X38400D01*
Y36900D02*
Y38100D01*
X37000Y38000D02*
X38400D01*
X37000Y38100D02*
X38400D01*
X37000Y38200D02*
X38795D01*
X37000Y38300D02*
X38795D01*
X37000Y38400D02*
X38795D01*
X38400Y38100D02*
X38795D01*
Y38855D01*
X37000Y38500D02*
X38795D01*
X40405Y36800D02*
X40707D01*
X38400Y36900D02*
X39595D01*
X40405Y36900D02*
X40659D01*
X40405Y37005D02*
X40645D01*
X40405D02*
X40645D01*
X40405Y37000D02*
X40645D01*
X37000Y38600D02*
X38795D01*
X37000Y38700D02*
X38795D01*
X37000Y38800D02*
X38795D01*
Y38855D02*
X39795D01*
X41205Y38064D02*
Y38473D01*
X38200Y33187D02*
Y40046D01*
X37000Y40000D02*
X38302D01*
X38400Y38100D02*
Y39968D01*
X38500Y38100D02*
Y39948D01*
X38600Y38100D02*
Y39940D01*
X37000Y40100D02*
X38112D01*
X37000Y40300D02*
X37902D01*
X37000Y40200D02*
X37990D01*
X38000Y33222D02*
Y40190D01*
X37000Y38900D02*
X39904D01*
X37000Y39000D02*
X39896D01*
X37000Y39100D02*
X39904D01*
X37000Y39200D02*
X39930D01*
X37000Y39300D02*
X39976D01*
X37000Y39400D02*
X40036D01*
X37000Y39600D02*
X39926D01*
X37000Y39500D02*
X39969D01*
X37000Y39700D02*
X39902D01*
X37000Y39800D02*
X39896D01*
X37000Y39900D02*
X39906D01*
X37000Y40400D02*
X37835D01*
X37000Y40500D02*
X37786D01*
X37000Y40600D02*
X37751D01*
X37000Y40800D02*
X37716D01*
X37000Y40700D02*
X37728D01*
X37000Y40900D02*
X37716D01*
X38100Y41601D02*
Y41900D01*
Y42100D01*
X38100Y41900D02*
Y43100D01*
X38200Y41662D02*
Y43250D01*
X37000Y43100D02*
X38100D01*
X38300Y41708D02*
Y43250D01*
X38400Y41740D02*
Y43250D01*
X38500Y41760D02*
Y43250D01*
X38600Y41769D02*
Y43250D01*
X38700Y38100D02*
Y39942D01*
X38800Y38855D02*
Y39955D01*
X38900Y38855D02*
Y39980D01*
X39000Y38855D02*
Y40017D01*
X39100Y38855D02*
Y40069D01*
X39200Y38855D02*
Y40138D01*
X39300Y38855D02*
Y40231D01*
X39400Y38855D02*
Y40360D01*
X39500Y38855D02*
Y40570D01*
X39600Y38855D02*
Y43250D01*
X39700Y38855D02*
Y43250D01*
X38958Y40000D02*
X39934D01*
X39148Y40100D02*
X39983D01*
X39900Y39071D02*
Y39716D01*
Y39859D02*
Y43250D01*
X39270Y40200D02*
X40059D01*
X40000Y40127D02*
Y43250D01*
X41000Y40127D02*
Y43250D01*
X38700Y41767D02*
Y43250D01*
X38800Y41754D02*
Y43250D01*
X39358Y40300D02*
X40180D01*
X38900Y41729D02*
Y43250D01*
X39000Y41691D02*
Y43250D01*
X39300Y41478D02*
Y43250D01*
X39100Y41640D02*
Y43250D01*
X39200Y41570D02*
Y43250D01*
X40100Y40240D02*
Y43250D01*
X39400Y41349D02*
Y43250D01*
X39500Y41138D02*
Y43250D01*
X40200Y40312D02*
Y43250D01*
X40300Y40358D02*
Y43250D01*
X40400Y40383D02*
Y43250D01*
X40820Y40300D02*
X41180D01*
X40500Y40392D02*
Y43250D01*
X40600Y40383D02*
Y43250D01*
X40900Y40240D02*
Y43250D01*
X40700Y40358D02*
Y43250D01*
X40800Y40312D02*
Y43250D01*
X41100Y40240D02*
Y43250D01*
X41200Y40312D02*
Y43250D01*
X41300Y40358D02*
Y43250D01*
X37000Y33300D02*
X41377D01*
X40723Y35100D02*
X41832D01*
X40923Y34900D02*
X41402D01*
X40823Y35000D02*
X41518D01*
X41900Y35098D02*
Y35659D01*
X41400Y34897D02*
Y36098D01*
X41500Y34988D02*
Y35998D01*
X41600Y35046D02*
Y35898D01*
X41700Y35081D02*
Y35798D01*
X41800Y35098D02*
Y35707D01*
X42000Y35081D02*
Y35645D01*
X41868Y35100D02*
X45598D01*
X42023Y33800D02*
X44298D01*
X41923Y33900D02*
X44398D01*
X40423Y35400D02*
X43873D01*
X40405Y35600D02*
X43788D01*
X40405Y35500D02*
X43818D01*
X40623Y35200D02*
X44152D01*
X40523Y35300D02*
X43965D01*
X40405Y35700D02*
X41810D01*
X40405Y35800D02*
X41698D01*
X40405Y36000D02*
X41498D01*
X40405Y35900D02*
X41598D01*
X40749Y36749D02*
X41749Y35749D01*
X40405Y36100D02*
X41398D01*
X41205Y38100D02*
X41832D01*
X41446Y37056D02*
X42147Y36355D01*
X41602Y36900D02*
X41832D01*
X41900Y36602D02*
Y36902D01*
X41802Y36700D02*
X45645D01*
X41702Y36800D02*
X45645D01*
X42000Y35645D02*
X43781D01*
X42002Y36500D02*
X45645D01*
X41902Y36600D02*
X45645D01*
X41205Y38200D02*
X45645D01*
X41205Y38300D02*
X45645D01*
X41868Y36900D02*
X45645D01*
X41868Y38100D02*
X45645D01*
X42323Y33500D02*
X43998D01*
X42100Y33723D02*
Y33954D01*
X42623Y33200D02*
X43698D01*
X42523Y33300D02*
X43798D01*
X42423Y33400D02*
X43898D01*
X42400Y33423D02*
Y34260D01*
X42200Y33623D02*
Y34012D01*
X42300Y33523D02*
Y34103D01*
X42600Y33223D02*
Y35645D01*
X42400Y34740D02*
Y35645D01*
X42500Y33323D02*
Y35645D01*
X42123Y33700D02*
X44198D01*
X42182Y34000D02*
X44498D01*
X42223Y33600D02*
X44098D01*
X42298Y34100D02*
X44598D01*
X42370Y34200D02*
X44698D01*
X42416Y34300D02*
X44798D01*
X42416Y34700D02*
X45198D01*
X42370Y34800D02*
X45298D01*
X42442Y34400D02*
X44898D01*
X42450Y34500D02*
X44998D01*
X42442Y34600D02*
X45098D01*
X42182Y35000D02*
X45498D01*
X42100Y35046D02*
Y35645D01*
X42298Y34900D02*
X45398D01*
X42200Y34988D02*
Y35645D01*
X42300Y34897D02*
Y35645D01*
X42147Y36355D02*
X44000D01*
X42000Y36502D02*
Y36919D01*
X42100Y36402D02*
Y36954D01*
X42200Y36355D02*
Y37012D01*
X42300Y36355D02*
Y37103D01*
X42400Y36355D02*
Y37260D01*
X42102Y36400D02*
X45645D01*
X42182Y37000D02*
X45645D01*
X42298Y37100D02*
X45645D01*
X42370Y37200D02*
X45645D01*
X42416Y37300D02*
X45645D01*
X42442Y37400D02*
X45645D01*
X42370Y37800D02*
X45645D01*
X42298Y37900D02*
X45645D01*
X42182Y38000D02*
X45645D01*
X42450Y37500D02*
X45645D01*
X42442Y37600D02*
X45645D01*
X42416Y37700D02*
X45645D01*
X41500Y37988D02*
Y38396D01*
X41205Y38400D02*
X41429D01*
X41600Y38046D02*
Y38404D01*
X41700Y38081D02*
Y38430D01*
X41800Y38098D02*
Y38476D01*
X41400Y40383D02*
Y43250D01*
X41500Y40392D02*
Y43250D01*
X41800Y40312D02*
Y43250D01*
X41600Y40383D02*
Y43250D01*
X41700Y40358D02*
Y43250D01*
X39424Y40400D02*
X42576D01*
X41571Y38400D02*
X45645D01*
X41820Y40300D02*
X42642D01*
X41839Y38500D02*
X45645D01*
X39474Y40500D02*
X42526D01*
X39532Y40700D02*
X42468D01*
X39509Y40600D02*
X42491D01*
X39544Y40800D02*
X42456D01*
X39544Y40900D02*
X42456D01*
X39533Y41000D02*
X42467D01*
X39365Y41400D02*
X42635D01*
X39279Y41500D02*
X42721D01*
X39512Y41100D02*
X42488D01*
X39477Y41200D02*
X42523D01*
X39429Y41300D02*
X42571D01*
X38100Y41800D02*
X45896D01*
X38100Y41900D02*
X45896D01*
X38100Y42000D02*
X45896D01*
X39161Y41600D02*
X42839D01*
X38980Y41700D02*
X43020D01*
X38100Y42100D02*
X49900D01*
X38100Y42200D02*
X49900D01*
X38100Y42300D02*
X49900D01*
X38100Y42400D02*
X49900D01*
X38100Y42500D02*
X49900D01*
X38100Y42600D02*
X49900D01*
X38100Y42700D02*
X49900D01*
X38100Y42800D02*
X49900D01*
X37000Y43200D02*
X51000D01*
X37000Y43250D02*
X51000D01*
X38100Y42900D02*
X49900D01*
X38100Y43000D02*
X49900D01*
X38100Y43100D02*
X49900D01*
X41900Y38098D02*
Y38547D01*
X42100Y38046D02*
Y38929D01*
X42000Y38081D02*
Y38661D01*
X42100Y39071D02*
Y39716D01*
X42400Y37740D02*
Y43250D01*
X42200Y37988D02*
Y43250D01*
X42300Y37897D02*
Y43250D01*
X42500Y36355D02*
Y40570D01*
X42600Y36355D02*
Y40360D01*
X42700Y36355D02*
Y40231D01*
X41953Y38600D02*
X45645D01*
X42024Y38700D02*
X45645D01*
X42070Y38800D02*
X45645D01*
X42104Y39000D02*
X45542D01*
X42096Y38900D02*
X45613D01*
X42800Y36355D02*
Y40138D01*
X42070Y39200D02*
X45481D01*
X42096Y39100D02*
X45500D01*
X42900Y36355D02*
Y40069D01*
X43000Y36355D02*
Y40017D01*
X43100Y36355D02*
Y39980D01*
X41900Y40240D02*
Y43250D01*
X42017Y40100D02*
X42852D01*
X42000Y40127D02*
Y43250D01*
X41941Y40200D02*
X42730D01*
X42100Y39859D02*
Y43250D01*
X42500Y41138D02*
Y43250D01*
X42600Y41349D02*
Y43250D01*
X42700Y41478D02*
Y43250D01*
X42800Y41570D02*
Y43250D01*
X42900Y41640D02*
Y43250D01*
X42024Y39300D02*
X45481D01*
X41964Y39400D02*
X45500D01*
X42031Y39500D02*
X45542D01*
X42074Y39600D02*
X45613D01*
X42098Y39700D02*
X45736D01*
X42104Y39800D02*
X51000D01*
X42094Y39900D02*
X51000D01*
X42066Y40000D02*
X43042D01*
X43000Y41691D02*
Y43250D01*
X43100Y41729D02*
Y43250D01*
X43200Y23750D02*
Y24434D01*
X43800Y23750D02*
Y24434D01*
X43900Y23750D02*
Y24408D01*
X44000Y23750D02*
Y24400D01*
X44100Y23750D02*
Y24408D01*
X43300Y23750D02*
Y24480D01*
X43400Y23750D02*
Y24552D01*
X43500Y23750D02*
Y24668D01*
X43600Y23750D02*
Y24552D01*
X43700Y23750D02*
Y24480D01*
X44200Y23750D02*
Y24434D01*
X44800Y23750D02*
Y24434D01*
X44900Y23750D02*
Y24408D01*
X45000Y23750D02*
Y24400D01*
X45100Y23750D02*
Y24408D01*
X45200Y23750D02*
Y24434D01*
X44300Y23750D02*
Y24480D01*
X44400Y23750D02*
Y24552D01*
X44500Y23750D02*
Y24668D01*
X44600Y23750D02*
Y24552D01*
X44700Y23750D02*
Y24480D01*
X45300Y23750D02*
Y24480D01*
X43332Y24500D02*
X43668D01*
X45400Y23750D02*
Y24552D01*
X44332Y24500D02*
X44668D01*
X44018Y24400D02*
X44982D01*
X43332Y25500D02*
X43668D01*
X44332D02*
X44668D01*
X44018Y25600D02*
X44982D01*
X45018Y24400D02*
X45982D01*
X45332Y24500D02*
X45668D01*
X45332Y25500D02*
X45668D01*
X45018Y25600D02*
X45552D01*
X43155Y27000D02*
X45400D01*
X43155Y27100D02*
X45408D01*
X45400Y25448D02*
Y25982D01*
Y26018D02*
Y26982D01*
X45800Y23750D02*
Y24434D01*
X45900Y23750D02*
Y24408D01*
X46000Y23750D02*
Y24400D01*
X46100Y23750D02*
Y24408D01*
X46200Y23750D02*
Y24434D01*
X45500Y23750D02*
Y24668D01*
X45600Y23750D02*
Y24552D01*
X45700Y23750D02*
Y24480D01*
X46300Y23750D02*
Y24480D01*
X46400Y23750D02*
Y24552D01*
X46500Y23750D02*
Y24668D01*
X46800Y23750D02*
Y24434D01*
X46900Y23750D02*
Y24408D01*
X47000Y23750D02*
Y24400D01*
X47100Y23750D02*
Y24408D01*
X47200Y23750D02*
Y24434D01*
X46600Y23750D02*
Y24552D01*
X46700Y23750D02*
Y24480D01*
X47300Y23750D02*
Y24480D01*
X47400Y23750D02*
Y24552D01*
X47500Y23750D02*
Y24668D01*
X47600Y23750D02*
Y24552D01*
X46018Y24400D02*
X46982D01*
X46332Y24500D02*
X46668D01*
X47700Y23750D02*
Y24480D01*
X47800Y23750D02*
Y24434D01*
X47900Y23750D02*
Y24408D01*
X45500Y25332D02*
Y25668D01*
Y26332D02*
Y26668D01*
X47332Y24500D02*
X47668D01*
X48000Y23750D02*
Y24400D01*
X47018Y24400D02*
X47982D01*
X48100Y23750D02*
Y24408D01*
X48200Y23750D02*
Y24434D01*
X48300Y23750D02*
Y24480D01*
X48800Y23750D02*
Y24434D01*
X48400Y23750D02*
Y24552D01*
X48332Y24500D02*
X48668D01*
X48500Y23750D02*
Y24668D01*
X48600Y23750D02*
Y24552D01*
X48700Y23750D02*
Y24480D01*
X43300Y25520D02*
Y29845D01*
X43200Y25566D02*
Y29845D01*
X43500Y25332D02*
Y29845D01*
X43400Y25448D02*
Y29845D01*
X43600Y25448D02*
Y29845D01*
X43700Y25520D02*
Y29845D01*
X43800Y25566D02*
Y29845D01*
X43900Y25592D02*
Y29845D01*
X44200Y25566D02*
Y29845D01*
X44000Y25600D02*
Y29845D01*
X44100Y25592D02*
Y29845D01*
X44400Y25448D02*
Y29845D01*
X44300Y25520D02*
Y29845D01*
X44500Y25332D02*
Y29845D01*
X44600Y25448D02*
Y29845D01*
X44700Y25520D02*
Y29845D01*
X44800Y25566D02*
Y29845D01*
X44900Y25592D02*
Y29845D01*
X45000Y25600D02*
Y29845D01*
X45300Y25520D02*
Y29845D01*
X45100Y25592D02*
Y29845D01*
X45200Y25566D02*
Y29845D01*
X43155Y27200D02*
X45434D01*
X43155Y27300D02*
X45480D01*
X43155Y27400D02*
X45552D01*
X43155Y27500D02*
X45668D01*
X43249Y32751D02*
X45645Y35147D01*
X43300Y32802D02*
Y35645D01*
X44900Y32855D02*
Y33398D01*
X45000Y32855D02*
Y33498D01*
X45100Y32855D02*
Y33598D01*
X45200Y32855D02*
Y33698D01*
X43155Y27600D02*
X45923D01*
X43155Y27700D02*
X45977D01*
X43155Y27800D02*
X46032D01*
X43155Y27900D02*
X46087D01*
X43155Y28000D02*
X46141D01*
X43155Y28100D02*
X46196D01*
X43155Y28200D02*
X46250D01*
X43155Y28300D02*
X46305D01*
X43155Y28400D02*
X46359D01*
X43155Y28500D02*
X46414D01*
X43155Y28600D02*
X46468D01*
X45400Y27018D02*
Y29845D01*
X47800Y27566D02*
Y27926D01*
X47900Y27592D02*
Y28151D01*
X47655Y27600D02*
X47982D01*
X45500Y27332D02*
Y29845D01*
X45600Y27448D02*
Y29845D01*
X45700Y27520D02*
Y29845D01*
X45800Y27566D02*
Y29845D01*
X45900Y27592D02*
Y29845D01*
X45920Y27595D02*
X47147Y29845D01*
X47578Y27427D02*
X48128Y28663D01*
X48332Y27500D02*
X48668D01*
X48000Y27600D02*
Y28376D01*
X48200Y27566D02*
Y28684D01*
X48500Y27332D02*
Y28918D01*
X48300Y27520D02*
Y28730D01*
X48400Y27448D02*
Y28802D01*
X48600Y27448D02*
Y28802D01*
X48700Y27520D02*
Y28730D01*
X48800Y27566D02*
Y28684D01*
X45300Y32855D02*
Y33798D01*
X45400Y32855D02*
Y33898D01*
X46000Y27741D02*
Y29845D01*
X46100Y27925D02*
Y29845D01*
X46200Y28108D02*
Y29845D01*
X45500Y32855D02*
Y33998D01*
X45600Y32855D02*
Y34098D01*
X45700Y32855D02*
Y34198D01*
X45800Y32855D02*
Y34298D01*
X45900Y32855D02*
Y34398D01*
X46000Y32855D02*
Y34498D01*
X48100Y27592D02*
Y28601D01*
X46300Y28291D02*
Y29845D01*
X46400Y28475D02*
Y29845D01*
X48397Y28800D02*
X48603D01*
X48240Y28700D02*
X48760D01*
X46500Y28658D02*
Y29845D01*
X46600Y28841D02*
Y29845D01*
X46700Y29025D02*
Y29845D01*
X46800Y29208D02*
Y29845D01*
X46900Y29391D02*
Y29845D01*
X47000Y29575D02*
Y29845D01*
X48900Y23750D02*
Y24408D01*
X48018Y24400D02*
X48982D01*
X49000Y23750D02*
Y24400D01*
X49100Y23750D02*
Y24408D01*
X49200Y23750D02*
Y24434D01*
X49300Y23750D02*
Y24480D01*
X49400Y23750D02*
Y24552D01*
X49500Y23750D02*
Y24668D01*
X49600Y23750D02*
Y24552D01*
X49900Y23750D02*
Y24408D01*
X49018Y24400D02*
X49982D01*
X50000Y23750D02*
Y24400D01*
X50100Y23750D02*
Y24408D01*
X50018Y24400D02*
X51000D01*
X49332Y24500D02*
X49668D01*
X49700Y23750D02*
Y24480D01*
X49800Y23750D02*
Y24434D01*
X48018Y27600D02*
X48982D01*
X49000Y27600D02*
Y28650D01*
X49332Y27500D02*
X49668D01*
X49018Y27600D02*
X49982D01*
X50000Y27600D02*
Y28650D01*
X49200Y27566D02*
Y28684D01*
X48900Y27592D02*
Y28658D01*
X49100Y27592D02*
Y28658D01*
X49800Y27566D02*
Y28684D01*
X49240Y28700D02*
X49760D01*
X49900Y27592D02*
Y28658D01*
X47700Y27700D02*
X51000D01*
X47744Y27800D02*
X51000D01*
X50018Y27600D02*
X51000D01*
X47788Y27900D02*
X51000D01*
X47833Y28000D02*
X51000D01*
X47877Y28100D02*
X51000D01*
X47922Y28200D02*
X51000D01*
X47966Y28300D02*
X51000D01*
X48011Y28400D02*
X51000D01*
X48055Y28500D02*
X51000D01*
X48100Y28600D02*
X51000D01*
X50200Y23750D02*
Y24434D01*
X50300Y23750D02*
Y24480D01*
X50400Y23750D02*
Y24552D01*
X50332Y24500D02*
X51000D01*
X50448Y24600D02*
X51000D01*
X50500Y23750D02*
Y24668D01*
X50600Y23750D02*
Y24982D01*
X50500Y25332D02*
Y25668D01*
X50600Y25018D02*
Y25982D01*
X50520Y24700D02*
X51000D01*
X50566Y24800D02*
X51000D01*
X50592Y24900D02*
X51000D01*
X50600Y25000D02*
X51000D01*
X50592Y25100D02*
X51000D01*
X50448Y25400D02*
X51000D01*
X50332Y25500D02*
X51000D01*
X50448Y25600D02*
X51000D01*
X50566Y25200D02*
X51000D01*
X50520Y25300D02*
X51000D01*
X50520Y25700D02*
X51000D01*
X50566Y25800D02*
X51000D01*
X50566Y26200D02*
X51000D01*
X50592Y25900D02*
X51000D01*
X50600Y26000D02*
X51000D01*
X50592Y26100D02*
X51000D01*
X50100Y27592D02*
Y28658D01*
X50600Y26018D02*
Y26982D01*
X50500Y26332D02*
Y26668D01*
X50520Y26300D02*
X51000D01*
X50448Y26400D02*
X51000D01*
X50332Y26500D02*
X51000D01*
X50448Y26600D02*
X51000D01*
X50520Y26700D02*
X51000D01*
X50566Y26800D02*
X51000D01*
X50592Y26900D02*
X51000D01*
X50520Y27300D02*
X51000D01*
X50448Y27400D02*
X51000D01*
X50332Y27500D02*
X51000D01*
X50600Y27000D02*
X51000D01*
X50592Y27100D02*
X51000D01*
X50566Y27200D02*
X51000D01*
X49400Y27448D02*
Y28802D01*
X49300Y27520D02*
Y28730D01*
X49600Y27448D02*
Y28802D01*
X49397Y28800D02*
X49603D01*
X49700Y27520D02*
Y28730D01*
X49500Y27332D02*
Y28918D01*
X50100Y30842D02*
Y31158D01*
X50200Y27566D02*
Y28684D01*
X50300Y27520D02*
Y28730D01*
X50240Y28700D02*
X51000D01*
X50200Y30816D02*
Y31184D01*
X50300Y30770D02*
Y31230D01*
X50240Y30800D02*
X51000D01*
X44882Y32855D02*
X49500D01*
X49751Y32751D02*
X50179Y32323D01*
X49800Y32702D02*
Y40595D01*
X49700Y32793D02*
Y36345D01*
X50100Y32402D02*
Y40900D01*
X49900Y32602D02*
Y40900D01*
X50000Y32502D02*
Y40900D01*
X50102Y32400D02*
X51000D01*
X50240Y31200D02*
X51000D01*
X50240Y32300D02*
X51000D01*
X49902Y32600D02*
X51000D01*
X49802Y32700D02*
X51000D01*
X49690Y32800D02*
X51000D01*
X50300Y32270D02*
Y40900D01*
X50200Y32316D02*
Y40900D01*
X50002Y32500D02*
X51000D01*
X50400Y27448D02*
Y28802D01*
X50397Y28800D02*
X51000D01*
X50600Y27018D02*
Y29232D01*
X50500Y27332D02*
Y28918D01*
X50488Y28900D02*
X51000D01*
X50700Y23750D02*
Y40900D01*
X50500Y29582D02*
Y29918D01*
X50600Y29268D02*
Y30232D01*
X50800Y23750D02*
Y40900D01*
X50900Y23750D02*
Y40900D01*
X51000Y23750D02*
Y40900D01*
X50546Y29000D02*
X51000D01*
X50581Y29100D02*
X51000D01*
X50598Y29200D02*
X51000D01*
X50598Y29300D02*
X51000D01*
X50581Y29400D02*
X51000D01*
X50488Y29600D02*
X51000D01*
X50397Y29700D02*
X51000D01*
X50397Y29800D02*
X51000D01*
X50546Y29500D02*
X51000D01*
X50488Y29900D02*
X51000D01*
X50546Y30000D02*
X51000D01*
X50581Y30100D02*
X51000D01*
X50546Y30500D02*
X51000D01*
X50598Y30200D02*
X51000D01*
X50598Y30300D02*
X51000D01*
X50581Y30400D02*
X51000D01*
X50500Y30582D02*
Y31418D01*
X50400Y30698D02*
Y31302D01*
Y32198D02*
Y40900D01*
X50600Y30268D02*
Y31732D01*
X50500Y32082D02*
Y40900D01*
X50600Y31768D02*
Y40900D01*
X50488Y30600D02*
X51000D01*
X50397Y30700D02*
X51000D01*
X50397Y31300D02*
X51000D01*
X50488Y31400D02*
X51000D01*
X50546Y31500D02*
X51000D01*
X50581Y31600D02*
X51000D01*
X50546Y32000D02*
X51000D01*
X50488Y32100D02*
X51000D01*
X50397Y32200D02*
X51000D01*
X50598Y31700D02*
X51000D01*
X50598Y31800D02*
X51000D01*
X50581Y31900D02*
X51000D01*
X44000Y33502D02*
Y35273D01*
X44100Y33602D02*
Y35218D01*
X44200Y33702D02*
Y35188D01*
X44300Y33802D02*
Y35178D01*
X44400Y33902D02*
Y35188D01*
X43400Y32902D02*
Y35645D01*
X43500Y33002D02*
Y35645D01*
X43600Y33102D02*
Y35645D01*
X43700Y33202D02*
Y35645D01*
X43800Y33302D02*
Y35552D01*
X43900Y33402D02*
Y35365D01*
X44800Y32927D02*
Y33298D01*
X44700Y32982D02*
Y33198D01*
X44902Y33400D02*
X46400D01*
X45002Y33500D02*
X46400D01*
X45102Y33600D02*
X46400D01*
X44523Y33021D02*
X46251Y34749D01*
X44500Y34002D02*
Y35218D01*
X45202Y33700D02*
X46400D01*
X45302Y33800D02*
X46400D01*
X45402Y33900D02*
X46400D01*
X45502Y34000D02*
X46400D01*
X44600Y34102D02*
Y35273D01*
X44448Y35200D02*
X45645D01*
X44700Y34202D02*
Y35365D01*
X44800Y34302D02*
Y35552D01*
X44635Y35300D02*
X45645D01*
X45500Y35002D02*
Y39102D01*
X45600Y35102D02*
Y38915D01*
X44727Y35400D02*
X45645D01*
X44782Y35500D02*
X45645D01*
X45602Y34100D02*
X46400D01*
X44812Y35600D02*
X45645D01*
X44822Y35700D02*
X45645D01*
X44635Y36100D02*
X45645D01*
X44448Y36200D02*
X45645D01*
X44190Y36300D02*
X45645D01*
X44812Y35800D02*
X45645D01*
X44782Y35900D02*
X45645D01*
X44727Y36000D02*
X45645D01*
X45702Y34200D02*
X46400D01*
X45802Y34300D02*
X46400D01*
X46400Y32855D02*
Y33400D01*
X45902Y34400D02*
X46400D01*
X46500Y32855D02*
Y33400D01*
X46100Y32855D02*
Y34598D01*
X46002Y34500D02*
X46400D01*
X46102Y34600D02*
X46400D01*
X46200Y32855D02*
Y34698D01*
X46300Y32855D02*
Y34810D01*
X46400Y33400D02*
Y34600D01*
X46600Y32855D02*
Y33400D01*
X46700Y32855D02*
Y33400D01*
X46800Y32855D02*
Y33400D01*
X46900Y32855D02*
Y33400D01*
X47000Y32855D02*
Y33400D01*
X47100Y32855D02*
Y33400D01*
X47200Y32855D02*
Y33400D01*
X47300Y32855D02*
Y33400D01*
X47400Y32855D02*
Y33400D01*
X47500Y32855D02*
Y33400D01*
X46202Y34700D02*
X46480D01*
X46355Y35000D02*
Y36345D01*
X46400Y35018D02*
Y36345D01*
X45645Y35147D02*
Y38868D01*
X46355Y37755D02*
Y38868D01*
X46500Y35332D02*
Y36345D01*
X46400Y37755D02*
Y38915D01*
X46500Y37755D02*
Y39102D01*
X46600Y35448D02*
Y36345D01*
X46355Y35500D02*
X46668D01*
X46355Y35600D02*
X46982D01*
X46700Y35520D02*
Y36345D01*
X46800Y35566D02*
Y36345D01*
X46900Y35592D02*
Y36345D01*
X47200Y35566D02*
Y36345D01*
X47000Y35600D02*
Y36345D01*
X47100Y35592D02*
Y36345D01*
X47500Y35332D02*
Y36345D01*
X47300Y35520D02*
Y36345D01*
X47400Y35448D02*
Y36345D01*
X43200Y36355D02*
Y39955D01*
X43300Y36355D02*
Y39942D01*
X43400Y36355D02*
Y39940D01*
X43500Y36355D02*
Y39948D01*
X43600Y36355D02*
Y39968D01*
X43700Y36355D02*
Y40001D01*
X43800Y36355D02*
Y40046D01*
X43900Y36355D02*
Y40108D01*
X44000Y36355D02*
Y40190D01*
X44100Y36341D02*
Y40302D01*
X44200Y36293D02*
Y40468D01*
X44249Y40600D02*
X45896D01*
X44300Y36222D02*
Y43250D01*
X44272Y40700D02*
X45896D01*
X44284Y40800D02*
X45896D01*
X44600Y36127D02*
Y43250D01*
X44400Y36212D02*
Y43250D01*
X44500Y36182D02*
Y43250D01*
X44900Y34402D02*
Y43250D01*
X44700Y36035D02*
Y43250D01*
X44800Y35848D02*
Y43250D01*
X43200Y41754D02*
Y43250D01*
X43300Y41767D02*
Y43250D01*
X43400Y41769D02*
Y43250D01*
X43500Y41760D02*
Y43250D01*
X43800Y41662D02*
Y43250D01*
X43600Y41740D02*
Y43250D01*
X43700Y41708D02*
Y43250D01*
X44100Y41406D02*
Y43250D01*
X43900Y41601D02*
Y43250D01*
X44000Y41518D02*
Y43250D01*
X44218Y41200D02*
X45896D01*
X44284Y40900D02*
X45896D01*
X44274Y41000D02*
X45896D01*
X44252Y41100D02*
X45896D01*
X44019Y41500D02*
X45896D01*
X43901Y41600D02*
X45896D01*
X43720Y41700D02*
X45896D01*
X44200Y41240D02*
Y43250D01*
X44169Y41300D02*
X45896D01*
X44105Y41400D02*
X45896D01*
X45000Y34502D02*
Y43250D01*
X45100Y34602D02*
Y43250D01*
X46500Y39398D02*
Y40595D01*
X46300Y39677D02*
Y40595D01*
X46400Y39585D02*
Y40595D01*
X45200Y34702D02*
Y43250D01*
X45300Y34802D02*
Y43250D01*
X45400Y34902D02*
Y43250D01*
X45500Y39398D02*
Y43250D01*
X45600Y39585D02*
Y43250D01*
X45700Y39677D02*
Y43250D01*
X46600Y37755D02*
Y40595D01*
X46700Y37755D02*
Y40595D01*
X46800Y37755D02*
Y40595D01*
X46900Y37755D02*
Y40595D01*
X47000Y37755D02*
Y40595D01*
X47100Y37755D02*
Y40595D01*
X47200Y37755D02*
Y40595D01*
X47300Y37755D02*
Y40595D01*
X47400Y37755D02*
Y40595D01*
X47500Y37755D02*
Y40595D01*
X45900Y39762D02*
Y40595D01*
X45896D02*
Y42005D01*
X46200Y39732D02*
Y40595D01*
X46000Y39772D02*
Y40595D01*
X46100Y39762D02*
Y40595D01*
X45800Y39732D02*
Y43250D01*
X45900Y42005D02*
Y43250D01*
X46000Y42005D02*
Y43250D01*
X46100Y42005D02*
Y43250D01*
X46200Y42005D02*
Y43250D01*
X46300Y42005D02*
Y43250D01*
X46400Y42005D02*
Y43250D01*
X46500Y42005D02*
Y43250D01*
X46600Y42005D02*
Y43250D01*
X46700Y42005D02*
Y43250D01*
X46800Y42005D02*
Y43250D01*
X46900Y42005D02*
Y43250D01*
X47000Y42005D02*
Y43250D01*
X47100Y42005D02*
Y43250D01*
X47200Y42005D02*
Y43250D01*
X47300Y42005D02*
Y43250D01*
X47400Y42005D02*
Y43250D01*
X47500Y42005D02*
Y43250D01*
X47600Y32855D02*
Y33400D01*
X46400D02*
X47600D01*
X47900Y32855D02*
Y33408D01*
X48000Y32855D02*
Y33400D01*
X48100Y32855D02*
Y33408D01*
X47700Y32855D02*
Y33480D01*
X47800Y32855D02*
Y33434D01*
X48200Y32855D02*
Y33434D01*
X48300Y32855D02*
Y33480D01*
X48400Y32855D02*
Y33552D01*
X44648Y33000D02*
X51000D01*
X44602Y33100D02*
X51000D01*
X44835Y32900D02*
X51000D01*
X44702Y33200D02*
X51000D01*
X44802Y33300D02*
X51000D01*
X48018Y33400D02*
X51000D01*
X48332Y33500D02*
X51000D01*
X48448Y33600D02*
X51000D01*
X48332Y34500D02*
X51000D01*
X47332Y35500D02*
X47668D01*
X47018Y35600D02*
X47982D01*
X47600Y35448D02*
Y36345D01*
X47700Y35520D02*
Y36345D01*
X47800Y35566D02*
Y36345D01*
X47900Y35592D02*
Y36345D01*
X48000Y35600D02*
Y36345D01*
X48100Y35592D02*
Y36345D01*
X48400Y35448D02*
Y36345D01*
X48200Y35566D02*
Y36345D01*
X48300Y35520D02*
Y36345D01*
X46355Y35700D02*
X51000D01*
X46355Y35800D02*
X51000D01*
X48332Y35500D02*
X51000D01*
X48018Y35600D02*
X51000D01*
X46355Y35900D02*
X51000D01*
X46355Y36000D02*
X51000D01*
X46355Y36100D02*
X51000D01*
X46355Y36200D02*
X51000D01*
X46355Y36345D02*
X49705D01*
X46355Y36300D02*
X51000D01*
X48500Y32855D02*
Y33668D01*
Y34332D02*
Y34668D01*
X48600Y32855D02*
Y33982D01*
Y34018D02*
Y34982D01*
X48700Y32855D02*
Y36345D01*
X48800Y32855D02*
Y36345D01*
X48900Y32855D02*
Y36345D01*
X49000Y32855D02*
Y36345D01*
X49100Y32855D02*
Y36345D01*
X49200Y32855D02*
Y36345D01*
X49300Y32855D02*
Y36345D01*
X48520Y33700D02*
X51000D01*
X48566Y33800D02*
X51000D01*
X48592Y33900D02*
X51000D01*
X48600Y34000D02*
X51000D01*
X48592Y34100D02*
X51000D01*
X48566Y34200D02*
X51000D01*
X48520Y34300D02*
X51000D01*
X48448Y34400D02*
X51000D01*
X49400Y32855D02*
Y36345D01*
X49500Y32855D02*
Y36345D01*
X49600Y32841D02*
Y36345D01*
X48448Y34600D02*
X51000D01*
X48520Y34700D02*
X51000D01*
X48566Y34800D02*
X51000D01*
X48592Y34900D02*
X51000D01*
X48600Y35000D02*
X51000D01*
X48520Y35300D02*
X51000D01*
X48500Y35332D02*
Y36345D01*
X48448Y35400D02*
X51000D01*
X48600Y35018D02*
Y36345D01*
X48592Y35100D02*
X51000D01*
X48566Y35200D02*
X51000D01*
X49705Y36400D02*
X51000D01*
X49705Y36500D02*
X51000D01*
X49705Y36600D02*
X51000D01*
X49705Y36700D02*
X51000D01*
X49705Y36800D02*
X51000D01*
X49705Y36900D02*
X51000D01*
X49705Y37000D02*
X51000D01*
X49705Y37100D02*
X51000D01*
X49705Y37200D02*
X51000D01*
X49705Y37300D02*
X51000D01*
X49705Y37400D02*
X51000D01*
X49705Y37500D02*
X51000D01*
X46355Y37755D02*
X49705D01*
X46355Y37800D02*
X51000D01*
X47600Y37755D02*
Y40595D01*
X47700Y37755D02*
Y40595D01*
X46355Y37900D02*
X51000D01*
X47800Y37755D02*
Y40595D01*
X47900Y37755D02*
Y40595D01*
X48000Y37755D02*
Y40595D01*
X48100Y37755D02*
Y40595D01*
X48200Y37755D02*
Y40595D01*
X48300Y37755D02*
Y40595D01*
X46355Y38000D02*
X51000D01*
X46355Y38100D02*
X51000D01*
X46355Y38200D02*
X51000D01*
X46355Y38300D02*
X51000D01*
X46355Y38400D02*
X51000D01*
X46355Y38500D02*
X51000D01*
X46355Y38600D02*
X51000D01*
X46355Y38700D02*
X51000D01*
X46355Y38800D02*
X51000D01*
X46387Y38900D02*
X51000D01*
X46458Y39000D02*
X51000D01*
X45896Y40595D02*
X49805D01*
X45896Y42005D02*
X49805D01*
X46500Y39100D02*
X51000D01*
X47600Y42005D02*
Y43250D01*
X47700Y42005D02*
Y43250D01*
X47800Y42005D02*
Y43250D01*
X47900Y42005D02*
Y43250D01*
X48000Y42005D02*
Y43250D01*
X48100Y42005D02*
Y43250D01*
X48200Y42005D02*
Y43250D01*
X48300Y42005D02*
Y43250D01*
X46458Y39500D02*
X51000D01*
X46387Y39600D02*
X51000D01*
X46264Y39700D02*
X51000D01*
X46519Y39200D02*
X51000D01*
X46519Y39300D02*
X51000D01*
X46500Y39400D02*
X51000D01*
X43698Y40000D02*
X51000D01*
X43888Y40100D02*
X51000D01*
X44010Y40200D02*
X51000D01*
X44098Y40300D02*
X51000D01*
X44165Y40400D02*
X51000D01*
X44214Y40500D02*
X51000D01*
X48400Y37755D02*
Y40595D01*
X48500Y37755D02*
Y40595D01*
X48600Y37755D02*
Y40595D01*
X48700Y37755D02*
Y40595D01*
X48800Y37755D02*
Y40595D01*
X48900Y37755D02*
Y40595D01*
X49000Y37755D02*
Y40595D01*
X49100Y37755D02*
Y40595D01*
X49200Y37755D02*
Y40595D01*
X49300Y37755D02*
Y40595D01*
X49400Y37755D02*
Y40595D01*
X49500Y37755D02*
Y40595D01*
X49600Y37755D02*
Y40595D01*
X49705Y36345D02*
Y37755D01*
Y37600D02*
X51000D01*
X49705Y37700D02*
X51000D01*
X49700Y37755D02*
Y40595D01*
X49805Y40600D02*
X51000D01*
X49805Y40700D02*
X51000D01*
X49805Y40595D02*
Y42005D01*
Y40800D02*
X51000D01*
X49900Y40900D02*
X51000D01*
X48400Y42005D02*
Y43250D01*
X48500Y42005D02*
Y43250D01*
X48600Y42005D02*
Y43250D01*
X48700Y42005D02*
Y43250D01*
X48800Y42005D02*
Y43250D01*
X48900Y42005D02*
Y43250D01*
X49000Y42005D02*
Y43250D01*
X49100Y42005D02*
Y43250D01*
X49200Y42005D02*
Y43250D01*
X49300Y42005D02*
Y43250D01*
X49400Y42005D02*
Y43250D01*
X49900Y40900D02*
Y41900D01*
Y42100D01*
X49500Y42005D02*
Y43250D01*
X49600Y42005D02*
Y43250D01*
X49700Y42005D02*
Y43250D01*
X49900Y41900D02*
Y43100D01*
X49800Y42005D02*
Y43250D01*
X49900Y43100D02*
X51000D01*
X42924Y32899D02*
X43100Y32704D01*
X42924Y32899D02*
X43036Y32787D01*
X43100Y32704D02*
X43249Y32751D01*
X50000Y30250D02*
Y31130D01*
D21*
X38800Y32400D02*
X40823Y32235D01*
X41000Y40100D02*
Y40300D01*
X40500Y39787D02*
X40850Y39800D01*
X49500Y29750D02*
Y30750D01*
X49000Y31250D02*
X49500Y30750D01*
Y29750D02*
X50000Y29250D01*
X49000Y31250D02*
Y31750D01*
X50000D02*
Y32000D01*
X49500Y32500D02*
X50000Y32000D01*
X37300Y31600D02*
X38000D01*
X44000Y36000D02*
X44300Y35700D01*
X42000Y36000D02*
X44000D01*
X41000Y37000D02*
X42000Y36000D01*
X41000Y37000D02*
Y37500D01*
X44750Y31000D02*
X48250D01*
X47000Y27000D02*
X48000Y29250D01*
X48500Y29750D02*
X49000Y29250D01*
X50000Y31500D02*
Y31750D01*
X44500Y32500D02*
X49500D01*
X47500Y29750D02*
X48500D01*
X46000Y27000D02*
X47500Y29750D01*
X48250Y31000D02*
X49000Y30250D01*
X44580Y31060D02*
X44750Y31000D01*
X44040Y31550D02*
X44200Y31750D01*
X48000D01*
X48750Y38000D02*
X50750D01*
X43500Y32500D02*
X46000Y35000D01*
X43500Y32000D02*
Y32500D01*
X46000Y35000D02*
Y39250D01*
X40850Y39800D02*
X41000Y40100D01*
X42000Y26000D02*
X42545D01*
X38630Y39994D02*
Y40854D01*
X37500Y40955D02*
Y41500D01*
Y42500D02*
X38045D01*
X37500D02*
Y43045D01*
X37770Y40854D02*
X38630D01*
X39490D01*
X38630D02*
Y41715D01*
X39951Y39787D02*
X40500D01*
Y40337D01*
X42510Y40854D02*
X43370D01*
X44000Y24455D02*
Y25000D01*
Y25545D01*
X50000Y26000D02*
X50545D01*
X50000Y30250D02*
Y30795D01*
Y30250D02*
X50545D01*
X43370Y39994D02*
Y40854D01*
Y41715D01*
Y40854D02*
X44230D01*
X49955Y41500D02*
X50500D01*
Y40955D02*
Y41500D01*
X49955Y42500D02*
X50500D01*
Y43045D01*
X39800Y38450D02*
Y38050D01*
X39500D01*
X39600Y38250D01*
Y38350D01*
X39500Y38450D01*
X39300D01*
X39200Y38350D01*
Y38150D01*
X39300Y38050D01*
X40700D02*
X40800Y38150D01*
Y38350D01*
X40700Y38450D01*
X40600D01*
X40500Y38350D01*
Y38250D01*
Y38350D01*
X40400Y38450D01*
X40300D01*
X40200Y38350D01*
Y38150D01*
X40300Y38050D01*
X49000Y41500D02*
X49100Y41600D01*
X49300D01*
X49400Y41500D01*
Y41400D01*
X49300Y41300D01*
X49100D01*
X49000Y41200D01*
Y41100D01*
X49100Y41000D01*
X49300D01*
X49400Y41100D01*
X48500Y41000D02*
X48700D01*
X48800Y41100D01*
Y41300D01*
X48700Y41400D01*
X48500D01*
X48400Y41300D01*
Y41200D01*
X48800D01*
X48200Y41000D02*
X48000D01*
X48100D01*
Y41600D01*
X48200D01*
X47401Y41000D02*
X47601D01*
X47701Y41100D01*
Y41300D01*
X47601Y41400D01*
X47401D01*
X47301Y41300D01*
Y41200D01*
X47701D01*
X46701Y41400D02*
X47001D01*
X47101Y41300D01*
Y41100D01*
X47001Y41000D01*
X46701D01*
X46401Y41500D02*
Y41400D01*
X46501D01*
X46301D01*
X46401D01*
Y41100D01*
X46301Y41000D01*
X49300Y36750D02*
Y37350D01*
X49000D01*
X48900Y37250D01*
Y37050D01*
X49000Y36950D01*
X49300D01*
X49100D02*
X48900Y36750D01*
X48400D02*
X48600D01*
X48700Y36850D01*
Y37050D01*
X48600Y37150D01*
X48400D01*
X48300Y37050D01*
Y36950D01*
X48700D01*
X48100Y36750D02*
X47800D01*
X47701Y36850D01*
X47800Y36950D01*
X48000D01*
X48100Y37050D01*
X48000Y37150D01*
X47701D01*
X47201Y36750D02*
X47401D01*
X47501Y36850D01*
Y37050D01*
X47401Y37150D01*
X47201D01*
X47101Y37050D01*
Y36950D01*
X47501D01*
X46801Y37250D02*
Y37150D01*
X46901D01*
X46701D01*
X46801D01*
Y36850D01*
X46701Y36750D01*
X40660Y37360D02*
Y37660D01*
X40960D01*
Y37360D01*
X40660D01*
X40743Y37443D02*
X40743Y37577D01*
X40877Y37577D01*
X40877Y37443D01*
X40743Y37443D01*
X40805Y37505D02*
X40815Y37515D01*
X39060Y37360D02*
Y37660D01*
X39360D01*
Y37360D01*
X39060D01*
X39143Y37443D02*
X39143Y37577D01*
X39277Y37577D01*
X39277Y37443D01*
X39143Y37443D01*
X39205Y37505D02*
X39215Y37515D01*
X39650Y37360D02*
Y37660D01*
X39950D01*
Y37360D01*
X39650D01*
X39733Y37443D02*
X39733Y37577D01*
X39867Y37577D01*
X39867Y37443D01*
X39733Y37443D01*
X39795Y37505D02*
X39805Y37515D01*
X40060Y37360D02*
Y37660D01*
X40360D01*
Y37360D01*
X40060D01*
X40143Y37443D02*
X40143Y37577D01*
X40277Y37577D01*
X40277Y37443D01*
X40143Y37443D01*
X40205Y37505D02*
X40215Y37515D01*
D25*
X40000Y35250D02*
X42750Y32500D01*
X40000Y35250D02*
Y37000D01*
X42750Y32260D02*
Y32500D01*
X42000Y27000D02*
X42750D01*
Y32260D01*
X40000Y37000D02*
Y37500D01*
X42750Y30250D02*
X48000D01*
D26*
X37250Y24300D02*
X37750Y24250D01*
X50750Y24750D02*
Y40250D01*
X44000Y24250D02*
Y26000D01*
X42000D02*
X44000D01*
X37750Y24250D02*
X50250D01*
X37250Y24750D02*
Y40250D01*
X50000Y30250D02*
X50750D01*
X50000Y26000D02*
X50750D01*
X37250Y40250D02*
X37750Y40750D01*
X37250Y24300D02*
Y24750D01*
X50250Y24250D02*
X50750Y24750D01*
X50250Y40750D02*
X50750Y40250D01*
X50500Y40800D02*
Y41500D01*
Y42500D01*
X37500Y41500D02*
Y42500D01*
Y40500D02*
Y41500D01*
D33*
X50500D02*
D03*
X37500D02*
D03*
D34*
X50500Y42500D02*
D03*
X37500D02*
D03*
X39000Y37500D02*
D03*
X38000Y25000D02*
D03*
X47000Y34000D02*
D03*
D35*
X50000Y27000D02*
D03*
Y26000D02*
D03*
X49000Y27000D02*
D03*
Y26000D02*
D03*
X48000Y27000D02*
D03*
Y26000D02*
D03*
X47000Y27000D02*
D03*
Y26000D02*
D03*
X46000Y27000D02*
D03*
Y26000D02*
D03*
X49000Y31750D02*
D03*
X50000D02*
D03*
X38000Y32621D02*
D03*
Y30700D02*
D03*
X40000Y37500D02*
D03*
X41000D02*
D03*
X48000Y29250D02*
D03*
Y30250D02*
D03*
X49000Y29250D02*
D03*
Y30250D02*
D03*
X50000Y29250D02*
D03*
Y30250D02*
D03*
X42000Y27000D02*
D03*
Y26000D02*
D03*
X41000Y27000D02*
D03*
Y26000D02*
D03*
X40000Y27000D02*
D03*
Y26000D02*
D03*
X39000D02*
D03*
X38000Y27000D02*
D03*
X39000D02*
D03*
X38000Y26000D02*
D03*
X41850Y37500D02*
D03*
Y34500D02*
D03*
X49000Y25000D02*
D03*
X48000D02*
D03*
X47000D02*
D03*
X46000D02*
D03*
X45000D02*
D03*
X44000D02*
D03*
X43000D02*
D03*
X42000D02*
D03*
X41000D02*
D03*
X40000D02*
D03*
X39000D02*
D03*
X50000D02*
D03*
X48000Y35000D02*
D03*
Y34000D02*
D03*
X47000Y35000D02*
D03*
D36*
X48000Y31750D02*
D03*
D37*
X41500Y39000D02*
D03*
Y39787D02*
D03*
X40500Y39000D02*
D03*
Y39787D02*
D03*
D38*
X38630Y40854D02*
D03*
X43370D02*
D03*
D39*
X37250Y28640D02*
D03*
X46000Y39250D02*
D03*
X38000Y35340D02*
D03*
X40823Y32235D02*
D03*
X38000Y31600D02*
D03*
X44300Y35700D02*
D03*
X44500Y32500D02*
D03*
X44040Y31550D02*
D03*
X42750Y32260D02*
D03*
X44580Y31060D02*
D03*
X43500Y32000D02*
D03*
X48750Y38000D02*
D03*
X38900Y30400D02*
D03*
Y34300D02*
D03*
X43150Y33090D02*
D03*
X41830Y35370D02*
D03*
X37250Y34000D02*
D03*
D40*
X44400Y36750D02*
D03*
X44420Y37980D02*
D03*
D41*
X48200Y31750D02*
D03*
X48800D02*
D03*
X49200D02*
D03*
X49800D02*
D03*
D42*
X43450Y41000D02*
D03*
D43*
X50480Y42025D02*
D03*
D44*
X38300Y41450D02*
D03*
M02*
