M48
INCH,LZ
;TYPE=PLATED
T1F00S00C0.0197
T2F00S00C0.0354
T3F00S00C0.0906
%
T01
X03725Y02864
X0389Y0304
X04458Y03106
X04404Y03155
X0435Y032
X04275Y03226
X04315Y03309
X0445Y0325
X0443Y0357
X0444Y03675
X04442Y03798
X046Y03925
X04183Y03537
X038Y03534
X0389Y0343
X03725Y034
X038Y0316
X040823Y032235
X04875Y038
T02
X047Y025
Y026
X048
X049
X05
Y027
X049
X048
X047
X048Y025
X049
X05
Y02925
X049
X048
Y03025
X049
X05
X046Y027
Y026
Y025
X045
X044
X043
X042
Y026
Y027
X041
Y026
X04
Y027
X039
Y026
X038
Y027
Y025
X039
X04
X041
X038Y0307
Y032621
X04185Y0345
Y0375
X041
X04
X039
X0405Y039
Y039787
X0415
Y039
X0375Y0415
Y0425
X0505
Y0415
X048Y035
Y034
X047
Y035
X048Y03175
X049
X05
T03
X03863Y040854
X04337
M30
