%FSLAX24Y24*%
%MOIN*%
G70*
G01*
G75*
%ADD10C,0.0110*%
%ADD11R,0.0512X0.0591*%
%ADD12R,0.0433X0.0394*%
%ADD13R,0.0591X0.0512*%
%ADD14R,0.0394X0.0433*%
%ADD15R,0.0709X0.0630*%
%ADD16R,0.0433X0.0394*%
%ADD17R,0.0177X0.0630*%
%ADD18R,0.0630X0.0177*%
%ADD19R,0.0630X0.0177*%
%ADD20R,0.0630X0.0512*%
%ADD21C,0.0100*%
%ADD22C,0.0250*%
%ADD23C,0.0214*%
%ADD24C,0.0150*%
%ADD25C,0.0200*%
%ADD26C,0.0157*%
%ADD27C,0.0197*%
%ADD28R,0.2600X0.3210*%
%ADD29R,0.1890X0.1800*%
%ADD30R,0.1950X0.0470*%
%ADD31R,0.0880X0.1810*%
%ADD32R,0.0820X0.0830*%
%ADD33R,0.0591X0.0591*%
%ADD34R,0.0591X0.0591*%
%ADD35C,0.0591*%
%ADD36C,0.0591*%
%ADD37C,0.0598*%
%ADD38C,0.1220*%
%ADD39C,0.0433*%
%ADD40C,0.0433*%
%ADD41R,0.0400X0.0400*%
%ADD42R,0.2300X0.2000*%
%ADD43R,0.1160X0.2450*%
%ADD44R,0.2700X0.3500*%
%ADD45R,0.0592X0.0671*%
%ADD46R,0.0513X0.0474*%
%ADD47R,0.0671X0.0592*%
%ADD48R,0.0474X0.0513*%
%ADD49R,0.0789X0.0710*%
%ADD50R,0.0513X0.0474*%
%ADD51R,0.0257X0.0710*%
%ADD52R,0.0710X0.0257*%
%ADD53R,0.0710X0.0257*%
%ADD54R,0.0710X0.0592*%
%ADD55R,0.0671X0.0671*%
%ADD56R,0.0671X0.0671*%
%ADD57C,0.0671*%
%ADD58C,0.0671*%
%ADD59C,0.0678*%
%ADD60C,0.1300*%
D10*
X44990Y33340D02*
X45700D01*
X44990Y33300D02*
X45700D01*
X44990Y33200D02*
X45700D01*
X44990Y33100D02*
X45700D01*
X44990Y33000D02*
X45700D01*
X44990Y32900D02*
X45700D01*
X44990Y32800D02*
X45700D01*
X44990Y32700D02*
X45700D01*
X44990Y32600D02*
X45700D01*
Y30870D02*
Y33340D01*
X45600Y30870D02*
Y33340D01*
X45500Y30870D02*
Y33340D01*
X45400Y30870D02*
Y33340D01*
X44990Y30870D02*
X45700D01*
X45300D02*
Y33340D01*
X45200Y30870D02*
Y33340D01*
X45100Y30870D02*
Y33340D01*
X44990Y30870D02*
Y33340D01*
Y32500D02*
X45700D01*
X44990Y32400D02*
X45700D01*
X44990Y32300D02*
X45700D01*
X44990Y32200D02*
X45700D01*
X44990Y32100D02*
X45700D01*
X44990Y32000D02*
X45700D01*
X44990Y31900D02*
X45700D01*
X44990Y31800D02*
X45700D01*
X44990Y31700D02*
X45700D01*
X44990Y31600D02*
X45700D01*
X44990Y31500D02*
X45700D01*
X44990Y31400D02*
X45700D01*
X44990Y31300D02*
X45700D01*
X44990Y31200D02*
X45700D01*
X45000Y30870D02*
Y33340D01*
X44990Y31100D02*
X45700D01*
X44990Y31000D02*
X45700D01*
X44990Y30900D02*
X45700D01*
X41440Y33330D02*
X42160D01*
X41440Y33300D02*
X42160D01*
X41440Y33200D02*
X42160D01*
X41440Y33100D02*
X42160D01*
X41440Y33000D02*
X42160D01*
Y30870D02*
Y33330D01*
X41440Y32900D02*
X42160D01*
X41440Y32800D02*
X42160D01*
X41440Y32700D02*
X42160D01*
X42100Y30870D02*
Y33330D01*
X42000Y30870D02*
Y33330D01*
X41900Y30870D02*
Y33330D01*
X41800Y30870D02*
Y33330D01*
X41440Y30870D02*
X42160D01*
X41700D02*
Y33330D01*
X41600Y30870D02*
Y33330D01*
X41500Y30870D02*
Y33330D01*
X41440Y30870D02*
Y33330D01*
Y32600D02*
X42160D01*
X41440Y32500D02*
X42160D01*
X41440Y32400D02*
X42160D01*
X41440Y32300D02*
X42160D01*
X41440Y32200D02*
X42160D01*
X41440Y32100D02*
X42160D01*
X41440Y32000D02*
X42160D01*
X41440Y31900D02*
X42160D01*
X41440Y31800D02*
X42160D01*
X41440Y31700D02*
X42160D01*
X41440Y31600D02*
X42160D01*
X41440Y31500D02*
X42160D01*
X41440Y31400D02*
X42160D01*
X41440Y31300D02*
X42160D01*
X41440Y31200D02*
X42160D01*
X41440Y31100D02*
X42160D01*
X41440Y31000D02*
X42160D01*
X41440Y30900D02*
X42160D01*
X42340Y33510D02*
Y34230D01*
X42400Y33510D02*
Y34230D01*
X42500Y33510D02*
Y34230D01*
X42600Y33510D02*
Y34230D01*
X42340Y33510D02*
X44800D01*
X42700D02*
Y34230D01*
X42800Y33510D02*
Y34230D01*
X42900Y33510D02*
Y34230D01*
X42340Y33600D02*
X44800D01*
X42340Y33700D02*
X44800D01*
X42340Y33800D02*
X44800D01*
X43000Y33510D02*
Y34230D01*
X42340Y33900D02*
X44800D01*
X42340Y34000D02*
X44800D01*
X42340Y34100D02*
X44800D01*
X42340Y34200D02*
X44800D01*
X42340Y34230D02*
X44800D01*
X43100Y33510D02*
Y34230D01*
X43200Y33510D02*
Y34230D01*
X43300Y33510D02*
Y34230D01*
X43400Y33510D02*
Y34230D01*
X43500Y33510D02*
Y34230D01*
X43600Y33510D02*
Y34230D01*
X43700Y33510D02*
Y34230D01*
X43800Y33510D02*
Y34230D01*
X43900Y33510D02*
Y34230D01*
X44000Y33510D02*
Y34230D01*
X44100Y33510D02*
Y34230D01*
X44200Y33510D02*
Y34230D01*
X44300Y33510D02*
Y34230D01*
X44400Y33510D02*
Y34230D01*
X44500Y33510D02*
Y34230D01*
X44600Y33510D02*
Y34230D01*
X44700Y33510D02*
Y34230D01*
X44800Y33510D02*
Y34230D01*
X42340Y29970D02*
Y30690D01*
X42400Y29970D02*
Y30690D01*
X42500Y29970D02*
Y30690D01*
X42600Y29970D02*
Y30690D01*
X42340Y29970D02*
X44810D01*
X42700D02*
Y30690D01*
X42800Y29970D02*
Y30690D01*
X42900Y29970D02*
Y30690D01*
X43000Y29970D02*
Y30690D01*
X42340Y30000D02*
X44810D01*
X42340Y30100D02*
X44810D01*
X42340Y30200D02*
X44810D01*
X43100Y29970D02*
Y30690D01*
X42340Y30300D02*
X44810D01*
X42340Y30400D02*
X44810D01*
X42340Y30500D02*
X44810D01*
X42340Y30600D02*
X44810D01*
X42340Y30690D02*
X44810D01*
X43200Y29970D02*
Y30690D01*
X43300Y29970D02*
Y30690D01*
X43400Y29970D02*
Y30690D01*
X43500Y29970D02*
Y30690D01*
X43600Y29970D02*
Y30690D01*
X43700Y29970D02*
Y30690D01*
X43800Y29970D02*
Y30690D01*
X43900Y29970D02*
Y30690D01*
X44000Y29970D02*
Y30690D01*
X44100Y29970D02*
Y30690D01*
X44200Y29970D02*
Y30690D01*
X44300Y29970D02*
Y30690D01*
X44400Y29970D02*
Y30690D01*
X44500Y29970D02*
Y30690D01*
X44600Y29970D02*
Y30690D01*
X44700Y29970D02*
Y30690D01*
X44800Y29970D02*
Y30690D01*
X44810Y29970D02*
Y30690D01*
D45*
X48376Y39250D02*
D03*
X49124D02*
D03*
D46*
X46665D02*
D03*
X47335D02*
D03*
X49665Y32750D02*
D03*
D47*
X39800Y33674D02*
D03*
Y32926D02*
D03*
X45000Y38876D02*
D03*
X39800Y31874D02*
D03*
Y31126D02*
D03*
X45000Y39624D02*
D03*
D48*
X42900Y36665D02*
D03*
Y37335D02*
D03*
X43600Y36665D02*
D03*
Y37335D02*
D03*
X40000Y35265D02*
D03*
Y35935D02*
D03*
D49*
X39000Y35349D02*
D03*
Y36451D02*
D03*
X41000Y35349D02*
D03*
Y36451D02*
D03*
D50*
X50335Y32750D02*
D03*
D51*
X42469Y33869D02*
D03*
X42784D02*
D03*
X43099D02*
D03*
X43414D02*
D03*
X43729D02*
D03*
X44044D02*
D03*
X44359D02*
D03*
X44674D02*
D03*
Y30326D02*
D03*
X44359D02*
D03*
X44044D02*
D03*
X43729D02*
D03*
X43414D02*
D03*
X43099D02*
D03*
X42784D02*
D03*
X42469D02*
D03*
D52*
X45343Y32885D02*
D03*
Y32570D02*
D03*
Y32255D02*
D03*
Y31940D02*
D03*
Y31625D02*
D03*
Y31310D02*
D03*
Y30995D02*
D03*
X41800D02*
D03*
Y31310D02*
D03*
Y31625D02*
D03*
Y31940D02*
D03*
Y32255D02*
D03*
Y32570D02*
D03*
Y32885D02*
D03*
X45343Y33200D02*
D03*
D53*
X41800D02*
D03*
D54*
X49750Y40478D02*
D03*
X46049Y42250D02*
D03*
Y40478D02*
D03*
X49750Y42250D02*
D03*
Y38000D02*
D03*
X46049Y36228D02*
D03*
Y38000D02*
D03*
X49750Y36228D02*
D03*
D55*
X50500Y41500D02*
D03*
X37500D02*
D03*
D56*
X50500Y42500D02*
D03*
X37500D02*
D03*
X39000Y37500D02*
D03*
X38000Y25000D02*
D03*
X47000Y34000D02*
D03*
D57*
X50000Y27000D02*
D03*
Y26000D02*
D03*
X49000Y27000D02*
D03*
Y26000D02*
D03*
X48000Y27000D02*
D03*
Y26000D02*
D03*
X47000Y27000D02*
D03*
Y26000D02*
D03*
X46000Y27000D02*
D03*
Y26000D02*
D03*
X49000Y31750D02*
D03*
X50000D02*
D03*
X38000Y32621D02*
D03*
Y30700D02*
D03*
X40000Y37500D02*
D03*
X41000D02*
D03*
X48000Y29250D02*
D03*
Y30250D02*
D03*
X49000Y29250D02*
D03*
Y30250D02*
D03*
X50000Y29250D02*
D03*
Y30250D02*
D03*
X42000Y27000D02*
D03*
Y26000D02*
D03*
X41000Y27000D02*
D03*
Y26000D02*
D03*
X40000Y27000D02*
D03*
Y26000D02*
D03*
X39000D02*
D03*
X38000Y27000D02*
D03*
X39000D02*
D03*
X38000Y26000D02*
D03*
X41850Y37500D02*
D03*
Y34500D02*
D03*
X49000Y25000D02*
D03*
X48000D02*
D03*
X47000D02*
D03*
X46000D02*
D03*
X45000D02*
D03*
X44000D02*
D03*
X43000D02*
D03*
X42000D02*
D03*
X41000D02*
D03*
X40000D02*
D03*
X39000D02*
D03*
X50000D02*
D03*
X48000Y35000D02*
D03*
Y34000D02*
D03*
X47000Y35000D02*
D03*
D58*
X48000Y31750D02*
D03*
D59*
X41500Y39000D02*
D03*
Y39787D02*
D03*
X40500Y39000D02*
D03*
Y39787D02*
D03*
D60*
X38630Y40854D02*
D03*
X43370D02*
D03*
M02*
