%FSLAX24Y24*%
%MOIN*%
G70*
G01*
G75*
%ADD10C,0.0110*%
%ADD11R,0.0512X0.0591*%
%ADD12R,0.0433X0.0394*%
%ADD13R,0.0591X0.0512*%
%ADD14R,0.0394X0.0433*%
%ADD15R,0.0709X0.0630*%
%ADD16R,0.0433X0.0394*%
%ADD17R,0.0177X0.0630*%
%ADD18R,0.0630X0.0177*%
%ADD19R,0.0630X0.0177*%
%ADD20R,0.0630X0.0512*%
%ADD21C,0.0100*%
%ADD22C,0.0250*%
%ADD23C,0.0214*%
%ADD24C,0.0150*%
%ADD25C,0.0200*%
%ADD26C,0.0157*%
%ADD27C,0.0197*%
%ADD28R,0.2600X0.3210*%
%ADD29R,0.1890X0.1800*%
%ADD30R,0.1950X0.0470*%
%ADD31R,0.0880X0.1810*%
%ADD32R,0.0820X0.0830*%
%ADD33R,0.0591X0.0591*%
%ADD34R,0.0591X0.0591*%
%ADD35C,0.0591*%
%ADD36C,0.0591*%
%ADD37C,0.0598*%
%ADD38C,0.1220*%
%ADD39C,0.0433*%
%ADD40C,0.0433*%
%ADD41R,0.0400X0.0400*%
%ADD42R,0.2300X0.2000*%
%ADD43R,0.1160X0.2450*%
%ADD44R,0.2700X0.3500*%
%ADD45R,0.0592X0.0671*%
%ADD46R,0.0513X0.0474*%
%ADD47R,0.0671X0.0592*%
%ADD48R,0.0474X0.0513*%
%ADD49R,0.0789X0.0710*%
%ADD50R,0.0513X0.0474*%
%ADD51R,0.0257X0.0710*%
%ADD52R,0.0710X0.0257*%
%ADD53R,0.0710X0.0257*%
%ADD54R,0.0710X0.0592*%
%ADD55R,0.0671X0.0671*%
%ADD56R,0.0671X0.0671*%
%ADD57C,0.0671*%
%ADD58C,0.0671*%
%ADD59C,0.0678*%
%ADD60C,0.1300*%
D10*
X39300Y37310D02*
Y37710D01*
X39295Y37400D02*
X39790D01*
X39280Y37710D02*
X39300Y37310D01*
X39290Y37500D02*
X39790D01*
X39286Y37600D02*
X39790D01*
X39281Y37700D02*
X39790D01*
X39400Y37310D02*
Y37710D01*
X39300Y37310D02*
X39790D01*
X39500D02*
Y37710D01*
X39600Y37310D02*
Y37710D01*
X39700Y37310D02*
Y37710D01*
X39790Y37310D02*
Y37710D01*
X39280D02*
X39790D01*
X40210D02*
X40230Y37310D01*
X40226Y37400D02*
X40800D01*
X40220Y37500D02*
X40800D01*
X40216Y37600D02*
X40800D01*
X40210Y37700D02*
X40800D01*
X40210Y37710D02*
X40800D01*
X40300Y37310D02*
Y37710D01*
X40230Y37310D02*
X40800D01*
X40400D02*
Y37710D01*
X40500Y37310D02*
Y37710D01*
X40600Y37310D02*
Y37710D01*
X40700Y37310D02*
Y37710D01*
X40800Y37310D02*
Y37710D01*
X48200Y31550D02*
X48220Y31950D01*
X48203Y31600D02*
X48770D01*
X48208Y31700D02*
X48770D01*
X48212Y31800D02*
X48770D01*
X48218Y31900D02*
X48770D01*
X48220Y31950D02*
X48770D01*
X48300Y31540D02*
Y31950D01*
X48200Y31540D02*
X48770D01*
X48400D02*
Y31950D01*
X48500Y31540D02*
Y31950D01*
X48600Y31540D02*
Y31950D01*
X48700Y31540D02*
Y31950D01*
X48770Y31540D02*
Y31950D01*
X49230Y31540D02*
Y31580D01*
X49229Y31600D02*
X49800D01*
X49210Y31950D02*
X49230Y31580D01*
X49224Y31700D02*
X49800D01*
X49218Y31800D02*
X49800D01*
X49213Y31900D02*
X49800D01*
X49210Y31950D02*
X49800D01*
X49300Y31540D02*
Y31950D01*
X49230Y31540D02*
X49800D01*
X49400D02*
Y31950D01*
X49500Y31540D02*
Y31950D01*
X49600Y31540D02*
Y31950D01*
X49700Y31540D02*
Y31950D01*
X49800Y31540D02*
Y31950D01*
D55*
X50500Y41500D02*
D03*
X37500D02*
D03*
D56*
X50500Y42500D02*
D03*
X37500D02*
D03*
X39000Y37500D02*
D03*
X38000Y25000D02*
D03*
X47000Y34000D02*
D03*
D57*
X50000Y27000D02*
D03*
Y26000D02*
D03*
X49000Y27000D02*
D03*
Y26000D02*
D03*
X48000Y27000D02*
D03*
Y26000D02*
D03*
X47000Y27000D02*
D03*
Y26000D02*
D03*
X46000Y27000D02*
D03*
Y26000D02*
D03*
X49000Y31750D02*
D03*
X50000D02*
D03*
X38000Y32621D02*
D03*
Y30700D02*
D03*
X40000Y37500D02*
D03*
X41000D02*
D03*
X48000Y29250D02*
D03*
Y30250D02*
D03*
X49000Y29250D02*
D03*
Y30250D02*
D03*
X50000Y29250D02*
D03*
Y30250D02*
D03*
X42000Y27000D02*
D03*
Y26000D02*
D03*
X41000Y27000D02*
D03*
Y26000D02*
D03*
X40000Y27000D02*
D03*
Y26000D02*
D03*
X39000D02*
D03*
X38000Y27000D02*
D03*
X39000D02*
D03*
X38000Y26000D02*
D03*
X41850Y37500D02*
D03*
Y34500D02*
D03*
X49000Y25000D02*
D03*
X48000D02*
D03*
X47000D02*
D03*
X46000D02*
D03*
X45000D02*
D03*
X44000D02*
D03*
X43000D02*
D03*
X42000D02*
D03*
X41000D02*
D03*
X40000D02*
D03*
X39000D02*
D03*
X50000D02*
D03*
X48000Y35000D02*
D03*
Y34000D02*
D03*
X47000Y35000D02*
D03*
D58*
X48000Y31750D02*
D03*
D59*
X41500Y39000D02*
D03*
Y39787D02*
D03*
X40500Y39000D02*
D03*
Y39787D02*
D03*
D60*
X38630Y40854D02*
D03*
X43370D02*
D03*
M02*
