%FSLAX44Y44*%
%MOMM*%
G71*
G01*
G75*
G04 Layer_Physical_Order=1*
%ADD10C,0.2540*%
%ADD11R,0.3500X2.2000*%
%ADD12R,1.5000X1.3000*%
%ADD13O,0.3500X2.2000*%
%ADD14R,1.1000X1.0000*%
%ADD15R,1.0000X1.1000*%
%ADD16R,0.9500X0.9000*%
%ADD17R,0.9000X0.9500*%
%ADD18R,1.8000X1.7000*%
%ADD19R,1.7000X1.8000*%
%ADD20O,0.6350X2.0320*%
%ADD21R,0.6350X2.0320*%
%ADD22R,1.3000X1.5000*%
%ADD23C,0.5080*%
%ADD24C,0.3810*%
%ADD25R,2.5400X4.6990*%
%ADD26C,0.8000*%
%ADD27R,1.5240X1.5240*%
%ADD28C,1.5000*%
%ADD29R,1.5000X1.5000*%
%ADD30C,1.5000*%
%ADD31C,1.0000*%
%ADD32C,1.0000*%
D10*
X1224788Y679450D02*
G03*
X1223151Y683401I-5588J0D01*
G01*
X1224788Y679450D02*
G03*
X1223141Y683411I-5588J0D01*
G01*
X1218318Y749300D02*
G03*
X1218318Y749300I-11818J0D01*
G01*
Y723900D02*
G03*
X1218318Y723900I-11818J0D01*
G01*
Y698500D02*
G03*
X1203088Y709815I-11818J0D01*
G01*
X1215429Y690758D02*
G03*
X1218318Y698500I-8929J7742D01*
G01*
X1231138Y590550D02*
G03*
X1229491Y594511I-5588J0D01*
G01*
X1231138Y590550D02*
G03*
X1229501Y594501I-5588J0D01*
G01*
Y535799D02*
G03*
X1231138Y539750I-3951J3951D01*
G01*
X1229491Y535789D02*
G03*
X1231138Y539750I-3941J3961D01*
G01*
X1219200Y527812D02*
G03*
X1223161Y529459I0J5588D01*
G01*
X1219200Y527812D02*
G03*
X1223151Y529449I0J5588D01*
G01*
X1197761Y715141D02*
G03*
X1193800Y716788I-3961J-3941D01*
G01*
X1197751Y715151D02*
G03*
X1193800Y716788I-3951J-3951D01*
G01*
X1190538D02*
G03*
X1192918Y723900I-9438J7112D01*
G01*
Y749300D02*
G03*
X1192918Y749300I-11818J0D01*
G01*
Y723900D02*
G03*
X1171662Y716788I-11818J0D01*
G01*
X1168400D02*
G03*
X1164449Y715151I0J-5588D01*
G01*
X1171662Y705612D02*
G03*
X1184512Y687185I9438J-7112D01*
G01*
X1168400Y716788D02*
G03*
X1164439Y715141I0J-5588D01*
G01*
X1197061Y680212D02*
G03*
X1195185Y669688I9438J-7112D01*
G01*
X1189839Y681859D02*
G03*
X1193800Y680212I3961J3941D01*
G01*
X1189849Y681849D02*
G03*
X1193800Y680212I3951J3951D01*
G01*
X1189859Y664361D02*
G03*
X1188212Y660400I3941J-3961D01*
G01*
X1189849Y664351D02*
G03*
X1188212Y660400I3951J-3951D01*
G01*
X1185061Y524641D02*
G03*
X1181100Y526288I-3961J-3941D01*
G01*
X1185051Y524651D02*
G03*
X1181100Y526288I-3951J-3951D01*
G01*
X1192918Y673100D02*
G03*
X1171475Y679958I-11818J0D01*
G01*
Y666242D02*
G03*
X1192918Y673100I9625J6858D01*
G01*
X1188212Y657139D02*
G03*
X1188212Y638261I-7112J-9438D01*
G01*
X1155700Y692912D02*
G03*
X1159651Y694549I0J5588D01*
G01*
X1155700Y692912D02*
G03*
X1159661Y694559I0J5588D01*
G01*
X1188212Y606339D02*
G03*
X1171662Y589788I-7112J-9438D01*
G01*
X1185051Y524651D02*
G03*
X1181100Y526288I-3951J-3951D01*
G01*
X1224788Y457200D02*
G03*
X1223141Y461161I-5588J0D01*
G01*
X1224788Y457200D02*
G03*
X1223151Y461151I-5588J0D01*
G01*
Y427849D02*
G03*
X1224788Y431800I-3951J3951D01*
G01*
X1223141Y427839D02*
G03*
X1224788Y431800I-3941J3961D01*
G01*
X1218318Y495300D02*
G03*
X1203088Y506615I-11818J0D01*
G01*
X1195185Y498712D02*
G03*
X1218318Y495300I11315J-3412D01*
G01*
X1217815Y466488D02*
G03*
X1218318Y469900I-11315J3412D01*
G01*
G03*
X1198956Y478997I-11818J0D01*
G01*
X1218318Y393700D02*
G03*
X1212088Y404113I-11818J0D01*
G01*
X1199388Y384262D02*
G03*
X1218318Y393700I7112J9438D01*
G01*
Y368300D02*
G03*
X1199388Y377738I-11818J0D01*
G01*
Y358862D02*
G03*
X1218318Y368300I7112J9438D01*
G01*
X1190029Y487557D02*
G03*
X1192918Y495300I-8929J7742D01*
G01*
Y444500D02*
G03*
X1190538Y451612I-11818J0D01*
G01*
X1189859Y435761D02*
G03*
X1188212Y431800I3941J-3961D01*
G01*
X1179144Y432845D02*
G03*
X1192918Y444500I1956J11655D01*
G01*
X1189849Y435751D02*
G03*
X1188212Y431800I3951J-3951D01*
G01*
X1192918Y495300D02*
G03*
X1171662Y488188I-11818J0D01*
G01*
X1168400D02*
G03*
X1164449Y486551I0J-5588D01*
G01*
X1168400Y488188D02*
G03*
X1164439Y486541I0J-5588D01*
G01*
X1188212Y403139D02*
G03*
X1188212Y384262I-7112J-9438D01*
G01*
Y355600D02*
G03*
X1189849Y351649I5588J0D01*
G01*
X1188212Y355600D02*
G03*
X1189859Y351639I5588J0D01*
G01*
X1188212Y377738D02*
G03*
X1188212Y358862I-7112J-9438D01*
G01*
X1192918Y342900D02*
G03*
X1171475Y349758I-11818J0D01*
G01*
Y336042D02*
G03*
X1192918Y342900I9625J6858D01*
G01*
X1155192D02*
G03*
X1162050Y336042I6858J0D01*
G01*
X1155192Y342900D02*
G03*
X1162050Y336042I6858J0D01*
G01*
X1130300Y704088D02*
G03*
X1126349Y702451I0J-5588D01*
G01*
X1130300Y704088D02*
G03*
X1126339Y702441I0J-5588D01*
G01*
X1149350Y589788D02*
G03*
X1145399Y588151I0J-5588D01*
G01*
X1149350Y589788D02*
G03*
X1145389Y588141I0J-5588D01*
G01*
X1130300Y679958D02*
G03*
X1125451Y677949I0J-6858D01*
G01*
X1130300Y679958D02*
G03*
X1125451Y677949I0J-6858D01*
G01*
X1110488Y650962D02*
G03*
X1129418Y660400I7112J9438D01*
G01*
Y635000D02*
G03*
X1110488Y644438I-11818J0D01*
G01*
Y625561D02*
G03*
X1129418Y635000I7112J9438D01*
G01*
Y609600D02*
G03*
X1129418Y609600I-11818J0D01*
G01*
X1100959Y677061D02*
G03*
X1099312Y673100I3941J-3961D01*
G01*
X1100949Y677051D02*
G03*
X1099312Y673100I3951J-3951D01*
G01*
X1119556Y672055D02*
G03*
X1110488Y669838I-1956J-11655D01*
G01*
X1099312D02*
G03*
X1099312Y650962I-7112J-9438D01*
G01*
X1108851Y618349D02*
G03*
X1110488Y622300I-3951J3951D01*
G01*
X1108841Y618339D02*
G03*
X1110488Y622300I-3941J3961D01*
G01*
X1104018Y609600D02*
G03*
X1103515Y613012I-11818J0D01*
G01*
X1085088Y600162D02*
G03*
X1104018Y609600I7112J9438D01*
G01*
X1099312Y644438D02*
G03*
X1080885Y631588I-7112J-9438D01*
G01*
X1075559Y626261D02*
G03*
X1073912Y622300I3941J-3961D01*
G01*
X1075549Y626251D02*
G03*
X1073912Y622300I3951J-3951D01*
G01*
X1104018Y584200D02*
G03*
X1085088Y593638I-11818J0D01*
G01*
X1127038Y577088D02*
G03*
X1129418Y584200I-9438J7112D01*
G01*
Y508000D02*
G03*
X1127038Y515112I-11818J0D01*
G01*
X1129418Y584200D02*
G03*
X1108161Y577088I-11818J0D01*
G01*
Y515112D02*
G03*
X1129418Y508000I9438J-7112D01*
G01*
Y482600D02*
G03*
X1108161Y475488I-11818J0D01*
G01*
X1127038D02*
G03*
X1129418Y482600I-9438J7112D01*
G01*
X1104900Y577088D02*
G03*
X1100949Y575451I0J-5588D01*
G01*
X1104900Y577088D02*
G03*
X1100939Y575441I0J-5588D01*
G01*
X1085088Y574762D02*
G03*
X1104018Y584200I7112J9438D01*
G01*
Y508000D02*
G03*
X1101638Y515112I-11818J0D01*
G01*
X1095612Y570115D02*
G03*
X1085088Y568238I-3412J-11315D01*
G01*
X1083271Y515742D02*
G03*
X1104018Y508000I8929J-7742D01*
G01*
X1073912Y527050D02*
G03*
X1075549Y523099I5588J0D01*
G01*
X1073912Y527050D02*
G03*
X1075559Y523089I5588J0D01*
G01*
X1104018Y482600D02*
G03*
X1087882Y471599I-11818J0D01*
G01*
X1103515Y479188D02*
G03*
X1104018Y482600I-11315J3412D01*
G01*
X1087882Y468201D02*
G03*
X1099744Y448103I4318J-11001D01*
G01*
X1104018Y431800D02*
G03*
X1104018Y431800I-11818J0D01*
G01*
X989718Y736600D02*
G03*
X971042Y726975I-11818J0D01*
G01*
X984758D02*
G03*
X989718Y736600I-6858J9625D01*
G01*
Y711200D02*
G03*
X984758Y720825I-11818J0D01*
G01*
Y701575D02*
G03*
X989718Y711200I-6858J9625D01*
G01*
X971042Y720825D02*
G03*
X971042Y701575I6858J-9625D01*
G01*
X964318Y736600D02*
G03*
X964318Y736600I-11818J0D01*
G01*
Y711200D02*
G03*
X964318Y711200I-11818J0D01*
G01*
X1010158Y596900D02*
G03*
X1008149Y601749I-6858J0D01*
G01*
X1010158Y596900D02*
G03*
X1008149Y601749I-6858J0D01*
G01*
X964318Y647700D02*
G03*
X964318Y647700I-11818J0D01*
G01*
X963815Y580788D02*
G03*
X964318Y584200I-11315J3412D01*
G01*
X938918Y736600D02*
G03*
X938918Y736600I-11818J0D01*
G01*
X913518D02*
G03*
X913518Y736600I-11818J0D01*
G01*
X938918Y711200D02*
G03*
X938918Y711200I-11818J0D01*
G01*
X913518D02*
G03*
X913518Y711200I-11818J0D01*
G01*
X962125Y629158D02*
G03*
X962125Y615442I-9625J-6858D01*
G01*
X938415Y580788D02*
G03*
X938918Y584200I-11315J3412D01*
G01*
X918361Y664341D02*
G03*
X914400Y665988I-3961J-3941D01*
G01*
X918351Y664351D02*
G03*
X914400Y665988I-3951J-3951D01*
G01*
X931418Y636699D02*
G03*
X938918Y647700I-4318J11001D01*
G01*
G03*
X923688Y659015I-11818J0D01*
G01*
X938918Y622300D02*
G03*
X931418Y633301I-11818J0D01*
G01*
X929862Y610809D02*
G03*
X938918Y622300I-2762J11491D01*
G01*
X1015118Y457200D02*
G03*
X1010158Y466825I-11818J0D01*
G01*
X996442D02*
G03*
X1015118Y457200I6858J-9625D01*
G01*
Y381000D02*
G03*
X1010158Y390625I-11818J0D01*
G01*
X998371Y444631D02*
G03*
X994410Y446278I-3961J-3941D01*
G01*
X998361Y444641D02*
G03*
X994410Y446278I-3951J-3951D01*
G01*
X1002284Y369226D02*
G03*
X1015118Y381000I1016J11774D01*
G01*
Y355600D02*
G03*
X1002284Y367374I-11818J0D01*
G01*
X997458Y345327D02*
G03*
X1015118Y355600I5842J10273D01*
G01*
X995449Y338051D02*
G03*
X997458Y342900I-4849J4849D01*
G01*
X995449Y338051D02*
G03*
X997458Y342900I-4849J4849D01*
G01*
X970788Y571500D02*
G03*
X969151Y575451I-5588J0D01*
G01*
X964318Y584200D02*
G03*
X955912Y572885I-11818J0D01*
G01*
X970788Y571500D02*
G03*
X969141Y575461I-5588J0D01*
G01*
X969151Y521829D02*
G03*
X970788Y525780I-3951J3951D01*
G01*
X969141Y521819D02*
G03*
X970788Y525780I-3941J3961D01*
G01*
X945388Y571500D02*
G03*
X943751Y575451I-5588J0D01*
G01*
X945388Y571500D02*
G03*
X943741Y575461I-5588J0D01*
G01*
X959612Y568238D02*
G03*
X945388Y568238I-7112J-9438D01*
G01*
X938918Y584200D02*
G03*
X921597Y573741I-11818J0D01*
G01*
X921597Y569259D02*
G03*
X921512Y548387I5503J-10459D01*
G01*
X984250Y329692D02*
G03*
X989099Y331701I0J6858D01*
G01*
X984250Y329692D02*
G03*
X989099Y331701I0J6858D01*
G01*
X918210Y473202D02*
G03*
X922171Y474849I0J5588D01*
G01*
X918210Y473202D02*
G03*
X922161Y474839I0J5588D01*
G01*
X901418Y463700D02*
G03*
X892175Y468871I-6068J0D01*
G01*
X888118Y736600D02*
G03*
X888118Y736600I-11818J0D01*
G01*
X885825Y538029D02*
G03*
X889282Y537138I3175J5171D01*
G01*
X879475Y538029D02*
G03*
X885825Y538029I3175J5171D01*
G01*
X873125D02*
G03*
X879475Y538029I3175J5171D01*
G01*
X866775D02*
G03*
X873125Y538029I3175J5171D01*
G01*
X860425D02*
G03*
X866775Y538029I3175J5171D01*
G01*
X854075D02*
G03*
X860425Y538029I3175J5171D01*
G01*
X847725D02*
G03*
X854075Y538029I3175J5171D01*
G01*
X841375D02*
G03*
X847725Y538029I3175J5171D01*
G01*
X835025D02*
G03*
X841375Y538029I3175J5171D01*
G01*
X828675D02*
G03*
X835025Y538029I3175J5171D01*
G01*
X819150Y665988D02*
G03*
X815199Y664351I0J-5588D01*
G01*
X819150Y665988D02*
G03*
X815189Y664341I0J-5588D01*
G01*
X807842Y656629D02*
G03*
X789099Y652018I-7742J-8929D01*
G01*
X822325Y538029D02*
G03*
X828675Y538029I3175J5171D01*
G01*
X823388Y533400D02*
G03*
X822199Y537954I-9318J0D01*
G01*
X806450Y528037D02*
G03*
X823388Y533400I7620J5363D01*
G01*
X825500Y507238D02*
G03*
X821549Y505601I0J-5588D01*
G01*
X825500Y507238D02*
G03*
X821539Y505591I0J-5588D01*
G01*
X790701Y537954D02*
G03*
X806450Y528037I8129J-4554D01*
G01*
X785701Y652018D02*
G03*
X763699Y652018I-11001J-4318D01*
G01*
X760301D02*
G03*
X738299Y652018I-11001J-4318D01*
G01*
X734901D02*
G03*
X712585Y644288I-11001J-4318D01*
G01*
X784225Y538029D02*
G03*
X790575Y538029I3175J5171D01*
G01*
X707259Y638961D02*
G03*
X705612Y635000I3941J-3961D01*
G01*
X707249Y638951D02*
G03*
X705612Y635000I3951J-3951D01*
G01*
Y599440D02*
G03*
X707249Y595489I5588J0D01*
G01*
X705612Y599440D02*
G03*
X707259Y595479I5588J0D01*
G01*
X777875Y538029D02*
G03*
X784225Y538029I3175J5171D01*
G01*
X771525D02*
G03*
X777875Y538029I3175J5171D01*
G01*
X765175D02*
G03*
X771525Y538029I3175J5171D01*
G01*
X758825D02*
G03*
X765175Y538029I3175J5171D01*
G01*
X752475D02*
G03*
X758825Y538029I3175J5171D01*
G01*
X743232Y543200D02*
G03*
X752475Y538029I6068J0D01*
G01*
X892175Y468871D02*
G03*
X885825Y468871I-3175J-5171D01*
G01*
G03*
X879475Y468871I-3175J-5171D01*
G01*
G03*
X873125Y468871I-3175J-5171D01*
G01*
G03*
X866775Y468871I-3175J-5171D01*
G01*
G03*
X860425Y468871I-3175J-5171D01*
G01*
G03*
X854075Y468871I-3175J-5171D01*
G01*
G03*
X847725Y468871I-3175J-5171D01*
G01*
G03*
X841375Y468871I-3175J-5171D01*
G01*
X828675Y440029D02*
G03*
X832612Y439180I3175J5171D01*
G01*
X822325Y440029D02*
G03*
X828675Y440029I3175J5171D01*
G01*
X815975D02*
G03*
X822325Y440029I3175J5171D01*
G01*
X809625D02*
G03*
X815975Y440029I3175J5171D01*
G01*
X808859Y492911D02*
G03*
X807212Y488950I3941J-3961D01*
G01*
X808849Y492901D02*
G03*
X807212Y488950I3951J-3951D01*
G01*
X803275Y440029D02*
G03*
X809625Y440029I3175J5171D01*
G01*
X799338Y439180D02*
G03*
X803275Y440029I762J6020D01*
G01*
X797701Y407529D02*
G03*
X799338Y411480I-3951J3951D01*
G01*
X797691Y407519D02*
G03*
X799338Y411480I-3941J3961D01*
G01*
X809725Y387858D02*
G03*
X792988Y390438I-9625J-6858D01*
G01*
X865101Y331701D02*
G03*
X869950Y329692I4849J4849D01*
G01*
X865101Y331701D02*
G03*
X869950Y329692I4849J4849D01*
G01*
X792988Y371562D02*
G03*
X809725Y374142I7112J9438D01*
G01*
X811918Y355600D02*
G03*
X811918Y355600I-11818J0D01*
G01*
X791351Y364349D02*
G03*
X792988Y368300I-3951J3951D01*
G01*
X791341Y364339D02*
G03*
X792988Y368300I-3941J3961D01*
G01*
X786518Y355600D02*
G03*
X786015Y359012I-11818J0D01*
G01*
X763699Y351282D02*
G03*
X786518Y355600I11001J4318D01*
G01*
X745145Y468122D02*
G03*
X743232Y463700I4155J-4422D01*
G01*
X709847Y479298D02*
G03*
X710318Y482600I-11347J3302D01*
G01*
G03*
X701912Y471285I-11818J0D01*
G01*
X703439Y469759D02*
G03*
X707390Y468122I3951J3951D01*
G01*
X703429Y469769D02*
G03*
X707390Y468122I3961J3941D01*
G01*
X738299Y351282D02*
G03*
X760301Y351282I11001J4318D01*
G01*
X712899D02*
G03*
X734901Y351282I11001J4318D01*
G01*
X694559Y400201D02*
G03*
X692912Y396240I3941J-3961D01*
G01*
X694549Y400191D02*
G03*
X692912Y396240I3951J-3951D01*
G01*
Y391413D02*
G03*
X694182Y369999I5588J-10413D01*
G01*
X568118Y651510D02*
G03*
X566083Y657322I-9318J0D01*
G01*
X551517D02*
G03*
X568118Y651510I7283J-5812D01*
G01*
X580986Y588594D02*
G03*
X576580Y590423I-4406J-4394D01*
G01*
X580980Y588600D02*
G03*
X576580Y590423I-4400J-4400D01*
G01*
X598760Y537890D02*
G03*
X600314Y540482I-4400J4400D01*
G01*
X598754Y537884D02*
G03*
X600314Y540482I-4394J4406D01*
G01*
X568847Y590423D02*
G03*
X568847Y577977I-10047J-6223D01*
G01*
X565023Y548753D02*
G03*
X570618Y558800I-6223J10047D01*
G01*
G03*
X552577Y548753I-11818J0D01*
G01*
X563200Y522650D02*
G03*
X565023Y527050I-4400J4400D01*
G01*
X563194Y522644D02*
G03*
X565023Y527050I-4394J4406D01*
G01*
X567106Y523836D02*
G03*
X565277Y519430I4394J-4406D01*
G01*
X567100Y523830D02*
G03*
X565277Y519430I4400J-4400D01*
G01*
X515493Y704265D02*
G03*
X518588Y711200I-6223J6935D01*
G01*
G03*
X503047Y704265I-9318J0D01*
G01*
X545218Y584200D02*
G03*
X545218Y584200I-11818J0D01*
G01*
X450723Y577265D02*
G03*
X453818Y584200I-6223J6935D01*
G01*
X611378Y447040D02*
G03*
X609369Y451889I-6858J0D01*
G01*
X611378Y447040D02*
G03*
X609369Y451889I-6858J0D01*
G01*
X596018Y482600D02*
G03*
X577723Y492485I-11818J0D01*
G01*
Y472715D02*
G03*
X596018Y482600I6477J9885D01*
G01*
X599209Y462049D02*
G03*
X594360Y464058I-4849J-4849D01*
G01*
X599209Y462049D02*
G03*
X594360Y464058I-4849J-4849D01*
G01*
X593825D02*
G03*
X577723Y467085I-9625J-6858D01*
G01*
Y447315D02*
G03*
X592784Y449077I6477J9885D01*
G01*
X621418Y381000D02*
G03*
X620268Y386085I-11818J0D01*
G01*
X607644Y369345D02*
G03*
X621418Y381000I1956J11655D01*
G01*
X590423Y393700D02*
G03*
X588600Y398100I-6223J0D01*
G01*
X590423Y393700D02*
G03*
X588594Y398106I-6223J0D01*
G01*
X621418Y355600D02*
G03*
X604613Y366314I-11818J0D01*
G01*
X603758Y345327D02*
G03*
X621418Y355600I5842J10273D01*
G01*
X606552Y392418D02*
G03*
X598599Y385318I3048J-11418D01*
G01*
X601749Y338051D02*
G03*
X603758Y342900I-4849J4849D01*
G01*
X601749Y338051D02*
G03*
X603758Y342900I-4849J4849D01*
G01*
X595201Y385318D02*
G03*
X590423Y391047I-11001J-4318D01*
G01*
X590550Y329692D02*
G03*
X595399Y331701I0J6858D01*
G01*
X590550Y329692D02*
G03*
X595399Y331701I0J6858D01*
G01*
X541706Y518756D02*
G03*
X539877Y514350I4394J-4406D01*
G01*
X541700Y518750D02*
G03*
X539877Y514350I4400J-4400D01*
G01*
X565277Y492485D02*
G03*
X552323Y492485I-6477J-9885D01*
G01*
Y447315D02*
G03*
X565277Y447315I6477J9885D01*
G01*
X539877Y492485D02*
G03*
X522399Y486918I-6477J-9885D01*
G01*
X519001D02*
G03*
X496999Y486918I-11001J-4318D01*
G01*
X493601D02*
G03*
X471599Y486918I-11001J-4318D01*
G01*
X468201D02*
G03*
X451358Y492873I-11001J-4318D01*
G01*
X565277Y434340D02*
G03*
X567100Y429940I6223J0D01*
G01*
X565277Y434340D02*
G03*
X567106Y429934I6223J0D01*
G01*
X490451Y331701D02*
G03*
X495300Y329692I4849J4849D01*
G01*
X490451Y331701D02*
G03*
X495300Y329692I4849J4849D01*
G01*
X469392Y355600D02*
G03*
X471401Y350751I6858J0D01*
G01*
X469392Y355600D02*
G03*
X471401Y350751I6858J0D01*
G01*
X420960Y696640D02*
G03*
X422783Y701040I-4400J4400D01*
G01*
X420954Y696634D02*
G03*
X422783Y701040I-4394J4406D01*
G01*
X428642Y682470D02*
G03*
X424411Y680489I618J-6830D01*
G01*
X428642Y682470D02*
G03*
X424411Y680489I618J-6830D01*
G01*
X420370Y659892D02*
G03*
X425219Y661901I0J6858D01*
G01*
X420370Y659892D02*
G03*
X425219Y661901I0J6858D01*
G01*
X412753Y621502D02*
G03*
X413893Y625475I-6353J3973D01*
G01*
X428418Y614680D02*
G03*
X412753Y621502I-9318J0D01*
G01*
X413893Y639445D02*
G03*
X400050Y643423I-7493J0D01*
G01*
G03*
X387858Y644137I-6350J-3978D01*
G01*
X387350Y621497D02*
G03*
X400050Y621497I6350J3978D01*
G01*
X412165Y608457D02*
G03*
X428418Y614680I6935J6223D01*
G01*
X400177D02*
G03*
X406400Y608457I6223J0D01*
G01*
X400177Y614680D02*
G03*
X406400Y608457I6223J0D01*
G01*
X389306Y710526D02*
G03*
X387477Y706120I4394J-4406D01*
G01*
X389300Y710520D02*
G03*
X387477Y706120I4400J-4400D01*
G01*
X387223D02*
G03*
X385400Y710520I-6223J0D01*
G01*
X387223Y706120D02*
G03*
X385394Y710526I-6223J0D01*
G01*
X360807Y678815D02*
G03*
X362912Y673608I7493J0D01*
G01*
X352153Y701882D02*
G03*
X353740Y699180I5987J1698D01*
G01*
X352153Y701882D02*
G03*
X353746Y699174I5987J1698D01*
G01*
X375158Y620783D02*
G03*
X387350Y621497I5842J4692D01*
G01*
X360807Y625475D02*
G03*
X361442Y622456I7493J0D01*
G01*
X353291Y630151D02*
G03*
X358140Y628142I4849J4849D01*
G01*
X353291Y630151D02*
G03*
X358140Y628142I4849J4849D01*
G01*
X453818Y584200D02*
G03*
X438277Y577265I-9318J0D01*
G01*
X437642Y492873D02*
G03*
X420799Y486918I-5842J-10273D01*
G01*
X399923Y371115D02*
G03*
X418218Y381000I6477J9885D01*
G01*
X417401Y486918D02*
G03*
X395399Y486918I-11001J-4318D01*
G01*
X398635Y364509D02*
G03*
X399923Y368300I-4935J3791D01*
G01*
X398635Y364509D02*
G03*
X399923Y368300I-4935J3791D01*
G01*
X418218Y355600D02*
G03*
X398635Y364509I-11818J0D01*
G01*
X397127Y362926D02*
G03*
X418218Y355600I9273J-7326D01*
G01*
X392001Y486918D02*
G03*
X369999Y486918I-11001J-4318D01*
G01*
X392818Y355600D02*
G03*
X392505Y358304I-11818J0D01*
G01*
X369999Y351282D02*
G03*
X392818Y355600I11001J4318D01*
G01*
X361442Y533400D02*
G03*
X368300Y526542I6858J0D01*
G01*
X361442Y533400D02*
G03*
X368300Y526542I6858J0D01*
G01*
X366601Y486918D02*
G03*
X344095Y479896I-11001J-4318D01*
G01*
X338506Y474306D02*
G03*
X336677Y469900I4394J-4406D01*
G01*
X338500Y474300D02*
G03*
X336677Y469900I4400J-4400D01*
G01*
X344599Y351282D02*
G03*
X366601Y351282I11001J4318D01*
G01*
X300406Y398106D02*
G03*
X298577Y393700I4394J-4406D01*
G01*
X300400Y398100D02*
G03*
X298577Y393700I4400J-4400D01*
G01*
X319199Y351282D02*
G03*
X341201Y351282I11001J4318D01*
G01*
X298577Y391047D02*
G03*
X300482Y369999I6223J-10047D01*
G01*
X1217983Y752094D02*
X1236980D01*
X1218307Y749808D02*
X1236980D01*
X1218184Y747522D02*
X1236980D01*
X1217597Y745236D02*
X1236980D01*
X1217918Y726948D02*
X1236980D01*
X1218293Y724662D02*
X1236980D01*
X1218219Y722376D02*
X1236980D01*
X1217687Y720090D02*
X1236980D01*
X1217847Y701802D02*
X1236980D01*
X1220724Y685829D02*
Y782320D01*
X1218438Y688115D02*
Y782320D01*
X1223010Y683543D02*
Y782320D01*
X1218274Y699516D02*
X1236980D01*
X1218250Y697230D02*
X1236980D01*
X1223039Y683514D02*
X1236980D01*
X1224498Y681228D02*
X1236980D01*
X1218467Y688086D02*
X1236980D01*
X1220753Y685800D02*
X1236980D01*
X1224788Y678942D02*
X1236980D01*
X1224788Y676656D02*
X1236980D01*
X1224788Y674370D02*
X1236980D01*
X1224788Y672084D02*
X1236980D01*
X1224788Y669798D02*
X1236980D01*
X1224788Y667512D02*
X1236980D01*
X1224788Y665226D02*
X1236980D01*
X1224788Y662940D02*
X1236980D01*
X1224788Y660654D02*
X1236980D01*
X1227582Y596421D02*
Y782320D01*
X1225296Y598707D02*
Y782320D01*
X1229868Y594097D02*
Y782320D01*
X1224788Y658368D02*
X1236980D01*
X1224788Y599215D02*
Y679450D01*
Y656082D02*
X1236980D01*
X1224788Y653796D02*
X1236980D01*
X1215742Y756666D02*
X1236980D01*
X1217170Y754380D02*
X1236980D01*
X1216467Y742950D02*
X1236980D01*
X1213319Y758952D02*
X1236980D01*
X1214567Y740664D02*
X1236980D01*
X1215533Y731520D02*
X1236980D01*
X1211014Y738378D02*
X1236980D01*
X1212945Y733806D02*
X1236980D01*
X1213866Y758542D02*
Y782320D01*
X1211580Y759970D02*
Y782320D01*
X1216152Y756119D02*
Y782320D01*
X1209294Y760783D02*
Y782320D01*
X1207008Y761107D02*
Y782320D01*
X1213866Y733142D02*
Y740058D01*
X1216152Y730719D02*
Y742481D01*
X1204722Y760984D02*
Y782320D01*
X1211580Y734570D02*
Y738630D01*
X1217046Y729234D02*
X1236980D01*
X1216624Y717804D02*
X1236980D01*
X1214831Y715518D02*
X1236980D01*
X1211585Y713232D02*
X1236980D01*
X1201957Y710946D02*
X1236980D01*
X1216913Y704088D02*
X1236980D01*
X1217770Y694944D02*
X1236980D01*
X1212536Y708660D02*
X1236980D01*
X1215313Y706374D02*
X1236980D01*
X1213866Y707742D02*
Y714658D01*
X1216152Y705319D02*
Y717081D01*
X1211580Y709171D02*
Y713230D01*
X1216773Y692658D02*
X1236980D01*
X1216811Y689741D02*
X1223141Y683411D01*
X1227357Y596646D02*
X1236980D01*
X1229638Y594360D02*
X1236980D01*
X1230926Y592074D02*
X1236980D01*
X1224788Y651510D02*
X1236980D01*
X1224788Y649224D02*
X1236980D01*
X1231138Y589788D02*
X1236980D01*
X1231138Y587502D02*
X1236980D01*
X1231138Y585216D02*
X1236980D01*
X1231138Y582930D02*
X1236980D01*
X1231138Y580644D02*
X1236980D01*
X1231138Y578358D02*
X1236980D01*
X1231138Y576072D02*
X1236980D01*
X1231138Y573786D02*
X1236980D01*
X1231138Y571500D02*
X1236980D01*
X1231138Y569214D02*
X1236980D01*
X1231138Y566928D02*
X1236980D01*
X1231138Y564642D02*
X1236980D01*
X1231138Y562356D02*
X1236980D01*
X1231138Y560070D02*
X1236980D01*
X1231138Y557784D02*
X1236980D01*
X1231138Y555498D02*
X1236980D01*
X1231138Y553212D02*
X1236980D01*
X1231138Y550926D02*
X1236980D01*
X1231138Y548640D02*
X1236980D01*
X1231138Y546354D02*
X1236980D01*
X1231138Y544068D02*
X1236980D01*
X1231138Y541782D02*
X1236980D01*
X1231138Y539750D02*
Y590550D01*
X1231132Y539496D02*
X1236980D01*
X1230527Y537210D02*
X1236980D01*
X1228627Y534924D02*
X1236980D01*
X1226341Y532638D02*
X1236980D01*
X1224788Y646938D02*
X1236980D01*
X1224788Y644652D02*
X1236980D01*
X1224788Y642366D02*
X1236980D01*
X1224788Y640080D02*
X1236980D01*
X1224788Y637794D02*
X1236980D01*
X1224788Y635508D02*
X1236980D01*
X1224788Y633222D02*
X1236980D01*
X1224788Y630936D02*
X1236980D01*
X1224788Y628650D02*
X1236980D01*
X1224788Y626364D02*
X1236980D01*
X1224788Y624078D02*
X1236980D01*
X1224788Y621792D02*
X1236980D01*
X1224788Y619506D02*
X1236980D01*
X1224788Y617220D02*
X1236980D01*
X1224788Y614934D02*
X1236980D01*
X1224788Y612648D02*
X1236980D01*
X1224788Y610362D02*
X1236980D01*
X1224788Y608076D02*
X1236980D01*
X1224788Y605790D02*
X1236980D01*
X1224788Y603504D02*
X1236980D01*
X1224788Y601218D02*
X1236980D01*
X1225071Y598932D02*
X1236980D01*
X1224055Y530352D02*
X1236980D01*
X1220866Y528066D02*
X1236980D01*
X1188495Y521208D02*
X1236980D01*
X1183428Y525780D02*
X1236980D01*
X1186209Y523494D02*
X1236980D01*
X1224788Y599215D02*
X1229491Y594511D01*
X1223161Y529459D02*
X1229491Y535789D01*
X1195353Y514350D02*
X1236980D01*
X1197639Y512064D02*
X1236980D01*
X1190781Y518922D02*
X1236980D01*
X1193067Y516636D02*
X1236980D01*
X1202436Y760397D02*
Y782320D01*
X1200150Y759267D02*
Y782320D01*
X1197864Y757367D02*
Y782320D01*
X1187919Y758952D02*
X1199681D01*
X1190342Y756666D02*
X1197258D01*
X1202436Y734997D02*
Y738203D01*
X1200150Y733867D02*
Y739333D01*
X1189167Y740664D02*
X1198432D01*
X1185614Y738378D02*
X1201986D01*
X1191006Y755745D02*
Y782320D01*
X1188720Y758333D02*
Y782320D01*
X1195578Y753814D02*
Y782320D01*
X1184148Y760718D02*
Y782320D01*
X1186434Y759846D02*
Y782320D01*
X1191770Y754380D02*
X1195829D01*
X1192197Y745236D02*
X1195403D01*
X1191067Y742950D02*
X1196533D01*
X1184148Y735318D02*
Y737882D01*
X1197864Y731967D02*
Y741233D01*
X1191646Y729234D02*
X1195954D01*
X1195578Y728414D02*
Y744786D01*
X1187545Y733806D02*
X1200055D01*
X1190133Y731520D02*
X1197467D01*
X1197761Y715141D02*
X1203088Y709815D01*
X1191224Y717804D02*
X1196376D01*
X1192518Y726948D02*
X1195082D01*
X1191006Y730345D02*
Y742855D01*
X1193292Y716788D02*
Y782320D01*
X1186434Y734446D02*
Y738754D01*
X1188720Y732933D02*
Y740267D01*
X1192287Y720090D02*
X1195313D01*
X1195578Y716498D02*
Y719386D01*
X1190538Y716788D02*
X1193800D01*
X1181862Y761093D02*
Y782320D01*
X1179576Y761019D02*
Y782320D01*
X1181100Y749300D02*
Y759848D01*
X1177290Y760487D02*
Y782320D01*
X1181100Y749300D02*
X1191648D01*
X1181100Y738752D02*
Y749300D01*
X1170552D02*
X1181100D01*
X1175004Y759424D02*
Y782320D01*
X1172718Y757631D02*
Y782320D01*
X1170432Y754385D02*
Y782320D01*
Y728985D02*
Y744215D01*
X1168146Y716782D02*
Y782320D01*
X1177290Y735087D02*
Y738113D01*
X1175004Y734024D02*
Y739176D01*
X1172718Y732231D02*
Y740969D01*
X1168400Y716788D02*
X1171662D01*
X1165860Y716177D02*
Y782320D01*
X1159661Y694559D02*
X1170715Y705612D01*
X1166905Y701802D02*
X1169753D01*
X1168146Y679958D02*
Y703043D01*
X1164619Y699516D02*
X1169326D01*
X1162333Y697230D02*
X1169350D01*
X1163574Y714277D02*
Y782320D01*
X1161288Y711991D02*
Y782320D01*
X1159002Y709705D02*
Y782320D01*
X1156716Y707419D02*
Y782320D01*
X1165860Y679958D02*
Y700757D01*
X1163574Y679958D02*
Y698471D01*
X1154430Y705133D02*
Y782320D01*
X1161288Y679958D02*
Y696185D01*
X1193800Y680212D02*
X1197061D01*
X1195578Y677614D02*
Y680212D01*
X1192370Y676656D02*
X1195230D01*
X1192447Y669798D02*
X1195153D01*
X1191373Y678942D02*
X1196227D01*
X1189859Y664361D02*
X1195185Y669688D01*
X1193292Y667795D02*
Y680235D01*
X1184148Y684518D02*
Y687082D01*
X1184512Y687185D02*
X1189839Y681859D01*
X1186434Y658246D02*
Y662554D01*
X1188212Y657139D02*
Y660400D01*
X1184148Y659118D02*
Y661682D01*
X1181100Y647700D02*
Y658248D01*
X1195578Y514125D02*
Y527812D01*
X1193292Y516411D02*
Y527812D01*
X1197864Y511839D02*
Y527812D01*
X1184942Y608076D02*
X1188212D01*
Y606339D02*
Y638261D01*
X1188720Y520983D02*
Y527812D01*
X1191006Y518697D02*
Y527812D01*
X1185061Y524641D02*
X1191411Y518291D01*
X1185061Y524641D02*
X1191401Y518301D01*
X1184148Y608318D02*
Y636282D01*
X1186434Y607446D02*
Y637154D01*
X1181100Y637152D02*
Y647700D01*
X1181862Y608693D02*
Y635907D01*
X1181100Y596900D02*
Y607448D01*
X1186434Y523269D02*
Y527812D01*
X1177290Y684287D02*
Y687313D01*
X1175004Y683224D02*
Y688376D01*
X1172718Y681431D02*
Y690169D01*
X1177290Y658887D02*
Y661913D01*
X1175004Y657824D02*
Y662976D01*
X1170552Y647700D02*
X1181100D01*
X1160047Y694944D02*
X1169830D01*
X1170432Y679958D02*
Y693415D01*
X1159002Y679958D02*
Y693992D01*
X1172718Y656031D02*
Y664769D01*
X1170432Y652785D02*
Y666242D01*
X1156716Y679958D02*
Y693005D01*
X1154430Y679958D02*
Y692912D01*
X1179576Y608619D02*
Y635981D01*
X1177290Y608087D02*
Y636513D01*
X1175004Y607024D02*
Y637576D01*
X1172718Y605231D02*
Y639369D01*
X1178785Y515112D02*
X1183509Y510389D01*
X1170552Y596900D02*
X1181100D01*
X1178785Y515112D02*
X1183499Y510399D01*
X1168146Y589788D02*
Y666242D01*
X1165860Y589788D02*
Y666242D01*
X1163574Y589788D02*
Y666242D01*
X1161288Y589788D02*
Y666242D01*
X1170432Y601985D02*
Y642615D01*
X1159002Y589788D02*
Y666242D01*
X1156716Y589788D02*
Y666242D01*
X1154430Y589788D02*
Y666242D01*
X1218293Y496062D02*
X1236980D01*
X1220245Y464058D02*
X1236980D01*
X1222531Y461772D02*
X1236980D01*
X1218219Y493776D02*
X1236980D01*
X1218274Y470916D02*
X1236980D01*
X1224788Y457200D02*
X1236980D01*
X1224788Y454914D02*
X1236980D01*
X1224299Y459486D02*
X1236980D01*
X1224788Y452628D02*
X1236980D01*
X1223010Y461293D02*
Y529312D01*
X1218438Y465865D02*
Y527812D01*
X1220724Y463579D02*
Y528024D01*
X1224788Y450342D02*
X1236980D01*
X1224788Y448056D02*
X1236980D01*
X1224788Y445770D02*
X1236980D01*
X1224788Y443484D02*
X1236980D01*
X1224788Y441198D02*
X1236980D01*
X1236726Y314960D02*
Y782320D01*
X1236980Y314960D02*
Y782320D01*
X1224788Y438912D02*
X1236980D01*
X1224788Y436626D02*
X1236980D01*
X1224788Y434340D02*
X1236980D01*
X1224788Y432054D02*
X1236980D01*
X1224406Y429768D02*
X1236980D01*
X1222785Y427482D02*
X1236980D01*
X1234440Y314960D02*
Y782320D01*
X1232154Y314960D02*
Y782320D01*
X1229868Y314960D02*
Y536203D01*
X1227582Y314960D02*
Y533879D01*
X1225296Y314960D02*
Y531593D01*
X1224788Y431800D02*
Y457200D01*
X1223010Y314960D02*
Y427707D01*
X1212945Y505206D02*
X1236980D01*
X1215533Y502920D02*
X1236980D01*
X1217046Y500634D02*
X1236980D01*
X1199925Y509778D02*
X1236980D01*
X1202211Y507492D02*
X1236980D01*
X1217918Y498348D02*
X1236980D01*
X1217687Y491490D02*
X1236980D01*
X1216624Y489204D02*
X1236980D01*
X1214831Y486918D02*
X1236980D01*
X1213866Y504542D02*
Y527812D01*
X1211580Y505970D02*
Y527812D01*
X1216152Y502119D02*
Y527812D01*
X1209294Y506783D02*
Y527812D01*
X1207008Y507107D02*
Y527812D01*
X1204722Y506983D02*
Y527812D01*
X1202436Y507267D02*
Y527812D01*
X1191411Y518291D02*
X1203088Y506615D01*
X1212536Y480060D02*
X1236980D01*
X1215313Y477774D02*
X1236980D01*
X1216913Y475488D02*
X1236980D01*
X1211585Y484632D02*
X1236980D01*
X1195607Y482346D02*
X1236980D01*
X1217847Y473202D02*
X1236980D01*
X1218250Y468630D02*
X1236980D01*
X1217959Y466344D02*
X1236980D01*
X1217815Y466488D02*
X1223141Y461161D01*
X1213866Y479142D02*
Y486058D01*
X1216152Y476719D02*
Y488481D01*
X1211580Y480570D02*
Y484630D01*
X1212088Y416785D02*
X1223141Y427839D01*
X1202436Y480997D02*
Y484203D01*
X1220499Y425196D02*
X1236980D01*
X1218213Y422910D02*
X1236980D01*
X1217597Y397764D02*
X1236980D01*
X1215927Y420624D02*
X1236980D01*
X1216467Y400050D02*
X1236980D01*
X1218184Y395478D02*
X1236980D01*
X1218307Y393192D02*
X1236980D01*
X1217983Y390906D02*
X1236980D01*
X1217170Y388620D02*
X1236980D01*
X1216152Y400519D02*
Y420849D01*
Y375119D02*
Y386881D01*
X1217501Y372618D02*
X1236980D01*
X1215742Y386334D02*
X1236980D01*
X1216301Y374904D02*
X1236980D01*
X1218142Y370332D02*
X1236980D01*
X1218315Y368046D02*
X1236980D01*
X1218042Y365760D02*
X1236980D01*
X1217288Y363474D02*
X1236980D01*
X1218318Y354330D02*
X1236980D01*
X1218318Y352044D02*
X1236980D01*
X1218318Y349758D02*
X1236980D01*
X1215938Y361188D02*
X1236980D01*
X1218318Y347472D02*
X1236980D01*
X1218318Y345186D02*
X1236980D01*
X1218318Y342900D02*
X1236980D01*
X1218318Y340614D02*
X1236980D01*
X1218318Y338328D02*
X1236980D01*
X1220724Y314960D02*
Y425421D01*
X1218438Y314960D02*
Y423135D01*
X1216152Y354718D02*
Y361481D01*
X1218318Y331082D02*
Y354718D01*
Y336042D02*
X1236980D01*
X1218318Y333756D02*
X1236980D01*
X1218318Y331470D02*
X1236980D01*
X1216152Y314960D02*
Y331082D01*
X1213641Y418338D02*
X1236980D01*
X1212088Y416052D02*
X1236980D01*
X1212088Y413766D02*
X1236980D01*
X1212088Y411480D02*
X1236980D01*
X1212088Y409194D02*
X1236980D01*
X1214567Y402336D02*
X1236980D01*
X1213319Y384048D02*
X1236980D01*
X1212088Y406908D02*
X1236980D01*
X1212088Y404622D02*
X1236980D01*
X1213866Y402942D02*
Y418563D01*
X1212088Y404113D02*
Y416785D01*
X1211580Y378970D02*
Y383030D01*
X1210342Y379476D02*
X1236980D01*
X1202436Y379397D02*
Y382603D01*
X1199388Y381762D02*
X1236980D01*
X1199388Y379476D02*
X1202658D01*
X1214287Y377190D02*
X1236980D01*
X1213866Y377542D02*
Y384458D01*
X1213665Y358902D02*
X1236980D01*
X1208275Y356616D02*
X1236980D01*
X1213866Y354718D02*
Y359058D01*
X1202585Y354718D02*
X1218318D01*
X1194682Y331082D02*
X1218318D01*
X1211580Y354718D02*
Y357630D01*
X1213866Y314960D02*
Y331082D01*
X1200687Y356616D02*
X1204725D01*
X1199388Y357915D02*
X1202585Y354718D01*
X1211580Y314960D02*
Y331082D01*
X1209294Y314960D02*
Y331082D01*
X1207008Y314960D02*
Y331082D01*
X1204722Y314960D02*
Y331082D01*
X1200150Y509553D02*
Y527812D01*
X1192518Y498348D02*
X1195082D01*
X1192287Y491490D02*
X1195313D01*
X1183509Y510389D02*
X1195185Y498712D01*
X1191224Y489204D02*
X1196376D01*
X1200150Y479867D02*
Y485333D01*
X1197864Y480089D02*
Y487233D01*
X1193321Y484632D02*
X1201415D01*
X1197893Y480060D02*
X1200463D01*
X1184148Y506718D02*
Y509749D01*
X1181862Y507093D02*
Y512035D01*
X1181100Y495300D02*
Y505848D01*
X1179576Y507019D02*
Y514321D01*
X1177290Y506487D02*
Y515112D01*
X1193292Y484661D02*
Y500605D01*
X1195578Y482375D02*
Y490786D01*
X1181100Y495300D02*
X1191648D01*
X1191485Y451612D02*
X1194682Y448415D01*
Y440585D02*
Y448415D01*
X1193292Y439195D02*
Y449805D01*
X1191411Y486541D02*
X1198956Y478997D01*
X1189859Y435761D02*
X1194682Y440585D01*
X1184148Y405118D02*
Y433082D01*
X1181862Y405493D02*
Y432707D01*
X1186434Y404246D02*
Y433954D01*
X1178353Y432054D02*
X1188218D01*
X1179576Y405419D02*
Y432781D01*
X1185614Y404622D02*
X1188212D01*
Y403139D02*
Y431800D01*
X1177290Y404887D02*
Y430991D01*
X1181100Y393700D02*
Y404248D01*
X1175004Y505424D02*
Y515112D01*
X1172718Y503631D02*
Y515112D01*
X1170432Y500385D02*
Y515112D01*
X1170552Y495300D02*
X1181100D01*
X1176067Y429768D02*
X1188212D01*
X1173781Y427482D02*
X1188212D01*
X1168400Y488188D02*
X1171662D01*
X1171495Y425196D02*
X1188212D01*
X1168146Y488182D02*
Y515112D01*
X1165860Y487577D02*
Y515112D01*
X1163574Y485677D02*
Y515112D01*
X1161288Y483391D02*
Y515112D01*
X1159002Y481105D02*
Y515112D01*
X1156716Y478819D02*
Y515112D01*
X1154430Y476533D02*
Y515112D01*
X1169209Y422910D02*
X1188212D01*
X1168908Y420624D02*
X1188212D01*
X1168908Y418338D02*
X1188212D01*
X1168908Y416052D02*
X1188212D01*
X1168908Y413766D02*
X1188212D01*
X1168908Y411480D02*
X1188212D01*
X1168908Y409194D02*
X1188212D01*
X1168908Y406908D02*
X1188212D01*
X1175004Y403824D02*
Y428705D01*
X1172718Y402031D02*
Y426419D01*
X1168908Y422609D02*
X1179144Y432845D01*
X1170432Y398785D02*
Y424133D01*
X1168908Y404622D02*
X1176586D01*
X1168908Y349758D02*
Y422609D01*
X1155192Y342900D02*
Y405132D01*
X1154430Y314960D02*
Y405132D01*
X1200150Y378267D02*
Y383733D01*
X1199388Y377738D02*
Y384262D01*
X1188212Y377738D02*
Y384262D01*
X1184942Y379476D02*
X1188212D01*
Y355600D02*
Y358862D01*
X1189859Y351639D02*
X1194682Y346815D01*
X1182875Y356616D02*
X1188212D01*
X1184148Y379718D02*
Y382282D01*
X1181100Y383152D02*
Y393700D01*
X1186434Y378846D02*
Y383154D01*
X1177290Y379487D02*
Y382513D01*
X1175004Y378424D02*
Y383576D01*
X1184148Y354318D02*
Y356882D01*
X1186434Y353446D02*
Y357754D01*
X1184103Y354330D02*
X1188358D01*
X1177290Y354087D02*
Y357113D01*
X1191998Y338328D02*
X1194682D01*
Y331082D02*
Y346815D01*
X1202436Y314960D02*
Y331082D01*
X1190725Y336042D02*
X1194682D01*
X1188587Y333756D02*
X1194682D01*
X1200150Y314960D02*
Y331082D01*
X1197864Y314960D02*
Y331082D01*
X1184103Y331470D02*
X1194682D01*
X1195578Y314960D02*
Y331082D01*
X1193292Y314960D02*
Y348205D01*
X1191006Y314960D02*
Y336455D01*
X1188720Y314960D02*
Y333867D01*
X1186434Y314960D02*
Y332354D01*
X1184148Y314960D02*
Y331482D01*
X1181862Y314960D02*
Y331107D01*
X1179576Y314960D02*
Y331181D01*
X1177290Y314960D02*
Y331713D01*
X1170552Y393700D02*
X1181100D01*
X1168908Y384048D02*
X1174281D01*
X1168908Y381762D02*
X1188212D01*
X1168908Y379476D02*
X1177258D01*
X1168908Y377190D02*
X1173313D01*
X1175004Y353024D02*
Y358176D01*
X1168908Y356616D02*
X1179325D01*
X1168908Y354330D02*
X1178097D01*
X1172718Y376631D02*
Y385369D01*
X1170432Y373385D02*
Y388615D01*
Y349758D02*
Y363215D01*
X1168908Y402336D02*
X1173033D01*
X1168908Y386334D02*
X1171858D01*
X1168908Y361188D02*
X1171662D01*
X1172718Y351231D02*
Y359969D01*
X1168908Y358902D02*
X1173935D01*
X1168908Y352044D02*
X1173613D01*
X1168908Y349758D02*
X1171475D01*
X1168908D02*
X1171475D01*
X1162050Y336042D02*
X1171475D01*
X1175004Y314960D02*
Y332776D01*
X1172718Y314960D02*
Y334569D01*
X1162050Y336042D02*
X1171475D01*
X1170432Y314960D02*
Y336042D01*
X1159002Y314960D02*
Y336757D01*
X1156716Y314960D02*
Y338590D01*
X1168146Y314960D02*
Y336042D01*
X1165860Y314960D02*
Y336042D01*
X1163574Y314960D02*
Y336042D01*
X1161288Y314960D02*
Y336085D01*
X1152144Y704088D02*
Y782320D01*
X1149858Y704088D02*
Y782320D01*
X1147572Y704088D02*
Y782320D01*
X1061720D02*
X1236980D01*
X1145286Y704088D02*
Y782320D01*
X1153385Y704088D02*
X1164439Y715141D01*
X1130300Y704088D02*
X1153385D01*
X1061720Y781812D02*
X1236980D01*
X1130300Y704088D02*
X1153385D01*
X1143000D02*
Y782320D01*
X1140714Y704088D02*
Y782320D01*
X1138428Y704088D02*
Y782320D01*
X1136142Y704088D02*
Y782320D01*
X1133856Y704088D02*
Y782320D01*
X1131570Y704088D02*
Y782320D01*
X1129284Y703995D02*
Y782320D01*
X1126998Y703008D02*
Y782320D01*
X1152144Y679958D02*
Y692912D01*
X1149858Y679958D02*
Y692912D01*
X1147572Y679958D02*
Y692912D01*
X1132615D02*
X1155700D01*
X1145286Y679958D02*
Y692912D01*
X1143000Y679958D02*
Y692912D01*
X1140714Y679958D02*
Y692912D01*
X1132361Y692658D02*
X1170827D01*
X1130075Y690372D02*
X1172521D01*
X1138428Y679958D02*
Y692912D01*
X1136142Y679958D02*
Y692912D01*
X1124712Y700815D02*
Y782320D01*
X1100959Y677061D02*
X1126339Y702441D01*
X1133856Y679958D02*
Y692912D01*
X1131570Y679958D02*
Y691867D01*
X1129284Y679882D02*
Y689581D01*
X1110488Y670785D02*
X1132615Y692912D01*
X1061720Y779526D02*
X1236980D01*
X1061720Y777240D02*
X1236980D01*
X1061720Y774954D02*
X1236980D01*
X1061720Y772668D02*
X1236980D01*
X1061720Y770382D02*
X1236980D01*
X1061720Y768096D02*
X1236980D01*
X1061720Y765810D02*
X1236980D01*
X1061720Y763524D02*
X1236980D01*
X1061720Y761238D02*
X1236980D01*
X1061720Y758952D02*
X1174281D01*
X1061720Y756666D02*
X1171858D01*
X1061720Y754380D02*
X1170430D01*
X1061720Y752094D02*
X1169617D01*
X1061720Y749808D02*
X1169293D01*
X1061720Y747522D02*
X1169417D01*
X1061720Y745236D02*
X1170003D01*
X1061720Y742950D02*
X1171133D01*
X1061720Y740664D02*
X1173033D01*
X1061720Y736092D02*
X1236980D01*
X1061720Y738378D02*
X1176586D01*
X1061720Y733806D02*
X1174655D01*
X1061720Y731520D02*
X1172067D01*
X1061720Y729234D02*
X1170554D01*
X1061720Y726948D02*
X1169682D01*
X1061720Y724662D02*
X1169307D01*
X1061720Y720090D02*
X1169913D01*
X1061720Y717804D02*
X1170976D01*
X1061720Y722376D02*
X1169381D01*
X1061720Y715518D02*
X1164853D01*
X1061720Y713232D02*
X1162529D01*
X1061720Y710946D02*
X1160243D01*
X1061720Y708660D02*
X1157957D01*
X1061720Y706374D02*
X1155671D01*
X1061720Y704088D02*
X1130300D01*
X1061720Y701802D02*
X1125699D01*
X1129242Y658368D02*
X1176015D01*
X1129839Y662940D02*
X1175063D01*
X1129083Y637794D02*
X1174655D01*
X1127789Y688086D02*
X1175513D01*
X1129407Y635508D02*
X1188212D01*
X1129284Y633222D02*
X1188212D01*
X1129393Y610362D02*
X1188212D01*
X1128697Y630936D02*
X1188212D01*
X1129018Y612648D02*
X1188212D01*
X1130300Y679958D02*
X1171475D01*
X1133141Y666242D02*
X1171475D01*
X1132125Y665226D02*
X1172287D01*
X1129255Y662356D02*
X1133141Y666242D01*
X1129284Y636775D02*
Y658625D01*
X1128601Y656082D02*
X1172769D01*
X1129284Y611375D02*
Y633225D01*
X1127401Y653796D02*
X1170976D01*
X1128270Y640080D02*
X1172067D01*
X1152144Y589788D02*
Y666242D01*
X1149858Y589788D02*
Y666242D01*
X1147572Y589498D02*
Y666242D01*
X1129319Y608076D02*
X1177258D01*
X1128787Y605790D02*
X1173313D01*
X1149350Y589788D02*
X1171662D01*
X1149350D02*
X1171662D01*
X1145286Y588039D02*
Y666242D01*
X1143000Y585753D02*
Y666242D01*
X1140714Y583467D02*
Y666242D01*
X1129284Y585975D02*
Y607825D01*
X1138428Y581181D02*
Y666242D01*
X1129374Y585216D02*
X1142463D01*
X1129350Y582930D02*
X1140177D01*
X1128947Y587502D02*
X1144749D01*
X1128870Y580644D02*
X1137891D01*
X1125503Y685800D02*
X1185897D01*
X1123217Y683514D02*
X1175513D01*
X1125387Y651510D02*
X1169913D01*
X1120931Y681228D02*
X1172521D01*
X1121442Y649224D02*
X1169381D01*
X1126842Y642366D02*
X1170554D01*
X1127567Y628650D02*
X1188212D01*
X1110488Y646938D02*
X1169307D01*
X1124419Y644652D02*
X1169682D01*
X1126998Y679111D02*
Y687295D01*
X1118645Y678942D02*
X1126708D01*
X1124712Y677211D02*
Y685009D01*
X1119556Y672055D02*
X1125451Y677949D01*
X1126998Y642165D02*
Y653235D01*
X1125667Y626364D02*
X1188212D01*
X1124045Y619506D02*
X1188212D01*
X1126633Y617220D02*
X1188212D01*
X1122114Y624078D02*
X1188212D01*
X1110465Y621792D02*
X1188212D01*
X1128146Y614934D02*
X1188212D01*
X1127724Y603504D02*
X1171299D01*
X1125931Y601218D02*
X1170099D01*
X1126413Y592074D02*
X1170312D01*
X1126998Y616765D02*
Y627835D01*
Y591365D02*
Y602435D01*
X1123636Y594360D02*
X1169558D01*
X1128013Y589788D02*
X1149350D01*
X1122685Y598932D02*
X1169458D01*
X1085088Y596646D02*
X1169285D01*
X1122426Y698529D02*
Y782320D01*
X1120140Y696243D02*
Y782320D01*
X1122426Y674925D02*
Y682723D01*
X1117854Y693957D02*
Y782320D01*
X1115568Y691671D02*
Y782320D01*
X1120140Y672639D02*
Y680437D01*
X1117854Y672215D02*
Y678151D01*
X1116359Y676656D02*
X1124157D01*
X1114073Y674370D02*
X1121871D01*
X1113282Y689385D02*
Y782320D01*
X1110996Y687099D02*
Y782320D01*
X1108710Y684813D02*
Y782320D01*
X1106424Y682527D02*
Y782320D01*
X1104138Y680241D02*
Y782320D01*
X1101852Y677955D02*
Y782320D01*
X1099566Y674766D02*
Y782320D01*
X1111787Y672084D02*
X1115825D01*
X1115568Y672042D02*
Y675865D01*
X1124712Y644438D02*
Y650962D01*
X1110996Y644801D02*
Y650599D01*
X1122426Y645788D02*
Y649612D01*
X1113282Y646001D02*
Y649399D01*
X1110488Y649224D02*
X1113758D01*
X1110488Y644438D02*
Y650962D01*
X1097280Y671070D02*
Y782320D01*
X1094994Y671883D02*
Y782320D01*
X1099312Y669838D02*
Y673100D01*
X1092708Y672207D02*
Y782320D01*
X1093975Y672084D02*
X1099312D01*
X1097280Y645670D02*
Y649730D01*
X1099312Y644438D02*
Y650962D01*
X1092200Y660400D02*
Y670948D01*
Y649852D02*
Y660400D01*
X1061720Y699516D02*
X1123413D01*
X1061720Y697230D02*
X1121127D01*
X1061720Y694944D02*
X1118841D01*
X1061720Y692658D02*
X1116555D01*
X1061720Y690372D02*
X1114269D01*
X1061720Y688086D02*
X1111983D01*
X1061720Y685800D02*
X1109697D01*
X1061720Y683514D02*
X1107411D01*
X1061720Y681228D02*
X1105125D01*
X1090422Y672084D02*
Y782320D01*
X1088136Y671497D02*
Y782320D01*
X1085850Y670367D02*
Y782320D01*
X1061720Y678942D02*
X1102839D01*
X1083564Y668467D02*
Y782320D01*
X1061720Y676656D02*
X1100590D01*
X1061720Y674370D02*
X1099458D01*
X1061720Y672084D02*
X1090425D01*
X1061720Y669798D02*
X1085035D01*
X1081652Y660400D02*
X1092200D01*
X1081278Y664914D02*
Y782320D01*
X1061720Y667512D02*
X1082762D01*
X1061720Y665226D02*
X1081412D01*
X1085850Y644967D02*
Y650433D01*
X1083564Y643067D02*
Y652333D01*
X1061720Y653796D02*
X1082399D01*
X1061720Y651510D02*
X1084413D01*
X1078992Y629695D02*
Y782320D01*
X1076706Y627409D02*
Y782320D01*
X1061720Y662940D02*
X1080658D01*
X1074420Y624628D02*
Y782320D01*
X1061720Y660654D02*
X1080385D01*
X1081278Y639514D02*
Y655886D01*
X1061720Y658368D02*
X1080558D01*
X1061720Y656082D02*
X1081199D01*
X1122426Y620388D02*
Y624212D01*
X1113282Y620601D02*
Y623999D01*
X1124712Y619039D02*
Y625561D01*
X1110488Y622300D02*
Y625561D01*
X1110996Y619401D02*
Y625199D01*
X1110488Y624078D02*
X1113086D01*
X1097285Y598932D02*
X1112515D01*
X1103515Y613012D02*
X1108841Y618339D01*
X1103618Y612648D02*
X1106182D01*
X1096042Y649224D02*
X1099312D01*
X1088136Y646097D02*
Y649303D01*
X1103387Y605790D02*
X1106413D01*
X1102324Y603504D02*
X1107476D01*
X1100531Y601218D02*
X1109269D01*
X1122426Y594988D02*
Y598812D01*
X1110996Y594001D02*
Y599799D01*
X1124712Y593638D02*
Y600162D01*
X1108710Y591987D02*
Y601813D01*
X1106424Y588042D02*
Y605758D01*
X1113282Y595201D02*
Y598599D01*
X1102613Y589788D02*
X1107187D01*
X1098236Y594360D02*
X1111563D01*
X1101013Y592074D02*
X1108787D01*
X1099566Y593442D02*
Y600358D01*
X1101852Y591019D02*
Y602781D01*
X1097280Y594870D02*
Y598929D01*
X1085088Y593638D02*
Y600162D01*
X1103547Y587502D02*
X1106253D01*
X1103470Y580644D02*
X1106330D01*
X1088136Y595297D02*
Y598503D01*
X1085850Y594167D02*
Y599633D01*
X1061720Y646938D02*
X1099312D01*
X1061720Y649224D02*
X1088358D01*
X1061720Y644652D02*
X1085381D01*
X1061720Y642366D02*
X1082958D01*
X1061720Y640080D02*
X1081529D01*
X1075559Y626261D02*
X1080885Y631588D01*
X1061720Y637794D02*
X1080717D01*
X1061720Y635508D02*
X1080393D01*
X1061720Y633222D02*
X1080517D01*
X1061720Y630936D02*
X1080233D01*
X1061720Y628650D02*
X1077947D01*
X1061720Y626364D02*
X1075661D01*
X1061720Y624078D02*
X1074202D01*
X1061720Y621792D02*
X1073912D01*
X1061720Y619506D02*
X1073912D01*
X1061720Y617220D02*
X1073912D01*
X1061720Y614934D02*
X1073912D01*
X1061720Y612648D02*
X1073912D01*
X1061720Y610362D02*
X1073912D01*
X1061720Y608076D02*
X1073912D01*
X1061720Y605790D02*
X1073912D01*
X1061720Y603504D02*
X1073912D01*
X1061720Y601218D02*
X1073912D01*
X1061720Y598932D02*
X1073912D01*
X1061720Y596646D02*
X1073912D01*
X1061720Y594360D02*
X1073912D01*
X1061720Y592074D02*
X1073912D01*
X1061720Y589788D02*
X1073912D01*
X1061720Y587502D02*
X1073912D01*
X1061720Y585216D02*
X1073912D01*
X1061720Y582930D02*
X1073912D01*
X1128013Y527812D02*
X1219200D01*
X1128697Y512064D02*
X1181833D01*
X1129284Y509778D02*
X1184119D01*
X1127038Y526288D02*
X1181100D01*
X1127567Y514350D02*
X1179547D01*
X1129407Y507492D02*
X1186405D01*
X1129083Y505206D02*
X1174655D01*
X1128270Y502920D02*
X1172067D01*
X1127401Y489204D02*
X1170976D01*
X1134335Y577088D02*
X1145389Y588141D01*
X1136142Y578895D02*
Y666242D01*
X1133856Y577088D02*
Y666242D01*
X1131570Y577088D02*
Y664671D01*
X1129284Y577088D02*
Y582425D01*
Y509775D02*
Y515112D01*
X1127873Y578358D02*
X1135605D01*
X1127038Y577088D02*
X1134335D01*
X1153385Y475488D02*
X1164439Y486541D01*
X1152144Y475488D02*
Y515112D01*
X1149858Y475488D02*
Y515112D01*
X1128601Y486918D02*
X1164853D01*
X1147572Y475488D02*
Y515112D01*
X1129242Y484632D02*
X1162529D01*
X1129415Y482346D02*
X1160243D01*
X1129142Y480060D02*
X1157957D01*
X1128388Y477774D02*
X1155671D01*
X1145286Y475488D02*
Y515112D01*
X1143000Y475488D02*
Y515112D01*
X1140714Y475488D02*
Y515112D01*
X1138428Y475488D02*
Y515112D01*
X1136142Y475488D02*
Y515112D01*
X1133856Y475488D02*
Y515112D01*
X1131570Y475488D02*
Y515112D01*
X1129284Y484375D02*
Y506225D01*
Y475488D02*
Y480825D01*
X1127038Y515112D02*
X1178785D01*
X1126842Y500634D02*
X1170554D01*
X1124419Y498348D02*
X1169682D01*
X1122426Y493388D02*
Y497212D01*
X1099019Y498348D02*
X1110781D01*
X1061720Y496062D02*
X1169307D01*
X1104900Y577088D02*
X1108161D01*
X1106424D02*
Y580358D01*
Y511842D02*
Y515112D01*
X1102473Y578358D02*
X1107327D01*
X1101638Y515112D02*
X1108161D01*
X1103297Y512064D02*
X1106503D01*
X1102870Y502920D02*
X1106929D01*
X1102167Y514350D02*
X1107633D01*
X1101442Y500634D02*
X1108358D01*
X1121442Y493776D02*
X1169381D01*
X1124712Y492038D02*
Y498562D01*
X1126998Y489765D02*
Y500835D01*
X1113282Y493601D02*
Y496999D01*
X1127038Y475488D02*
X1153385D01*
X1125387Y491490D02*
X1169913D01*
X1127038Y475488D02*
X1153385D01*
X1110996Y492401D02*
Y498199D01*
X1108710Y490387D02*
Y500213D01*
X1096042Y493776D02*
X1113758D01*
X1106424Y486442D02*
Y504158D01*
X1103201Y486918D02*
X1106599D01*
X1103515Y479188D02*
X1107215Y475488D01*
X1099987Y491490D02*
X1109813D01*
X1102001Y489204D02*
X1107799D01*
X1133722Y405132D02*
X1155192D01*
X1152144Y314960D02*
Y405132D01*
X1149858Y314960D02*
Y405132D01*
X1061720Y404622D02*
X1155192D01*
X1061720Y402336D02*
X1155192D01*
X1061720Y400050D02*
X1155192D01*
X1061720Y397764D02*
X1155192D01*
X1061720Y395478D02*
X1155192D01*
X1061720Y393192D02*
X1155192D01*
X1129135Y419982D02*
X1132689Y416429D01*
X1105782Y419982D02*
X1129135D01*
X1133722Y405132D02*
Y415611D01*
X1061720Y418338D02*
X1130779D01*
X1061720Y413766D02*
X1133722D01*
X1061720Y411480D02*
X1133722D01*
X1147572Y314960D02*
Y405132D01*
X1061720Y409194D02*
X1133722D01*
X1061720Y406908D02*
X1133722D01*
X1145286Y314960D02*
Y405132D01*
X1143000Y314960D02*
Y405132D01*
X1131570Y314960D02*
Y417547D01*
X1129284Y314960D02*
Y419833D01*
X1126998Y314960D02*
Y419982D01*
X1140714Y314960D02*
Y405132D01*
X1138428Y314960D02*
Y405132D01*
X1136142Y314960D02*
Y405132D01*
X1133856Y314960D02*
Y405132D01*
X1124712Y314960D02*
Y419982D01*
X1122426Y314960D02*
Y419982D01*
X1120140Y314960D02*
Y419982D01*
X1117854Y314960D02*
Y419982D01*
X1115568Y314960D02*
Y419982D01*
X1113282Y314960D02*
Y419982D01*
X1110996Y314960D02*
Y419982D01*
X1108710Y314960D02*
Y419982D01*
X1061720Y390906D02*
X1155192D01*
X1061720Y388620D02*
X1155192D01*
X1061720Y386334D02*
X1155192D01*
X1061720Y384048D02*
X1155192D01*
X1061720Y381762D02*
X1155192D01*
X1061720Y379476D02*
X1155192D01*
X1061720Y377190D02*
X1155192D01*
X1061720Y374904D02*
X1155192D01*
X1061720Y372618D02*
X1155192D01*
X1061720Y370332D02*
X1155192D01*
X1061720Y368046D02*
X1155192D01*
X1061720Y365760D02*
X1155192D01*
X1061720Y363474D02*
X1155192D01*
X1061720Y361188D02*
X1155192D01*
X1061720Y358902D02*
X1155192D01*
X1061720Y356616D02*
X1155192D01*
X1061720Y354330D02*
X1155192D01*
X1061720Y352044D02*
X1155192D01*
X1061720Y329184D02*
X1236980D01*
X1061720Y331470D02*
X1178097D01*
X1061720Y326898D02*
X1236980D01*
X1061720Y324612D02*
X1236980D01*
X1061720Y322326D02*
X1236980D01*
X1061720Y320040D02*
X1236980D01*
X1061720Y317754D02*
X1236980D01*
X1061720Y315468D02*
X1236980D01*
X1061720Y314960D02*
X1236980D01*
X1061720Y349758D02*
X1155192D01*
X1061720Y347472D02*
X1155192D01*
X1061720Y345186D02*
X1155192D01*
X1061720Y342900D02*
X1155192D01*
X1061720Y340614D02*
X1155584D01*
X1061720Y338328D02*
X1156938D01*
X1061720Y336042D02*
X1162050D01*
X1061720Y333756D02*
X1173613D01*
X1104138Y577036D02*
Y613635D01*
X1095612Y570115D02*
X1100939Y575441D01*
X1085088Y571500D02*
X1096997D01*
X1088136Y569897D02*
Y573103D01*
X1085850Y568767D02*
Y574233D01*
X1085088Y568238D02*
Y574762D01*
X1061720Y580644D02*
X1073912D01*
Y527050D02*
Y622300D01*
X1075559Y523089D02*
X1081889Y516759D01*
X1081278Y512514D02*
Y517369D01*
X1101852Y489419D02*
Y501181D01*
X1099566Y491842D02*
Y498758D01*
X1104138Y478565D02*
Y515112D01*
X1083564Y490667D02*
Y499933D01*
X1081278Y487114D02*
Y503486D01*
X1097280Y493270D02*
Y497329D01*
X1088136Y493697D02*
Y496903D01*
X1085850Y492567D02*
Y498033D01*
X1072134Y314960D02*
Y782320D01*
X1069848Y314960D02*
Y782320D01*
X1067562Y314960D02*
Y782320D01*
X1065276Y314960D02*
Y782320D01*
X1062990Y314960D02*
Y782320D01*
X1078992Y314960D02*
Y519655D01*
X1076706Y314960D02*
Y521941D01*
X1074420Y314960D02*
Y524722D01*
X1061720Y314960D02*
Y782320D01*
Y578358D02*
X1073912D01*
X1061720Y576072D02*
X1073912D01*
X1061720Y573786D02*
X1073912D01*
X1061720Y571500D02*
X1073912D01*
X1061720Y569214D02*
X1073912D01*
X1061720Y566928D02*
X1073912D01*
X1061720Y564642D02*
X1073912D01*
X1061720Y562356D02*
X1073912D01*
X1061720Y560070D02*
X1073912D01*
X1061720Y557784D02*
X1073912D01*
X1061720Y555498D02*
X1073912D01*
X1061720Y553212D02*
X1073912D01*
X1061720Y550926D02*
X1073912D01*
X1061720Y548640D02*
X1073912D01*
X1061720Y546354D02*
X1073912D01*
X1061720Y544068D02*
X1073912D01*
X1061720Y541782D02*
X1073912D01*
X1061720Y539496D02*
X1073912D01*
X1061720Y514350D02*
X1082233D01*
X1061720Y518922D02*
X1079725D01*
X1061720Y512064D02*
X1081103D01*
X1061720Y509778D02*
X1080517D01*
X1061720Y507492D02*
X1080393D01*
X1061720Y505206D02*
X1080717D01*
X1061720Y502920D02*
X1081529D01*
X1061720Y500634D02*
X1082958D01*
X1061720Y498348D02*
X1085381D01*
X1061720Y537210D02*
X1073912D01*
X1061720Y534924D02*
X1073912D01*
X1061720Y532638D02*
X1073912D01*
X1061720Y530352D02*
X1073912D01*
X1061720Y528066D02*
X1073912D01*
X1061720Y525780D02*
X1074058D01*
X1061720Y523494D02*
X1075190D01*
X1061720Y521208D02*
X1077439D01*
X1099744Y448103D02*
X1105782Y442065D01*
X1101852Y438619D02*
Y445995D01*
X1095203Y445770D02*
X1102077D01*
X1099566Y441042D02*
Y447958D01*
X1101638Y438912D02*
X1105782D01*
X1102988Y436626D02*
X1105782D01*
X1093975Y443484D02*
X1104363D01*
X1099365Y441198D02*
X1105782D01*
X1087882Y468201D02*
Y471599D01*
X1085850Y467167D02*
Y472633D01*
X1083564Y465267D02*
Y474533D01*
X1081278Y461714D02*
Y478086D01*
Y436314D02*
Y452686D01*
X1097280Y442471D02*
Y446530D01*
X1088136Y442897D02*
Y446103D01*
X1085850Y441767D02*
Y447233D01*
X1083564Y439868D02*
Y449132D01*
X1103201Y427482D02*
X1105782D01*
Y419982D02*
Y442065D01*
X1104138Y314960D02*
Y443709D01*
X1102001Y425196D02*
X1105782D01*
X1101852Y314960D02*
Y424981D01*
X1099987Y422910D02*
X1105782D01*
X1106424Y314960D02*
Y419982D01*
X1096042Y420624D02*
X1105782D01*
X1099566Y314960D02*
Y422558D01*
X1097280Y314960D02*
Y421129D01*
X1085850Y314960D02*
Y421833D01*
X1083564Y314960D02*
Y423732D01*
X1081278Y314960D02*
Y427286D01*
X1094994Y314960D02*
Y420317D01*
X1092708Y314960D02*
Y419993D01*
X1090422Y314960D02*
Y420117D01*
X1088136Y314960D02*
Y420703D01*
X1061720Y493776D02*
X1088358D01*
X1061720Y491490D02*
X1084413D01*
X1061720Y489204D02*
X1082399D01*
X1061720Y475488D02*
X1082762D01*
X1061720Y473202D02*
X1085035D01*
X1061720Y470916D02*
X1087882D01*
X1061720Y468630D02*
X1087882D01*
X1061720Y466344D02*
X1084713D01*
X1061720Y464058D02*
X1082575D01*
X1061720Y486918D02*
X1081199D01*
X1061720Y484632D02*
X1080558D01*
X1061720Y482346D02*
X1080385D01*
X1061720Y480060D02*
X1080658D01*
X1061720Y477774D02*
X1081412D01*
X1061720Y461772D02*
X1081302D01*
X1061720Y459486D02*
X1080605D01*
X1061720Y457200D02*
X1080382D01*
X1061720Y454914D02*
X1080605D01*
X1061720Y450342D02*
X1082575D01*
X1061720Y448056D02*
X1084713D01*
X1061720Y445770D02*
X1089197D01*
X1061720Y443484D02*
X1090425D01*
X1061720Y441198D02*
X1085035D01*
X1061720Y422910D02*
X1084413D01*
X1061720Y420624D02*
X1088358D01*
X1061720Y452628D02*
X1081302D01*
X1061720Y438912D02*
X1082762D01*
X1061720Y436626D02*
X1081412D01*
X1061720Y434340D02*
X1080658D01*
X1061720Y432054D02*
X1080385D01*
X1061720Y429768D02*
X1080558D01*
X1061720Y427482D02*
X1081199D01*
X1061720Y425196D02*
X1082399D01*
X1027938Y782320D02*
X1031240D01*
X1027938Y781812D02*
X1031240D01*
X1027938Y779526D02*
X1031240D01*
X1027938Y777240D02*
X1031240D01*
X1027938Y774954D02*
X1031240D01*
X1027938Y772668D02*
X1031240D01*
X1027938Y770382D02*
X1031240D01*
X1027938Y768096D02*
X1031240D01*
X1027938Y765810D02*
X1031240D01*
X1027938Y763524D02*
X1031240D01*
X1027938Y761238D02*
X1031240D01*
X1027938Y758952D02*
X1031240D01*
X1027938Y756666D02*
X1031240D01*
X1027938Y754380D02*
X1031240D01*
X1016000Y774700D02*
X1026668D01*
X1005332D02*
X1016000D01*
X1027938Y762762D02*
Y782320D01*
X1016000Y764032D02*
Y774700D01*
X1004062Y762762D02*
X1027938D01*
X1004062D02*
Y782320D01*
Y761238D02*
X1027938D01*
Y752094D02*
X1031240D01*
X1027938Y749808D02*
X1031240D01*
X1016000Y749300D02*
Y759968D01*
X1004062Y761238D02*
X1027938D01*
X1016000Y749300D02*
X1026668D01*
X1005332D02*
X1016000D01*
X1027938Y747522D02*
X1031240D01*
X1027938Y745236D02*
X1031240D01*
X1027938Y742950D02*
X1031240D01*
X1027938Y737362D02*
Y761238D01*
Y740664D02*
X1031240D01*
X1027938Y738378D02*
X1031240D01*
X1004062Y737362D02*
X1027938D01*
X989707Y736092D02*
X1031240D01*
X989383Y733806D02*
X1031240D01*
X989542Y713232D02*
X1031240D01*
X988570Y731520D02*
X1031240D01*
X989715Y710946D02*
X1031240D01*
X989442Y708660D02*
X1031240D01*
X998982Y610917D02*
Y782320D01*
X996696Y613203D02*
Y782320D01*
X1003554Y606345D02*
Y782320D01*
X1001268Y608631D02*
Y782320D01*
X992124Y617775D02*
Y782320D01*
X989838Y620061D02*
Y782320D01*
X994410Y615489D02*
Y782320D01*
X1016000Y738632D02*
Y749300D01*
X1005840Y604059D02*
Y737362D01*
X1008126Y601773D02*
Y737362D01*
X988997Y740664D02*
X1004062D01*
X989584Y738378D02*
X1004062D01*
Y737362D02*
Y761238D01*
X982414Y747522D02*
X1004062D01*
X982980Y747271D02*
Y782320D01*
X987552Y743419D02*
Y782320D01*
X985266Y745842D02*
Y782320D01*
X980694Y748083D02*
Y782320D01*
X978408Y748407D02*
Y782320D01*
X985967Y745236D02*
X1004062D01*
X987867Y742950D02*
X1004062D01*
X987142Y729234D02*
X1031240D01*
X984758Y726948D02*
X1031240D01*
X984758Y724662D02*
X1031240D01*
X976122Y748283D02*
Y782320D01*
X973836Y747697D02*
Y782320D01*
X971550Y746567D02*
Y782320D01*
X969264Y744668D02*
Y782320D01*
X957014Y747522D02*
X973386D01*
X962406Y743045D02*
Y782320D01*
X966978Y741114D02*
Y782320D01*
X962467Y742950D02*
X967933D01*
X963597Y740664D02*
X966803D01*
X963170Y731520D02*
X967230D01*
X960567Y745236D02*
X969833D01*
X961742Y729234D02*
X968658D01*
X959319Y726948D02*
X971042D01*
X985266Y720442D02*
Y727358D01*
X984758Y720825D02*
Y726975D01*
X985687Y720090D02*
X1031240D01*
X987552Y718019D02*
Y729781D01*
X984758Y722376D02*
X1031240D01*
X956342D02*
X971042D01*
X987701Y717804D02*
X1031240D01*
X988901Y715518D02*
X1031240D01*
X988688Y706374D02*
X1031240D01*
X987338Y704088D02*
X1031240D01*
X987552Y622347D02*
Y704381D01*
X971042Y720825D02*
Y726975D01*
X969264Y719268D02*
Y728532D01*
X966978Y715714D02*
Y732086D01*
X964692Y629158D02*
Y782320D01*
X963501Y715518D02*
X966899D01*
X963288Y706374D02*
X967112D01*
X966978Y629158D02*
Y706686D01*
X960287Y720090D02*
X970113D01*
X962301Y717804D02*
X968099D01*
X961938Y704088D02*
X968462D01*
X985065Y701802D02*
X1031240D01*
X984758Y699516D02*
X1031240D01*
X984758Y697230D02*
X1031240D01*
X984758Y694944D02*
X1031240D01*
X984758Y692658D02*
X1031240D01*
X984758Y690372D02*
X1031240D01*
X984758Y688086D02*
X1031240D01*
X984758Y685800D02*
X1031240D01*
X984758Y683514D02*
X1031240D01*
X984758Y681228D02*
X1031240D01*
X984758Y678942D02*
X1031240D01*
X984758Y676656D02*
X1031240D01*
X984758Y674370D02*
X1031240D01*
X984758Y672084D02*
X1031240D01*
X984758Y669798D02*
X1031240D01*
X984758Y667512D02*
X1031240D01*
X984758Y665226D02*
X1031240D01*
X984758Y662940D02*
X1031240D01*
X984758Y660654D02*
X1031240D01*
X984758Y658368D02*
X1031240D01*
X984758Y656082D02*
X1031240D01*
X984758Y653796D02*
X1031240D01*
X984758Y651510D02*
X1031240D01*
X984758Y649224D02*
X1031240D01*
X984758Y646938D02*
X1031240D01*
X984758Y644652D02*
X1031240D01*
X990393Y619506D02*
X1031240D01*
X992679Y617220D02*
X1031240D01*
X994965Y614934D02*
X1031240D01*
X997251Y612648D02*
X1031240D01*
X984758Y642366D02*
X1031240D01*
X985821Y624078D02*
X1031240D01*
X988107Y621792D02*
X1031240D01*
X1006395Y603504D02*
X1031240D01*
X1008628Y601218D02*
X1031240D01*
X1009850Y598932D02*
X1031240D01*
X999537Y610362D02*
X1031240D01*
X1001823Y608076D02*
X1031240D01*
X1004109Y605790D02*
X1031240D01*
X1010158Y596646D02*
X1031240D01*
X1010158Y594360D02*
X1031240D01*
X1010158Y592074D02*
X1031240D01*
X985266Y624633D02*
Y701958D01*
X984758Y625141D02*
Y701575D01*
X1010158Y589788D02*
X1031240D01*
X1010158Y587502D02*
X1031240D01*
X1010158Y585216D02*
X1031240D01*
X1010158Y582930D02*
X1031240D01*
X1010158Y580644D02*
X1031240D01*
X1010158Y578358D02*
X1031240D01*
X954275Y699516D02*
X971042D01*
X957585Y658368D02*
X971042D01*
X960831Y656082D02*
X971042D01*
X962624Y653796D02*
X971042D01*
X917217Y665226D02*
X971042D01*
X919763Y662940D02*
X971042D01*
X922049Y660654D02*
X971042D01*
X984758Y640080D02*
X1031240D01*
X984758Y637794D02*
X1031240D01*
X984758Y635508D02*
X1031240D01*
X984758Y633222D02*
X1031240D01*
X963687Y651510D02*
X971042D01*
X984758Y630936D02*
X1031240D01*
X964219Y649224D02*
X971042D01*
X964293Y646938D02*
X971042D01*
X963918Y644652D02*
X971042D01*
Y629158D02*
Y701575D01*
X959665Y701802D02*
X970735D01*
X952500Y647700D02*
X963048D01*
X963046Y642366D02*
X971042D01*
X961533Y640080D02*
X971042D01*
X960567Y630936D02*
X971042D01*
X958945Y637794D02*
X971042D01*
X931418Y635508D02*
X971042D01*
X957014Y633222D02*
X971042D01*
X984758Y628650D02*
X1031240D01*
X984758Y626364D02*
X1031240D01*
X984758Y625141D02*
X1008149Y601749D01*
X975059Y615442D02*
X996442Y594059D01*
X958537Y594360D02*
X996141D01*
X915699Y596646D02*
X993855D01*
X961313Y592074D02*
X996442D01*
X964274Y585216D02*
X996442D01*
X964250Y582930D02*
X996442D01*
X966245Y578358D02*
X996442D01*
X962913Y589788D02*
X996442D01*
X963847Y587502D02*
X996442D01*
X963959Y580644D02*
X996442D01*
X962125Y629158D02*
X971042D01*
X969264D02*
Y703132D01*
X966978Y577625D02*
Y615442D01*
X964692Y579911D02*
Y615442D01*
X962125D02*
X975059D01*
X961742Y614934D02*
X975567D01*
X959319Y612648D02*
X977853D01*
X924843Y605790D02*
X984711D01*
X927129Y608076D02*
X982425D01*
X920271Y601218D02*
X989283D01*
X922557Y603504D02*
X986997D01*
X917985Y598932D02*
X991569D01*
X955548Y748018D02*
Y782320D01*
X953262Y748393D02*
Y782320D01*
X960120Y745633D02*
Y782320D01*
X957834Y747146D02*
Y782320D01*
X950976Y748319D02*
Y782320D01*
X948690Y747787D02*
Y782320D01*
X946404Y746724D02*
Y782320D01*
X944118Y744931D02*
Y782320D01*
X937067Y742950D02*
X942533D01*
X955548Y722618D02*
Y725182D01*
X936342Y729234D02*
X943258D01*
X931614Y747522D02*
X947986D01*
X935167Y745236D02*
X944433D01*
X933919Y726948D02*
X945681D01*
X934974Y745413D02*
Y782320D01*
X932688Y747013D02*
Y782320D01*
X941832Y741685D02*
Y782320D01*
X937260Y742636D02*
Y782320D01*
X930402Y747947D02*
Y782320D01*
X928116Y748374D02*
Y782320D01*
X925830Y748350D02*
Y782320D01*
X938197Y740664D02*
X941403D01*
X923544Y747870D02*
Y782320D01*
X937770Y731520D02*
X941830D01*
X921258Y746873D02*
Y782320D01*
X918972Y745179D02*
Y782320D01*
X916686Y742187D02*
Y782320D01*
X957834Y721746D02*
Y726054D01*
X948690Y722387D02*
Y725413D01*
X962406Y717645D02*
Y730155D01*
X960120Y720233D02*
Y727567D01*
X946404Y721324D02*
Y726476D01*
X944118Y719531D02*
Y728269D01*
X941832Y716285D02*
Y731515D01*
X962406Y654145D02*
Y704755D01*
X936901Y717804D02*
X942699D01*
X941832Y652785D02*
Y706115D01*
X930942Y722376D02*
X948658D01*
X934887Y720090D02*
X944713D01*
X936538Y704088D02*
X943062D01*
X934974Y720013D02*
Y727787D01*
X932688Y721613D02*
Y726187D01*
X939546Y579657D02*
Y782320D01*
X937260Y717236D02*
Y730564D01*
X921258Y721473D02*
Y726327D01*
X918972Y719779D02*
Y728021D01*
X916686Y716787D02*
Y731013D01*
X938101Y715518D02*
X941499D01*
X937888Y706374D02*
X941712D01*
X937260Y653736D02*
Y705163D01*
X930402Y722547D02*
Y725253D01*
X923544Y722470D02*
Y725330D01*
X916686Y665499D02*
Y705613D01*
X911667Y742950D02*
X917133D01*
X909828Y745179D02*
Y782320D01*
X912114Y742187D02*
Y782320D01*
X906214Y747522D02*
X922586D01*
X909768Y745236D02*
X919033D01*
X912797Y740664D02*
X916003D01*
X912371Y731520D02*
X916430D01*
X910942Y729234D02*
X917858D01*
X908519Y726948D02*
X920281D01*
X901700Y736600D02*
X912248D01*
X905542Y722376D02*
X923258D01*
X905256Y747870D02*
Y782320D01*
X902970Y748350D02*
Y782320D01*
X907542Y746873D02*
Y782320D01*
X900684Y748374D02*
Y782320D01*
X898398Y747947D02*
Y782320D01*
X896112Y747013D02*
Y782320D01*
X893826Y745413D02*
Y782320D01*
X901700Y736600D02*
Y747148D01*
Y726052D02*
Y736600D01*
X905256Y722470D02*
Y725330D01*
X891152Y736600D02*
X901700D01*
X891540Y742636D02*
Y782320D01*
X898398Y722547D02*
Y725253D01*
X912114Y716787D02*
Y731013D01*
X909828Y719779D02*
Y728021D01*
X914400Y665988D02*
Y782320D01*
X907542Y721473D02*
Y726327D01*
X901700Y711200D02*
Y721748D01*
X912701Y715518D02*
X916099D01*
X912488Y706374D02*
X916312D01*
X912114Y665988D02*
Y705613D01*
X909487Y720090D02*
X919313D01*
X911501Y717804D02*
X917299D01*
X901700Y711200D02*
X912248D01*
X896112Y721613D02*
Y726187D01*
X893826Y720013D02*
Y727787D01*
X891540Y717236D02*
Y730564D01*
X889254Y665988D02*
Y782320D01*
X888118Y722376D02*
X897858D01*
X888118Y720090D02*
X893913D01*
X888118Y699382D02*
Y723018D01*
X891152Y711200D02*
X901700D01*
Y700652D02*
Y711200D01*
X891540Y665988D02*
Y705163D01*
X888118Y717804D02*
X891899D01*
X888118Y715518D02*
X890699D01*
X888118Y706374D02*
X890912D01*
X955548Y659118D02*
Y699782D01*
X953262Y659493D02*
Y699407D01*
X960120Y656733D02*
Y702167D01*
X957834Y658246D02*
Y700654D01*
X950976Y659419D02*
Y699481D01*
X948690Y658887D02*
Y700013D01*
X952500Y647700D02*
Y658248D01*
X957834Y632846D02*
Y637154D01*
X955548Y633718D02*
Y636282D01*
X960120Y631333D02*
Y638667D01*
X941952Y647700D02*
X952500D01*
Y637152D02*
Y647700D01*
X948690Y633487D02*
Y636513D01*
X946404Y657824D02*
Y701076D01*
X944118Y656031D02*
Y702869D01*
X937224Y653796D02*
X942376D01*
X938287Y651510D02*
X941313D01*
X934265Y701802D02*
X945335D01*
X934974Y656513D02*
Y702387D01*
X935431Y656082D02*
X944169D01*
X946404Y632424D02*
Y637576D01*
X938518Y644652D02*
X941082D01*
X944118Y630631D02*
Y639369D01*
X936133Y640080D02*
X943467D01*
X937646Y642366D02*
X941954D01*
X935167Y630936D02*
X944433D01*
X962406Y629158D02*
Y641255D01*
X946404Y594324D02*
Y612176D01*
X962406Y590645D02*
Y615442D01*
X960120Y593233D02*
Y613267D01*
X936342Y614934D02*
X943258D01*
X944118Y592531D02*
Y613969D01*
X955548Y595618D02*
Y610882D01*
X953262Y595993D02*
Y610507D01*
X957834Y594746D02*
Y611754D01*
X950976Y595919D02*
Y610581D01*
X948690Y595387D02*
Y611113D01*
X935913Y592074D02*
X943687D01*
X941832Y627385D02*
Y642615D01*
X938197Y626364D02*
X941403D01*
X937770Y617220D02*
X941830D01*
X941832Y589285D02*
Y617215D01*
X937260Y628336D02*
Y641664D01*
X934974Y631113D02*
Y638887D01*
X937067Y628650D02*
X942533D01*
X938447Y587502D02*
X941153D01*
X938559Y580644D02*
X941230D01*
X937260Y590237D02*
Y616264D01*
X934974Y593013D02*
Y613487D01*
X937513Y589788D02*
X942087D01*
X930402Y659047D02*
Y699853D01*
X921258Y661445D02*
Y700927D01*
X932688Y658113D02*
Y700787D01*
X923544Y659159D02*
Y699930D01*
X908865Y701802D02*
X919935D01*
X911139Y704088D02*
X917662D01*
X918972Y663731D02*
Y702621D01*
X928875Y699516D02*
X950725D01*
X928116Y659474D02*
Y699426D01*
X932185Y658368D02*
X947415D01*
X903475Y699516D02*
X925325D01*
X925830Y659450D02*
Y699450D01*
X918361Y664341D02*
X923688Y659015D01*
X909828Y665988D02*
Y702621D01*
X907542Y665988D02*
Y700927D01*
X905256Y665988D02*
Y699930D01*
X896112Y665988D02*
Y700787D01*
X888118Y701802D02*
X894535D01*
X888118Y704088D02*
X892262D01*
X893826Y665988D02*
Y702387D01*
X902970Y665988D02*
Y699450D01*
X900684Y665988D02*
Y699426D01*
X888118Y699516D02*
X899925D01*
X898398Y665988D02*
Y699853D01*
X933545Y637794D02*
X946055D01*
X932688Y632713D02*
Y637287D01*
X931418Y633301D02*
Y636699D01*
X931614Y633222D02*
X947986D01*
X933919Y612648D02*
X945681D01*
X932688Y594613D02*
Y611887D01*
X933137Y594360D02*
X946463D01*
X930402Y595547D02*
Y610953D01*
X928116Y595974D02*
Y609063D01*
X925830Y595950D02*
Y606777D01*
X923544Y595470D02*
Y604491D01*
X921258Y594473D02*
Y602205D01*
X918972Y592779D02*
Y599919D01*
X913413Y594360D02*
X921064D01*
X911127Y592074D02*
X918287D01*
X916686Y589787D02*
Y597633D01*
X908841Y589788D02*
X916687D01*
X906555Y587502D02*
X915753D01*
X904269Y585216D02*
X915326D01*
X901983Y582930D02*
X915350D01*
X899697Y580644D02*
X915830D01*
X897411Y578358D02*
X916827D01*
X1010158Y576072D02*
X1031240D01*
X1010158Y573786D02*
X1031240D01*
X1010158Y571500D02*
X1031240D01*
X1010158Y569214D02*
X1031240D01*
X1010158Y566928D02*
X1031240D01*
X1010158Y564642D02*
X1031240D01*
X1010158Y562356D02*
X1031240D01*
X1010158Y560070D02*
X1031240D01*
X1010158Y557784D02*
X1031240D01*
X1010158Y555498D02*
X1031240D01*
X1010158Y553212D02*
X1031240D01*
X1010158Y550926D02*
X1031240D01*
X1010158Y548640D02*
X1031240D01*
X1010158Y546354D02*
X1031240D01*
X1010158Y544068D02*
X1031240D01*
X1010158Y541782D02*
X1031240D01*
X1010158Y539496D02*
X1031240D01*
X1010158Y537210D02*
X1031240D01*
X1010158Y534924D02*
X1031240D01*
X1010158Y532638D02*
X1031240D01*
X1010158Y530352D02*
X1031240D01*
X1010158Y528066D02*
X1031240D01*
X1010158Y525780D02*
X1031240D01*
X1010158Y523494D02*
X1031240D01*
X1010158Y521208D02*
X1031240D01*
X1010158Y518922D02*
X1031240D01*
X1010158Y516636D02*
X1031240D01*
X1010158Y514350D02*
X1031240D01*
X1010158Y512064D02*
X1031240D01*
X1010158Y509778D02*
X1031240D01*
X1010158Y507492D02*
X1031240D01*
X1010158Y505206D02*
X1031240D01*
X1010158Y502920D02*
X1031240D01*
X1010158Y500634D02*
X1031240D01*
X1010158Y498348D02*
X1031240D01*
X1010158Y496062D02*
X1031240D01*
X1010158Y493776D02*
X1031240D01*
X1010158Y491490D02*
X1031240D01*
X1010158Y489204D02*
X1031240D01*
X1010158Y486918D02*
X1031240D01*
X1030986Y314960D02*
Y782320D01*
X1031240Y314960D02*
Y782320D01*
X1028700Y314960D02*
Y782320D01*
X1026414Y314960D02*
Y737362D01*
X1024128Y314960D02*
Y737362D01*
X1021842Y314960D02*
Y737362D01*
X1019556Y314960D02*
Y737362D01*
X1014984Y458975D02*
Y737362D01*
X1012698Y464365D02*
Y737362D01*
X1017270Y314960D02*
Y737362D01*
X1010158Y484632D02*
X1031240D01*
X1010412Y466638D02*
Y737362D01*
X1010158Y466825D02*
Y596900D01*
X970299Y573786D02*
X996442D01*
X970788Y571500D02*
X996442D01*
X970788Y569214D02*
X996442D01*
X970788Y566928D02*
X996442D01*
X968531Y576072D02*
X996442D01*
X970788Y564642D02*
X996442D01*
X970788Y562356D02*
X996442D01*
X970788Y560070D02*
X996442D01*
X970788Y557784D02*
X996442D01*
X970788Y555498D02*
X996442D01*
X970788Y553212D02*
X996442D01*
X970788Y550926D02*
X996442D01*
X970788Y548640D02*
X996442D01*
X970788Y546354D02*
X996442D01*
X970788Y544068D02*
X996442D01*
X970788Y541782D02*
X996442D01*
X970788Y539496D02*
X996442D01*
X970788Y537210D02*
X996442D01*
X970788Y534924D02*
X996442D01*
X970788Y532638D02*
X996442D01*
X970788Y530352D02*
X996442D01*
X970788Y528066D02*
X996442D01*
X970788Y525780D02*
X996442D01*
X970299Y523494D02*
X996442D01*
X968531Y521208D02*
X996442D01*
X966245Y518922D02*
X996442D01*
X963959Y516636D02*
X996442D01*
X961673Y514350D02*
X996442D01*
X959387Y512064D02*
X996442D01*
X957101Y509778D02*
X996442D01*
X954815Y507492D02*
X996442D01*
X952529Y505206D02*
X996442D01*
X950243Y502920D02*
X996442D01*
X1010158Y482346D02*
X1031240D01*
X1010158Y480060D02*
X1031240D01*
X1010158Y477774D02*
X1031240D01*
X1010158Y475488D02*
X1031240D01*
X947957Y500634D02*
X996442D01*
X1010158Y473202D02*
X1031240D01*
X945671Y498348D02*
X996442D01*
X943385Y496062D02*
X996442D01*
Y466825D02*
Y594059D01*
X994410Y464987D02*
Y596091D01*
X941099Y493776D02*
X996442D01*
X938813Y491490D02*
X996442D01*
X936527Y489204D02*
X996442D01*
X974628Y482346D02*
X996442D01*
X974628Y480060D02*
X996442D01*
X974628Y477774D02*
X996442D01*
X934241Y486918D02*
X996442D01*
X931955Y484632D02*
X996442D01*
X974628Y475488D02*
X996442D01*
X1012925Y464058D02*
X1031240D01*
X1014198Y461772D02*
X1031240D01*
X1014895Y459486D02*
X1031240D01*
X1015118Y457200D02*
X1031240D01*
X1010158Y470916D02*
X1031240D01*
X1010158Y468630D02*
X1031240D01*
X1010787Y466344D02*
X1031240D01*
X1014895Y454914D02*
X1031240D01*
X1015118Y443484D02*
X1031240D01*
X1015118Y441198D02*
X1031240D01*
X1014198Y452628D02*
X1031240D01*
X1012925Y450342D02*
X1031240D01*
X1010787Y448056D02*
X1031240D01*
X1015118Y438912D02*
X1031240D01*
X1014984Y443618D02*
Y455425D01*
X1015118Y436626D02*
X1031240D01*
X1015118Y419982D02*
Y443618D01*
X1012698D02*
Y450035D01*
X1010412Y443618D02*
Y447761D01*
X1015118Y434340D02*
X1031240D01*
X1015118Y432054D02*
X1031240D01*
X1015118Y429768D02*
X1031240D01*
X1015118Y427482D02*
X1031240D01*
X1015118Y425196D02*
X1031240D01*
X1015118Y422910D02*
X1031240D01*
X1015118Y420624D02*
X1031240D01*
X1014718Y384048D02*
X1031240D01*
X1015093Y381762D02*
X1031240D01*
X1015019Y379476D02*
X1031240D01*
X1012333Y388620D02*
X1031240D01*
X1013846Y386334D02*
X1031240D01*
X1014487Y377190D02*
X1031240D01*
X1013424Y374904D02*
X1031240D01*
X1014647Y358902D02*
X1031240D01*
X1015074Y356616D02*
X1031240D01*
X1011631Y372618D02*
X1031240D01*
X1012113Y363474D02*
X1031240D01*
X1013713Y361188D02*
X1031240D01*
X1014984Y382775D02*
Y419982D01*
X1012698Y388165D02*
Y419982D01*
X1014984Y357375D02*
Y379225D01*
X1012698Y362765D02*
Y373835D01*
X1010158Y419982D02*
X1015118D01*
X1010412Y390438D02*
Y419982D01*
X1010158Y390625D02*
Y419982D01*
X1015050Y354330D02*
X1031240D01*
X1014570Y352044D02*
X1031240D01*
X1014984Y314960D02*
Y353825D01*
X1013573Y349758D02*
X1031240D01*
X1011879Y347472D02*
X1031240D01*
X1012698Y314960D02*
Y348435D01*
X1010158Y418338D02*
X1031240D01*
X1010158Y416052D02*
X1031240D01*
X1010158Y413766D02*
X1031240D01*
X1010158Y411480D02*
X1031240D01*
X1006303Y445770D02*
X1031240D01*
X1010158Y409194D02*
X1031240D01*
X1010158Y406908D02*
X1031240D01*
X1010158Y404622D02*
X1031240D01*
X1010158Y402336D02*
X1031240D01*
X1010158Y400050D02*
X1031240D01*
X1010158Y397764D02*
X1031240D01*
X1010158Y395478D02*
X1031240D01*
X1010158Y393192D02*
X1031240D01*
X974628Y473202D02*
X996442D01*
X977167Y448056D02*
X995813D01*
X1008126Y443618D02*
Y446412D01*
X974628Y470916D02*
X996442D01*
X974628Y468630D02*
X996442D01*
X974628Y466344D02*
X995813D01*
X1010158Y390906D02*
X1031240D01*
X999385Y443618D02*
X1015118D01*
X996738Y445770D02*
X1000297D01*
X1008385Y370332D02*
X1031240D01*
X1010412Y365038D02*
Y371562D01*
X1009336Y365760D02*
X1031240D01*
X1003300Y355600D02*
X1013848D01*
X1008887Y345186D02*
X1031240D01*
X997066Y340614D02*
X1031240D01*
X995712Y338328D02*
X1031240D01*
X993441Y336042D02*
X1031240D01*
X991155Y333756D02*
X1031240D01*
X988857Y331470D02*
X1031240D01*
X1010412Y314960D02*
Y346161D01*
X1008126Y366388D02*
Y370212D01*
Y314960D02*
Y344812D01*
X1005840Y314960D02*
Y344058D01*
X1003300Y355600D02*
Y366148D01*
Y345052D02*
Y355600D01*
X998982Y314960D02*
Y344599D01*
X1003554Y314960D02*
Y343785D01*
X1001268Y314960D02*
Y343958D01*
X996696Y314960D02*
Y339758D01*
X989099Y331701D02*
X995449Y338051D01*
X969264Y575335D02*
Y615442D01*
X973836Y483028D02*
Y615442D01*
X971550Y483028D02*
Y615442D01*
X963815Y580788D02*
X969141Y575461D01*
X970788Y525780D02*
Y571500D01*
X969264Y483028D02*
Y521945D01*
X966978Y483028D02*
Y519655D01*
X964692Y483028D02*
Y517369D01*
X957628Y483028D02*
X974628D01*
X955548Y570218D02*
Y572782D01*
X948690Y569987D02*
Y573013D01*
X955912Y572885D02*
X959612Y569185D01*
X946404Y568924D02*
Y574076D01*
X938415Y580788D02*
X943741Y575461D01*
X962406Y483028D02*
Y515083D01*
X960120Y483028D02*
Y512797D01*
X957834Y483028D02*
Y510511D01*
X945388Y571500D02*
X957297D01*
X945388Y568238D02*
Y571500D01*
X989838Y446278D02*
Y600663D01*
X987552Y446278D02*
Y602949D01*
X985266Y446278D02*
Y605235D01*
X982980Y446278D02*
Y607521D01*
X978408Y446815D02*
Y612093D01*
X976122Y463938D02*
Y614379D01*
X980694Y446278D02*
Y609807D01*
X974628Y464392D02*
Y483028D01*
X964810Y473710D02*
Y481758D01*
X992124Y461042D02*
Y598377D01*
X954992Y483028D02*
X957628D01*
X955548D02*
Y508225D01*
X954992Y483028D02*
X957628D01*
X953262D02*
Y505939D01*
X950976Y483028D02*
Y503653D01*
X948690Y483028D02*
Y501367D01*
X946404Y483028D02*
Y499081D01*
X944118Y483028D02*
Y496795D01*
X941832Y483028D02*
Y494509D01*
X939546Y483028D02*
Y492223D01*
X937992Y483028D02*
X954992D01*
X937992Y464392D02*
Y483028D01*
X937260Y463938D02*
Y489937D01*
X934974Y457708D02*
Y487651D01*
X932688Y457708D02*
Y485365D01*
X930402Y457708D02*
Y483079D01*
X894588Y575535D02*
X928501Y609449D01*
X921258Y569073D02*
Y573927D01*
X918972Y567379D02*
Y575621D01*
X894588Y573786D02*
X921513D01*
X895125Y576072D02*
X918521D01*
X894588Y569214D02*
X921513D01*
X901418Y566928D02*
X918521D01*
X901418Y564642D02*
X916827D01*
X901418Y548640D02*
X921064D01*
X901418Y550926D02*
X918287D01*
X901418Y546354D02*
X921512D01*
X900684Y567768D02*
Y581631D01*
X898398Y567768D02*
Y579345D01*
X916686Y564387D02*
Y578613D01*
X896112Y567768D02*
Y577059D01*
X894588Y567768D02*
X901418D01*
X894588D02*
Y575535D01*
X895350Y552450D02*
Y566498D01*
X901418Y562356D02*
X915830D01*
X901418Y560070D02*
X915350D01*
X901418Y557784D02*
X915326D01*
X901418Y553212D02*
X916687D01*
X901418Y555498D02*
X915753D01*
X895350Y552450D02*
X900148D01*
X921512Y535715D02*
Y548387D01*
X921258Y535461D02*
Y548527D01*
X918972Y533175D02*
Y550221D01*
X916686Y530889D02*
Y553213D01*
X901418Y544068D02*
X921512D01*
X914400Y528603D02*
Y595347D01*
X912114Y526317D02*
Y593061D01*
X929669Y482346D02*
X937992D01*
X901418Y541782D02*
X921512D01*
X922171Y474849D02*
X969141Y521819D01*
X901418Y539496D02*
X921512D01*
X901418Y537210D02*
X921512D01*
X893035Y507238D02*
X921512Y535715D01*
X909828Y524031D02*
Y590775D01*
X907542Y521745D02*
Y588489D01*
X905256Y519459D02*
Y586203D01*
X902970Y517173D02*
Y583917D01*
X901418Y537132D02*
Y567768D01*
X895350Y538402D02*
Y552450D01*
X889282Y537132D02*
X901418D01*
X900684Y514887D02*
Y537132D01*
X898398Y512601D02*
Y537132D01*
X896112Y510315D02*
Y537132D01*
X893826Y508029D02*
Y537132D01*
X891540Y507238D02*
Y537132D01*
X889254Y507238D02*
Y537137D01*
X976628Y461772D02*
X992402D01*
X976628Y459486D02*
X991705D01*
X992124Y446278D02*
Y453358D01*
X976628Y457200D02*
X991482D01*
X976628Y454914D02*
X991705D01*
X976628Y452628D02*
X992402D01*
X976628Y450342D02*
X993675D01*
X994410Y446278D02*
Y449413D01*
Y314960D02*
Y337011D01*
X992124Y314960D02*
Y334725D01*
X978945Y446278D02*
X994410D01*
X964810Y473710D02*
X973358D01*
X964810Y465662D02*
Y473710D01*
X957628Y463938D02*
X976628D01*
X957628Y464392D02*
X974628D01*
X954992D02*
X957628D01*
X954992D02*
X957628D01*
X937992D02*
X941832D01*
X976628Y448595D02*
Y463938D01*
X954992D02*
X957628D01*
X976628Y448595D02*
X978945Y446278D01*
X954992Y463938D02*
X957628D01*
X935992D02*
X941832D01*
X935992Y457708D02*
Y463938D01*
X989838Y314960D02*
Y332439D01*
X987552Y314960D02*
Y330539D01*
X985266Y314960D02*
Y329768D01*
X982980Y314960D02*
Y329692D01*
X980694Y314960D02*
Y329692D01*
X978408Y314960D02*
Y329692D01*
X976122Y314960D02*
Y329692D01*
X973836Y314960D02*
Y329692D01*
X971550Y314960D02*
Y329692D01*
X969264Y314960D02*
Y329692D01*
X966978Y314960D02*
Y329692D01*
X964692Y314960D02*
Y329692D01*
X962406Y314960D02*
Y329692D01*
X960120Y314960D02*
Y329692D01*
X957834Y314960D02*
Y329692D01*
X955548Y314960D02*
Y329692D01*
X953262Y314960D02*
Y329692D01*
X950976Y314960D02*
Y329692D01*
X948690Y314960D02*
Y329692D01*
X946404Y314960D02*
Y329692D01*
X944118Y314960D02*
Y329692D01*
X941832Y314960D02*
Y329692D01*
X939546Y314960D02*
Y329692D01*
X937260Y314960D02*
Y329692D01*
X934974Y314960D02*
Y329692D01*
X932688Y314960D02*
Y329692D01*
X927383Y480060D02*
X937992D01*
X925097Y477774D02*
X937992D01*
X928116Y457708D02*
Y480793D01*
X925830Y457708D02*
Y478507D01*
X922811Y475488D02*
X937992D01*
X923544Y457708D02*
Y476221D01*
X918210Y473202D02*
X937992D01*
X901418Y461772D02*
X935992D01*
X898888Y468630D02*
X937992D01*
X900812Y466344D02*
X937992D01*
X901418Y459486D02*
X935992D01*
X921258Y457708D02*
Y474106D01*
X918972Y457708D02*
Y473254D01*
X916686Y457708D02*
Y473202D01*
X914400Y457708D02*
Y473202D01*
X900684Y466593D02*
Y473202D01*
X898398Y468947D02*
Y473202D01*
X912114Y457708D02*
Y473202D01*
X896112Y469720D02*
Y473202D01*
X893826Y469574D02*
Y473202D01*
X891540Y469211D02*
Y473202D01*
X889254Y469763D02*
Y473202D01*
X886968Y469418D02*
Y473202D01*
X930402Y314960D02*
Y329692D01*
X928116Y314960D02*
Y329692D01*
X925830Y314960D02*
Y329692D01*
X923544Y314960D02*
Y329692D01*
X909828Y457708D02*
Y473202D01*
X907542Y457708D02*
Y473202D01*
X901418Y457708D02*
X935992D01*
X921258Y314960D02*
Y329692D01*
X918972Y314960D02*
Y329692D01*
X916686Y314960D02*
Y329692D01*
X914400Y314960D02*
Y329692D01*
X912114Y314960D02*
Y329692D01*
X909828Y314960D02*
Y329692D01*
X905256Y457708D02*
Y473202D01*
X902970Y457708D02*
Y473202D01*
X907542Y314960D02*
Y329692D01*
X905256Y314960D02*
Y329692D01*
X902970Y314960D02*
Y329692D01*
X901418Y457708D02*
Y463700D01*
X900684Y314960D02*
Y329692D01*
X898398Y314960D02*
Y329692D01*
X896112Y314960D02*
Y329692D01*
X893826Y314960D02*
Y329692D01*
X891540Y314960D02*
Y329692D01*
X889254Y314960D02*
Y329692D01*
X886968Y314960D02*
Y329692D01*
X886267Y742950D02*
X891733D01*
X884682Y744931D02*
Y782320D01*
X887397Y740664D02*
X890603D01*
X886968Y741685D02*
Y782320D01*
X880814Y747522D02*
X897186D01*
X884368Y745236D02*
X893633D01*
X885542Y729234D02*
X892458D01*
X886971Y731520D02*
X891030D01*
X886968Y723018D02*
Y731515D01*
X884682Y723018D02*
Y728269D01*
X883119Y726948D02*
X894881D01*
X864482Y723018D02*
X888118D01*
X864482Y699382D02*
X888118D01*
X877824Y748319D02*
Y782320D01*
X875538Y748393D02*
Y782320D01*
X882396Y746724D02*
Y782320D01*
X880110Y747787D02*
Y782320D01*
X873252Y748018D02*
Y782320D01*
X870966Y747146D02*
Y782320D01*
X868680Y745633D02*
Y782320D01*
X882396Y723018D02*
Y726476D01*
X870966Y723018D02*
Y726054D01*
X868680Y723018D02*
Y727567D01*
X866394Y743045D02*
Y782320D01*
Y723018D02*
Y730155D01*
X864482Y699382D02*
Y723018D01*
X886968Y665988D02*
Y699382D01*
X884682Y665988D02*
Y699382D01*
X882396Y665988D02*
Y699382D01*
X880110Y665988D02*
Y699382D01*
X864108Y665988D02*
Y782320D01*
X861822Y665988D02*
Y782320D01*
X859536Y665988D02*
Y782320D01*
X877824Y665988D02*
Y699382D01*
X875538Y665988D02*
Y699382D01*
X873252Y665988D02*
Y699382D01*
X870966Y665988D02*
Y699382D01*
X868680Y665988D02*
Y699382D01*
X866394Y665988D02*
Y699382D01*
X857250Y665988D02*
Y782320D01*
X854964Y665988D02*
Y782320D01*
X852678Y665988D02*
Y782320D01*
X850392Y665988D02*
Y782320D01*
X848106Y665988D02*
Y782320D01*
X845820Y665988D02*
Y782320D01*
X843534Y665988D02*
Y782320D01*
X841248Y665988D02*
Y782320D01*
X838962Y665988D02*
Y782320D01*
X836676Y665988D02*
Y782320D01*
X834390Y665988D02*
Y782320D01*
X832104Y665988D02*
Y782320D01*
X829818Y665988D02*
Y782320D01*
X697738D02*
X1004062D01*
X697738Y781812D02*
X1004062D01*
X697738Y779526D02*
X1004062D01*
X697738Y777240D02*
X1004062D01*
X697738Y774954D02*
X1004062D01*
X697738Y772668D02*
X1004062D01*
X697738Y770382D02*
X1004062D01*
X697738Y768096D02*
X1004062D01*
X697738Y765810D02*
X1004062D01*
X697738Y763524D02*
X1004062D01*
X697738Y761238D02*
X1004062D01*
X697738Y758952D02*
X1004062D01*
X697738Y756666D02*
X1004062D01*
X697738Y754380D02*
X1004062D01*
X697738Y752094D02*
X1004062D01*
X697738Y749808D02*
X1004062D01*
X697738Y747522D02*
X871786D01*
X697738Y745236D02*
X868232D01*
X697738Y742950D02*
X866333D01*
X697738Y740664D02*
X865203D01*
X697738Y738378D02*
X864616D01*
X670560Y736092D02*
X864493D01*
X670560Y733806D02*
X864817D01*
X670560Y729234D02*
X867058D01*
X670560Y731520D02*
X865630D01*
X670560Y726948D02*
X869481D01*
X670560Y724662D02*
X971042D01*
X670560Y722376D02*
X864482D01*
X670560Y720090D02*
X864482D01*
X670560Y717804D02*
X864482D01*
X670560Y715518D02*
X864482D01*
X670560Y713232D02*
X864482D01*
X670560Y710946D02*
X864482D01*
X670560Y708660D02*
X864482D01*
X670560Y706374D02*
X864482D01*
X670560Y704088D02*
X864482D01*
X670560Y697230D02*
X971042D01*
X670560Y694944D02*
X971042D01*
X670560Y692658D02*
X971042D01*
X827532Y665988D02*
Y782320D01*
X825246Y665988D02*
Y782320D01*
X822960Y665988D02*
Y782320D01*
X820674Y665988D02*
Y782320D01*
X818388Y665936D02*
Y782320D01*
X816102Y665083D02*
Y782320D01*
X813816Y662969D02*
Y782320D01*
X811530Y660683D02*
Y782320D01*
X809244Y658397D02*
Y782320D01*
X806958Y657325D02*
Y782320D01*
X670560Y701802D02*
X864482D01*
X670560Y699516D02*
X864482D01*
X804672Y658598D02*
Y782320D01*
X886968Y507238D02*
Y537482D01*
X884682Y507238D02*
Y537482D01*
X880110Y507238D02*
Y537689D01*
X883620Y537210D02*
X888030D01*
X877270D02*
X881680D01*
X882396Y507238D02*
Y537137D01*
X823262Y534924D02*
X920721D01*
X870920Y537210D02*
X875330D01*
X823357Y532638D02*
X918435D01*
X864570Y537210D02*
X868980D01*
X858220D02*
X862630D01*
X851870D02*
X856280D01*
X845520D02*
X849930D01*
X839170D02*
X843580D01*
X832820D02*
X837230D01*
X826470D02*
X830880D01*
X877824Y507238D02*
Y537327D01*
X873252Y507238D02*
Y537953D01*
X868680Y507238D02*
Y537266D01*
X866394Y507238D02*
Y537813D01*
X861822Y507238D02*
Y537398D01*
X859536Y507238D02*
Y537579D01*
X854964Y507238D02*
Y537579D01*
X875538Y507238D02*
Y537180D01*
X870966Y507238D02*
Y537218D01*
X864108Y507238D02*
Y537153D01*
X857250Y507238D02*
Y537132D01*
X852678Y507238D02*
Y537398D01*
X825500Y507238D02*
X893035D01*
X848106D02*
Y537813D01*
X845820Y507238D02*
Y537266D01*
X841248Y507238D02*
Y537953D01*
X836676Y507238D02*
Y537327D01*
X834390Y507238D02*
Y537689D01*
X829818Y507238D02*
Y537482D01*
X827532Y507238D02*
Y537482D01*
X850392Y507238D02*
Y537153D01*
X843534Y507238D02*
Y537218D01*
X838962Y507238D02*
Y537180D01*
X832104Y507238D02*
Y537137D01*
X825246Y507232D02*
Y537137D01*
X822960Y506627D02*
Y530608D01*
X670560Y690372D02*
X971042D01*
X670560Y688086D02*
X971042D01*
X670560Y685800D02*
X971042D01*
X670560Y683514D02*
X971042D01*
X670560Y681228D02*
X971042D01*
X670560Y678942D02*
X971042D01*
X670560Y676656D02*
X971042D01*
X670560Y674370D02*
X971042D01*
X819150Y665988D02*
X914400D01*
X822875Y530352D02*
X916149D01*
X670560Y672084D02*
X971042D01*
X670560Y669798D02*
X971042D01*
X670560Y667512D02*
X971042D01*
X808859Y658011D02*
X815189Y664341D01*
X670560Y665226D02*
X816333D01*
X670560Y662940D02*
X813787D01*
X670560Y660654D02*
X811501D01*
X821710Y528066D02*
X913863D01*
X819433Y525780D02*
X911577D01*
X805185Y658368D02*
X809215D01*
X804193Y525780D02*
X808707D01*
X710318Y518922D02*
X904719D01*
X710318Y516636D02*
X902433D01*
X710318Y514350D02*
X900147D01*
X670560Y523494D02*
X909291D01*
X670560Y521208D02*
X907005D01*
X710318Y512064D02*
X897861D01*
X808859Y492911D02*
X821539Y505591D01*
X710318Y509778D02*
X895575D01*
X710318Y507492D02*
X893289D01*
X710318Y505206D02*
X821153D01*
X820674Y504727D02*
Y526826D01*
X818388Y502441D02*
Y525143D01*
X816102Y500155D02*
Y524306D01*
X813816Y497869D02*
Y524085D01*
X811530Y495583D02*
Y524435D01*
X809244Y493297D02*
Y525429D01*
X718341Y496062D02*
X812009D01*
X720627Y493776D02*
X809723D01*
X722913Y491490D02*
X807823D01*
X711483Y502920D02*
X818867D01*
X713769Y500634D02*
X816581D01*
X716055Y498348D02*
X814295D01*
X802386Y659295D02*
Y782320D01*
X800100Y659518D02*
Y782320D01*
X797814Y659295D02*
Y782320D01*
X795528Y658598D02*
Y782320D01*
X793242Y657325D02*
Y782320D01*
X779526Y658488D02*
Y782320D01*
X781812Y657139D02*
Y782320D01*
X777240Y659242D02*
Y782320D01*
X774954Y659515D02*
Y782320D01*
X779785Y658368D02*
X795015D01*
X772668Y659342D02*
Y782320D01*
X770382Y658701D02*
Y782320D01*
X754385Y658368D02*
X769615D01*
X768096Y657501D02*
Y782320D01*
X752094Y659183D02*
Y782320D01*
X749808Y659507D02*
Y782320D01*
X754380Y658371D02*
Y782320D01*
X747522Y659383D02*
Y782320D01*
X745236Y658797D02*
Y782320D01*
X729234Y658246D02*
Y782320D01*
X742950Y657667D02*
Y782320D01*
X726948Y659118D02*
Y782320D01*
X724662Y659493D02*
Y782320D01*
X728985Y658368D02*
X744215D01*
X722376Y659419D02*
Y782320D01*
X720090Y658887D02*
Y782320D01*
X717804Y657824D02*
Y782320D01*
X790956Y655187D02*
Y782320D01*
X784098Y654865D02*
Y782320D01*
X788670Y652018D02*
Y782320D01*
X786384Y652018D02*
Y782320D01*
X765810Y655487D02*
Y782320D01*
X763524Y652018D02*
Y782320D01*
X783031Y656082D02*
X791769D01*
X784824Y653796D02*
X789976D01*
X785701Y652018D02*
X789099D01*
X757631Y656082D02*
X766369D01*
X759424Y653796D02*
X764576D01*
X760301Y652018D02*
X763699D01*
X756666Y656942D02*
Y782320D01*
X740664Y655768D02*
Y782320D01*
X761238Y652018D02*
Y782320D01*
X758952Y654519D02*
Y782320D01*
X738378Y652214D02*
Y782320D01*
X733806Y654145D02*
Y782320D01*
X736092Y652018D02*
Y782320D01*
X734024Y653796D02*
X739176D01*
X734901Y652018D02*
X738299D01*
X732231Y656082D02*
X740969D01*
X731520Y656733D02*
Y782320D01*
X715518Y656031D02*
Y782320D01*
X685800Y774700D02*
X696468D01*
X670560Y782320D02*
X673862D01*
X697738Y762762D02*
Y782320D01*
X675132Y774700D02*
X685800D01*
X670560Y781812D02*
X673862D01*
X670560Y779526D02*
X673862D01*
X670560Y777240D02*
X673862D01*
X685800Y764032D02*
Y774700D01*
Y749300D02*
Y759968D01*
Y749300D02*
X696468D01*
X673862Y762762D02*
X697738D01*
X673862Y761238D02*
X697738D01*
X673862D02*
X697738D01*
X670560Y774954D02*
X673862D01*
X670560Y772668D02*
X673862D01*
X670560Y770382D02*
X673862D01*
Y762762D02*
Y782320D01*
X670560Y768096D02*
X673862D01*
X670560Y765810D02*
X673862D01*
X670560Y763524D02*
X673862D01*
X670560Y761238D02*
X673862D01*
X670560Y758952D02*
X673862D01*
X670560Y756666D02*
X673862D01*
X670560Y754380D02*
X673862D01*
X670560Y752094D02*
X673862D01*
X670560Y749808D02*
X673862D01*
X713232Y652785D02*
Y782320D01*
X710946Y642649D02*
Y782320D01*
X708660Y640363D02*
Y782320D01*
X706374Y637817D02*
Y782320D01*
X704088Y519818D02*
Y782320D01*
X701802Y519818D02*
Y782320D01*
X699516Y519818D02*
Y782320D01*
X697738Y737362D02*
Y761238D01*
X673862Y737362D02*
X697738D01*
X670560Y658368D02*
X718815D01*
X670560Y656082D02*
X715569D01*
X670560Y653796D02*
X713776D01*
X675132Y749300D02*
X685800D01*
X670560Y747522D02*
X673862D01*
X685800Y738632D02*
Y749300D01*
X673862Y737362D02*
Y761238D01*
X670560Y745236D02*
X673862D01*
X670560Y742950D02*
X673862D01*
X670560Y740664D02*
X673862D01*
X697230Y519818D02*
Y737362D01*
X694944Y519818D02*
Y737362D01*
X692658Y519818D02*
Y737362D01*
X690372Y519818D02*
Y737362D01*
X670560Y738378D02*
X673862D01*
X688086Y519818D02*
Y737362D01*
X670560Y651510D02*
X712713D01*
X670560Y649224D02*
X712181D01*
X670560Y646938D02*
X712107D01*
X707259Y638961D02*
X712585Y644288D01*
X670560Y644652D02*
X712482D01*
X670560Y642366D02*
X710663D01*
X670560Y640080D02*
X708377D01*
X707259Y595479D02*
X743232Y559505D01*
Y543200D02*
Y559505D01*
X670560Y637794D02*
X706361D01*
X670560Y635508D02*
X705635D01*
X670560Y633222D02*
X705612D01*
Y599440D02*
Y635000D01*
X670560Y630936D02*
X705612D01*
X670560Y628650D02*
X705612D01*
X670560Y626364D02*
X705612D01*
X670560Y624078D02*
X705612D01*
X670560Y621792D02*
X705612D01*
X670560Y619506D02*
X705612D01*
X670560Y617220D02*
X705612D01*
X670560Y614934D02*
X705612D01*
X722376Y492027D02*
Y580361D01*
X782020Y537210D02*
X786430D01*
X775670D02*
X780080D01*
X769320D02*
X773730D01*
X762970D02*
X767380D01*
X756620D02*
X761030D01*
X750270D02*
X754680D01*
X715518Y498885D02*
Y587219D01*
X713232Y501171D02*
Y589505D01*
X720090Y494313D02*
Y582647D01*
X717804Y496599D02*
Y584933D01*
X708660Y519818D02*
Y594077D01*
X706374Y519818D02*
Y596623D01*
X710946Y503457D02*
Y591791D01*
X710318Y504085D02*
Y519818D01*
X692658Y492873D02*
Y496182D01*
X690372Y491179D02*
Y496182D01*
X686682Y519818D02*
X710318D01*
X686682Y496182D02*
Y519818D01*
Y496182D02*
X702415D01*
X670560Y580644D02*
X722093D01*
X670560Y582930D02*
X719807D01*
X670560Y576072D02*
X726665D01*
X670560Y578358D02*
X724379D01*
X670560Y571500D02*
X731237D01*
X670560Y573786D02*
X728951D01*
X670560Y569214D02*
X733523D01*
X670560Y564642D02*
X738095D01*
X670560Y566928D02*
X735809D01*
X670560Y562356D02*
X740381D01*
X670560Y557784D02*
X743232D01*
X670560Y560070D02*
X742667D01*
X670560Y555498D02*
X743232D01*
X670560Y612648D02*
X705612D01*
X670560Y610362D02*
X705612D01*
X670560Y608076D02*
X705612D01*
X670560Y605790D02*
X705612D01*
X670560Y603504D02*
X705612D01*
X670560Y601218D02*
X705612D01*
X670560Y598932D02*
X705635D01*
X670560Y594360D02*
X708377D01*
X670560Y596646D02*
X706361D01*
X670560Y592074D02*
X710663D01*
X670560Y587502D02*
X715235D01*
X670560Y589788D02*
X712949D01*
X670560Y585216D02*
X717521D01*
X670560Y553212D02*
X743232D01*
X670560Y550926D02*
X743232D01*
X670560Y548640D02*
X743232D01*
X670560Y546354D02*
X743232D01*
X670560Y544068D02*
X743232D01*
X670560Y541782D02*
X743400D01*
X670560Y539496D02*
X744494D01*
X670560Y534924D02*
X789638D01*
X670560Y537210D02*
X748330D01*
X670560Y532638D02*
X789543D01*
X670560Y528066D02*
X791190D01*
X670560Y530352D02*
X790025D01*
X670560Y525780D02*
X793467D01*
X670560Y518922D02*
X686682D01*
X670560Y516636D02*
X686682D01*
X670560Y514350D02*
X686682D01*
X670560Y512064D02*
X686682D01*
X670560Y509778D02*
X686682D01*
X670560Y507492D02*
X686682D01*
X670560Y505206D02*
X686682D01*
X670560Y502920D02*
X686682D01*
X670560Y500634D02*
X686682D01*
X670560Y498348D02*
X686682D01*
X670560Y496062D02*
X702535D01*
X670560Y493776D02*
X694658D01*
X670560Y491490D02*
X690713D01*
X884682Y469418D02*
Y473202D01*
X882396Y469763D02*
Y473202D01*
X880110Y469211D02*
Y473202D01*
X877824Y469574D02*
Y473202D01*
X843055D02*
X918210D01*
X843055D02*
X918210D01*
X875538Y469720D02*
Y473202D01*
X873252Y468947D02*
Y473202D01*
X840769Y470916D02*
X937992D01*
X870966Y469682D02*
Y473202D01*
X868680Y469634D02*
Y473202D01*
X866394Y469086D02*
Y473202D01*
X864108Y469747D02*
Y473202D01*
X861822Y469502D02*
Y473202D01*
X859536Y469321D02*
Y473202D01*
X857250Y469768D02*
Y473202D01*
X854964Y469321D02*
Y473202D01*
X852678Y469502D02*
Y473202D01*
X850392Y469747D02*
Y473202D01*
X848106Y469086D02*
Y473202D01*
X845820Y469634D02*
Y473202D01*
X843534Y469682D02*
Y473202D01*
X839483Y469631D02*
X843055Y473202D01*
X832104Y423448D02*
Y439137D01*
X832612Y423448D02*
Y439180D01*
X829818Y423448D02*
Y439482D01*
X827532Y423448D02*
Y439482D01*
X825246Y423448D02*
Y439137D01*
X822960Y423448D02*
Y439689D01*
X818722Y423448D02*
X832612D01*
X820674D02*
Y439327D01*
X818388Y387858D02*
Y439180D01*
X816102Y387858D02*
Y439953D01*
X813816Y387858D02*
Y439218D01*
X811530Y387858D02*
Y439266D01*
X818722Y406448D02*
Y423448D01*
Y403812D02*
Y406448D01*
Y403812D02*
Y406448D01*
Y387858D02*
Y403812D01*
X809244Y388487D02*
Y439813D01*
X809725Y387858D02*
X818722D01*
X799338Y438912D02*
X832612D01*
X799338Y436626D02*
X832612D01*
X799338Y434340D02*
X832612D01*
X799338Y432054D02*
X832612D01*
X799338Y429768D02*
X832612D01*
X799338Y427482D02*
X832612D01*
X799338Y425196D02*
X832612D01*
X799338Y422910D02*
X818722D01*
X799338Y420624D02*
X818722D01*
X799338Y418338D02*
X818722D01*
X804672Y486918D02*
Y526141D01*
X802386Y486918D02*
Y524787D01*
X793242Y486918D02*
Y525943D01*
X790956Y486918D02*
Y528418D01*
X788670Y486918D02*
Y537266D01*
X786384Y486918D02*
Y537218D01*
X784098Y486918D02*
Y537953D01*
X800100Y486918D02*
Y524169D01*
X797814Y486918D02*
Y524137D01*
X725199Y489204D02*
X807218D01*
X795528Y486918D02*
Y524687D01*
X727485Y486918D02*
X806450D01*
X799338Y416052D02*
X818722D01*
X799338Y413766D02*
X818722D01*
X799338Y411480D02*
X818722D01*
X798849Y409194D02*
X818722D01*
X797081Y406908D02*
X818722D01*
X794795Y404622D02*
X818722D01*
X792988Y402336D02*
X818722D01*
X792988Y400050D02*
X818722D01*
X806545Y390906D02*
X818722D01*
X809133Y388620D02*
X818722D01*
X792988Y397764D02*
X818722D01*
X792988Y395478D02*
X818722D01*
X792988Y393192D02*
X818722D01*
X802386Y392595D02*
Y439579D01*
X800100Y392818D02*
Y439132D01*
X806958Y390625D02*
Y439153D01*
X804672Y391898D02*
Y439398D01*
X799338Y411480D02*
Y439180D01*
X797814Y392595D02*
Y407645D01*
X792988Y402815D02*
X797691Y407519D01*
X795528Y391898D02*
Y405355D01*
X793242Y390625D02*
Y403069D01*
X792988Y390438D02*
Y402815D01*
X869950Y329692D02*
X984250D01*
X884682Y314960D02*
Y329692D01*
X882396Y314960D02*
Y329692D01*
X853019Y343782D02*
X865101Y331701D01*
X839082Y343782D02*
X853019D01*
X880110Y314960D02*
Y329692D01*
X877824Y314960D02*
Y329692D01*
X875538Y314960D02*
Y329692D01*
X873252Y314960D02*
Y329692D01*
X870966Y314960D02*
Y329692D01*
X868680Y314960D02*
Y329811D01*
X810513Y361188D02*
X835613D01*
X811530Y358603D02*
Y374142D01*
X822659D02*
X839082Y357719D01*
X811447Y358902D02*
X837899D01*
X808913Y363474D02*
X833327D01*
X809725Y374142D02*
X822659D01*
X809244Y363087D02*
Y373513D01*
X811874Y356616D02*
X839082D01*
X811850Y354330D02*
X839082D01*
Y343782D02*
Y357719D01*
X811370Y352044D02*
X839082D01*
X810373Y349758D02*
X839082D01*
X808679Y347472D02*
X839082D01*
X852678Y314960D02*
Y343782D01*
X850392Y314960D02*
Y343782D01*
X848106Y314960D02*
Y343782D01*
X845820Y314960D02*
Y343782D01*
X843534Y314960D02*
Y343782D01*
X841248Y314960D02*
Y343782D01*
X838962Y314960D02*
Y357839D01*
X866394Y314960D02*
Y330686D01*
X864108Y314960D02*
Y332693D01*
X861822Y314960D02*
Y334979D01*
X859536Y314960D02*
Y337265D01*
X857250Y314960D02*
Y339551D01*
X854964Y314960D02*
Y341837D01*
X827532Y314960D02*
Y369269D01*
X825246Y314960D02*
Y371555D01*
X822960Y314960D02*
Y373841D01*
X820674Y314960D02*
Y374142D01*
X818388Y314960D02*
Y374142D01*
X816102Y314960D02*
Y374142D01*
X813816Y314960D02*
Y374142D01*
X836676Y314960D02*
Y360125D01*
X834390Y314960D02*
Y362411D01*
X832104Y314960D02*
Y364697D01*
X829818Y314960D02*
Y366983D01*
X811530Y314960D02*
Y352597D01*
X809244Y314960D02*
Y348113D01*
X805185Y370332D02*
X826469D01*
X808431Y372618D02*
X824183D01*
X806958Y365225D02*
Y371375D01*
X804672Y366498D02*
Y370102D01*
X792982Y368046D02*
X828755D01*
X806136Y365760D02*
X831041D01*
X800100Y355600D02*
Y366148D01*
X805687Y345186D02*
X839082D01*
X800100Y355600D02*
X810648D01*
X789552D02*
X800100D01*
Y345052D02*
Y355600D01*
X795528Y366498D02*
Y370102D01*
X792988Y368300D02*
Y371562D01*
X793242Y365225D02*
Y371375D01*
X788670Y358603D02*
Y361667D01*
X786015Y359012D02*
X791341Y364339D01*
X786047Y358902D02*
X788753D01*
X785970Y352044D02*
X788830D01*
X783279Y347472D02*
X791521D01*
X784973Y349758D02*
X789827D01*
X780287Y345186D02*
X794513D01*
X670560Y338328D02*
X858473D01*
X670560Y340614D02*
X856187D01*
X670560Y333756D02*
X863045D01*
X670560Y336042D02*
X860759D01*
X670560Y329184D02*
X1031240D01*
X670560Y331470D02*
X865343D01*
X670560Y326898D02*
X1031240D01*
X670560Y324612D02*
X1031240D01*
X670560Y322326D02*
X1031240D01*
X670560Y320040D02*
X1031240D01*
X670560Y317754D02*
X1031240D01*
X670560Y315468D02*
X1031240D01*
X670560Y314960D02*
X1031240D01*
X806958D02*
Y345975D01*
X793242Y314960D02*
Y345975D01*
X790956Y314960D02*
Y348113D01*
X788670Y314960D02*
Y352597D01*
X786384Y314960D02*
Y353825D01*
X784098Y314960D02*
Y348435D01*
X804672Y314960D02*
Y344702D01*
X802386Y314960D02*
Y344005D01*
X800100Y314960D02*
Y343782D01*
X670560Y342900D02*
X853901D01*
X797814Y314960D02*
Y344005D01*
X795528Y314960D02*
Y344702D01*
X779526Y486918D02*
Y537327D01*
X777240Y486918D02*
Y537689D01*
X772668Y486918D02*
Y537482D01*
X770382Y486918D02*
Y537482D01*
X765810Y486918D02*
Y537689D01*
X763524Y486918D02*
Y537327D01*
X758952Y486918D02*
Y537953D01*
X781812Y486918D02*
Y537180D01*
X774954Y486918D02*
Y537137D01*
X768096Y486918D02*
Y537137D01*
X761238Y486918D02*
Y537180D01*
X756666Y486918D02*
Y537218D01*
X754380Y486918D02*
Y537266D01*
X752094Y486918D02*
Y537813D01*
X738378Y486918D02*
Y564359D01*
X736092Y486918D02*
Y566645D01*
X733806Y486918D02*
Y568931D01*
X731520Y486918D02*
Y571217D01*
X726948Y487455D02*
Y575789D01*
X724662Y489741D02*
Y578075D01*
X729234Y486918D02*
Y573503D01*
X749808Y486918D02*
Y537153D01*
X747522Y486918D02*
Y537398D01*
X745236Y486918D02*
Y538694D01*
X742950Y486918D02*
Y559787D01*
X740664Y486918D02*
Y562073D01*
X710318Y504085D02*
X727485Y486918D01*
X742950Y448593D02*
Y468122D01*
X740664Y446307D02*
Y468122D01*
X738378Y444021D02*
Y468122D01*
X736092Y441735D02*
Y468122D01*
X733806Y439449D02*
Y468122D01*
X731520Y437163D02*
Y468122D01*
X743232Y448875D02*
Y463700D01*
X729234Y434877D02*
Y468122D01*
X726948Y432591D02*
Y468122D01*
X724662Y430305D02*
Y468122D01*
X722376Y428019D02*
Y468122D01*
X720090Y425733D02*
Y468122D01*
X715518Y479298D02*
Y483079D01*
X710142Y484632D02*
X713965D01*
X713232Y479298D02*
Y485365D01*
X710946Y479298D02*
Y487651D01*
X710042Y480060D02*
X718537D01*
X710315Y482346D02*
X716251D01*
X717804Y423447D02*
Y468122D01*
X715518Y421161D02*
Y468122D01*
X713232Y418875D02*
Y468122D01*
X709847Y479298D02*
X719299D01*
X710946Y416589D02*
Y468122D01*
X708660Y414303D02*
Y468122D01*
X702415Y496182D02*
X719299Y479298D01*
X707390Y468122D02*
X745145D01*
X670560Y466344D02*
X743838D01*
X670560Y464058D02*
X743243D01*
X670560Y461772D02*
X743232D01*
X670560Y459486D02*
X743232D01*
X670560Y457200D02*
X743232D01*
X670560Y454914D02*
X743232D01*
X670560Y452628D02*
X743232D01*
X670560Y450342D02*
X743232D01*
X670560Y448056D02*
X742413D01*
X670560Y445770D02*
X740127D01*
X670560Y489204D02*
X688699D01*
X688086Y488187D02*
Y496182D01*
X670560Y486918D02*
X687499D01*
X670560Y484632D02*
X686858D01*
X670560Y482346D02*
X686685D01*
X670560Y480060D02*
X686958D01*
X670560Y477774D02*
X687712D01*
X670560Y475488D02*
X689062D01*
X670560Y470916D02*
X696725D01*
X670560Y473202D02*
X691335D01*
X670560Y468630D02*
X705062D01*
X706374Y412017D02*
Y468215D01*
X704088Y409731D02*
Y469202D01*
X701802Y407445D02*
Y471253D01*
X699516Y405159D02*
Y470826D01*
X670560Y443484D02*
X737841D01*
X670560Y441198D02*
X735555D01*
X694559Y400201D02*
X743232Y448875D01*
X670560Y438912D02*
X733269D01*
X670560Y436626D02*
X730983D01*
X670560Y434340D02*
X728697D01*
X670560Y432054D02*
X726411D01*
X670560Y429768D02*
X724125D01*
X670560Y427482D02*
X721839D01*
X685800Y314960D02*
Y737362D01*
X683514Y314960D02*
Y737362D01*
X681228Y314960D02*
Y737362D01*
X678942Y314960D02*
Y737362D01*
X676656Y314960D02*
Y737362D01*
X672084Y314960D02*
Y782320D01*
X670560Y314960D02*
Y782320D01*
X697230Y402873D02*
Y470850D01*
X694944Y400587D02*
Y471330D01*
X692658Y391273D02*
Y472327D01*
X690372Y389579D02*
Y474021D01*
X688086Y386587D02*
Y477013D01*
X674370Y314960D02*
Y737362D01*
X781812Y314960D02*
Y346161D01*
X760301Y351282D02*
X763699D01*
X765810Y314960D02*
Y347813D01*
X763524Y314960D02*
Y351282D01*
X757879Y347472D02*
X766121D01*
X759573Y349758D02*
X764427D01*
X754887Y345186D02*
X769113D01*
X779526Y314960D02*
Y344812D01*
X777240Y314960D02*
Y344058D01*
X774954Y314960D02*
Y343785D01*
X772668Y314960D02*
Y343958D01*
X770382Y314960D02*
Y344599D01*
X768096Y314960D02*
Y345799D01*
X734173Y349758D02*
X739027D01*
X734901Y351282D02*
X738299D01*
X761238Y314960D02*
Y351282D01*
X710318D02*
X712899D01*
X710318Y343782D02*
Y351282D01*
X729487Y345186D02*
X743713D01*
X732479Y347472D02*
X740721D01*
X758952Y314960D02*
Y348781D01*
X710318Y347472D02*
X715321D01*
X710318Y349758D02*
X713627D01*
X710318Y345186D02*
X718313D01*
X756666Y314960D02*
Y346358D01*
X742950Y314960D02*
Y345633D01*
X740664Y314960D02*
Y347533D01*
X738378Y314960D02*
Y351086D01*
X736092Y314960D02*
Y351282D01*
X733806Y314960D02*
Y349155D01*
X731520Y314960D02*
Y346567D01*
X754380Y314960D02*
Y344930D01*
X752094Y314960D02*
Y344117D01*
X749808Y314960D02*
Y343793D01*
X747522Y314960D02*
Y343917D01*
X745236Y314960D02*
Y344503D01*
X729234Y314960D02*
Y345054D01*
X726948Y314960D02*
Y344182D01*
X724662Y314960D02*
Y343807D01*
X720090Y314960D02*
Y344413D01*
X717804Y314960D02*
Y345476D01*
X715518Y314960D02*
Y347269D01*
X713232Y314960D02*
Y350515D01*
X710946Y314960D02*
Y351282D01*
X722376Y314960D02*
Y343881D01*
X708660Y314960D02*
Y343782D01*
X706374Y314960D02*
Y343782D01*
X704088Y314960D02*
Y343782D01*
X701802Y314960D02*
Y343782D01*
X699516Y314960D02*
Y343782D01*
X670560Y425196D02*
X719553D01*
X670560Y422910D02*
X717267D01*
X670560Y420624D02*
X714981D01*
X670560Y418338D02*
X712695D01*
X670560Y416052D02*
X710409D01*
X670560Y413766D02*
X708123D01*
X670560Y411480D02*
X705837D01*
X670560Y409194D02*
X703551D01*
X670560Y406908D02*
X701265D01*
X670560Y404622D02*
X698979D01*
X670560Y402336D02*
X696693D01*
X670560Y400050D02*
X694412D01*
X670560Y397764D02*
X693124D01*
X670560Y395478D02*
X692912D01*
Y391413D02*
Y396240D01*
X670560Y393192D02*
X692912D01*
X670560Y390906D02*
X692055D01*
X670560Y388620D02*
X689467D01*
X670560Y386334D02*
X687954D01*
X670560Y384048D02*
X687082D01*
X670560Y381762D02*
X686707D01*
X670560Y377190D02*
X687313D01*
X670560Y379476D02*
X686781D01*
X670560Y374904D02*
X688376D01*
X694182Y367418D02*
Y369999D01*
X692658Y367418D02*
Y370727D01*
X690372Y367418D02*
Y372421D01*
X670560Y370332D02*
X693415D01*
X670560Y372618D02*
X690169D01*
X670560Y368046D02*
X694182D01*
X697230Y314960D02*
Y343782D01*
X694944Y314960D02*
Y343782D01*
X692658Y314960D02*
Y343782D01*
X686682D02*
X710318D01*
X686682Y367418D02*
X694182D01*
X690372Y314960D02*
Y343782D01*
X688086Y367418D02*
Y375413D01*
X670560Y365760D02*
X686682D01*
X670560Y363474D02*
X686682D01*
Y343782D02*
Y367418D01*
X670560Y361188D02*
X686682D01*
X670560Y358902D02*
X686682D01*
X670560Y356616D02*
X686682D01*
X670560Y354330D02*
X686682D01*
X670560Y352044D02*
X686682D01*
X688086Y314960D02*
Y343782D01*
X670560Y349758D02*
X686682D01*
X670560Y347472D02*
X686682D01*
X670560Y345186D02*
X686682D01*
X634238Y782320D02*
X640080D01*
X634238Y781812D02*
X640080D01*
X634238Y779526D02*
X640080D01*
X634238Y777240D02*
X640080D01*
X634238Y774954D02*
X640080D01*
X634238Y772668D02*
X640080D01*
X634238Y770382D02*
X640080D01*
X634238Y768096D02*
X640080D01*
X634238Y765810D02*
X640080D01*
X634238Y763524D02*
X640080D01*
X634238Y761238D02*
X640080D01*
X634238Y758952D02*
X640080D01*
X634238Y756666D02*
X640080D01*
X634238Y754380D02*
X640080D01*
X622300Y774700D02*
X632968D01*
X611632D02*
X622300D01*
X634238Y762762D02*
Y782320D01*
X622300Y764032D02*
Y774700D01*
X610362Y762762D02*
Y782320D01*
Y762762D02*
Y782320D01*
Y762762D02*
X634238D01*
Y752094D02*
X640080D01*
X634238Y749808D02*
X640080D01*
X622300Y749300D02*
Y759968D01*
X610362Y761238D02*
X634238D01*
X610362D02*
X634238D01*
X622300Y749300D02*
X632968D01*
X634238Y737362D02*
Y761238D01*
X611632Y749300D02*
X622300D01*
X610362Y737362D02*
Y761238D01*
Y737362D02*
Y761238D01*
X603504Y577118D02*
Y782320D01*
X601218Y577118D02*
Y782320D01*
X598932Y577118D02*
Y782320D01*
X634238Y747522D02*
X640080D01*
X634238Y745236D02*
X640080D01*
X634238Y742950D02*
X640080D01*
X634238Y740664D02*
X640080D01*
X634238Y738378D02*
X640080D01*
X622300Y738632D02*
Y749300D01*
X610362Y737362D02*
X634238D01*
X592074Y577507D02*
Y782320D01*
X589788Y579793D02*
Y782320D01*
X596646Y577118D02*
Y782320D01*
X594360Y577118D02*
Y782320D01*
X585216Y584365D02*
Y782320D01*
X582930Y586651D02*
Y782320D01*
X587502Y582079D02*
Y782320D01*
X578358Y590164D02*
Y782320D01*
X576072Y590423D02*
Y782320D01*
X580644Y588913D02*
Y782320D01*
X573786Y590423D02*
Y782320D01*
X571500Y590423D02*
Y782320D01*
X569214Y590423D02*
Y782320D01*
X517527Y715518D02*
X640080D01*
X518364Y713232D02*
X640080D01*
X518585Y710946D02*
X640080D01*
X518235Y708660D02*
X640080D01*
X512062Y720090D02*
X640080D01*
X515844Y717804D02*
X640080D01*
X517241Y706374D02*
X640080D01*
X515493Y704088D02*
X640080D01*
X515493Y701802D02*
X640080D01*
X568118Y692658D02*
X640080D01*
X568118Y690372D02*
X640080D01*
X515493Y699516D02*
X640080D01*
X515493Y697230D02*
X640080D01*
X515493Y694944D02*
X640080D01*
X566928Y693958D02*
Y782320D01*
X564642Y693958D02*
Y782320D01*
X568118Y676958D02*
Y693958D01*
X562356D02*
Y782320D01*
X560070Y693958D02*
Y782320D01*
X557784Y693958D02*
Y782320D01*
X549482Y693958D02*
X568118D01*
Y688086D02*
X640080D01*
X568118Y685800D02*
X640080D01*
X568118Y683514D02*
X640080D01*
X568118Y681228D02*
X640080D01*
X568118Y678942D02*
X640080D01*
X568118Y676656D02*
X640080D01*
X568118Y674370D02*
X640080D01*
X568118Y672084D02*
X640080D01*
X568118Y669798D02*
X640080D01*
X568118Y667512D02*
X640080D01*
X568118Y665226D02*
X640080D01*
X568118Y662940D02*
X640080D01*
X568118Y660654D02*
X640080D01*
X568118Y658368D02*
X640080D01*
X567833Y653796D02*
X640080D01*
X568118Y651510D02*
X640080D01*
X567833Y649224D02*
X640080D01*
X566919Y656082D02*
X640080D01*
X566919Y646938D02*
X640080D01*
X565108Y644652D02*
X640080D01*
X568118Y674322D02*
Y676958D01*
Y674322D02*
Y676958D01*
Y657322D02*
Y674322D01*
X566928Y592779D02*
Y646954D01*
X564642Y594473D02*
Y644251D01*
X560592Y642366D02*
X640080D01*
X560070Y595950D02*
Y642279D01*
X562356Y595470D02*
Y642897D01*
X455278Y640080D02*
X640080D01*
X455278Y642366D02*
X557008D01*
X557784Y595974D02*
Y642248D01*
X586651Y582930D02*
X640080D01*
X588937Y580644D02*
X640080D01*
X591223Y578358D02*
X640080D01*
X603678Y576072D02*
X640080D01*
X579319Y589788D02*
X640080D01*
X582079Y587502D02*
X640080D01*
X584365Y585216D02*
X640080D01*
X603678Y573786D02*
X640080D01*
X603678Y571500D02*
X640080D01*
X603678Y569214D02*
X640080D01*
X603678Y566928D02*
X640080D01*
X603678Y564642D02*
X640080D01*
X603678Y562356D02*
X640080D01*
X603678Y560070D02*
X640080D01*
X592463Y577118D02*
X603678D01*
Y560118D02*
Y577118D01*
Y557482D02*
Y560118D01*
X585042D02*
Y566937D01*
X580986Y588594D02*
X592463Y577118D01*
X603678Y557784D02*
X640080D01*
X603678Y557482D02*
Y560118D01*
Y555498D02*
X640080D01*
X585042Y557482D02*
Y560118D01*
Y557482D02*
Y560118D01*
X603678Y553212D02*
X640080D01*
X603678Y550926D02*
X640080D01*
X603678Y548640D02*
X640080D01*
X603678Y546354D02*
X640080D01*
X603678Y544068D02*
X640080D01*
X603678Y541782D02*
X640080D01*
X599921Y539496D02*
X640080D01*
X598081Y537210D02*
X640080D01*
X595795Y534924D02*
X640080D01*
X593509Y532638D02*
X640080D01*
X591223Y530352D02*
X640080D01*
X588937Y528066D02*
X640080D01*
X586651Y525780D02*
X640080D01*
X584365Y523494D02*
X640080D01*
X582079Y521208D02*
X640080D01*
X603678Y540482D02*
Y557482D01*
X585042Y541773D02*
Y557482D01*
X600314Y540482D02*
X603678D01*
X582930Y539661D02*
Y569049D01*
X580644Y537375D02*
Y571335D01*
X578358Y535089D02*
Y573621D01*
X576072Y532803D02*
Y575907D01*
X579793Y518922D02*
X640080D01*
X577723Y516636D02*
X640080D01*
X577723Y516852D02*
X598754Y537884D01*
X577723Y514350D02*
X640080D01*
X564837Y594360D02*
X640080D01*
X567613Y592074D02*
X640080D01*
X574002Y577977D02*
X585042Y566937D01*
X567379Y566928D02*
X585042D01*
X455278Y637794D02*
X640080D01*
X455278Y635508D02*
X640080D01*
X455278Y633222D02*
X640080D01*
X570070Y562356D02*
X585042D01*
X570550Y560070D02*
X585042D01*
X570574Y557784D02*
X585042D01*
X570147Y555498D02*
X585042D01*
X569073Y564642D02*
X585042D01*
X569213Y553212D02*
X585042D01*
X567613Y550926D02*
X585042D01*
X568847Y590423D02*
X576580D01*
X568847Y577977D02*
X574002D01*
X567379Y576072D02*
X575907D01*
X569214Y564387D02*
Y577977D01*
X564642Y569073D02*
Y573927D01*
X566928Y567379D02*
Y575621D01*
X564387Y573786D02*
X578193D01*
X565023Y548640D02*
X585042D01*
X453818Y571500D02*
X580479D01*
X562356Y570070D02*
Y572930D01*
X564387Y569214D02*
X582765D01*
X565023Y546354D02*
X585042D01*
X573786Y530517D02*
Y577977D01*
X567106Y523836D02*
X585042Y541773D01*
X571500Y528231D02*
Y577977D01*
X565023Y544068D02*
X585042D01*
X565023Y541782D02*
X585042D01*
X565023Y539496D02*
X582765D01*
X565023Y537210D02*
X580479D01*
X565023Y534924D02*
X578193D01*
X565023Y532638D02*
X575907D01*
X565023Y530352D02*
X573621D01*
X565023Y528066D02*
X571335D01*
X569214Y525945D02*
Y553213D01*
X565023Y527050D02*
Y548753D01*
X564892Y525780D02*
X569049D01*
X566928Y523652D02*
Y550221D01*
X563907Y523494D02*
X566787D01*
X561759Y521208D02*
X565536D01*
X559473Y518922D02*
X565277D01*
X557187Y516636D02*
X565277D01*
X554901Y514350D02*
X565277D01*
X555498Y693958D02*
Y782320D01*
X553212Y693958D02*
Y782320D01*
X550926Y693958D02*
Y782320D01*
X548640Y693928D02*
Y782320D01*
X546354Y693928D02*
Y782320D01*
X544068Y693928D02*
Y782320D01*
X541782Y693958D02*
Y782320D01*
X543538Y693928D02*
X549482D01*
X539496Y693958D02*
Y782320D01*
X537210Y693958D02*
Y782320D01*
X534924Y693958D02*
Y782320D01*
X532638Y693958D02*
Y782320D01*
X530352Y693958D02*
Y782320D01*
X525402Y693958D02*
X543538D01*
X516636Y716907D02*
Y782320D01*
X514350Y719011D02*
Y782320D01*
X528066Y693958D02*
Y782320D01*
X525780Y693958D02*
Y782320D01*
X512064Y720089D02*
Y782320D01*
X509778Y720504D02*
Y782320D01*
X507492Y720347D02*
Y782320D01*
X505206Y719585D02*
Y782320D01*
X515493Y692658D02*
X525402D01*
X502920Y718019D02*
Y782320D01*
X500634Y714699D02*
Y782320D01*
X534470Y685140D02*
Y692688D01*
X526672Y685140D02*
X534470D01*
Y677592D02*
Y685140D01*
X525402Y676322D02*
Y693958D01*
X515493Y690372D02*
X525402D01*
X515493Y688086D02*
X525402D01*
X515493Y685800D02*
X525402D01*
X518538Y683514D02*
X525402D01*
X518538Y681228D02*
X525402D01*
Y676322D02*
X541147D01*
X525402Y674958D02*
X541147D01*
X518538Y678942D02*
X525402D01*
X518538Y676656D02*
X525402D01*
X518538Y674370D02*
X525402D01*
X516636Y684458D02*
Y705493D01*
X515493Y684458D02*
Y704265D01*
X523494Y590645D02*
Y782320D01*
X502920Y684458D02*
Y704381D01*
X503047Y684458D02*
Y704265D01*
X500634Y684458D02*
Y707701D01*
X500378Y681863D02*
Y687458D01*
X518538Y672084D02*
X525402D01*
X518538Y666822D02*
Y684458D01*
X525402Y657322D02*
Y674958D01*
X518538Y669798D02*
X525402D01*
X515493Y684458D02*
X518538D01*
Y667512D02*
X525402D01*
X498348Y687458D02*
Y782320D01*
X496062Y687458D02*
Y782320D01*
X493776Y687458D02*
Y782320D01*
X491490Y687458D02*
Y782320D01*
X489204Y687458D02*
Y782320D01*
X486918Y687458D02*
Y782320D01*
X484632Y687458D02*
Y782320D01*
X481378Y687458D02*
X500378D01*
X482346D02*
Y782320D01*
X478742Y687458D02*
X481378D01*
X480060D02*
Y782320D01*
X455278Y688086D02*
X503047D01*
X478742Y687458D02*
X481378D01*
X459742D02*
X478742D01*
X477774D02*
Y782320D01*
X475488Y687458D02*
Y782320D01*
X473202Y687458D02*
Y782320D01*
X470916Y687458D02*
Y782320D01*
X468630Y687458D02*
Y782320D01*
X466344Y687458D02*
Y782320D01*
X464058Y687458D02*
Y782320D01*
X454914Y688468D02*
Y782320D01*
X452628Y688468D02*
Y782320D01*
X461772Y687458D02*
Y782320D01*
X450342Y688468D02*
Y782320D01*
X448056Y688468D02*
Y782320D01*
X445770Y688468D02*
Y782320D01*
X500378Y685800D02*
X503047D01*
X500402Y684458D02*
X503047D01*
X500402Y681863D02*
Y684458D01*
Y666822D02*
Y669417D01*
Y666822D02*
X518538D01*
X455278Y685800D02*
X459742D01*
X500378Y663822D02*
Y669417D01*
Y665226D02*
X525402D01*
X481378Y663822D02*
X500378D01*
X478742D02*
X481378D01*
X478742D02*
X481378D01*
X459742D02*
X478742D01*
X455278Y662940D02*
X525402D01*
X459486Y682498D02*
Y782320D01*
X459742Y682498D02*
Y687458D01*
X457200Y682498D02*
Y782320D01*
X455278Y682498D02*
Y688468D01*
Y683514D02*
X459742D01*
X455278Y682498D02*
X459742D01*
X455278Y668782D02*
X459742D01*
X455278Y667512D02*
X459742D01*
Y663822D02*
Y668782D01*
X455278Y662832D02*
Y668782D01*
Y665226D02*
X459742D01*
X454914Y657968D02*
Y662832D01*
X452628Y657968D02*
Y662832D01*
X555498Y595547D02*
Y642797D01*
X549482Y657322D02*
Y660896D01*
X553212Y594613D02*
Y644053D01*
X550926Y593013D02*
Y646527D01*
X543538Y658368D02*
X549482D01*
X543538Y660527D02*
X547370D01*
X539436Y594360D02*
X552763D01*
X543813Y589788D02*
X548387D01*
X544747Y587502D02*
X547453D01*
X543673Y578358D02*
X548527D01*
X544670Y580644D02*
X547530D01*
X542213Y592074D02*
X549987D01*
X541979Y576072D02*
X550221D01*
X538987Y573786D02*
X553213D01*
X543538Y657322D02*
Y660527D01*
X539496Y594324D02*
Y657322D01*
X544068Y589285D02*
Y660527D01*
X541782Y592531D02*
Y657322D01*
X525402D02*
X543538D01*
X455278Y632332D02*
Y657968D01*
X537210Y595387D02*
Y657322D01*
X534924Y595919D02*
Y657322D01*
X532638Y595993D02*
Y657322D01*
X530352Y595618D02*
Y657322D01*
X528066Y594746D02*
Y657322D01*
X525780Y593233D02*
Y657322D01*
X555498Y570147D02*
Y572853D01*
X553212Y569213D02*
Y573787D01*
X550926Y567613D02*
Y575387D01*
X548640Y564837D02*
Y578163D01*
X545218Y569214D02*
X553213D01*
X545218Y566928D02*
X550221D01*
X545218Y564642D02*
X548527D01*
X552577Y529628D02*
Y548753D01*
X545218Y553212D02*
X548387D01*
X550926Y527977D02*
Y549987D01*
X548640Y525691D02*
Y552763D01*
X545218Y548640D02*
X552577D01*
X545218Y550926D02*
X549987D01*
X541706Y518756D02*
X552577Y529628D01*
X544068Y570618D02*
Y579115D01*
X541782Y570618D02*
Y575869D01*
X546354Y523405D02*
Y660527D01*
X539496Y570618D02*
Y574076D01*
X528066Y570618D02*
Y573654D01*
X525780Y570618D02*
Y575167D01*
X523494Y570618D02*
Y577755D01*
X545218Y546982D02*
Y570618D01*
X544068Y521119D02*
Y546982D01*
X541782Y518833D02*
Y546982D01*
X521582Y570618D02*
X545218D01*
X521582Y546982D02*
Y570618D01*
Y546982D02*
X545218D01*
X455278Y656082D02*
X550681D01*
X455278Y653796D02*
X549767D01*
X455278Y649224D02*
X549767D01*
X455278Y651510D02*
X549482D01*
X455278Y644652D02*
X552492D01*
X455278Y646938D02*
X550681D01*
X449482Y592074D02*
X524587D01*
X453213Y587502D02*
X522053D01*
X453762Y585216D02*
X521626D01*
X453818Y573786D02*
X527813D01*
X453731Y582930D02*
X521650D01*
X451956Y589788D02*
X522987D01*
X453113Y580644D02*
X522130D01*
X451759Y578358D02*
X523127D01*
X450342Y657968D02*
Y662832D01*
X448056Y657968D02*
Y662832D01*
X452628Y588756D02*
Y632332D01*
X450342Y591459D02*
Y632332D01*
X445770Y657968D02*
Y662832D01*
Y593431D02*
Y632332D01*
X448056Y592813D02*
Y632332D01*
X453818Y569214D02*
X521582D01*
X453818Y566928D02*
X521582D01*
X453818Y564642D02*
X521582D01*
X452628Y575848D02*
Y579644D01*
X450723Y575848D02*
X453818D01*
Y546354D02*
X552577D01*
X453818Y544068D02*
X552577D01*
X453818Y541782D02*
X552577D01*
X453818Y539496D02*
X552577D01*
X451358Y537210D02*
X552577D01*
X451358Y534924D02*
X552577D01*
X451358Y532638D02*
X552577D01*
X451358Y530352D02*
X552577D01*
X451358Y528066D02*
X551015D01*
X451358Y525780D02*
X548729D01*
X451358Y523494D02*
X546443D01*
X451358Y521208D02*
X544157D01*
X451358Y518922D02*
X541871D01*
X453818Y562356D02*
X521582D01*
X453818Y560070D02*
X521582D01*
X453818Y558848D02*
Y575848D01*
Y556212D02*
Y558848D01*
Y557784D02*
X521582D01*
X453818Y556212D02*
Y558848D01*
Y539212D02*
Y556212D01*
Y555498D02*
X521582D01*
X453818Y553212D02*
X521582D01*
X453818Y550926D02*
X521582D01*
X453818Y548640D02*
X521582D01*
X451358Y533400D02*
Y539212D01*
Y516636D02*
X540312D01*
X595842Y484632D02*
X640080D01*
X599487Y461772D02*
X640080D01*
X601773Y459486D02*
X640080D01*
X604059Y457200D02*
X640080D01*
X595201Y486918D02*
X640080D01*
X596015Y482346D02*
X640080D01*
X595742Y480060D02*
X640080D01*
X610531Y450342D02*
X640080D01*
X611378Y445770D02*
X640080D01*
X613338Y443484D02*
X640080D01*
X613338Y441198D02*
X640080D01*
X606345Y454914D02*
X640080D01*
X608631Y452628D02*
X640080D01*
X611302Y448056D02*
X640080D01*
X605790Y455469D02*
Y782320D01*
X603504Y457755D02*
Y540482D01*
X610362Y450632D02*
Y737362D01*
X608076Y453183D02*
Y782320D01*
X598932Y462312D02*
Y538068D01*
X596646Y463666D02*
Y535775D01*
X601218Y460041D02*
Y540482D01*
X613338Y438912D02*
X640080D01*
X611378Y444478D02*
Y447040D01*
X613338Y436626D02*
X640080D01*
X599209Y462049D02*
X609369Y451889D01*
X640080Y314960D02*
Y782320D01*
X637794Y314960D02*
Y782320D01*
X635508Y314960D02*
Y782320D01*
X633222Y314960D02*
Y737362D01*
X630936Y314960D02*
Y737362D01*
X628650Y314960D02*
Y737362D01*
X626364Y314960D02*
Y737362D01*
X613338Y434340D02*
X640080D01*
X621792Y419478D02*
Y737362D01*
X624078Y314960D02*
Y737362D01*
X619506Y419478D02*
Y737362D01*
X613338Y432054D02*
X640080D01*
X613338Y429768D02*
X640080D01*
X613338Y427482D02*
X640080D01*
X617220Y419478D02*
Y737362D01*
X613338Y426342D02*
Y444478D01*
X614934Y419478D02*
Y737362D01*
X612648Y419478D02*
Y426342D01*
X595702D02*
X613338D01*
X595702D02*
Y444478D01*
X610362Y419478D02*
Y426342D01*
X608076Y419478D02*
Y426342D01*
X605790Y419478D02*
Y426342D01*
X603504Y419478D02*
Y426342D01*
X601218Y419478D02*
Y426342D01*
X598932Y419478D02*
Y426342D01*
X596646Y419478D02*
Y426342D01*
X577723Y512064D02*
X640080D01*
X577723Y509778D02*
X640080D01*
X577723Y507492D02*
X640080D01*
X577723Y505206D02*
X640080D01*
X577723Y502920D02*
X640080D01*
X577723Y500634D02*
X640080D01*
X577723Y498348D02*
X640080D01*
X591987Y491490D02*
X640080D01*
X594001Y489204D02*
X640080D01*
X594988Y477774D02*
X640080D01*
X593638Y475488D02*
X640080D01*
X577723Y496062D02*
X640080D01*
X588042Y493776D02*
X640080D01*
X591365Y473202D02*
X640080D01*
X589788Y493013D02*
Y528917D01*
X587502Y493947D02*
Y526631D01*
X594360Y488637D02*
Y533489D01*
X592074Y491413D02*
Y531203D01*
X585216Y494374D02*
Y524345D01*
X589788Y467613D02*
Y472187D01*
X587502Y468547D02*
Y471253D01*
X592074Y466013D02*
Y473787D01*
X585975Y470916D02*
X640080D01*
X584200Y482600D02*
X594748D01*
X587203Y468630D02*
X640080D01*
X594360Y464058D02*
X640080D01*
X592784Y449077D02*
X597383Y444478D01*
X591687Y466344D02*
X640080D01*
X587203Y445770D02*
X596091D01*
X577723Y443484D02*
X595702D01*
X580301Y434340D02*
X595702D01*
X582587Y432054D02*
X595702D01*
X589445Y425196D02*
X640080D01*
X591731Y422910D02*
X640080D01*
X577723Y441198D02*
X595702D01*
X577723Y438912D02*
X595702D01*
X578015Y436626D02*
X595702D01*
X594360Y464058D02*
Y476563D01*
X589788Y424853D02*
Y446787D01*
X594360Y420281D02*
Y447501D01*
X592074Y422567D02*
Y448387D01*
X587502Y427139D02*
Y445853D01*
X584873Y429768D02*
X595702D01*
X585216Y429425D02*
Y445426D01*
X587159Y427482D02*
X595702D01*
X577723Y436918D02*
X595163Y419478D01*
X567106Y429934D02*
X586202Y410837D01*
X552323Y434378D02*
X588594Y398106D01*
X622838Y418338D02*
X640080D01*
X622838Y416052D02*
X640080D01*
X622838Y413766D02*
X640080D01*
X622838Y411480D02*
X640080D01*
X622838Y409194D02*
X640080D01*
X622838Y406908D02*
X640080D01*
X622838Y404622D02*
X640080D01*
X622838Y402336D02*
X640080D01*
X620268Y400050D02*
X640080D01*
X620268Y397764D02*
X640080D01*
X620268Y395478D02*
X640080D01*
X620268Y393192D02*
X640080D01*
X620268Y390906D02*
X640080D01*
X620268Y388620D02*
X640080D01*
X622838Y401342D02*
Y419478D01*
X620268Y401342D02*
X622838D01*
X621018Y384048D02*
X640080D01*
X620268Y386085D02*
Y401342D01*
Y386334D02*
X640080D01*
X606552Y392418D02*
Y401342D01*
X621393Y381762D02*
X640080D01*
X621319Y379476D02*
X640080D01*
X620787Y377190D02*
X640080D01*
X619724Y374904D02*
X640080D01*
X617931Y372618D02*
X640080D01*
X614685Y370332D02*
X640080D01*
X618413Y363474D02*
X640080D01*
X620013Y361188D02*
X640080D01*
X620947Y358902D02*
X640080D01*
X621792Y314960D02*
Y401342D01*
X606345Y368046D02*
X640080D01*
X615636Y365760D02*
X640080D01*
X621374Y356616D02*
X640080D01*
X621350Y354330D02*
X640080D01*
X620870Y352044D02*
X640080D01*
X619873Y349758D02*
X640080D01*
X618179Y347472D02*
X640080D01*
X609600Y355600D02*
X620148D01*
X615187Y345186D02*
X640080D01*
X617220Y364633D02*
Y371967D01*
X614934Y366146D02*
Y370454D01*
X619506Y362045D02*
Y374555D01*
Y314960D02*
Y349155D01*
X612648Y367018D02*
Y369582D01*
X609600Y355600D02*
Y366148D01*
Y345052D02*
Y355600D01*
X617220Y314960D02*
Y346567D01*
X614934Y314960D02*
Y345054D01*
X612648Y314960D02*
Y344182D01*
X610362Y314960D02*
Y343807D01*
X608076Y314960D02*
Y343881D01*
X605790Y314960D02*
Y344413D01*
X605202Y419478D02*
X622838D01*
X605202Y401342D02*
Y419478D01*
X603838Y401342D02*
Y419478D01*
X603504Y391124D02*
Y401342D01*
X594017Y420624D02*
X640080D01*
X595163Y419478D02*
X603838D01*
X586202Y401342D02*
X603838D01*
X590164Y395478D02*
X606552D01*
X590645Y390906D02*
X603155D01*
X601218Y389331D02*
Y401342D01*
X593233Y388620D02*
X600567D01*
X586651Y400050D02*
X606552D01*
X588913Y397764D02*
X606552D01*
X590423Y393192D02*
X606552D01*
X582079Y404622D02*
X586202D01*
Y401342D02*
Y410837D01*
X598932Y386085D02*
Y401342D01*
X594360Y387037D02*
Y401342D01*
X575221Y411480D02*
X585559D01*
X577507Y409194D02*
X586202D01*
X579793Y406908D02*
X586202D01*
X592074Y389813D02*
Y401342D01*
X589788Y396439D02*
Y401342D01*
X594746Y386334D02*
X599054D01*
X590423Y391047D02*
Y393700D01*
X604613Y366314D02*
X607644Y369345D01*
X603504Y314960D02*
Y341051D01*
X603366Y340614D02*
X640080D01*
X602012Y338328D02*
X640080D01*
X599741Y336042D02*
X640080D01*
X597455Y333756D02*
X640080D01*
X595399Y331701D02*
X601749Y338051D01*
X595157Y331470D02*
X640080D01*
X601218Y314960D02*
Y337519D01*
X596646Y385318D02*
Y401342D01*
X598932Y314960D02*
Y335233D01*
X596646Y314960D02*
Y332947D01*
X595201Y385318D02*
X598599D01*
X594360Y314960D02*
Y330848D01*
X592074Y314960D02*
Y329864D01*
X495300Y329692D02*
X590550D01*
X589788Y314960D02*
Y329692D01*
X587502Y314960D02*
Y329692D01*
X582930Y494350D02*
Y522059D01*
X580644Y493870D02*
Y519773D01*
X578358Y492873D02*
Y517487D01*
X577723Y492485D02*
Y516852D01*
X552615Y512064D02*
X565277D01*
X552323Y509778D02*
X565277D01*
X552323Y507492D02*
X565277D01*
X552323Y505206D02*
X565277D01*
X552323Y502920D02*
X565277D01*
X577723Y493776D02*
X580358D01*
X562642D02*
X565277D01*
X552323Y500634D02*
X565277D01*
X552323Y498348D02*
X565277D01*
X552323Y496062D02*
X565277D01*
X552323Y511772D02*
X563194Y522644D01*
X560070Y494350D02*
Y519519D01*
X562356Y493870D02*
Y521805D01*
X537210Y493787D02*
Y546982D01*
X534924Y494319D02*
Y546982D01*
X532638Y494393D02*
Y546982D01*
X530352Y494018D02*
Y546982D01*
X557784Y494374D02*
Y517233D01*
X555498Y493947D02*
Y514947D01*
X552323Y493776D02*
X554958D01*
X537242D02*
X539877D01*
X584200Y482600D02*
Y493148D01*
Y472052D02*
Y482600D01*
X578358Y467473D02*
Y472327D01*
X577723Y467085D02*
Y472715D01*
X565277Y492485D02*
Y519430D01*
X564642Y492873D02*
Y524906D01*
X577723Y470916D02*
X582425D01*
X580644Y468470D02*
Y471330D01*
X577723Y468630D02*
X581197D01*
X578358Y436283D02*
Y446927D01*
X577723Y436918D02*
Y447315D01*
X565277Y434340D02*
Y447315D01*
X539877Y492485D02*
Y514350D01*
X539496Y492724D02*
Y546982D01*
X528066Y493146D02*
Y546982D01*
X525780Y491633D02*
Y546982D01*
X523494Y489045D02*
Y546982D01*
X521208Y486918D02*
Y782320D01*
X518922Y487114D02*
Y782320D01*
X553212Y493013D02*
Y512661D01*
X552323Y492485D02*
Y511772D01*
X517801Y489204D02*
X523599D01*
X519001Y486918D02*
X522399D01*
X519001D02*
X522399D01*
X509778Y494283D02*
Y666822D01*
X507492Y494407D02*
Y666822D01*
X514350Y492567D02*
Y666822D01*
X512064Y493697D02*
Y666822D01*
X451358Y514350D02*
X539877D01*
X451358Y512064D02*
X539877D01*
X451358Y509778D02*
X539877D01*
X451358Y507492D02*
X539877D01*
X451358Y505206D02*
X539877D01*
X451358Y502920D02*
X539877D01*
X511842Y493776D02*
X529558D01*
X451358Y500634D02*
X539877D01*
X451358Y498348D02*
X539877D01*
X451358Y496062D02*
X539877D01*
X505206Y494083D02*
Y666822D01*
X484632Y494242D02*
Y663822D01*
X502920Y493270D02*
Y666822D01*
X486918Y493601D02*
Y663822D01*
X482346Y494415D02*
Y663822D01*
X459486Y494195D02*
Y668782D01*
X457200Y494418D02*
Y668782D01*
X486442Y493776D02*
X504158D01*
X480060Y494142D02*
Y663822D01*
X477774Y493388D02*
Y663822D01*
X461772Y493498D02*
Y663822D01*
X454914Y494195D02*
Y632332D01*
X461042Y493776D02*
X478758D01*
X516636Y490667D02*
Y666822D01*
X500634Y491842D02*
Y666822D01*
X498348Y489419D02*
Y663822D01*
X496062Y486918D02*
Y663822D01*
X491490Y490387D02*
Y663822D01*
X493776Y486918D02*
Y663822D01*
X515787Y491490D02*
X525613D01*
X493601Y486918D02*
X496999D01*
X493601D02*
X496999D01*
X490387Y491490D02*
X500213D01*
X492401Y489204D02*
X498199D01*
X489204Y492401D02*
Y663822D01*
X475488Y492038D02*
Y663822D01*
X473202Y489765D02*
Y663822D01*
X470916Y486918D02*
Y663822D01*
X466344Y490087D02*
Y663822D01*
X464058Y492225D02*
Y663822D01*
X468630Y486918D02*
Y663822D01*
X467001Y489204D02*
X472799D01*
X468201Y486918D02*
X471599D01*
X468201D02*
X471599D01*
X464987Y491490D02*
X474813D01*
X451358Y492873D02*
Y533400D01*
X577723Y445770D02*
X581197D01*
X580644Y433997D02*
Y445930D01*
X582930Y431711D02*
Y445450D01*
X554647Y432054D02*
X565712D01*
X561803Y445770D02*
X565277D01*
X566077Y420624D02*
X576415D01*
X563791Y422910D02*
X574129D01*
X568363Y418338D02*
X578701D01*
X566928Y419773D02*
Y430118D01*
X559219Y427482D02*
X569557D01*
X556933Y429768D02*
X567271D01*
X561505Y425196D02*
X571843D01*
X560070Y426631D02*
Y445450D01*
X555498Y431203D02*
Y445853D01*
X564642Y422059D02*
Y446927D01*
X562356Y424345D02*
Y445930D01*
X552323Y445770D02*
X555797D01*
X552323Y434378D02*
Y447315D01*
X553212Y433489D02*
Y446787D01*
X552323Y443484D02*
X565277D01*
X552323Y441198D02*
X565277D01*
X557784Y428917D02*
Y445426D01*
X552323Y438912D02*
X565277D01*
X552323Y436626D02*
X565277D01*
X552361Y434340D02*
X565277D01*
X578358Y408343D02*
Y418681D01*
X576072Y410629D02*
Y420967D01*
X582930Y403771D02*
Y414109D01*
X580644Y406057D02*
Y416395D01*
X572935Y413766D02*
X583273D01*
X570649Y416052D02*
X580987D01*
X573786Y412915D02*
Y423253D01*
X585216Y401485D02*
Y411823D01*
Y314960D02*
Y329692D01*
X582930Y314960D02*
Y329692D01*
X580644Y314960D02*
Y329692D01*
X578358Y314960D02*
Y329692D01*
X576072Y314960D02*
Y329692D01*
X573786Y314960D02*
Y329692D01*
X571500Y415201D02*
Y425539D01*
X569214Y417487D02*
Y427825D01*
X571500Y314960D02*
Y329692D01*
X569214Y314960D02*
Y329692D01*
X566928Y314960D02*
Y329692D01*
X564642Y314960D02*
Y329692D01*
X562356Y314960D02*
Y329692D01*
X560070Y314960D02*
Y329692D01*
X557784Y314960D02*
Y329692D01*
X555498Y314960D02*
Y329692D01*
X553212Y314960D02*
Y329692D01*
X550926Y314960D02*
Y329692D01*
X548640Y314960D02*
Y329692D01*
X546354Y314960D02*
Y329692D01*
X544068Y314960D02*
Y329692D01*
X541782Y314960D02*
Y329692D01*
X539496Y314960D02*
Y329692D01*
X537210Y314960D02*
Y329692D01*
X534924Y314960D02*
Y329692D01*
X532638Y314960D02*
Y329692D01*
X530352Y314960D02*
Y329692D01*
X528066Y314960D02*
Y329692D01*
X525780Y314960D02*
Y329692D01*
X523494Y314960D02*
Y329692D01*
X521208Y314960D02*
Y329692D01*
X518922Y314960D02*
Y329692D01*
X516636Y314960D02*
Y329692D01*
X471401Y350751D02*
X490451Y331701D01*
X469392Y355600D02*
Y384509D01*
X444500Y409401D02*
X469392Y384509D01*
X514350Y314960D02*
Y329692D01*
X512064Y314960D02*
Y329692D01*
X509778Y314960D02*
Y329692D01*
X507492Y314960D02*
Y329692D01*
X505206Y314960D02*
Y329692D01*
X502920Y314960D02*
Y329692D01*
X486918Y314960D02*
Y335233D01*
X484632Y314960D02*
Y337519D01*
X482346Y314960D02*
Y339805D01*
X480060Y314960D02*
Y342091D01*
X477774Y314960D02*
Y344377D01*
X475488Y314960D02*
Y346663D01*
X473202Y314960D02*
Y348949D01*
X500634Y314960D02*
Y329692D01*
X498348Y314960D02*
Y329692D01*
X496062Y314960D02*
Y329692D01*
X493776Y314960D02*
Y329864D01*
X491490Y314960D02*
Y330848D01*
X489204Y314960D02*
Y332947D01*
X457200Y314960D02*
Y396701D01*
X454914Y314960D02*
Y398987D01*
X452628Y314960D02*
Y401273D01*
X450342Y314960D02*
Y403559D01*
X448056Y314960D02*
Y405845D01*
X445770Y314960D02*
Y408131D01*
X443484Y314960D02*
Y408385D01*
X470916Y314960D02*
Y351289D01*
X468630Y314960D02*
Y385271D01*
X466344Y314960D02*
Y387557D01*
X464058Y314960D02*
Y389843D01*
X461772Y314960D02*
Y392129D01*
X459486Y314960D02*
Y394415D01*
X425988Y745236D02*
X610362D01*
X425988Y742950D02*
X610362D01*
X425988Y740664D02*
X610362D01*
X425988Y738378D02*
X610362D01*
X425988Y736092D02*
X640080D01*
X425988Y733806D02*
X640080D01*
X425988Y731520D02*
X640080D01*
X425988Y729234D02*
X640080D01*
X425988Y720090D02*
X506478D01*
X425988Y717804D02*
X502696D01*
X425988Y715518D02*
X501013D01*
X422783Y726948D02*
X640080D01*
X422783Y724662D02*
X640080D01*
X422783Y722376D02*
X640080D01*
X425196Y745918D02*
Y782320D01*
X422910Y745918D02*
Y782320D01*
X425988Y727282D02*
Y745918D01*
X425196Y720518D02*
Y727282D01*
X420624Y745918D02*
Y782320D01*
X418338Y745918D02*
Y782320D01*
X422783Y727282D02*
X425988D01*
Y713232D02*
X500176D01*
X425988Y710946D02*
X499955D01*
X425988Y708660D02*
X500305D01*
X422910Y720518D02*
Y727282D01*
X422783Y720518D02*
Y727282D01*
Y720518D02*
X425988D01*
X443484Y688468D02*
Y782320D01*
X441198Y688468D02*
Y782320D01*
X438912Y688468D02*
Y782320D01*
X436626Y688468D02*
Y782320D01*
X434340Y688468D02*
Y782320D01*
X432054Y688468D02*
Y782320D01*
X429768Y688468D02*
Y782320D01*
X425988Y704088D02*
X503047D01*
X425988Y706374D02*
X501299D01*
X422593Y699516D02*
X503047D01*
X428642Y688468D02*
X455278D01*
X421480Y697230D02*
X503047D01*
X419265Y694944D02*
X503047D01*
X416979Y692658D02*
X503047D01*
X425988Y701882D02*
Y720518D01*
X422783Y701882D02*
X425988D01*
X427482Y682263D02*
Y782320D01*
X425196Y681164D02*
Y701882D01*
X422910Y678989D02*
Y701882D01*
X428642Y682470D02*
Y688468D01*
X420624Y676703D02*
Y696303D01*
X418338Y674417D02*
Y694017D01*
X417529Y673608D02*
X424411Y680489D01*
X304038Y782320D02*
X610362D01*
X304038Y781812D02*
X610362D01*
X304038Y779526D02*
X610362D01*
X304038Y777240D02*
X610362D01*
X304038Y774954D02*
X610362D01*
X304038Y772668D02*
X610362D01*
X304038Y770382D02*
X610362D01*
X304038Y768096D02*
X610362D01*
X304038Y765810D02*
X610362D01*
X304038Y763524D02*
X610362D01*
X304038Y761238D02*
X610362D01*
X304038Y758952D02*
X610362D01*
X304038Y756666D02*
X610362D01*
X304038Y754380D02*
X610362D01*
X416052Y745918D02*
Y782320D01*
X413766Y745918D02*
Y782320D01*
X411480Y745918D02*
Y782320D01*
X409194Y745918D02*
Y782320D01*
X406908Y745918D02*
Y782320D01*
X404622Y745918D02*
Y782320D01*
X402336Y745918D02*
Y782320D01*
X408988Y745918D02*
X425988D01*
X406352D02*
X408988D01*
X406352D02*
X408988D01*
X304038Y752094D02*
X610362D01*
X304038Y749808D02*
X610362D01*
X304038Y747522D02*
X610362D01*
X400050Y745918D02*
Y782320D01*
X397764Y745918D02*
Y782320D01*
X413893Y689572D02*
X420954Y696634D01*
X395478Y745918D02*
Y782320D01*
X389352Y745918D02*
X406352D01*
X393192D02*
Y782320D01*
X389352Y727282D02*
X392557D01*
X414693Y690372D02*
X503047D01*
X413893Y688086D02*
X428642D01*
X416052Y673608D02*
Y691731D01*
X413893Y673608D02*
Y689572D01*
Y685800D02*
X428642D01*
X413893Y683514D02*
X428642D01*
X413893Y681228D02*
X425284D01*
X390906Y745918D02*
Y782320D01*
X385348Y745236D02*
X389352D01*
X385348Y742950D02*
X389352D01*
X385348Y740664D02*
X389352D01*
X385348Y738378D02*
X389352D01*
X385348Y736092D02*
X389352D01*
X385348Y733806D02*
X389352D01*
X392557Y720518D02*
Y727282D01*
X390906Y720518D02*
Y727282D01*
X389352Y720518D02*
X392557D01*
X382143Y726948D02*
X392557D01*
X382143Y724662D02*
X392557D01*
X382143Y722376D02*
X392557D01*
X443484Y657968D02*
Y662832D01*
X441198Y657968D02*
Y662832D01*
X438912Y657968D02*
Y662832D01*
X436626Y657968D02*
Y662832D01*
X428642D02*
X455278D01*
X434340Y657968D02*
Y662832D01*
X432054Y657968D02*
Y662832D01*
X441960Y645150D02*
X454008D01*
X441960D02*
Y656698D01*
X429912Y645150D02*
X441960D01*
Y633602D02*
Y645150D01*
X423512Y660654D02*
X525402D01*
X429768Y657968D02*
Y662832D01*
X428642Y657968D02*
X455278D01*
X425219Y661901D02*
X428642Y665323D01*
X413893Y678942D02*
X422863D01*
X413893Y676656D02*
X420577D01*
X413893Y674370D02*
X418291D01*
X413893Y673608D02*
X417529D01*
X413300Y642366D02*
X428642D01*
X413766Y640819D02*
Y659892D01*
X413866Y640080D02*
X428642D01*
X413893Y637794D02*
X428642D01*
X413893Y635508D02*
X428642D01*
X413893Y633222D02*
X428642D01*
X413893Y630936D02*
X640080D01*
X428642Y632332D02*
X455278D01*
X425120Y621792D02*
X640080D01*
X443484Y593462D02*
Y632332D01*
X413893Y628650D02*
X640080D01*
X413893Y626364D02*
X640080D01*
X413762Y624078D02*
X640080D01*
X427071Y619506D02*
X640080D01*
X428065Y617220D02*
X640080D01*
X428414Y614934D02*
X640080D01*
X428194Y612648D02*
X640080D01*
X427357Y610362D02*
X640080D01*
X425674Y608076D02*
X640080D01*
X421892Y605790D02*
X640080D01*
X428642Y632332D02*
Y657968D01*
X422910Y623184D02*
Y660380D01*
X427482Y618750D02*
Y664163D01*
X425196Y621727D02*
Y661877D01*
X420624Y623872D02*
Y659897D01*
X418338Y623967D02*
Y659892D01*
X416052Y623485D02*
Y659892D01*
X441198Y592913D02*
Y632332D01*
X438912Y591656D02*
Y632332D01*
X436626Y589183D02*
Y632332D01*
X413893Y625475D02*
Y639445D01*
X409194Y646398D02*
Y659892D01*
X406908Y646921D02*
Y659892D01*
X411480Y644953D02*
Y659892D01*
X404622Y646724D02*
Y659892D01*
X387858Y658368D02*
X525402D01*
X387858Y659892D02*
X420370D01*
X387858Y656082D02*
X428642D01*
X406400Y646938D02*
X428642D01*
X393700D02*
X406400D01*
X411788Y644652D02*
X428642D01*
X387858Y653796D02*
X428642D01*
X387858Y651510D02*
X428642D01*
X387858Y649224D02*
X428642D01*
X402336Y645740D02*
Y659892D01*
X395478Y646724D02*
Y659892D01*
X400050Y643423D02*
Y659892D01*
X397764Y645740D02*
Y659892D01*
X393192Y646921D02*
Y659892D01*
X390906Y646398D02*
Y659892D01*
X387858Y646938D02*
X393700D01*
Y632460D02*
Y645668D01*
Y619252D02*
Y632460D01*
X375158Y617220D02*
X400177D01*
X375158Y614934D02*
X400177D01*
X409068Y605790D02*
X416308D01*
X409068Y603504D02*
X640080D01*
X409068Y601218D02*
X640080D01*
X375158Y608076D02*
X412526D01*
X406400Y608457D02*
X412165D01*
X383432Y607678D02*
X409068D01*
Y598932D02*
X640080D01*
X409068Y596646D02*
X640080D01*
X409068Y594360D02*
X527364D01*
X409068Y592074D02*
X439518D01*
X409068Y589788D02*
X437043D01*
X409068Y587502D02*
X435787D01*
X400177Y614680D02*
Y621301D01*
X400050Y607678D02*
Y621497D01*
X397764Y607678D02*
Y619180D01*
X395478Y607678D02*
Y618196D01*
X393192Y607678D02*
Y617999D01*
X390906Y607678D02*
Y618522D01*
X396250Y594360D02*
Y606408D01*
Y594360D02*
X407798D01*
X375158Y610362D02*
X401919D01*
X375158Y612648D02*
X400518D01*
X384702Y594360D02*
X396250D01*
X384048Y745918D02*
Y782320D01*
X381762Y745918D02*
Y782320D01*
X379476Y745918D02*
Y782320D01*
X377190Y745918D02*
Y782320D01*
X374904Y745918D02*
Y782320D01*
X372618Y745918D02*
Y782320D01*
X370332Y745918D02*
Y782320D01*
X385348Y731520D02*
X389352D01*
X385348Y729234D02*
X389352D01*
Y727282D02*
Y745918D01*
X385348Y727282D02*
Y745918D01*
X368348D02*
X385348D01*
X365712D02*
X368348D01*
X382143Y727282D02*
X385348D01*
X368046Y745918D02*
Y782320D01*
X365760Y745918D02*
Y782320D01*
X363474Y745918D02*
Y782320D01*
X361188Y745918D02*
Y782320D01*
X358902Y745918D02*
Y782320D01*
X356616Y745918D02*
Y782320D01*
X354330Y745918D02*
Y782320D01*
X365712Y745918D02*
X368348D01*
X352044D02*
Y782320D01*
X349758Y745918D02*
Y782320D01*
X304038Y762762D02*
Y782320D01*
Y762762D02*
Y782320D01*
X348712Y745918D02*
X365712D01*
X389352Y710573D02*
Y720518D01*
X385348Y710573D02*
Y720518D01*
X388620Y709714D02*
Y782320D01*
X386334Y709325D02*
Y782320D01*
X385348Y720090D02*
X389352D01*
X382143Y720518D02*
X385348D01*
Y717804D02*
X389352D01*
X385348Y715518D02*
X389352D01*
X385348Y713232D02*
X389352D01*
X385348Y710946D02*
X389352D01*
X384048Y720518D02*
Y727282D01*
X348712D02*
Y745918D01*
X347472Y678718D02*
Y782320D01*
X345186Y678718D02*
Y782320D01*
X342900Y678718D02*
Y782320D01*
X340614Y678718D02*
Y782320D01*
X338328Y678718D02*
Y782320D01*
X382143Y720518D02*
Y727282D01*
X351917Y720518D02*
Y727282D01*
X349758Y720518D02*
Y727282D01*
X348712D02*
X351917D01*
X348712Y720518D02*
X351917D01*
X348712Y701882D02*
Y720518D01*
X292100Y774700D02*
X302768D01*
X274320Y782320D02*
X280162D01*
X281432Y774700D02*
X292100D01*
Y764032D02*
Y774700D01*
X274320Y781812D02*
X280162D01*
X274320Y779526D02*
X280162D01*
X274320Y777240D02*
X280162D01*
Y762762D02*
X304038D01*
X292100Y749300D02*
Y759968D01*
Y749300D02*
X302768D01*
X281432D02*
X292100D01*
X280162Y761238D02*
X304038D01*
X274320Y774954D02*
X280162D01*
Y761238D02*
X304038D01*
X274320Y772668D02*
X280162D01*
X274320Y770382D02*
X280162D01*
X274320Y768096D02*
X280162D01*
Y762762D02*
Y782320D01*
X274320Y765810D02*
X280162D01*
X274320Y763524D02*
X280162D01*
X274320Y761238D02*
X280162D01*
X274320Y758952D02*
X280162D01*
X274320Y756666D02*
X280162D01*
X274320Y754380D02*
X280162D01*
X274320Y752094D02*
X280162D01*
X274320Y749808D02*
X280162D01*
X274320Y747522D02*
X280162D01*
X304038Y745236D02*
X348712D01*
X304038Y742950D02*
X348712D01*
X304038Y740664D02*
X348712D01*
X304038Y738378D02*
X348712D01*
X274320Y736092D02*
X348712D01*
X274320Y733806D02*
X348712D01*
X274320Y731520D02*
X348712D01*
X274320Y726948D02*
X351917D01*
X274320Y729234D02*
X348712D01*
X274320Y724662D02*
X351917D01*
X274320Y722376D02*
X351917D01*
X274320Y720090D02*
X348712D01*
X274320Y717804D02*
X348712D01*
X304038Y737362D02*
Y761238D01*
X292100Y738632D02*
Y749300D01*
X304038Y737362D02*
Y761238D01*
X280162Y737362D02*
Y761238D01*
X274320Y745236D02*
X280162D01*
X274320Y742950D02*
X280162D01*
X274320Y740664D02*
X280162D01*
Y737362D02*
X304038D01*
X274320Y738378D02*
X280162D01*
X274320Y715518D02*
X348712D01*
X274320Y713232D02*
X348712D01*
X274320Y710946D02*
X348712D01*
X274320Y708660D02*
X348712D01*
X387477Y696959D02*
Y706120D01*
X387223Y696959D02*
Y706120D01*
X360807Y678815D02*
Y692112D01*
X353746Y699174D02*
X360807Y692112D01*
X358902Y673608D02*
Y694017D01*
X356616Y673608D02*
Y696303D01*
X388620Y644953D02*
Y659892D01*
X361188Y673608D02*
Y676456D01*
X387858Y644137D02*
Y659892D01*
X358140Y628142D02*
X360807D01*
X354758Y674370D02*
X362268D01*
X354758Y676656D02*
X361125D01*
X354758Y673608D02*
X362912D01*
X354330Y678718D02*
Y698589D01*
X352044Y678718D02*
Y701882D01*
X348712D02*
X352153D01*
X349758Y678718D02*
Y701882D01*
X336122Y678718D02*
X354758D01*
Y673608D02*
Y678718D01*
X336122Y661718D02*
Y678718D01*
X341359Y642082D02*
X353291Y630151D01*
X336122Y659082D02*
Y661718D01*
Y659082D02*
Y661718D01*
Y642082D02*
Y659082D01*
X385530Y619506D02*
X389170D01*
X388620Y607678D02*
Y619967D01*
X386334Y607678D02*
Y620213D01*
X384048Y607678D02*
Y618630D01*
X378568Y605790D02*
X383432D01*
X378568Y603504D02*
X383432D01*
X378568Y601218D02*
X383432D01*
X378568Y598932D02*
X383432D01*
X378568Y596646D02*
X383432D01*
X378568Y594360D02*
X383432D01*
X378568Y592074D02*
X383432D01*
X378568Y589788D02*
X383432D01*
X378568Y587502D02*
X383432D01*
X360807Y625475D02*
Y628142D01*
X358902Y607678D02*
Y628142D01*
X356616Y607678D02*
Y628313D01*
X354330Y607678D02*
Y629298D01*
X377190Y607678D02*
Y619023D01*
X375158Y607678D02*
Y620783D01*
Y607678D02*
X378568D01*
X361188D02*
Y623116D01*
X361442Y607678D02*
Y622456D01*
X352932Y607678D02*
X361442D01*
X274320Y706374D02*
X348712D01*
X274320Y704088D02*
X348712D01*
X274320Y699516D02*
X353427D01*
X274320Y701802D02*
X352176D01*
X274320Y694944D02*
X357975D01*
X274320Y697230D02*
X355689D01*
X274320Y692658D02*
X360261D01*
X274320Y690372D02*
X360807D01*
X274320Y688086D02*
X360807D01*
X274320Y685800D02*
X360807D01*
X274320Y683514D02*
X360807D01*
X274320Y681228D02*
X360807D01*
X274320Y678942D02*
X360807D01*
X274320Y676656D02*
X336122D01*
X274320Y674370D02*
X336122D01*
X274320Y672084D02*
X336122D01*
X274320Y669798D02*
X336122D01*
X274320Y667512D02*
X336122D01*
X274320Y665226D02*
X336122D01*
X274320Y662940D02*
X336122D01*
X274320Y660654D02*
X336122D01*
X274320Y658368D02*
X336122D01*
X274320Y656082D02*
X336122D01*
X274320Y653796D02*
X336122D01*
X274320Y651510D02*
X336122D01*
X274320Y649224D02*
X336122D01*
X274320Y646938D02*
X336122D01*
X274320Y628650D02*
X355550D01*
X274320Y630936D02*
X352505D01*
X274320Y626364D02*
X360807D01*
X274320Y624078D02*
X360938D01*
X274320Y621792D02*
X361442D01*
X274320Y619506D02*
X361442D01*
X274320Y617220D02*
X361442D01*
X274320Y614934D02*
X361442D01*
X274320Y612648D02*
X361442D01*
X274320Y610362D02*
X361442D01*
X274320Y608076D02*
X361442D01*
X274320Y605790D02*
X352932D01*
X274320Y603504D02*
X352932D01*
X274320Y644652D02*
X336122D01*
X274320Y642366D02*
X336122D01*
X274320Y640080D02*
X343361D01*
X336122Y642082D02*
X341359D01*
X274320Y635508D02*
X347933D01*
X274320Y637794D02*
X345647D01*
X274320Y633222D02*
X350219D01*
X274320Y601218D02*
X352932D01*
X274320Y598932D02*
X352932D01*
X274320Y596646D02*
X352932D01*
X274320Y594360D02*
X352932D01*
X274320Y592074D02*
X352932D01*
X274320Y589788D02*
X352932D01*
X434340Y540258D02*
Y632332D01*
X432054Y540258D02*
Y632332D01*
X429768Y540258D02*
Y632332D01*
X409068Y585216D02*
X435238D01*
X427482Y540258D02*
Y610610D01*
X425196Y540258D02*
Y607633D01*
X435182Y575848D02*
X438277D01*
X436626D02*
Y579217D01*
X435182Y558848D02*
Y575848D01*
Y556212D02*
Y558848D01*
X409068Y582930D02*
X435269D01*
X435182Y556212D02*
Y558848D01*
Y540258D02*
Y556212D01*
X422910Y540258D02*
Y606176D01*
X420624Y540258D02*
Y605488D01*
X416052Y540258D02*
Y605875D01*
X413766Y540258D02*
Y607040D01*
X411480Y540258D02*
Y608457D01*
X409068Y581042D02*
Y607678D01*
X409194Y540258D02*
Y608457D01*
X418338Y540258D02*
Y605393D01*
X406908Y540258D02*
Y581042D01*
X404622Y540258D02*
Y581042D01*
X402336Y540258D02*
Y581042D01*
X396250Y582312D02*
Y594360D01*
X400050Y540258D02*
Y581042D01*
X434340Y494142D02*
Y526542D01*
X432054Y494415D02*
Y526542D01*
X437642Y492873D02*
Y526542D01*
X436626Y493388D02*
Y526542D01*
X429768Y494242D02*
Y526542D01*
X427482Y493601D02*
Y526542D01*
X425196Y492401D02*
Y526542D01*
X422910Y490387D02*
Y526542D01*
X420624Y486918D02*
Y526542D01*
X418338Y486918D02*
Y526542D01*
X413766Y491842D02*
Y526542D01*
X411480Y493270D02*
Y526542D01*
X416052Y489419D02*
Y526542D01*
X409194Y494083D02*
Y526542D01*
X397764Y540258D02*
Y581042D01*
X406908Y494407D02*
Y526542D01*
X404622Y494283D02*
Y526542D01*
X395478Y540258D02*
Y581042D01*
X393192Y540258D02*
Y581042D01*
X390906Y540258D02*
Y581042D01*
X402336Y493697D02*
Y526542D01*
X400050Y492567D02*
Y526542D01*
X397764Y490667D02*
Y526542D01*
X395478Y487114D02*
Y526542D01*
X390906Y489045D02*
Y526542D01*
X393192Y486918D02*
Y526542D01*
X375158Y578358D02*
X437241D01*
X375158Y580644D02*
X435887D01*
X375158Y573786D02*
X435182D01*
X375158Y571500D02*
X435182D01*
X375158Y569214D02*
X435182D01*
X375158Y566928D02*
X435182D01*
X375158Y564642D02*
X435182D01*
X375158Y562356D02*
X435182D01*
X375158Y560070D02*
X435182D01*
X375158Y557784D02*
X435182D01*
X375158Y555498D02*
X435182D01*
X375158Y553212D02*
X435182D01*
X375158Y550926D02*
X435182D01*
X375158Y548640D02*
X435182D01*
X383432Y581042D02*
X409068D01*
X383432D02*
Y607678D01*
X388620Y540258D02*
Y581042D01*
X381762Y540258D02*
Y618021D01*
X378568Y585216D02*
X383432D01*
X378568Y582930D02*
X383432D01*
X378568Y581042D02*
Y607678D01*
X386334Y540258D02*
Y581042D01*
X375158D02*
X378568D01*
X384048Y540258D02*
Y581042D01*
X375158Y546354D02*
X435182D01*
X375158Y544068D02*
X435182D01*
X375158Y541782D02*
X435182D01*
X368300Y526542D02*
X437642D01*
X274320Y525780D02*
X437642D01*
X274320Y523494D02*
X437642D01*
X274320Y521208D02*
X437642D01*
X274320Y518922D02*
X437642D01*
X274320Y516636D02*
X437642D01*
X274320Y514350D02*
X437642D01*
X274320Y512064D02*
X437642D01*
X274320Y509778D02*
X437642D01*
X274320Y507492D02*
X437642D01*
X274320Y505206D02*
X437642D01*
X274320Y502920D02*
X437642D01*
X274320Y500634D02*
X437642D01*
X384048Y494018D02*
Y526542D01*
X379476Y540258D02*
Y618139D01*
X388620Y491633D02*
Y526542D01*
X386334Y493146D02*
Y526542D01*
X377190Y540258D02*
Y581042D01*
X375158Y540258D02*
Y581042D01*
Y540258D02*
X435182D01*
X381762Y494393D02*
Y526542D01*
X379476Y494319D02*
Y526542D01*
X377190Y493787D02*
Y526542D01*
X274320Y498348D02*
X437642D01*
X274320Y496062D02*
X437642D01*
X374904Y492724D02*
Y526542D01*
X430577Y395478D02*
X458423D01*
X432863Y397764D02*
X456137D01*
X426005Y390906D02*
X462995D01*
X428291Y393192D02*
X460709D01*
X421433Y386334D02*
X467567D01*
X423719Y388620D02*
X465281D01*
X419147Y384048D02*
X469392D01*
X418119Y379476D02*
X469392D01*
X417587Y377190D02*
X469392D01*
X416524Y374904D02*
X469392D01*
X415213Y363474D02*
X469392D01*
X414731Y372618D02*
X469392D01*
X411485Y370332D02*
X469392D01*
X412436Y365760D02*
X469392D01*
X417401Y486918D02*
X420799D01*
X417401D02*
X420799D01*
X442007Y406908D02*
X446993D01*
X418055Y382956D02*
X444500Y409401D01*
X410242Y493776D02*
X427958D01*
X414187Y491490D02*
X424013D01*
X416201Y489204D02*
X421999D01*
X437435Y402336D02*
X451565D01*
X439721Y404622D02*
X449279D01*
X435149Y400050D02*
X453851D01*
X413766Y364842D02*
Y371758D01*
X411480Y366270D02*
Y370330D01*
X416052Y362419D02*
Y374181D01*
X441198Y314960D02*
Y406099D01*
X438912Y314960D02*
Y403813D01*
X436626Y314960D02*
Y401527D01*
X434340Y314960D02*
Y399241D01*
X416813Y361188D02*
X469392D01*
X432054Y314960D02*
Y396955D01*
X429768Y314960D02*
Y394669D01*
X417747Y358902D02*
X469392D01*
X418174Y356616D02*
X469392D01*
X417670Y352044D02*
X470386D01*
X418150Y354330D02*
X469511D01*
X414979Y347472D02*
X474679D01*
X416673Y349758D02*
X472393D01*
X411987Y345186D02*
X476965D01*
X427482Y314960D02*
Y392383D01*
X425196Y314960D02*
Y390097D01*
X422910Y314960D02*
Y387811D01*
X420624Y314960D02*
Y385525D01*
X406400Y355600D02*
X416948D01*
X406400D02*
Y366148D01*
X418338Y314960D02*
Y383239D01*
X416052Y314960D02*
Y348781D01*
X413766Y314960D02*
Y346358D01*
X411480Y314960D02*
Y344930D01*
X409194Y314960D02*
Y344117D01*
X406400Y345052D02*
Y355600D01*
X406908Y314960D02*
Y343793D01*
X399923Y368300D02*
Y371115D01*
X402336Y366697D02*
Y369903D01*
X400050Y365567D02*
Y371033D01*
X384842Y493776D02*
X402558D01*
X399918Y368046D02*
X469392D01*
X395852Y355600D02*
X406400D01*
X386587Y345186D02*
X400813D01*
X274320Y342900D02*
X479251D01*
X390801Y489204D02*
X396599D01*
X392001Y486918D02*
X395399D01*
X392505Y358304D02*
X397127Y362926D01*
X392001Y486918D02*
X395399D01*
X388787Y491490D02*
X398613D01*
X359442Y493776D02*
X377158D01*
X392270Y352044D02*
X395130D01*
X391273Y349758D02*
X396127D01*
X389579Y347472D02*
X397821D01*
X361187Y345186D02*
X375413D01*
X274320Y338328D02*
X483823D01*
X274320Y340614D02*
X481537D01*
X274320Y333756D02*
X488395D01*
X274320Y336042D02*
X486109D01*
X274320Y329184D02*
X640080D01*
X274320Y331470D02*
X490693D01*
X274320Y326898D02*
X640080D01*
X274320Y324612D02*
X640080D01*
X274320Y322326D02*
X640080D01*
X274320Y320040D02*
X640080D01*
X274320Y317754D02*
X640080D01*
X274320Y315468D02*
X640080D01*
X274320Y314960D02*
X640080D01*
X400050D02*
Y345633D01*
X397764Y314960D02*
Y347533D01*
X395478Y314960D02*
Y351086D01*
X393192Y314960D02*
Y358991D01*
X390906Y314960D02*
Y349155D01*
X388620Y314960D02*
Y346567D01*
X386334Y314960D02*
Y345054D01*
X404622Y314960D02*
Y343917D01*
X402336Y314960D02*
Y344503D01*
X384048Y314960D02*
Y344182D01*
X381762Y314960D02*
Y343807D01*
X379476Y314960D02*
Y343881D01*
X377190Y314960D02*
Y344413D01*
X372618Y490931D02*
Y526542D01*
X361442Y533400D02*
Y581042D01*
X370332Y487685D02*
Y526542D01*
X363474Y491413D02*
Y528527D01*
X352932Y581042D02*
X361442D01*
X368046Y486918D02*
Y526547D01*
X365760Y488637D02*
Y527030D01*
X366601Y486918D02*
X369999D01*
X366601D02*
X369999D01*
X363387Y491490D02*
X373213D01*
X365401Y489204D02*
X371199D01*
X352044Y493870D02*
Y631397D01*
X349758Y492873D02*
Y633683D01*
X347472Y491179D02*
Y635969D01*
X345186Y488187D02*
Y638255D01*
X342900Y478701D02*
Y640541D01*
X340614Y476415D02*
Y642082D01*
X338328Y474122D02*
Y642082D01*
X358902Y493947D02*
Y581042D01*
X356616Y494374D02*
Y581042D01*
X361188Y493013D02*
Y581042D01*
X354330Y494350D02*
Y581042D01*
X352932D02*
Y607678D01*
X338506Y474306D02*
X344095Y479896D01*
X336042Y433743D02*
Y782320D01*
X333756Y431457D02*
Y782320D01*
X331470Y429171D02*
Y782320D01*
X329184Y426885D02*
Y782320D01*
X326898Y424599D02*
Y782320D01*
X324612Y422313D02*
Y782320D01*
X322326Y420027D02*
Y782320D01*
X336677Y434378D02*
Y469900D01*
X320040Y417741D02*
Y782320D01*
X317754Y415455D02*
Y782320D01*
X315468Y413169D02*
Y782320D01*
X313182Y410883D02*
Y782320D01*
X310896Y408597D02*
Y782320D01*
X308610Y406311D02*
Y782320D01*
X306324Y404025D02*
Y782320D01*
X304038Y401739D02*
Y737362D01*
X301752Y399453D02*
Y737362D01*
X299466Y396905D02*
Y737362D01*
X297180Y390033D02*
Y737362D01*
X294894Y387445D02*
Y737362D01*
X292608Y314960D02*
Y737362D01*
X290322Y314960D02*
Y737362D01*
X288036Y314960D02*
Y737362D01*
X285750Y314960D02*
Y737362D01*
X283464Y314960D02*
Y737362D01*
X274320Y580644D02*
X361442D01*
X274320Y578358D02*
X361442D01*
X274320Y576072D02*
X361442D01*
X274320Y573786D02*
X361442D01*
X274320Y571500D02*
X361442D01*
X274320Y569214D02*
X361442D01*
X274320Y566928D02*
X361442D01*
X274320Y564642D02*
X361442D01*
X274320Y562356D02*
X361442D01*
X274320Y560070D02*
X361442D01*
X274320Y557784D02*
X361442D01*
X274320Y530352D02*
X362157D01*
X274320Y555498D02*
X361442D01*
X274320Y528066D02*
X363989D01*
X274320Y587502D02*
X352932D01*
X274320Y585216D02*
X352932D01*
X274320Y553212D02*
X361442D01*
X274320Y582930D02*
X352932D01*
X274320Y550926D02*
X361442D01*
X274320Y548640D02*
X361442D01*
X274320Y546354D02*
X361442D01*
X274320Y544068D02*
X361442D01*
X274320Y541782D02*
X361442D01*
X274320Y539496D02*
X361442D01*
X274320Y537210D02*
X361442D01*
X274320Y534924D02*
X361442D01*
X274320Y532638D02*
X361484D01*
X274320Y493776D02*
X351758D01*
X274320Y491490D02*
X347813D01*
X274320Y489204D02*
X345799D01*
X274320Y486918D02*
X344599D01*
X274320Y484632D02*
X343958D01*
X274320Y482346D02*
X343785D01*
X274320Y480060D02*
X344058D01*
X274320Y477774D02*
X341973D01*
X274320Y475488D02*
X339687D01*
X274320Y473202D02*
X337625D01*
X274320Y470916D02*
X336760D01*
X274320Y468630D02*
X336677D01*
X274320Y466344D02*
X336677D01*
X281178Y314960D02*
Y737362D01*
X278892Y314960D02*
Y782320D01*
X276606Y314960D02*
Y782320D01*
X274320Y314960D02*
Y782320D01*
Y464058D02*
X336677D01*
X274320Y461772D02*
X336677D01*
X274320Y314960D02*
Y782320D01*
Y459486D02*
X336677D01*
X274320Y457200D02*
X336677D01*
X274320Y454914D02*
X336677D01*
X274320Y452628D02*
X336677D01*
X274320Y450342D02*
X336677D01*
X274320Y448056D02*
X336677D01*
X366601Y351282D02*
X369999D01*
X365873Y349758D02*
X370727D01*
X370332Y314960D02*
Y350515D01*
X368046Y314960D02*
Y351282D01*
X340473Y349758D02*
X345327D01*
X365760Y314960D02*
Y349563D01*
X374904Y314960D02*
Y345476D01*
X364179Y347472D02*
X372421D01*
X372618Y314960D02*
Y347269D01*
X363474Y314960D02*
Y346787D01*
X335787Y345186D02*
X350013D01*
X338779Y347472D02*
X347021D01*
X361188Y314960D02*
Y345187D01*
X300406Y398106D02*
X336677Y434378D01*
X300482Y367418D02*
Y369999D01*
X341201Y351282D02*
X344599D01*
X299466Y367418D02*
Y370454D01*
X298577Y391047D02*
Y393700D01*
X316618Y351282D02*
X319199D01*
X316618Y343782D02*
Y351282D01*
Y347472D02*
X321621D01*
X316618Y349758D02*
X319927D01*
X316618Y345186D02*
X324613D01*
X349758Y314960D02*
Y345327D01*
X347472Y314960D02*
Y347021D01*
X345186Y314960D02*
Y350013D01*
X342900Y314960D02*
Y351282D01*
X340614Y314960D02*
Y350013D01*
X338328Y314960D02*
Y347021D01*
X336042Y314960D02*
Y345327D01*
X358902Y314960D02*
Y344253D01*
X356616Y314960D02*
Y343826D01*
X354330Y314960D02*
Y343850D01*
X352044Y314960D02*
Y344330D01*
X333756Y314960D02*
Y344330D01*
X331470Y314960D02*
Y343850D01*
X329184Y314960D02*
Y343826D01*
X326898Y314960D02*
Y344253D01*
X324612Y314960D02*
Y345187D01*
X322326Y314960D02*
Y346787D01*
X320040Y314960D02*
Y349563D01*
X317754Y314960D02*
Y351282D01*
X315468Y314960D02*
Y343782D01*
X313182Y314960D02*
Y343782D01*
X310896Y314960D02*
Y343782D01*
X308610Y314960D02*
Y343782D01*
X306324Y314960D02*
Y343782D01*
X304038Y314960D02*
Y343782D01*
X301752Y314960D02*
Y343782D01*
X299466Y314960D02*
Y343782D01*
X274320Y445770D02*
X336677D01*
X274320Y443484D02*
X336677D01*
X274320Y441198D02*
X336677D01*
X274320Y438912D02*
X336677D01*
X274320Y436626D02*
X336677D01*
X274320Y434340D02*
X336639D01*
X274320Y432054D02*
X334353D01*
X274320Y429768D02*
X332067D01*
X274320Y427482D02*
X329781D01*
X274320Y425196D02*
X327495D01*
X274320Y422910D02*
X325209D01*
X274320Y420624D02*
X322923D01*
X274320Y418338D02*
X320637D01*
X274320Y416052D02*
X318351D01*
X274320Y413766D02*
X316065D01*
X274320Y411480D02*
X313779D01*
X274320Y409194D02*
X311493D01*
X274320Y406908D02*
X309207D01*
X274320Y404622D02*
X306921D01*
X274320Y402336D02*
X304635D01*
X274320Y400050D02*
X302349D01*
X274320Y397764D02*
X300087D01*
X274320Y395478D02*
X298836D01*
X274320Y393192D02*
X298577D01*
X274320Y390906D02*
X298355D01*
X274320Y388620D02*
X295767D01*
X274320Y386334D02*
X294254D01*
X274320Y384048D02*
X293382D01*
X297180Y367418D02*
Y371967D01*
X294894Y367418D02*
Y374555D01*
X274320Y374904D02*
X294676D01*
X274320Y377190D02*
X293613D01*
X274320Y372618D02*
X296469D01*
X292982Y367418D02*
X300482D01*
X297180Y314960D02*
Y343782D01*
X294894Y314960D02*
Y343782D01*
X274320Y368046D02*
X300482D01*
X274320Y370332D02*
X299715D01*
X292982Y343782D02*
X316618D01*
X274320Y381762D02*
X293007D01*
X274320Y379476D02*
X293081D01*
X274320Y365760D02*
X292982D01*
Y343782D02*
Y367418D01*
X274320Y363474D02*
X292982D01*
X274320Y361188D02*
X292982D01*
X274320Y358902D02*
X292982D01*
X274320Y356616D02*
X292982D01*
X274320Y354330D02*
X292982D01*
X274320Y352044D02*
X292982D01*
X274320Y349758D02*
X292982D01*
X274320Y347472D02*
X292982D01*
X274320Y345186D02*
X292982D01*
X1136650Y420370D02*
X1141730D01*
X1098550Y457200D02*
X1111250Y444500D01*
X1131570Y425450D02*
X1136650Y420370D01*
X707390Y473710D02*
X800100D01*
X725170Y481330D02*
X806450D01*
X800100Y534670D02*
Y551180D01*
X806450Y541020D02*
X814070Y533400D01*
X997458Y342138D02*
Y345440D01*
X1002030Y366268D02*
Y369062D01*
X1005840Y368300D02*
X1008380D01*
X828040Y396240D02*
X835660D01*
X815340Y588010D02*
X820420Y582930D01*
X828040D02*
X831850Y579120D01*
X814070Y574040D02*
Y577850D01*
X820420Y579120D02*
X825500Y574040D01*
X815340Y588010D02*
Y596900D01*
X819150Y551180D02*
Y568960D01*
X803910Y574040D02*
X812800Y565150D01*
Y551180D02*
Y565150D01*
Y654050D02*
X819150Y660400D01*
X812800Y635000D02*
Y654050D01*
X819150Y660400D02*
X914400D01*
X927100Y647700D01*
X812800Y635000D02*
X825500Y622300D01*
X976630Y440690D02*
X994410D01*
X1219200Y431800D02*
Y457200D01*
X1200150Y469900D02*
X1206500D01*
X1104900Y673100D02*
X1130300Y698500D01*
X1212850Y584200D02*
X1219200Y577850D01*
X1212850Y685800D02*
X1219200Y679450D01*
Y596900D02*
X1225550Y590550D01*
X1219200Y533400D02*
X1225550Y539750D01*
X1085850Y520700D02*
X1181100D01*
X1193800Y660400D02*
X1206500Y673100D01*
X1193800Y584200D02*
Y660400D01*
Y685800D02*
X1212850D01*
X1225550Y539750D02*
Y590550D01*
X1206500Y596900D02*
X1219200D01*
X1117600Y533400D02*
X1219200D01*
X1181100Y520700D02*
X1187450Y514350D01*
X1219200Y596900D02*
Y679450D01*
X1181100Y698500D02*
X1193800Y685800D01*
X1181100Y520700D02*
X1206500Y495300D01*
X1079500Y622300D02*
X1092200Y635000D01*
X1079500Y527050D02*
X1085850Y520700D01*
X1079500Y527050D02*
Y622300D01*
X1136650Y571500D02*
X1149350Y584200D01*
X1104900Y571500D02*
X1136650D01*
X1149350Y584200D02*
X1212850D01*
X1219200Y558800D02*
Y577850D01*
X1206500Y546100D02*
X1219200Y558800D01*
X1104900Y622300D02*
Y673100D01*
X1130300Y698500D02*
X1155700D01*
X1168400Y711200D01*
X1193800D01*
X1206500Y698500D01*
X1092200Y609600D02*
X1104900Y622300D01*
Y546100D02*
X1149350D01*
X1162050Y558800D01*
X1193800D01*
X1206500Y571500D01*
X1092200Y533400D02*
X1104900Y546100D01*
X1092200Y558800D02*
X1104900Y571500D01*
X1143000Y558800D02*
X1155700Y571500D01*
X1181100D01*
X1117600Y558800D02*
X1143000D01*
X1206500Y419100D02*
X1219200Y431800D01*
X1206500Y393700D02*
Y419100D01*
Y469900D02*
X1219200Y457200D01*
X1193800Y431800D02*
X1206500Y444500D01*
X1193800Y355600D02*
Y431800D01*
Y355600D02*
X1206500Y342900D01*
X1168400Y482600D02*
X1187450D01*
X1200150Y469900D01*
X1155700D02*
X1168400Y482600D01*
X1104900Y469900D02*
X1155700D01*
X1092200Y482600D02*
X1104900Y469900D01*
X1193800Y457200D02*
X1206500Y444500D01*
X1145540Y457200D02*
X1193800D01*
X1145540Y434340D02*
Y457200D01*
X1117600D02*
X1145540D01*
X1131570Y425450D02*
Y444500D01*
X806450Y541020D02*
Y551180D01*
X798830Y533400D02*
X800100Y534670D01*
X698500Y508000D02*
X725170Y481330D01*
X806450Y453390D02*
Y481330D01*
X800100Y453390D02*
Y473710D01*
X698500Y482600D02*
X707390Y473710D01*
X927100Y615950D02*
Y622300D01*
X889000Y577850D02*
X927100Y615950D01*
X889000Y551180D02*
Y577850D01*
X947420Y452120D02*
Y473710D01*
X889000Y452120D02*
X947420D01*
X994410Y440690D02*
X1003300Y431800D01*
X965200Y452120D02*
X976630Y440690D01*
X611886Y447040D02*
X613410Y445516D01*
X400304Y365760D02*
Y370078D01*
X392938Y358394D02*
X400304Y365760D01*
X506730Y645160D02*
X521970Y660400D01*
Y685800D01*
X534670D01*
X441960Y645160D02*
X506730D01*
X406400Y318770D02*
Y349250D01*
X749300Y355600D02*
X762000Y368300D01*
X723900Y355600D02*
X736600Y368300D01*
X698500Y355600D02*
X711200Y368300D01*
X774700Y355600D02*
X787400Y368300D01*
X774700Y381000D02*
Y403860D01*
X749300Y381000D02*
Y401320D01*
X723900Y381000D02*
Y398780D01*
X698500Y381000D02*
Y396240D01*
X793750Y411480D02*
Y461010D01*
X787400Y368300D02*
Y405130D01*
X793750Y411480D01*
X781050Y421640D02*
Y461010D01*
X762000Y402590D02*
X781050Y421640D01*
X762000Y368300D02*
Y402590D01*
X768350Y431800D02*
Y461010D01*
X736600Y368300D02*
Y400050D01*
X768350Y431800D01*
X755650Y441960D02*
Y461010D01*
X711200Y368300D02*
Y397510D01*
X755650Y441960D01*
X787400Y416560D02*
Y461010D01*
X774700Y403860D02*
X787400Y416560D01*
X774700Y426720D02*
Y461010D01*
X749300Y401320D02*
X774700Y426720D01*
X762000Y436880D02*
Y461010D01*
X723900Y398780D02*
X762000Y436880D01*
X749300Y447040D02*
Y461010D01*
X698500Y396240D02*
X749300Y447040D01*
X711200Y635000D02*
X723900Y647700D01*
Y600710D02*
Y622300D01*
X736600Y635000D02*
X749300Y647700D01*
Y604520D02*
Y622300D01*
X762000Y607060D02*
Y635000D01*
X774700Y609600D02*
Y622300D01*
X787400Y551180D02*
Y635000D01*
X793750Y551180D02*
Y615950D01*
X711200Y599440D02*
Y635000D01*
Y599440D02*
X749300Y561340D01*
X755650Y552450D02*
Y568960D01*
X723900Y600710D02*
X755650Y568960D01*
X736600Y601980D02*
Y635000D01*
Y601980D02*
X762000Y576580D01*
X768350Y551180D02*
Y585470D01*
X762000Y635000D02*
X774700Y647700D01*
X762000Y607060D02*
X774700Y594360D01*
X749300Y604520D02*
X768350Y585470D01*
X774700Y551180D02*
Y594360D01*
X781050Y552450D02*
Y603250D01*
X774700Y609600D02*
X781050Y603250D01*
X787400Y635000D02*
X800100Y647700D01*
X793750Y615950D02*
X800100Y622300D01*
X850900Y551180D02*
Y622300D01*
X762000Y551180D02*
Y576580D01*
X749300Y552450D02*
Y561340D01*
X876300Y590550D02*
X901700Y615950D01*
X876300Y551180D02*
Y590550D01*
X901700Y615950D02*
Y622300D01*
X882650Y584200D02*
X914400Y615950D01*
Y635000D01*
X901700Y647700D02*
X914400Y635000D01*
X882650Y551180D02*
Y584200D01*
X869950Y596900D02*
X889000Y615950D01*
Y635000D01*
X876300Y647700D02*
X889000Y635000D01*
X869950Y551180D02*
Y596900D01*
X863600Y603250D02*
X876300Y615950D01*
Y622300D01*
X863600Y551180D02*
Y603250D01*
X857250Y609600D02*
X863600Y615950D01*
Y635000D01*
X850900Y647700D02*
X863600Y635000D01*
X857250Y551180D02*
Y609600D01*
X838200Y612140D02*
Y635000D01*
Y612140D02*
X844550Y605790D01*
X825500Y647700D02*
X838200Y635000D01*
X844550Y551180D02*
Y605790D01*
X825500Y612140D02*
X838200Y599440D01*
X825500Y612140D02*
Y622300D01*
X838200Y551180D02*
Y599440D01*
X977900Y381000D02*
Y398780D01*
X943610Y433070D02*
X977900Y398780D01*
X890270Y433070D02*
X943610D01*
X882650Y440690D02*
X890270Y433070D01*
X876300Y436880D02*
Y453390D01*
X965200Y368300D02*
X977900Y355600D01*
X965200Y368300D02*
Y396240D01*
X935990Y425450D02*
X965200Y396240D01*
X887730Y425450D02*
X935990D01*
X876300Y436880D02*
X887730Y425450D01*
X882650Y440690D02*
Y453390D01*
X869950Y433070D02*
Y453390D01*
X952500Y381000D02*
Y394970D01*
X885190Y417830D02*
X929640D01*
X952500Y394970D01*
X869950Y433070D02*
X885190Y417830D01*
X863600Y429260D02*
Y453390D01*
X939800Y368300D02*
X952500Y355600D01*
X939800Y368300D02*
Y393700D01*
X882650Y410210D02*
X923290D01*
X939800Y393700D01*
X857250Y425450D02*
Y453390D01*
X880110Y402590D02*
X915670D01*
X927100Y391160D01*
Y381000D02*
Y391160D01*
X850900Y421640D02*
Y453390D01*
X877570Y394970D02*
X909320D01*
X914400Y368300D02*
Y389890D01*
Y368300D02*
X927100Y355600D01*
X909320Y394970D02*
X914400Y389890D01*
X844550Y417830D02*
Y453390D01*
X875030Y387350D02*
X895350D01*
X901700Y381000D01*
X838200Y414020D02*
Y453390D01*
X872490Y379730D02*
X877570D01*
X901700Y355600D01*
X863600Y429260D02*
X882650Y410210D01*
X857250Y425450D02*
X880110Y402590D01*
X850900Y421640D02*
X877570Y394970D01*
X844550Y417830D02*
X875030Y387350D01*
X838200Y414020D02*
X872490Y379730D01*
X825500Y453390D02*
Y476250D01*
X835660Y486410D02*
X910590D01*
X952500Y528320D01*
X831850Y453390D02*
Y469900D01*
X952500Y584200D02*
X965200Y571500D01*
X918210Y478790D02*
X965200Y525780D01*
X840740Y478790D02*
X918210D01*
X819150Y453390D02*
Y482600D01*
X927100Y584200D02*
X939800Y571500D01*
X902970Y494030D02*
X939800Y530860D01*
X812800Y453390D02*
Y488950D01*
X825500Y501650D02*
X895350D01*
X927100Y533400D01*
X830580Y494030D02*
X902970D01*
X831850Y469900D02*
X840740Y478790D01*
X825500Y476250D02*
X835660Y486410D01*
X819150Y482600D02*
X830580Y494030D01*
X812800Y488950D02*
X825500Y501650D01*
X927100Y533400D02*
Y558800D01*
X939800Y530860D02*
Y571500D01*
X952500Y528320D02*
Y558800D01*
X965200Y525780D02*
Y571500D01*
X825500Y551180D02*
Y574040D01*
X820420Y579120D02*
Y582930D01*
X803910Y588010D02*
X814070Y577850D01*
X831850Y551180D02*
Y579120D01*
X828040Y582930D02*
Y590550D01*
X814070Y574040D02*
X819150Y568960D01*
X1092200Y457200D02*
X1098550D01*
X1111250Y444500D02*
X1131570D01*
X828040Y414020D02*
X838200D01*
X835660Y396240D02*
X850900Y381000D01*
X895350Y534670D02*
Y570230D01*
Y552450D02*
X911860D01*
X924560Y613410D02*
Y617220D01*
X899160Y613410D02*
Y617220D01*
X873760Y613410D02*
Y617220D01*
D11*
X895350Y552450D02*
D03*
D12*
X1145540Y415950D02*
D03*
Y434950D02*
D03*
D13*
X889000Y552450D02*
D03*
X749300Y454450D02*
D03*
X755650D02*
D03*
X762000D02*
D03*
X768350D02*
D03*
X774700D02*
D03*
X781050D02*
D03*
X787400D02*
D03*
X793750D02*
D03*
X800100D02*
D03*
X806450D02*
D03*
X812800D02*
D03*
X819150D02*
D03*
X825500D02*
D03*
X831850D02*
D03*
X838200D02*
D03*
X844550D02*
D03*
X850900D02*
D03*
X857250D02*
D03*
X863600D02*
D03*
X869950D02*
D03*
X876300D02*
D03*
X882650D02*
D03*
X889000D02*
D03*
X895350D02*
D03*
X749300Y552450D02*
D03*
X755650D02*
D03*
X762000D02*
D03*
X768350D02*
D03*
X774700D02*
D03*
X781050D02*
D03*
X787400D02*
D03*
X793750D02*
D03*
X800100D02*
D03*
X806450D02*
D03*
X812800D02*
D03*
X819150D02*
D03*
X825500D02*
D03*
X831850D02*
D03*
X838200D02*
D03*
X844550D02*
D03*
X850900D02*
D03*
X857250D02*
D03*
X863600D02*
D03*
X869950D02*
D03*
X876300D02*
D03*
X882650D02*
D03*
D14*
X947810Y473710D02*
D03*
X964810D02*
D03*
X375530Y711200D02*
D03*
X358530D02*
D03*
X375530Y736600D02*
D03*
X358530D02*
D03*
X399170Y711200D02*
D03*
X416170D02*
D03*
Y736600D02*
D03*
X399170D02*
D03*
D15*
X444500Y566030D02*
D03*
Y549030D02*
D03*
X345440Y651900D02*
D03*
Y668900D02*
D03*
X594360Y567300D02*
D03*
Y550300D02*
D03*
X558800Y667140D02*
D03*
Y684140D02*
D03*
X828040Y413630D02*
D03*
Y396630D02*
D03*
D16*
X509470Y675640D02*
D03*
X534470Y666140D02*
D03*
Y685140D02*
D03*
D17*
X604520Y435410D02*
D03*
X595020Y410410D02*
D03*
X614020D02*
D03*
D18*
X441960Y645150D02*
D03*
Y675650D02*
D03*
D19*
X396250Y594360D02*
D03*
X365750D02*
D03*
D20*
X381000Y685800D02*
D03*
X368300D02*
D03*
X406400Y632460D02*
D03*
X393700D02*
D03*
X381000D02*
D03*
X368300D02*
D03*
X393700Y685800D02*
D03*
D21*
X406400D02*
D03*
D22*
X489560Y675640D02*
D03*
X470560D02*
D03*
X965810Y452120D02*
D03*
X946810D02*
D03*
D23*
X1117600Y660400D02*
X1130300Y673100D01*
X1181100D01*
X825500Y381000D02*
X869950Y336550D01*
X952500Y622300D02*
X977900D01*
X1003300Y596900D01*
Y457200D02*
Y596900D01*
X977900Y622300D02*
Y736600D01*
X990600Y342900D02*
Y368300D01*
X869950Y336550D02*
X984250D01*
X990600Y368300D02*
X1003300Y381000D01*
X984250Y336550D02*
X990600Y342900D01*
X800100Y381000D02*
X825500D01*
X1170940Y393700D02*
X1181100D01*
Y383540D02*
Y403860D01*
Y495300D02*
Y505460D01*
X1170940Y495300D02*
X1191260D01*
X1170940Y596900D02*
X1181100D01*
Y607060D01*
X1170940Y647700D02*
X1181100D01*
Y637540D02*
Y657860D01*
Y739140D02*
Y759460D01*
X1170940Y749300D02*
X1191260D01*
X1162050Y342900D02*
X1181100D01*
X1162050Y425450D02*
X1181100Y444500D01*
X1162050Y342900D02*
Y425450D01*
X1003300Y381000D02*
Y431800D01*
X584200Y471170D02*
Y495300D01*
X394970Y355600D02*
X417830D01*
X609600Y342900D02*
Y367030D01*
X406400Y342900D02*
Y367030D01*
Y381000D02*
X444500Y419100D01*
X604520Y435610D02*
Y447040D01*
X594360Y457200D02*
X604520Y447040D01*
X429260Y675640D02*
X469900D01*
X420370Y666750D02*
X429260Y675640D01*
X381000Y635000D02*
Y666750D01*
X347980D02*
X420370D01*
Y654050D02*
X426720Y647700D01*
X444500D01*
X393700Y654050D02*
X420370D01*
X393700Y593090D02*
Y654050D01*
X406400Y624840D02*
Y632460D01*
X358140Y635000D02*
X368300D01*
X609600Y355600D02*
X622300D01*
X368300Y533400D02*
Y628650D01*
X596900Y368300D02*
X609600Y381000D01*
X596900Y342900D02*
Y368300D01*
X590550Y336550D02*
X596900Y342900D01*
X495300Y336550D02*
X590550D01*
X345440Y647700D02*
X358140Y635000D01*
X613410Y382270D02*
Y410210D01*
X584200Y457200D02*
X594360D01*
X584200Y482600D02*
X596900D01*
X444500Y419100D02*
X476250Y387350D01*
X368300Y533400D02*
X444500D01*
Y419100D02*
Y533400D01*
X476250Y355600D02*
Y387350D01*
Y355600D02*
X495300Y336550D01*
X444500Y533400D02*
Y548640D01*
X1092200Y650240D02*
Y670560D01*
X1082040Y660400D02*
X1092200D01*
X800100Y344170D02*
Y367030D01*
X1003300Y344170D02*
Y367030D01*
X952500Y636270D02*
Y659130D01*
X901700Y699770D02*
Y748030D01*
X890270Y736600D02*
X913130D01*
X890270Y711200D02*
X913130D01*
X941070Y647700D02*
X963930D01*
X1003300Y355600D02*
X1016000D01*
X788670D02*
X811530D01*
D24*
X558800Y527050D02*
Y558800D01*
X576580Y584200D02*
X594360Y566420D01*
X547370Y666750D02*
Y684530D01*
X558800D01*
Y457200D02*
Y463550D01*
X457200Y431800D02*
X495300Y393700D01*
Y368300D02*
Y393700D01*
Y368300D02*
X508000Y355600D01*
X533400Y431800D02*
X571500Y393700D01*
Y368300D02*
Y393700D01*
Y368300D02*
X584200Y355600D01*
X508000Y431800D02*
X546100Y393700D01*
Y368300D02*
Y393700D01*
Y368300D02*
X558800Y355600D01*
X482600Y431800D02*
X520700Y393700D01*
Y368300D02*
Y393700D01*
Y368300D02*
X533400Y355600D01*
X469900Y431800D02*
Y469900D01*
Y431800D02*
X508000Y393700D01*
Y381000D02*
Y393700D01*
X495300Y431800D02*
Y469900D01*
Y431800D02*
X533400Y393700D01*
Y381000D02*
Y393700D01*
X558800Y381000D02*
Y393700D01*
X520700Y431800D02*
X558800Y393700D01*
X520700Y431800D02*
Y469900D01*
X584200Y381000D02*
Y393700D01*
X546100Y431800D02*
X584200Y393700D01*
X546100Y431800D02*
Y463550D01*
X457200Y431800D02*
Y457200D01*
X482600Y431800D02*
Y457200D01*
X508000Y431800D02*
Y457200D01*
X533400Y431800D02*
Y457200D01*
Y476250D02*
Y482600D01*
X508000D02*
X520700Y469900D01*
X482600Y482600D02*
X495300Y469900D01*
X457200Y482600D02*
X469900Y469900D01*
X342900Y368300D02*
Y393700D01*
X381000Y431800D01*
Y457200D01*
X317500Y368300D02*
Y393700D01*
X355600Y431800D01*
Y457200D01*
X304800Y393700D02*
X342900Y431800D01*
Y469900D01*
X355600Y482600D01*
X330200Y393700D02*
X368300Y431800D01*
Y469900D01*
X381000Y482600D01*
X355600Y393700D02*
X393700Y431800D01*
Y469900D01*
X406400Y482600D01*
X355600Y381000D02*
Y393700D01*
X330200Y381000D02*
Y393700D01*
X304800Y381000D02*
Y393700D01*
Y355600D02*
X317500Y368300D01*
X330200Y355600D02*
X342900Y368300D01*
X381000Y393700D02*
X419100Y431800D01*
Y469900D01*
X431800Y482600D01*
X381000Y381000D02*
Y393700D01*
X368300Y368300D02*
Y393700D01*
X406400Y431800D01*
Y457200D01*
X355600Y355600D02*
X368300Y368300D01*
X393700Y393700D02*
X431800Y431800D01*
X393700Y368300D02*
Y393700D01*
X431800Y431800D02*
Y457200D01*
X381000Y355600D02*
X393700Y368300D01*
X546100Y514350D02*
X558800Y527050D01*
X546100Y476250D02*
Y514350D01*
Y476250D02*
X558800Y463550D01*
Y584200D02*
X576580D01*
X594360Y542290D02*
Y551180D01*
X571500Y519430D02*
X594360Y542290D01*
X571500Y434340D02*
Y519430D01*
X490220Y675640D02*
X510540D01*
X406400Y614680D02*
Y632460D01*
X358140Y703580D02*
Y736600D01*
X534670Y666750D02*
X547370D01*
X571500Y434340D02*
X594360Y411480D01*
X358140Y703580D02*
X368300Y693420D01*
X375920Y711200D02*
X381000Y706120D01*
X375920Y711200D02*
Y736600D01*
X393700Y685800D02*
Y706120D01*
X406400Y690880D02*
X416560Y701040D01*
Y736600D01*
X393700Y706120D02*
X398780Y711200D01*
Y736600D01*
X533400Y476250D02*
X546100Y463550D01*
X406400Y614680D02*
X419100D01*
X558800Y651510D02*
Y666750D01*
X444500Y566420D02*
Y584200D01*
X509270Y675640D02*
Y711200D01*
X381000Y685800D02*
Y706120D01*
D25*
X1016000Y760095D02*
D03*
X685800D02*
D03*
X622300D02*
D03*
X292100D02*
D03*
D26*
X1201420Y797560D02*
D03*
X1097280D02*
D03*
X1046480D02*
D03*
X655320D02*
D03*
X1239520D02*
D03*
X1226820D02*
D03*
X1214120D02*
D03*
X1084580D02*
D03*
X1071880D02*
D03*
X1059180D02*
D03*
X1033780D02*
D03*
X1021080D02*
D03*
X1008380D02*
D03*
X995680D02*
D03*
X706120D02*
D03*
X693420D02*
D03*
X680720D02*
D03*
X668020D02*
D03*
X642620D02*
D03*
X629920D02*
D03*
X617220D02*
D03*
X604520D02*
D03*
X309880D02*
D03*
X297180D02*
D03*
X284480D02*
D03*
X271780D02*
D03*
X1046480Y312420D02*
D03*
Y325120D02*
D03*
Y337820D02*
D03*
Y350520D02*
D03*
Y533400D02*
D03*
Y546100D02*
D03*
Y558800D02*
D03*
Y746760D02*
D03*
Y759460D02*
D03*
Y772160D02*
D03*
Y784860D02*
D03*
X655320Y533400D02*
D03*
Y558800D02*
D03*
Y546100D02*
D03*
Y350520D02*
D03*
Y337820D02*
D03*
Y325120D02*
D03*
Y312420D02*
D03*
Y746760D02*
D03*
Y759460D02*
D03*
Y772160D02*
D03*
Y784860D02*
D03*
D27*
X292100Y774700D02*
D03*
Y749300D02*
D03*
X622300Y774700D02*
D03*
Y749300D02*
D03*
X1016000D02*
D03*
Y774700D02*
D03*
X685800D02*
D03*
Y749300D02*
D03*
D28*
X876300Y736600D02*
D03*
X850900Y381000D02*
D03*
X977900Y736600D02*
D03*
Y711200D02*
D03*
X952500Y736600D02*
D03*
Y711200D02*
D03*
X927100Y736600D02*
D03*
Y711200D02*
D03*
X901700Y736600D02*
D03*
Y711200D02*
D03*
X1003300Y457200D02*
D03*
Y381000D02*
D03*
X800100D02*
D03*
X1003300Y355600D02*
D03*
X800100D02*
D03*
X1181100Y749300D02*
D03*
X1206500D02*
D03*
X1181100Y723900D02*
D03*
X1206500D02*
D03*
X1181100Y698500D02*
D03*
X1206500D02*
D03*
X1181100Y673100D02*
D03*
X1206500D02*
D03*
X1181100Y647700D02*
D03*
X1092200Y431800D02*
D03*
X1117600Y457200D02*
D03*
X1092200D02*
D03*
X1117600Y482600D02*
D03*
X1092200D02*
D03*
X1117600Y508000D02*
D03*
X1092200D02*
D03*
X1117600Y533400D02*
D03*
X1092200D02*
D03*
X1117600Y558800D02*
D03*
X1092200D02*
D03*
X1117600Y584200D02*
D03*
X1092200D02*
D03*
X1117600Y609600D02*
D03*
X1092200D02*
D03*
X1117600Y635000D02*
D03*
X1092200D02*
D03*
X1117600Y660400D02*
D03*
X1092200D02*
D03*
X774700Y381000D02*
D03*
Y355600D02*
D03*
X723900Y381000D02*
D03*
X698500D02*
D03*
X1206500Y495300D02*
D03*
X1181100Y596900D02*
D03*
X1206500D02*
D03*
X1181100Y571500D02*
D03*
X1206500D02*
D03*
X1181100Y546100D02*
D03*
Y393700D02*
D03*
X1206500D02*
D03*
X1181100Y368300D02*
D03*
X1206500D02*
D03*
X1181100Y342900D02*
D03*
Y495300D02*
D03*
Y469900D02*
D03*
X1206500D02*
D03*
X1181100Y444500D02*
D03*
X698500Y482600D02*
D03*
X558800Y584200D02*
D03*
Y558800D02*
D03*
X533400Y584200D02*
D03*
X355600Y482600D02*
D03*
X381000Y457200D02*
D03*
Y482600D02*
D03*
X406400Y457200D02*
D03*
Y482600D02*
D03*
X431800Y457200D02*
D03*
Y482600D02*
D03*
X457200Y457200D02*
D03*
Y482600D02*
D03*
X482600Y457200D02*
D03*
Y482600D02*
D03*
X508000Y457200D02*
D03*
Y482600D02*
D03*
X533400Y457200D02*
D03*
Y482600D02*
D03*
X558800Y457200D02*
D03*
Y482600D02*
D03*
X584200Y457200D02*
D03*
Y482600D02*
D03*
X609600Y381000D02*
D03*
Y355600D02*
D03*
X584200Y381000D02*
D03*
Y355600D02*
D03*
X558800Y381000D02*
D03*
Y355600D02*
D03*
X533400Y381000D02*
D03*
Y355600D02*
D03*
X508000Y381000D02*
D03*
X406400D02*
D03*
Y355600D02*
D03*
X381000Y381000D02*
D03*
Y355600D02*
D03*
X355600Y381000D02*
D03*
Y355600D02*
D03*
X330200Y381000D02*
D03*
Y355600D02*
D03*
X304800Y381000D02*
D03*
X723900Y355600D02*
D03*
X749300D02*
D03*
Y381000D02*
D03*
X901700D02*
D03*
X927100Y355600D02*
D03*
Y381000D02*
D03*
X952500Y355600D02*
D03*
Y381000D02*
D03*
X977900Y355600D02*
D03*
Y381000D02*
D03*
X927100Y584200D02*
D03*
X952500Y558800D02*
D03*
Y584200D02*
D03*
Y647700D02*
D03*
Y622300D02*
D03*
X927100Y647700D02*
D03*
Y622300D02*
D03*
X901700Y647700D02*
D03*
Y622300D02*
D03*
X876300Y647700D02*
D03*
Y622300D02*
D03*
X850900Y647700D02*
D03*
Y622300D02*
D03*
X825500Y647700D02*
D03*
Y622300D02*
D03*
X800100Y647700D02*
D03*
Y622300D02*
D03*
X774700Y647700D02*
D03*
Y622300D02*
D03*
X749300Y647700D02*
D03*
Y622300D02*
D03*
X723900Y647700D02*
D03*
D29*
X876300Y711200D02*
D03*
X850900Y355600D02*
D03*
X1003300Y431800D02*
D03*
X1206500Y647700D02*
D03*
X1117600Y431800D02*
D03*
X698500Y355600D02*
D03*
X1206500Y546100D02*
D03*
Y342900D02*
D03*
Y444500D02*
D03*
X698500Y508000D02*
D03*
X533400Y558800D02*
D03*
X355600Y457200D02*
D03*
X508000Y355600D02*
D03*
X304800D02*
D03*
X901700D02*
D03*
X723900Y622300D02*
D03*
D30*
X927100Y558800D02*
D03*
D31*
X723900Y527050D02*
D03*
X749300D02*
D03*
X814070Y533400D02*
D03*
X798830D02*
D03*
X1140460Y594360D02*
D03*
X939800Y603250D02*
D03*
X908050Y571500D02*
D03*
X984250Y495300D02*
D03*
X876300Y520700D02*
D03*
X850900D02*
D03*
X825500D02*
D03*
X800100Y497840D02*
D03*
X774700Y527050D02*
D03*
X800100Y515620D02*
D03*
X984250Y546100D02*
D03*
Y520700D02*
D03*
X908050Y546100D02*
D03*
X1104900Y342900D02*
D03*
X1130300D02*
D03*
X1140460Y502920D02*
D03*
Y487680D02*
D03*
X1079500Y342900D02*
D03*
X828040Y590550D02*
D03*
X815340Y596900D02*
D03*
X803910Y574040D02*
D03*
Y588010D02*
D03*
X1140460Y629920D02*
D03*
Y612140D02*
D03*
X1130300Y749300D02*
D03*
X1104900D02*
D03*
X1079500D02*
D03*
X824230Y431800D02*
D03*
X984250Y571500D02*
D03*
X977900Y596900D02*
D03*
D32*
X444500Y393700D02*
D03*
X406400Y520700D02*
D03*
X387350D02*
D03*
X444500Y622300D02*
D03*
X469900D02*
D03*
Y647700D02*
D03*
X393700Y652780D02*
D03*
X419100D02*
D03*
X431800Y596900D02*
D03*
X425450Y520700D02*
D03*
X406400Y546100D02*
D03*
Y571500D02*
D03*
X387350D02*
D03*
X425450Y546100D02*
D03*
X387350D02*
D03*
X469900Y514350D02*
D03*
X520700D02*
D03*
X495300D02*
D03*
X558800Y651510D02*
D03*
X419100Y614680D02*
D03*
X444500Y584200D02*
D03*
X509270Y711200D02*
D03*
M02*
