%FSLAX44Y44*%
%MOMM*%
G71*
G01*
G75*
%ADD10C,0.2540*%
%ADD11R,0.3500X2.2000*%
%ADD12R,1.5000X1.3000*%
%ADD13O,0.3500X2.2000*%
%ADD14R,1.1000X1.0000*%
%ADD15R,1.0000X1.1000*%
%ADD16R,0.9500X0.9000*%
%ADD17R,0.9000X0.9500*%
%ADD18R,1.8000X1.7000*%
%ADD19R,1.7000X1.8000*%
%ADD20O,0.6350X2.0320*%
%ADD21R,0.6350X2.0320*%
%ADD22R,1.3000X1.5000*%
%ADD23C,0.5080*%
%ADD24C,0.3810*%
%ADD25R,2.5400X4.6990*%
%ADD26C,0.8000*%
%ADD27R,1.5240X1.5240*%
%ADD28C,1.5000*%
%ADD29R,1.5000X1.5000*%
%ADD30C,1.5000*%
%ADD31C,1.0000*%
%ADD32C,1.0000*%
%ADD33R,1.2000X1.0000*%
%ADD34R,0.5500X0.3860*%
%ADD35R,0.5500X0.4860*%
%ADD36C,0.2000*%
%ADD37C,0.2032*%
%ADD38R,0.7056X2.5556*%
%ADD39R,1.8556X1.6556*%
%ADD40O,0.7056X2.5556*%
%ADD41R,1.4556X1.3556*%
%ADD42R,1.3556X1.4556*%
%ADD43R,1.3056X1.2556*%
%ADD44R,1.2556X1.3056*%
%ADD45R,2.1556X2.0556*%
%ADD46R,2.0556X2.1556*%
%ADD47O,0.9906X2.3876*%
%ADD48R,0.9906X2.3876*%
%ADD49R,1.6556X1.8556*%
%ADD50R,1.8796X1.8796*%
%ADD51C,1.8556*%
%ADD52R,1.8556X1.8556*%
%ADD53C,1.8556*%
%ADD54R,1.5556X1.3556*%
%ADD55R,0.9056X0.7416*%
%ADD56R,0.9056X0.8416*%
D51*
X876300Y736600D02*
D03*
X850900Y381000D02*
D03*
X977900Y736600D02*
D03*
Y711200D02*
D03*
X952500Y736600D02*
D03*
Y711200D02*
D03*
X927100Y736600D02*
D03*
Y711200D02*
D03*
X901700Y736600D02*
D03*
Y711200D02*
D03*
X1003300Y457200D02*
D03*
Y381000D02*
D03*
X800100D02*
D03*
X1003300Y355600D02*
D03*
X800100D02*
D03*
X1181100Y749300D02*
D03*
X1206500D02*
D03*
X1181100Y723900D02*
D03*
X1206500D02*
D03*
X1181100Y698500D02*
D03*
X1206500D02*
D03*
X1181100Y673100D02*
D03*
X1206500D02*
D03*
X1181100Y647700D02*
D03*
X1092200Y431800D02*
D03*
X1117600Y457200D02*
D03*
X1092200D02*
D03*
X1117600Y482600D02*
D03*
X1092200D02*
D03*
X1117600Y508000D02*
D03*
X1092200D02*
D03*
X1117600Y533400D02*
D03*
X1092200D02*
D03*
X1117600Y558800D02*
D03*
X1092200D02*
D03*
X1117600Y584200D02*
D03*
X1092200D02*
D03*
X1117600Y609600D02*
D03*
X1092200D02*
D03*
X1117600Y635000D02*
D03*
X1092200D02*
D03*
X1117600Y660400D02*
D03*
X1092200D02*
D03*
X774700Y381000D02*
D03*
Y355600D02*
D03*
X723900Y381000D02*
D03*
X698500D02*
D03*
X1206500Y495300D02*
D03*
X1181100Y596900D02*
D03*
X1206500D02*
D03*
X1181100Y571500D02*
D03*
X1206500D02*
D03*
X1181100Y546100D02*
D03*
Y393700D02*
D03*
X1206500D02*
D03*
X1181100Y368300D02*
D03*
X1206500D02*
D03*
X1181100Y342900D02*
D03*
Y495300D02*
D03*
Y469900D02*
D03*
X1206500D02*
D03*
X1181100Y444500D02*
D03*
X698500Y482600D02*
D03*
X558800Y584200D02*
D03*
Y558800D02*
D03*
X533400Y584200D02*
D03*
X355600Y482600D02*
D03*
X381000Y457200D02*
D03*
Y482600D02*
D03*
X406400Y457200D02*
D03*
Y482600D02*
D03*
X431800Y457200D02*
D03*
Y482600D02*
D03*
X457200Y457200D02*
D03*
Y482600D02*
D03*
X482600Y457200D02*
D03*
Y482600D02*
D03*
X508000Y457200D02*
D03*
Y482600D02*
D03*
X533400Y457200D02*
D03*
Y482600D02*
D03*
X558800Y457200D02*
D03*
Y482600D02*
D03*
X584200Y457200D02*
D03*
Y482600D02*
D03*
X609600Y381000D02*
D03*
Y355600D02*
D03*
X584200Y381000D02*
D03*
Y355600D02*
D03*
X558800Y381000D02*
D03*
Y355600D02*
D03*
X533400Y381000D02*
D03*
Y355600D02*
D03*
X508000Y381000D02*
D03*
X406400D02*
D03*
Y355600D02*
D03*
X381000Y381000D02*
D03*
Y355600D02*
D03*
X355600Y381000D02*
D03*
Y355600D02*
D03*
X330200Y381000D02*
D03*
Y355600D02*
D03*
X304800Y381000D02*
D03*
X723900Y355600D02*
D03*
X749300D02*
D03*
Y381000D02*
D03*
X901700D02*
D03*
X927100Y355600D02*
D03*
Y381000D02*
D03*
X952500Y355600D02*
D03*
Y381000D02*
D03*
X977900Y355600D02*
D03*
Y381000D02*
D03*
X927100Y584200D02*
D03*
X952500Y558800D02*
D03*
Y584200D02*
D03*
Y647700D02*
D03*
Y622300D02*
D03*
X927100Y647700D02*
D03*
Y622300D02*
D03*
X901700Y647700D02*
D03*
Y622300D02*
D03*
X876300Y647700D02*
D03*
Y622300D02*
D03*
X850900Y647700D02*
D03*
Y622300D02*
D03*
X825500Y647700D02*
D03*
Y622300D02*
D03*
X800100Y647700D02*
D03*
Y622300D02*
D03*
X774700Y647700D02*
D03*
Y622300D02*
D03*
X749300Y647700D02*
D03*
Y622300D02*
D03*
X723900Y647700D02*
D03*
D52*
X876300Y711200D02*
D03*
X850900Y355600D02*
D03*
X1003300Y431800D02*
D03*
X1206500Y647700D02*
D03*
X1117600Y431800D02*
D03*
X698500Y355600D02*
D03*
X1206500Y546100D02*
D03*
Y342900D02*
D03*
Y444500D02*
D03*
X698500Y508000D02*
D03*
X533400Y558800D02*
D03*
X355600Y457200D02*
D03*
X508000Y355600D02*
D03*
X304800D02*
D03*
X901700D02*
D03*
X723900Y622300D02*
D03*
D53*
X927100Y558800D02*
D03*
D54*
X787400Y439770D02*
D03*
Y451770D02*
D03*
X711200Y439770D02*
D03*
Y451770D02*
D03*
X698500Y404210D02*
D03*
Y416210D02*
D03*
X736600Y439770D02*
D03*
Y451770D02*
D03*
X723900Y404210D02*
D03*
Y416210D02*
D03*
X762000Y439770D02*
D03*
Y451770D02*
D03*
X749300Y404210D02*
D03*
Y416210D02*
D03*
X774700Y404210D02*
D03*
Y416210D02*
D03*
X889000Y439770D02*
D03*
Y451770D02*
D03*
X901700Y404210D02*
D03*
Y416210D02*
D03*
X914400Y439770D02*
D03*
Y451770D02*
D03*
X927100Y404210D02*
D03*
Y416210D02*
D03*
X939800Y439770D02*
D03*
Y451770D02*
D03*
X952500Y404210D02*
D03*
Y416210D02*
D03*
X965200Y439770D02*
D03*
Y451770D02*
D03*
X977900Y404210D02*
D03*
Y416210D02*
D03*
D55*
X920750Y487680D02*
D03*
Y494080D02*
D03*
Y481280D02*
D03*
X933450D02*
D03*
Y487680D02*
D03*
Y494080D02*
D03*
X742950D02*
D03*
Y487680D02*
D03*
Y481280D02*
D03*
X755650D02*
D03*
Y487680D02*
D03*
Y494080D02*
D03*
D56*
X933460Y500980D02*
D03*
X920750D02*
D03*
X933450Y474380D02*
D03*
X920750D02*
D03*
X755660Y500980D02*
D03*
X742950D02*
D03*
X755650Y474380D02*
D03*
X742950D02*
D03*
M02*
