M48
METRIC
;TYPE=PLATED
T1F00S00C0.5000
T2F00S00C0.9000
%
T01
X00444500Y00393700
X01079500Y00342900
X01104900
X01130300
X01140460Y00487680
Y00502920
Y00594360
Y00612140
Y00629920
X01130300Y00749300
X01104900
X01079500
X00977900Y00596900
X00984250Y00571500
Y00546100
Y00520700
Y00495300
X00908050Y00546100
Y00571500
X00939800Y00603250
X00828040Y00590550
X00815340Y00596900
X00803910Y00588010
Y00574040
X00798830Y00533400
X00814070
X00825500Y00520700
X00850900
X00876300
X00800100Y00515620
Y00497840
X00824230Y00431800
X00774700Y00527050
X00749300
X00723900
X00520700Y00514350
X00495300
X00469900
X00425450Y00520700
X00406400
Y00546100
X00425450
X00406400Y00571500
X00444500Y00584200
X00431800Y00596900
X00419100Y00614680
X00444500Y00622300
X00469900
Y00647700
X00419100Y00652780
X00558800Y00651510
X00509270Y00711200
X00393700Y00652780
X00387350Y00571500
Y00546100
Y00520700
T02
X00304800Y00355600
Y00381000
X00330200
Y00355600
X00355600
Y00381000
X00381000
Y00355600
X00406400
Y00381000
X00508000
Y00355600
X00533400
Y00381000
X00558800
Y00355600
X00584200
Y00381000
X00609600
Y00355600
X00698500
X00723900
X00749300
Y00381000
X00723900
X00698500
X00774700
Y00355600
X00800100
Y00381000
X00850900
Y00355600
X00901700
X00927100
X00952500
X00977900
Y00381000
X00952500
X00927100
X00901700
X01003300
Y00355600
X01181100Y00342900
Y00368300
Y00393700
X01206500
Y00368300
Y00342900
Y00444500
Y00469900
Y00495300
Y00546100
Y00571500
Y00596900
Y00647700
Y00673100
Y00698500
Y00723900
Y00749300
X01181100
Y00723900
Y00698500
Y00673100
Y00647700
Y00596900
Y00571500
Y00546100
Y00495300
Y00469900
Y00444500
X01117600Y00457200
Y00482600
Y00508000
Y00533400
Y00558800
Y00584200
Y00609600
Y00635000
Y00660400
X01092200
Y00635000
Y00609600
Y00584200
Y00558800
Y00533400
Y00508000
Y00482600
Y00457200
Y00431800
X01117600
X01003300
Y00457200
X00952500Y00558800
Y00584200
X00927100
Y00558800
Y00622300
X00901700
X00876300
X00850900
X00825500
X00800100
Y00647700
X00825500
X00850900
X00876300
X00901700
X00927100
X00952500
Y00622300
Y00711200
X00927100
X00901700
Y00736600
X00927100
X00952500
X00977900
Y00711200
X01016000Y00749300
Y00774700
X00876300Y00736600
Y00711200
X00774700Y00647700
X00749300
X00723900
Y00622300
X00749300
X00774700
X00698500Y00508000
Y00482600
X00584200
Y00457200
X00558800
Y00482600
X00533400
Y00457200
X00508000
Y00482600
X00482600
Y00457200
X00457200
Y00482600
X00431800
Y00457200
X00406400
Y00482600
X00533400Y00558800
Y00584200
X00558800
Y00558800
X00622300Y00749300
Y00774700
X00685800
Y00749300
X00292100
Y00774700
X00355600Y00482600
X00381000
Y00457200
X00355600
M30
