%FSLAX44Y44*%
%MOMM*%
G71*
G01*
G75*
%ADD10C,0.2540*%
%ADD11R,1.0000X1.1000*%
%ADD12R,1.3000X1.5000*%
%ADD13O,0.3500X2.2000*%
%ADD14R,1.1000X1.0000*%
%ADD15O,0.6350X2.0320*%
%ADD16R,0.6350X2.0320*%
%ADD17R,1.7000X1.8000*%
%ADD18R,1.8000X1.7000*%
%ADD19R,0.9000X0.9500*%
%ADD20R,0.9500X0.9000*%
%ADD21R,1.5000X1.3000*%
%ADD22R,0.3500X2.2000*%
%ADD23C,0.5080*%
%ADD24C,0.3810*%
%ADD25R,2.5400X4.6990*%
%ADD26R,1.5000X1.5000*%
%ADD27C,1.5000*%
%ADD28C,1.5000*%
%ADD29R,1.5240X1.5240*%
%ADD30C,1.0000*%
%ADD31C,1.0000*%
%ADD32R,0.5500X0.4860*%
%ADD33R,0.5500X0.3860*%
%ADD34R,1.2000X1.0000*%
%ADD35C,0.2000*%
%ADD36C,0.2032*%
D10*
X940435Y518287D02*
Y533522D01*
X932818D01*
X930278Y530983D01*
Y525905D01*
X932818Y523365D01*
X940435D01*
X935357D02*
X930278Y518287D01*
X925200D02*
Y533522D01*
X915043Y518287D01*
Y533522D01*
X899808Y518287D02*
X909965D01*
X899808Y528444D01*
Y530983D01*
X902347Y533522D01*
X907426D01*
X909965Y530983D01*
X762635Y518287D02*
Y533522D01*
X755017D01*
X752478Y530983D01*
Y525905D01*
X755017Y523365D01*
X762635D01*
X757557D02*
X752478Y518287D01*
X747400D02*
Y533522D01*
X737243Y518287D01*
Y533522D01*
X732165Y518287D02*
X727086D01*
X729626D01*
Y533522D01*
X732165Y530983D01*
X1158240Y726440D02*
X1143005D01*
Y718822D01*
X1145544Y716283D01*
X1150622D01*
X1153162Y718822D01*
Y726440D01*
X1148083Y711205D02*
X1158240D01*
X1153162D01*
X1150622Y708666D01*
X1148083Y706127D01*
Y703587D01*
X1158240Y693431D02*
Y688352D01*
X1155701Y685813D01*
X1150622D01*
X1148083Y688352D01*
Y693431D01*
X1150622Y695970D01*
X1155701D01*
X1158240Y693431D01*
X1163318Y675656D02*
Y673117D01*
X1160779Y670578D01*
X1148083D01*
Y678196D01*
X1150622Y680735D01*
X1155701D01*
X1158240Y678196D01*
Y670578D01*
X1148083Y665500D02*
X1158240D01*
X1153162D01*
X1150622Y662961D01*
X1148083Y660421D01*
Y657882D01*
Y647726D02*
Y642647D01*
X1150622Y640108D01*
X1158240D01*
Y647726D01*
X1155701Y650265D01*
X1153162Y647726D01*
Y640108D01*
X1158240Y635030D02*
X1148083D01*
Y632490D01*
X1150622Y629951D01*
X1158240D01*
X1150622D01*
X1148083Y627412D01*
X1150622Y624873D01*
X1158240D01*
Y619795D02*
X1148083D01*
Y617255D01*
X1150622Y614716D01*
X1158240D01*
X1150622D01*
X1148083Y612177D01*
X1150622Y609638D01*
X1158240D01*
Y604559D02*
Y599481D01*
Y602020D01*
X1148083D01*
Y604559D01*
X1158240Y591864D02*
X1148083D01*
Y584246D01*
X1150622Y581707D01*
X1158240D01*
X1163318Y571550D02*
Y569011D01*
X1160779Y566472D01*
X1148083D01*
Y574089D01*
X1150622Y576628D01*
X1155701D01*
X1158240Y574089D01*
Y566472D01*
X1163318Y546158D02*
X1148083D01*
Y538541D01*
X1150622Y536002D01*
X1155701D01*
X1158240Y538541D01*
Y546158D01*
Y530923D02*
Y525845D01*
Y528384D01*
X1148083D01*
Y530923D01*
X1158240Y518227D02*
X1148083D01*
Y510610D01*
X1150622Y508071D01*
X1158240D01*
Y500453D02*
Y495375D01*
X1155701Y492836D01*
X1150622D01*
X1148083Y495375D01*
Y500453D01*
X1150622Y502992D01*
X1155701D01*
X1158240Y500453D01*
X1148083Y487757D02*
X1155701D01*
X1158240Y485218D01*
Y477601D01*
X1148083D01*
X1145544Y469983D02*
X1148083D01*
Y472522D01*
Y467444D01*
Y469983D01*
X1155701D01*
X1158240Y467444D01*
X1148083Y442052D02*
Y436974D01*
X1150622Y434435D01*
X1158240D01*
Y442052D01*
X1155701Y444591D01*
X1153162Y442052D01*
Y434435D01*
X1143005Y419199D02*
X1158240D01*
Y426817D01*
X1155701Y429356D01*
X1150622D01*
X1148083Y426817D01*
Y419199D01*
Y411582D02*
Y406503D01*
X1150622Y403964D01*
X1158240D01*
Y411582D01*
X1155701Y414121D01*
X1153162Y411582D01*
Y403964D01*
X1163318Y398886D02*
X1148083D01*
Y391268D01*
X1150622Y388729D01*
X1155701D01*
X1158240Y391268D01*
Y398886D01*
X1145544Y381112D02*
X1148083D01*
Y383651D01*
Y378573D01*
Y381112D01*
X1155701D01*
X1158240Y378573D01*
Y363338D02*
Y368416D01*
X1155701Y370955D01*
X1150622D01*
X1148083Y368416D01*
Y363338D01*
X1150622Y360798D01*
X1153162D01*
Y370955D01*
X1148083Y355720D02*
X1158240D01*
X1153162D01*
X1150622Y353181D01*
X1148083Y350642D01*
Y348102D01*
D35*
X734300Y509680D02*
X764300D01*
Y465680D02*
Y509680D01*
X734300Y465680D02*
Y509680D01*
Y465680D02*
X764300D01*
X912100Y509680D02*
X942100D01*
Y465680D02*
Y509680D01*
X912100Y465680D02*
Y509680D01*
Y465680D02*
X942100D01*
X967400Y412210D02*
Y426210D01*
X988400Y412210D02*
Y426210D01*
Y394210D02*
Y408210D01*
X967400Y394210D02*
Y408210D01*
Y426210D02*
X988400D01*
X967400Y394210D02*
X988400D01*
X954700Y447770D02*
Y461770D01*
X975700Y447770D02*
Y461770D01*
Y429770D02*
Y443770D01*
X954700Y429770D02*
Y443770D01*
Y461770D02*
X975700D01*
X954700Y429770D02*
X975700D01*
X942000Y412210D02*
Y426210D01*
X963000Y412210D02*
Y426210D01*
Y394210D02*
Y408210D01*
X942000Y394210D02*
Y408210D01*
Y426210D02*
X963000D01*
X942000Y394210D02*
X963000D01*
X929300Y447770D02*
Y461770D01*
X950300Y447770D02*
Y461770D01*
Y429770D02*
Y443770D01*
X929300Y429770D02*
Y443770D01*
Y461770D02*
X950300D01*
X929300Y429770D02*
X950300D01*
X916600Y412210D02*
Y426210D01*
X937600Y412210D02*
Y426210D01*
Y394210D02*
Y408210D01*
X916600Y394210D02*
Y408210D01*
Y426210D02*
X937600D01*
X916600Y394210D02*
X937600D01*
X903900Y447770D02*
Y461770D01*
X924900Y447770D02*
Y461770D01*
Y429770D02*
Y443770D01*
X903900Y429770D02*
Y443770D01*
Y461770D02*
X924900D01*
X903900Y429770D02*
X924900D01*
X891200Y412210D02*
Y426210D01*
X912200Y412210D02*
Y426210D01*
Y394210D02*
Y408210D01*
X891200Y394210D02*
Y408210D01*
Y426210D02*
X912200D01*
X891200Y394210D02*
X912200D01*
X878500Y447770D02*
Y461770D01*
X899500Y447770D02*
Y461770D01*
Y429770D02*
Y443770D01*
X878500Y429770D02*
Y443770D01*
Y461770D02*
X899500D01*
X878500Y429770D02*
X899500D01*
X764200Y412210D02*
Y426210D01*
X785200Y412210D02*
Y426210D01*
Y394210D02*
Y408210D01*
X764200Y394210D02*
Y408210D01*
Y426210D02*
X785200D01*
X764200Y394210D02*
X785200D01*
X738800Y412210D02*
Y426210D01*
X759800Y412210D02*
Y426210D01*
Y394210D02*
Y408210D01*
X738800Y394210D02*
Y408210D01*
Y426210D02*
X759800D01*
X738800Y394210D02*
X759800D01*
X751500Y447770D02*
Y461770D01*
X772500Y447770D02*
Y461770D01*
Y429770D02*
Y443770D01*
X751500Y429770D02*
Y443770D01*
Y461770D02*
X772500D01*
X751500Y429770D02*
X772500D01*
X713400Y412210D02*
Y426210D01*
X734400Y412210D02*
Y426210D01*
Y394210D02*
Y408210D01*
X713400Y394210D02*
Y408210D01*
Y426210D02*
X734400D01*
X713400Y394210D02*
X734400D01*
X726100Y447770D02*
Y461770D01*
X747100Y447770D02*
Y461770D01*
Y429770D02*
Y443770D01*
X726100Y429770D02*
Y443770D01*
Y461770D02*
X747100D01*
X726100Y429770D02*
X747100D01*
X688000Y412210D02*
Y426210D01*
X709000Y412210D02*
Y426210D01*
Y394210D02*
Y408210D01*
X688000Y394210D02*
Y408210D01*
Y426210D02*
X709000D01*
X688000Y394210D02*
X709000D01*
X700700Y447770D02*
Y461770D01*
X721700Y447770D02*
Y461770D01*
Y429770D02*
Y443770D01*
X700700Y429770D02*
Y443770D01*
Y461770D02*
X721700D01*
X700700Y429770D02*
X721700D01*
X776900Y447770D02*
Y461770D01*
X797900Y447770D02*
Y461770D01*
Y429770D02*
Y443770D01*
X776900Y429770D02*
Y443770D01*
Y461770D02*
X797900D01*
X776900Y429770D02*
X797900D01*
M02*
