%FSLAX44Y44*%
%MOMM*%
G71*
G01*
G75*
%ADD10C,0.2540*%
%ADD11R,1.0000X1.1000*%
%ADD12R,1.3000X1.5000*%
%ADD13O,0.3500X2.2000*%
%ADD14R,1.1000X1.0000*%
%ADD15O,0.6350X2.0320*%
%ADD16R,0.6350X2.0320*%
%ADD17R,1.7000X1.8000*%
%ADD18R,1.8000X1.7000*%
%ADD19R,0.9000X0.9500*%
%ADD20R,0.9500X0.9000*%
%ADD21R,1.5000X1.3000*%
%ADD22R,0.3500X2.2000*%
%ADD23C,0.5080*%
%ADD24C,0.3810*%
%ADD25R,2.5400X4.6990*%
%ADD26R,1.5000X1.5000*%
%ADD27C,1.5000*%
%ADD28C,1.5000*%
%ADD29R,1.5240X1.5240*%
%ADD30C,1.0000*%
%ADD31C,1.0000*%
%ADD32R,0.5500X0.4860*%
%ADD33R,0.5500X0.3860*%
%ADD34R,1.2000X1.0000*%
%ADD35C,0.2000*%
%ADD36C,0.2032*%
%ADD37R,1.3556X1.4556*%
%ADD38R,1.6556X1.8556*%
%ADD39O,0.7056X2.5556*%
%ADD40R,1.4556X1.3556*%
%ADD41O,0.9906X2.3876*%
%ADD42R,0.9906X2.3876*%
%ADD43R,2.0556X2.1556*%
%ADD44R,2.1556X2.0556*%
%ADD45R,1.2556X1.3056*%
%ADD46R,1.3056X1.2556*%
%ADD47R,1.8556X1.6556*%
%ADD48R,0.7056X2.5556*%
%ADD49R,1.8556X1.8556*%
%ADD50C,1.8556*%
%ADD51C,1.8556*%
%ADD52R,1.8796X1.8796*%
%ADD53R,0.9056X0.8416*%
%ADD54R,0.9056X0.7416*%
%ADD55R,1.5556X1.3556*%
D49*
X723900Y622300D02*
D03*
X901700Y355600D02*
D03*
X304800D02*
D03*
X508000D02*
D03*
X355600Y457200D02*
D03*
X533400Y558800D02*
D03*
X698500Y508000D02*
D03*
X1206500Y444500D02*
D03*
Y342900D02*
D03*
Y546100D02*
D03*
X698500Y355600D02*
D03*
X1117600Y431800D02*
D03*
X1206500Y647700D02*
D03*
X1003300Y431800D02*
D03*
X850900Y355600D02*
D03*
X876300Y711200D02*
D03*
D50*
X723900Y647700D02*
D03*
X749300Y622300D02*
D03*
Y647700D02*
D03*
X774700Y622300D02*
D03*
Y647700D02*
D03*
X800100Y622300D02*
D03*
Y647700D02*
D03*
X825500Y622300D02*
D03*
Y647700D02*
D03*
X850900Y622300D02*
D03*
Y647700D02*
D03*
X876300Y622300D02*
D03*
Y647700D02*
D03*
X901700Y622300D02*
D03*
Y647700D02*
D03*
X927100Y622300D02*
D03*
Y647700D02*
D03*
X952500Y622300D02*
D03*
Y647700D02*
D03*
Y584200D02*
D03*
Y558800D02*
D03*
X927100Y584200D02*
D03*
X977900Y381000D02*
D03*
Y355600D02*
D03*
X952500Y381000D02*
D03*
Y355600D02*
D03*
X927100Y381000D02*
D03*
Y355600D02*
D03*
X901700Y381000D02*
D03*
X749300D02*
D03*
Y355600D02*
D03*
X723900D02*
D03*
X304800Y381000D02*
D03*
X330200Y355600D02*
D03*
Y381000D02*
D03*
X355600Y355600D02*
D03*
Y381000D02*
D03*
X381000Y355600D02*
D03*
Y381000D02*
D03*
X406400Y355600D02*
D03*
Y381000D02*
D03*
X508000D02*
D03*
X533400Y355600D02*
D03*
Y381000D02*
D03*
X558800Y355600D02*
D03*
Y381000D02*
D03*
X584200Y355600D02*
D03*
Y381000D02*
D03*
X609600Y355600D02*
D03*
Y381000D02*
D03*
X584200Y482600D02*
D03*
Y457200D02*
D03*
X558800Y482600D02*
D03*
Y457200D02*
D03*
X533400Y482600D02*
D03*
Y457200D02*
D03*
X508000Y482600D02*
D03*
Y457200D02*
D03*
X482600Y482600D02*
D03*
Y457200D02*
D03*
X457200Y482600D02*
D03*
Y457200D02*
D03*
X431800Y482600D02*
D03*
Y457200D02*
D03*
X406400Y482600D02*
D03*
Y457200D02*
D03*
X381000Y482600D02*
D03*
Y457200D02*
D03*
X355600Y482600D02*
D03*
X533400Y584200D02*
D03*
X558800Y558800D02*
D03*
Y584200D02*
D03*
X698500Y482600D02*
D03*
X1181100Y444500D02*
D03*
X1206500Y469900D02*
D03*
X1181100D02*
D03*
Y495300D02*
D03*
Y342900D02*
D03*
X1206500Y368300D02*
D03*
X1181100D02*
D03*
X1206500Y393700D02*
D03*
X1181100D02*
D03*
Y546100D02*
D03*
X1206500Y571500D02*
D03*
X1181100D02*
D03*
X1206500Y596900D02*
D03*
X1181100D02*
D03*
X1206500Y495300D02*
D03*
X698500Y381000D02*
D03*
X723900D02*
D03*
X774700Y355600D02*
D03*
Y381000D02*
D03*
X1092200Y660400D02*
D03*
X1117600D02*
D03*
X1092200Y635000D02*
D03*
X1117600D02*
D03*
X1092200Y609600D02*
D03*
X1117600D02*
D03*
X1092200Y584200D02*
D03*
X1117600D02*
D03*
X1092200Y558800D02*
D03*
X1117600D02*
D03*
X1092200Y533400D02*
D03*
X1117600D02*
D03*
X1092200Y508000D02*
D03*
X1117600D02*
D03*
X1092200Y482600D02*
D03*
X1117600D02*
D03*
X1092200Y457200D02*
D03*
X1117600D02*
D03*
X1092200Y431800D02*
D03*
X1181100Y647700D02*
D03*
X1206500Y673100D02*
D03*
X1181100D02*
D03*
X1206500Y698500D02*
D03*
X1181100D02*
D03*
X1206500Y723900D02*
D03*
X1181100D02*
D03*
X1206500Y749300D02*
D03*
X1181100D02*
D03*
X800100Y355600D02*
D03*
X1003300D02*
D03*
X800100Y381000D02*
D03*
X1003300D02*
D03*
Y457200D02*
D03*
X901700Y711200D02*
D03*
Y736600D02*
D03*
X927100Y711200D02*
D03*
Y736600D02*
D03*
X952500Y711200D02*
D03*
Y736600D02*
D03*
X977900Y711200D02*
D03*
Y736600D02*
D03*
X850900Y381000D02*
D03*
X876300Y736600D02*
D03*
D51*
X927100Y558800D02*
D03*
D53*
X742950Y474380D02*
D03*
X755650D02*
D03*
X742950Y500980D02*
D03*
X755660D02*
D03*
X920750Y474380D02*
D03*
X933450D02*
D03*
X920750Y500980D02*
D03*
X933460D02*
D03*
D54*
X755650Y494080D02*
D03*
Y487680D02*
D03*
Y481280D02*
D03*
X742950D02*
D03*
Y487680D02*
D03*
Y494080D02*
D03*
X933450D02*
D03*
Y487680D02*
D03*
Y481280D02*
D03*
X920750D02*
D03*
Y494080D02*
D03*
Y487680D02*
D03*
D55*
X977900Y416210D02*
D03*
Y404210D02*
D03*
X965200Y451770D02*
D03*
Y439770D02*
D03*
X952500Y416210D02*
D03*
Y404210D02*
D03*
X939800Y451770D02*
D03*
Y439770D02*
D03*
X927100Y416210D02*
D03*
Y404210D02*
D03*
X914400Y451770D02*
D03*
Y439770D02*
D03*
X901700Y416210D02*
D03*
Y404210D02*
D03*
X889000Y451770D02*
D03*
Y439770D02*
D03*
X774700Y416210D02*
D03*
Y404210D02*
D03*
X749300Y416210D02*
D03*
Y404210D02*
D03*
X762000Y451770D02*
D03*
Y439770D02*
D03*
X723900Y416210D02*
D03*
Y404210D02*
D03*
X736600Y451770D02*
D03*
Y439770D02*
D03*
X698500Y416210D02*
D03*
Y404210D02*
D03*
X711200Y451770D02*
D03*
Y439770D02*
D03*
X787400Y451770D02*
D03*
Y439770D02*
D03*
M02*
