%FSLAX44Y44*%
%MOMM*%
G71*
G01*
G75*
G04 Layer_Physical_Order=2*
%ADD10C,0.2540*%
%ADD11R,1.0000X1.1000*%
%ADD12R,1.3000X1.5000*%
%ADD13O,0.3500X2.2000*%
%ADD14R,1.1000X1.0000*%
%ADD15O,0.6350X2.0320*%
%ADD16R,0.6350X2.0320*%
%ADD17R,1.7000X1.8000*%
%ADD18R,1.8000X1.7000*%
%ADD19R,0.9000X0.9500*%
%ADD20R,0.9500X0.9000*%
%ADD21R,1.5000X1.3000*%
%ADD22R,0.3500X2.2000*%
%ADD23C,0.5080*%
%ADD24C,0.3810*%
%ADD25R,2.5400X4.6990*%
%ADD26R,1.5000X1.5000*%
%ADD27C,1.5000*%
%ADD28C,1.5000*%
%ADD29R,1.5240X1.5240*%
%ADD30C,1.0000*%
%ADD31C,1.0000*%
%ADD32R,0.5500X0.4860*%
%ADD33R,0.5500X0.3860*%
%ADD34R,1.2000X1.0000*%
D10*
X342018Y355600D02*
G03*
X342018Y355600I-11818J0D01*
G01*
X367418D02*
G03*
X367418Y355600I-11818J0D01*
G01*
X316618Y381000D02*
G03*
X316618Y381000I-11818J0D01*
G01*
X342018D02*
G03*
X342018Y381000I-11818J0D01*
G01*
X367418D02*
G03*
X367418Y381000I-11818J0D01*
G01*
X392818Y355600D02*
G03*
X392818Y355600I-11818J0D01*
G01*
Y381000D02*
G03*
X392818Y381000I-11818J0D01*
G01*
X418218Y355600D02*
G03*
X418218Y355600I-11818J0D01*
G01*
Y381000D02*
G03*
X418218Y381000I-11818J0D01*
G01*
X392818Y457200D02*
G03*
X392818Y457200I-11818J0D01*
G01*
X418218D02*
G03*
X418218Y457200I-11818J0D01*
G01*
X443618D02*
G03*
X443618Y457200I-11818J0D01*
G01*
X469018D02*
G03*
X469018Y457200I-11818J0D01*
G01*
X494418D02*
G03*
X494418Y457200I-11818J0D01*
G01*
X367418Y482600D02*
G03*
X367418Y482600I-11818J0D01*
G01*
X392818D02*
G03*
X392818Y482600I-11818J0D01*
G01*
X418218D02*
G03*
X418218Y482600I-11818J0D01*
G01*
X412877Y558800D02*
G03*
X419100Y552577I6223J0D01*
G01*
X412877Y558800D02*
G03*
X419100Y552577I6223J0D01*
G01*
X428418Y614680D02*
G03*
X412877Y607745I-9318J0D01*
G01*
X425323D02*
G03*
X428418Y614680I-6223J6935D01*
G01*
X443618Y482600D02*
G03*
X443618Y482600I-11818J0D01*
G01*
X469018D02*
G03*
X469018Y482600I-11818J0D01*
G01*
X451435Y590423D02*
G03*
X451435Y577977I-6935J-6223D01*
G01*
X494418Y482600D02*
G03*
X494418Y482600I-11818J0D01*
G01*
X545218Y355600D02*
G03*
X545218Y355600I-11818J0D01*
G01*
X519818Y381000D02*
G03*
X519818Y381000I-11818J0D01*
G01*
X545218D02*
G03*
X545218Y381000I-11818J0D01*
G01*
X519818Y457200D02*
G03*
X519818Y457200I-11818J0D01*
G01*
Y482600D02*
G03*
X519818Y482600I-11818J0D01*
G01*
X545218Y457200D02*
G03*
X545218Y457200I-11818J0D01*
G01*
Y482600D02*
G03*
X545218Y482600I-11818J0D01*
G01*
X570618Y355600D02*
G03*
X570618Y355600I-11818J0D01*
G01*
X596018D02*
G03*
X596018Y355600I-11818J0D01*
G01*
X621418D02*
G03*
X621418Y355600I-11818J0D01*
G01*
X570618Y381000D02*
G03*
X570618Y381000I-11818J0D01*
G01*
Y457200D02*
G03*
X570618Y457200I-11818J0D01*
G01*
X596018Y381000D02*
G03*
X596018Y381000I-11818J0D01*
G01*
Y457200D02*
G03*
X596018Y457200I-11818J0D01*
G01*
X552577Y492647D02*
G03*
X570618Y482600I6223J-10047D01*
G01*
G03*
X565023Y492647I-11818J0D01*
G01*
X596018Y482600D02*
G03*
X596018Y482600I-11818J0D01*
G01*
X621418Y381000D02*
G03*
X621418Y381000I-11818J0D01*
G01*
X523353Y577977D02*
G03*
X545218Y584200I10047J6223D01*
G01*
X527177Y594247D02*
G03*
X523353Y590423I6223J-10047D01*
G01*
X529000Y614000D02*
G03*
X527177Y609600I4400J-4400D01*
G01*
X529006Y614006D02*
G03*
X527177Y609600I4394J-4406D01*
G01*
X554400Y522560D02*
G03*
X552577Y518160I4400J-4400D01*
G01*
X554406Y522566D02*
G03*
X552577Y518160I4394J-4406D01*
G01*
X570618Y558800D02*
G03*
X570618Y558800I-11818J0D01*
G01*
X545218Y584200D02*
G03*
X539623Y594247I-11818J0D01*
G01*
X570618Y584200D02*
G03*
X570618Y584200I-11818J0D01*
G01*
X516205Y717423D02*
G03*
X516205Y704977I-6935J-6223D01*
G01*
X563194Y630594D02*
G03*
X565023Y635000I-4394J4406D01*
G01*
X563200Y630600D02*
G03*
X565023Y635000I-4400J4400D01*
G01*
X568118Y651510D02*
G03*
X552577Y644575I-9318J0D01*
G01*
X565023D02*
G03*
X568118Y651510I-6223J6935D01*
G01*
X563200Y715600D02*
G03*
X558800Y717423I-4400J-4400D01*
G01*
X563206Y715594D02*
G03*
X558800Y717423I-4406J-4394D01*
G01*
X588594Y539154D02*
G03*
X590423Y543560I-4394J4406D01*
G01*
X588600Y539160D02*
G03*
X590423Y543560I-4400J4400D01*
G01*
Y685800D02*
G03*
X588594Y690206I-6223J0D01*
G01*
X590423Y685800D02*
G03*
X588600Y690200I-6223J0D01*
G01*
X1104018Y431800D02*
G03*
X1104018Y431800I-11818J0D01*
G01*
Y457200D02*
G03*
X1104018Y457200I-11818J0D01*
G01*
Y482600D02*
G03*
X1104018Y482600I-11818J0D01*
G01*
Y508000D02*
G03*
X1104018Y508000I-11818J0D01*
G01*
Y533400D02*
G03*
X1104018Y533400I-11818J0D01*
G01*
X1129418Y457200D02*
G03*
X1129418Y457200I-11818J0D01*
G01*
Y482600D02*
G03*
X1129418Y482600I-11818J0D01*
G01*
Y508000D02*
G03*
X1129418Y508000I-11818J0D01*
G01*
Y533400D02*
G03*
X1129418Y533400I-11818J0D01*
G01*
X1148842Y469900D02*
G03*
X1150851Y465051I6858J0D01*
G01*
X1148842Y469900D02*
G03*
X1150851Y465051I6858J0D01*
G01*
X1104018Y558800D02*
G03*
X1104018Y558800I-11818J0D01*
G01*
Y584200D02*
G03*
X1104018Y584200I-11818J0D01*
G01*
Y609600D02*
G03*
X1104018Y609600I-11818J0D01*
G01*
Y635000D02*
G03*
X1104018Y635000I-11818J0D01*
G01*
Y660400D02*
G03*
X1104018Y660400I-11818J0D01*
G01*
X1129418Y558800D02*
G03*
X1129418Y558800I-11818J0D01*
G01*
Y584200D02*
G03*
X1129418Y584200I-11818J0D01*
G01*
Y609600D02*
G03*
X1129418Y609600I-11818J0D01*
G01*
Y635000D02*
G03*
X1129418Y635000I-11818J0D01*
G01*
X1127225Y667258D02*
G03*
X1127225Y653542I-9625J-6858D01*
G01*
X1135149Y665249D02*
G03*
X1130300Y667258I-4849J-4849D01*
G01*
X1135149Y665249D02*
G03*
X1130300Y667258I-4849J-4849D01*
G01*
X1192918Y342900D02*
G03*
X1192918Y342900I-11818J0D01*
G01*
Y368300D02*
G03*
X1192918Y368300I-11818J0D01*
G01*
Y393700D02*
G03*
X1192918Y393700I-11818J0D01*
G01*
X1169445Y446456D02*
G03*
X1192918Y444500I11655J-1956D01*
G01*
X1176113Y459186D02*
G03*
X1192918Y469900I4987J10714D01*
G01*
G03*
X1170386Y464913I-11818J0D01*
G01*
X1192918Y495300D02*
G03*
X1192918Y495300I-11818J0D01*
G01*
X1171475Y539242D02*
G03*
X1192918Y546100I9625J6858D01*
G01*
Y444500D02*
G03*
X1179144Y456155I-11818J0D01*
G01*
X1218318Y368300D02*
G03*
X1218318Y368300I-11818J0D01*
G01*
Y393700D02*
G03*
X1218318Y393700I-11818J0D01*
G01*
Y469900D02*
G03*
X1218318Y469900I-11818J0D01*
G01*
Y495300D02*
G03*
X1218318Y495300I-11818J0D01*
G01*
X1192918Y546100D02*
G03*
X1171475Y552958I-11818J0D01*
G01*
X1184512Y582815D02*
G03*
X1192918Y571500I-3412J-11315D01*
G01*
G03*
X1192415Y574912I-11818J0D01*
G01*
X1197741Y580239D02*
G03*
X1199388Y584200I-3941J3961D01*
G01*
X1197751Y580249D02*
G03*
X1199388Y584200I-3951J3951D01*
G01*
X1188212Y606339D02*
G03*
X1188212Y587462I-7112J-9438D01*
G01*
X1162558Y635000D02*
G03*
X1160549Y639849I-6858J0D01*
G01*
X1162558Y635000D02*
G03*
X1160549Y639849I-6858J0D01*
G01*
X1188212Y657139D02*
G03*
X1188212Y638261I-7112J-9438D01*
G01*
Y682539D02*
G03*
X1188212Y663661I-7112J-9438D01*
G01*
Y707939D02*
G03*
X1188212Y689062I-7112J-9438D01*
G01*
Y733338D02*
G03*
X1188212Y714462I-7112J-9438D01*
G01*
X1192918Y749300D02*
G03*
X1192918Y749300I-11818J0D01*
G01*
X1189849Y740551D02*
G03*
X1188212Y736600I3951J-3951D01*
G01*
X1189859Y740561D02*
G03*
X1188212Y736600I3941J-3961D01*
G01*
X1209912Y582815D02*
G03*
X1218318Y571500I-3412J-11315D01*
G01*
G03*
X1217815Y574912I-11818J0D01*
G01*
X1199388Y587462D02*
G03*
X1213612Y587462I7112J9438D01*
G01*
X1223141Y580239D02*
G03*
X1224788Y584200I-3941J3961D01*
G01*
X1223151Y580249D02*
G03*
X1224788Y584200I-3951J3951D01*
G01*
Y609600D02*
G03*
X1223141Y613561I-5588J0D01*
G01*
X1224788Y609600D02*
G03*
X1223151Y613551I-5588J0D01*
G01*
X1199388Y663661D02*
G03*
X1218318Y673100I7112J9438D01*
G01*
G03*
X1199388Y682539I-11818J0D01*
G01*
Y689062D02*
G03*
X1218318Y698500I7112J9438D01*
G01*
G03*
X1199388Y707939I-11818J0D01*
G01*
Y714462D02*
G03*
X1218318Y723900I7112J9438D01*
G01*
G03*
X1199388Y733338I-11818J0D01*
G01*
X1218318Y749300D02*
G03*
X1195185Y745888I-11818J0D01*
G01*
X1203088Y737985D02*
G03*
X1218318Y749300I3412J11315D01*
G01*
X692912Y391413D02*
G03*
X694182Y369999I5588J-10413D01*
G01*
X712899Y351282D02*
G03*
X734901Y351282I11001J4318D01*
G01*
X738299D02*
G03*
X760301Y351282I11001J4318D01*
G01*
X694549Y467501D02*
G03*
X692912Y463550I3951J-3951D01*
G01*
X694559Y467511D02*
G03*
X692912Y463550I3941J-3961D01*
G01*
X710300Y483253D02*
G03*
X697847Y470800I-11800J-653D01*
G01*
X728980Y499618D02*
G03*
X725019Y497971I0J-5588D01*
G01*
X728980Y499618D02*
G03*
X725029Y497981I0J-5588D01*
G01*
X763699Y351282D02*
G03*
X786518Y355600I11001J4318D01*
G01*
G03*
X786015Y359012I-11818J0D01*
G01*
X791341Y364339D02*
G03*
X792988Y368300I-3941J3961D01*
G01*
X791351Y364349D02*
G03*
X792988Y368300I-3951J3951D01*
G01*
X811918Y355600D02*
G03*
X811918Y355600I-11818J0D01*
G01*
X792988Y371562D02*
G03*
X811918Y381000I7112J9438D01*
G01*
G03*
X805688Y391413I-11818J0D01*
G01*
Y461010D02*
G03*
X804051Y464961I-5588J0D01*
G01*
X805688Y461010D02*
G03*
X804041Y464971I-5588J0D01*
G01*
X862718Y381000D02*
G03*
X862718Y381000I-11818J0D01*
G01*
X742950Y513588D02*
G03*
X737362Y508000I0J-5588D01*
G01*
X742950Y513588D02*
G03*
X737362Y508000I0J-5588D01*
G01*
X764032Y562610D02*
G03*
X765669Y558659I5588J0D01*
G01*
X764032Y562610D02*
G03*
X765679Y558649I5588J0D01*
G01*
X740269Y603109D02*
G03*
X744220Y601472I3951J3951D01*
G01*
X740259Y603119D02*
G03*
X744220Y601472I3961J3941D01*
G01*
X731255Y656950D02*
G03*
X731012Y638261I-7355J-9250D01*
G01*
X732649Y659271D02*
G03*
X731255Y656950I3951J-3951D01*
G01*
X732659Y659281D02*
G03*
X731255Y656950I3941J-3961D01*
G01*
X753110Y677418D02*
G03*
X749149Y675771I0J-5588D01*
G01*
X753110Y677418D02*
G03*
X749159Y675781I0J-5588D01*
G01*
X778651Y511951D02*
G03*
X774700Y513588I-3951J-3951D01*
G01*
X778661Y511941D02*
G03*
X774700Y513588I-3961J-3941D01*
G01*
X787908Y500380D02*
G03*
X786261Y504341I-5588J0D01*
G01*
X787908Y500380D02*
G03*
X786271Y504331I-5588J0D01*
G01*
X789606Y534721D02*
G03*
X806450Y528037I9224J-1321D01*
G01*
X792329Y570099D02*
G03*
X796290Y568452I3961J3941D01*
G01*
X792339Y570089D02*
G03*
X796290Y568452I3951J3951D01*
G01*
X806450Y528037D02*
G03*
X823388Y533400I7620J5363D01*
G01*
G03*
X812749Y542624I-9318J0D01*
G01*
X796453Y568452D02*
G03*
X813228Y574040I7456J5588D01*
G01*
G03*
X810077Y581025I-9318J0D01*
G01*
G03*
X813226Y587825I-6167J6985D01*
G01*
G03*
X818991Y588327I2114J9075D01*
G01*
G03*
X835497Y584962I9049J2223D01*
G01*
X857109Y725311D02*
G03*
X855472Y721360I3951J-3951D01*
G01*
X857119Y725321D02*
G03*
X855472Y721360I3941J-3961D01*
G01*
X883412Y368300D02*
G03*
X885059Y364339I5588J0D01*
G01*
X883412Y368300D02*
G03*
X885049Y364349I5588J0D01*
G01*
X916099Y351282D02*
G03*
X938101Y351282I11001J4318D01*
G01*
X941499D02*
G03*
X963501Y351282I11001J4318D01*
G01*
X885049Y464961D02*
G03*
X883412Y461088I3951J-3951D01*
G01*
X885059Y464971D02*
G03*
X883412Y461088I3941J-3961D01*
G01*
X901700Y499618D02*
G03*
X896112Y494030I0J-5588D01*
G01*
X901700Y499618D02*
G03*
X896112Y494030I0J-5588D01*
G01*
X920750Y513588D02*
G03*
X915162Y508000I0J-5588D01*
G01*
X920750Y513588D02*
G03*
X915162Y508000I0J-5588D01*
G01*
X938918Y558800D02*
G03*
X938918Y558800I-11818J0D01*
G01*
X958991Y511951D02*
G03*
X955040Y513588I-3951J-3951D01*
G01*
X959001Y511941D02*
G03*
X955040Y513588I-3961J-3941D01*
G01*
X972058Y496570D02*
G03*
X970411Y500531I-5588J0D01*
G01*
X979311Y478931D02*
G03*
X975360Y480568I-3951J-3951D01*
G01*
X972058Y496570D02*
G03*
X970421Y500521I-5588J0D01*
G01*
X979321Y478921D02*
G03*
X975360Y480568I-3961J-3941D01*
G01*
X964318Y558800D02*
G03*
X964318Y558800I-11818J0D01*
G01*
X966899Y351282D02*
G03*
X989718Y355600I11001J4318D01*
G01*
G03*
X982218Y366601I-11818J0D01*
G01*
Y369999D02*
G03*
X989718Y381000I-4318J11001D01*
G01*
X1015118Y355600D02*
G03*
X1015118Y355600I-11818J0D01*
G01*
Y381000D02*
G03*
X1015118Y381000I-11818J0D01*
G01*
X989718D02*
G03*
X983488Y391413I-11818J0D01*
G01*
X991108Y464820D02*
G03*
X989471Y468771I-5588J0D01*
G01*
X991108Y464820D02*
G03*
X989461Y468781I-5588J0D01*
G01*
X1015118Y457200D02*
G03*
X1015118Y457200I-11818J0D01*
G01*
X889000Y584962D02*
G03*
X892951Y586599I0J5588D01*
G01*
X889000Y584962D02*
G03*
X892961Y586609I0J5588D01*
G01*
X938918Y584200D02*
G03*
X938918Y584200I-11818J0D01*
G01*
X919358Y613371D02*
G03*
X936725Y615442I7742J8929D01*
G01*
Y629158D02*
G03*
X931418Y633301I-9625J-6858D01*
G01*
X938918Y647700D02*
G03*
X919988Y657139I-11818J0D01*
G01*
X931418Y636699D02*
G03*
X938918Y647700I-4318J11001D01*
G01*
X872888Y725285D02*
G03*
X888118Y736600I3412J11315D01*
G01*
X908812Y720639D02*
G03*
X908812Y701761I-7112J-9438D01*
G01*
X913518Y736600D02*
G03*
X913518Y736600I-11818J0D01*
G01*
X888118D02*
G03*
X864985Y733188I-11818J0D01*
G01*
X910449Y727851D02*
G03*
X908812Y723900I3951J-3951D01*
G01*
X910459Y727861D02*
G03*
X908812Y723900I3941J-3961D01*
G01*
X934212Y720639D02*
G03*
X919988Y720639I-7112J-9438D01*
G01*
X935849Y727851D02*
G03*
X934212Y723900I3951J-3951D01*
G01*
X935859Y727861D02*
G03*
X934212Y723900I3941J-3961D01*
G01*
X923688Y725285D02*
G03*
X938918Y736600I3412J11315D01*
G01*
G03*
X915785Y733188I-11818J0D01*
G01*
X964318Y584200D02*
G03*
X964318Y584200I-11818J0D01*
G01*
X942875Y615442D02*
G03*
X964318Y622300I9625J6858D01*
G01*
G03*
X942875Y629158I-11818J0D01*
G01*
X964318Y647700D02*
G03*
X964318Y647700I-11818J0D01*
G01*
X956441Y694539D02*
G03*
X958088Y698500I-3941J3961D01*
G01*
X956451Y694549D02*
G03*
X958088Y698500I-3951J3951D01*
G01*
Y700787D02*
G03*
X964318Y711200I-5588J10413D01*
G01*
G03*
X945388Y720639I-11818J0D01*
G01*
X949088Y725285D02*
G03*
X964318Y736600I3412J11315D01*
G01*
X989718Y711200D02*
G03*
X989718Y711200I-11818J0D01*
G01*
Y736600D02*
G03*
X989718Y736600I-11818J0D01*
G01*
X964318D02*
G03*
X941185Y733188I-11818J0D01*
G01*
X1206500Y571500D02*
X1219200Y584200D01*
X1206500Y622300D02*
Y647700D01*
Y622300D02*
X1219200Y609600D01*
X1181100Y571500D02*
X1193800Y584200D01*
Y736600D01*
X1206500Y749300D01*
X1219200Y584200D02*
Y609600D01*
X828040Y590550D02*
X889000D01*
X803910Y588010D02*
Y601980D01*
X787400Y582930D02*
Y628650D01*
X914400Y660400D02*
X952500Y698500D01*
X889000Y590550D02*
X914400Y615950D01*
X952500Y698500D02*
Y711200D01*
X939800Y723900D02*
X952500Y736600D01*
X939800Y698500D02*
Y723900D01*
X908050Y666750D02*
X939800Y698500D01*
X873760Y600710D02*
X889000Y615950D01*
X819150Y600710D02*
X873760D01*
X889000Y660400D02*
X895350Y666750D01*
X863600Y660400D02*
X882650Y679450D01*
X863600Y615950D02*
Y660400D01*
X810260Y608330D02*
X855980D01*
X838200Y641350D02*
Y660400D01*
X787400Y628650D02*
X793750Y635000D01*
X787400Y582930D02*
X796290Y574040D01*
X838200Y660400D02*
X869950Y692150D01*
X927100Y698500D02*
Y711200D01*
X908050Y679450D02*
X927100Y698500D01*
X882650Y679450D02*
X908050D01*
X914400Y723900D02*
X927100Y736600D01*
X914400Y698500D02*
Y723900D01*
X908050Y692150D02*
X914400Y698500D01*
X869950Y692150D02*
X908050D01*
X895350Y666750D02*
X908050D01*
X796290Y574040D02*
X803910D01*
X815340Y596900D02*
X819150Y600710D01*
X816610Y596900D02*
X820420Y600710D01*
X803910Y601980D02*
X810260Y608330D01*
X793750Y635000D02*
X831850D01*
X838200Y641350D01*
X855980Y608330D02*
X863600Y615950D01*
X889000D02*
Y660400D01*
X914400Y615950D02*
Y660400D01*
X698500Y381000D02*
Y403860D01*
X723900Y381000D02*
Y403860D01*
X749300Y381000D02*
Y403860D01*
X774700Y381000D02*
Y403860D01*
X901700Y381000D02*
Y403860D01*
X927100Y381000D02*
Y403860D01*
X952500Y381000D02*
Y403860D01*
X977900Y381000D02*
Y403860D01*
X965200Y368300D02*
Y439420D01*
X939800Y368300D02*
Y439420D01*
X914400Y368300D02*
Y439420D01*
X889000Y368300D02*
Y439420D01*
X787400Y368300D02*
Y439420D01*
X762000Y368300D02*
Y439420D01*
X736600Y368300D02*
Y439420D01*
X711200Y368300D02*
Y439420D01*
X965200Y368300D02*
X977900Y355600D01*
X939800Y368300D02*
X952500Y355600D01*
X914400Y368300D02*
X927100Y355600D01*
X889000Y368300D02*
X901700Y355600D01*
X774700D02*
X787400Y368300D01*
X749300Y355600D02*
X762000Y368300D01*
X723900Y355600D02*
X736600Y368300D01*
X698500Y355600D02*
X711200Y368300D01*
Y452120D02*
Y466090D01*
X736600Y452120D02*
Y461010D01*
X742950Y467360D02*
Y473710D01*
X736600Y461010D02*
X742950Y467360D01*
X732790Y487680D02*
X742950D01*
X723900Y416560D02*
Y468630D01*
X736600Y481330D02*
X742950D01*
X749300Y416560D02*
Y481330D01*
X755650Y494030D02*
X765810D01*
X787400Y452120D02*
Y461010D01*
X755650Y487680D02*
X762000D01*
Y452120D02*
Y487680D01*
X749300Y481330D02*
X755650D01*
X774700Y416560D02*
Y462280D01*
X755650Y500380D02*
X769620D01*
X698500Y416560D02*
Y463550D01*
X728980Y494030D02*
X742950D01*
X768350Y468630D02*
Y491490D01*
Y468630D02*
X774700Y462280D01*
Y473710D02*
X787400Y461010D01*
X774700Y473710D02*
Y495300D01*
X723900Y468630D02*
X736600Y481330D01*
X711200Y466090D02*
X732790Y487680D01*
X698500Y463550D02*
X728980Y494030D01*
X742950Y500380D02*
Y508000D01*
X782320Y478790D02*
Y500380D01*
X800100Y382270D02*
Y461010D01*
X742950Y508000D02*
X774700D01*
X782320Y478790D02*
X800100Y461010D01*
X901700Y416560D02*
Y462280D01*
X920750Y466090D02*
Y473710D01*
X952500Y416560D02*
Y462280D01*
X977900Y416560D02*
Y459740D01*
X952500Y472440D02*
Y488950D01*
X933450Y481330D02*
X939800D01*
X914400Y452120D02*
Y481330D01*
X889000Y452120D02*
Y461010D01*
X939800Y452120D02*
Y481330D01*
X927100Y416560D02*
Y459740D01*
X920750Y466090D02*
X927100Y459740D01*
X914400Y481330D02*
X920750D01*
X908050Y487680D02*
X920750D01*
X901700Y494030D02*
X920750D01*
X933450Y487680D02*
X943610D01*
X933450Y494030D02*
X947420D01*
X933450Y500380D02*
X951230D01*
X946150Y468630D02*
Y485140D01*
Y468630D02*
X952500Y462280D01*
X901700D02*
X908050Y468630D01*
Y487680D01*
X889000Y461010D02*
X901700Y473710D01*
Y494030D01*
X765810D02*
X768350Y491490D01*
X769620Y500380D02*
X774700Y495300D01*
Y508000D02*
X782320Y500380D01*
X943610Y487680D02*
X946150Y485140D01*
X947420Y494030D02*
X952500Y488950D01*
Y472440D02*
X965200Y459740D01*
Y452120D02*
Y459740D01*
X951230Y500380D02*
X958850Y492760D01*
Y476250D02*
Y492760D01*
Y476250D02*
X969010Y466090D01*
X920750Y500380D02*
Y508000D01*
X955040D01*
X966470Y481330D02*
Y496570D01*
Y481330D02*
X972820Y474980D01*
X975360D01*
X985520Y449580D02*
Y464820D01*
Y449580D02*
X1003300Y431800D01*
X955040Y508000D02*
X966470Y496570D01*
X975360Y474980D02*
X985520Y464820D01*
X971550Y466090D02*
X977900Y459740D01*
X969010Y466090D02*
X971550D01*
X762000Y614680D02*
Y655320D01*
X736600Y614680D02*
X744220Y607060D01*
X736600Y655320D02*
X753110Y671830D01*
X769620Y562610D02*
X798830Y533400D01*
X762000Y655320D02*
X769620Y662940D01*
X762000Y614680D02*
X778510Y598170D01*
X828040Y662940D02*
X876300Y711200D01*
X824230Y671830D02*
X861060Y708660D01*
X769620Y662940D02*
X828040D01*
X753110Y671830D02*
X824230D01*
X861060Y721360D02*
X876300Y736600D01*
X861060Y708660D02*
Y721360D01*
X778510Y568960D02*
Y598170D01*
Y568960D02*
X814070Y533400D01*
X736600Y614680D02*
Y655320D01*
X769620Y562610D02*
Y590550D01*
X753110Y607060D02*
X769620Y590550D01*
X744220Y607060D02*
X753110D01*
X271780Y782320D02*
X642620D01*
X271780Y309880D02*
X642620D01*
X668020Y782320D02*
X1033780D01*
X668020Y309880D02*
X1033780D01*
X294894D02*
Y343782D01*
X297180Y309880D02*
Y343782D01*
X299466Y309880D02*
Y343782D01*
X301752Y309880D02*
Y343782D01*
X304038Y309880D02*
Y343782D01*
X306324Y309880D02*
Y343782D01*
X271780Y345186D02*
X292982D01*
X271780Y347472D02*
X292982D01*
X271780Y349758D02*
X292982D01*
X308610Y309880D02*
Y343782D01*
X292982D02*
Y367418D01*
X310896Y309880D02*
Y343782D01*
X313182Y309880D02*
Y343782D01*
X315468Y309880D02*
Y343782D01*
X292982D02*
X316618D01*
X324612Y309880D02*
Y345187D01*
X326898Y309880D02*
Y344253D01*
X329184Y309880D02*
Y343826D01*
X316618Y345186D02*
X324613D01*
X316618Y349758D02*
X319927D01*
X316618Y347472D02*
X321621D01*
X320040Y309880D02*
Y349563D01*
X322326Y309880D02*
Y346787D01*
X316618Y343782D02*
Y367418D01*
X271780Y352044D02*
X292982D01*
X271780Y354330D02*
X292982D01*
X271780Y356616D02*
X292982D01*
X271780Y358902D02*
X292982D01*
X271780Y361188D02*
X292982D01*
X271780Y363474D02*
X292982D01*
X271780Y365760D02*
X292982D01*
X271780Y374904D02*
X294676D01*
X271780Y372618D02*
X296469D01*
X294894Y367418D02*
Y374555D01*
X297180Y367418D02*
Y371967D01*
X299466Y367418D02*
Y370454D01*
X316618Y361188D02*
X319787D01*
X271780Y370332D02*
X299715D01*
X292982Y367418D02*
X316618D01*
Y363474D02*
X321387D01*
X316618Y365760D02*
X324164D01*
X326898Y366947D02*
Y369653D01*
X310896Y367418D02*
Y370876D01*
X313182Y367418D02*
Y372669D01*
X309885Y370332D02*
X325115D01*
X322326Y364413D02*
Y372187D01*
X324612Y366013D02*
Y370587D01*
X314924Y374904D02*
X320076D01*
X313131Y372618D02*
X321869D01*
X331470Y309880D02*
Y343850D01*
X333756Y309880D02*
Y344330D01*
X335787Y345186D02*
X350013D01*
X336042Y309880D02*
Y345327D01*
X349758Y309880D02*
Y345327D01*
X352044Y309880D02*
Y344330D01*
X338328Y309880D02*
Y347021D01*
X340473Y349758D02*
X345327D01*
X338779Y347472D02*
X347021D01*
X340614Y309880D02*
Y350013D01*
X345186Y309880D02*
Y350013D01*
X347472Y309880D02*
Y347021D01*
X354330Y309880D02*
Y343850D01*
X356616Y309880D02*
Y343826D01*
X358902Y309880D02*
Y344253D01*
X361188Y309880D02*
Y345187D01*
X374904Y309880D02*
Y345476D01*
X377190Y309880D02*
Y344413D01*
X363474Y309880D02*
Y346787D01*
X361187Y345186D02*
X375413D01*
X365760Y309880D02*
Y349563D01*
X370332Y309880D02*
Y350515D01*
X364179Y347472D02*
X372421D01*
X372618Y309880D02*
Y347269D01*
X339013Y363474D02*
X346787D01*
X333756Y366870D02*
Y369730D01*
X336236Y365760D02*
X349563D01*
X341470Y352044D02*
X344330D01*
X341547Y358902D02*
X344253D01*
X340613Y361188D02*
X345187D01*
X338328Y364179D02*
Y372421D01*
X336042Y365873D02*
Y370727D01*
X335285Y370332D02*
X350515D01*
X347472Y364179D02*
Y372421D01*
X349758Y365873D02*
Y370727D01*
X338531Y372618D02*
X347269D01*
X352044Y366870D02*
Y369730D01*
X365873Y349758D02*
X370727D01*
X364413Y363474D02*
X372187D01*
X361637Y365760D02*
X374963D01*
X366870Y352044D02*
X369730D01*
X366947Y358902D02*
X369653D01*
X366013Y361188D02*
X370587D01*
X361188Y366013D02*
Y370587D01*
X358902Y366947D02*
Y369653D01*
X360685Y370332D02*
X375915D01*
X363474Y364413D02*
Y372187D01*
X372618Y363931D02*
Y372669D01*
X363931Y372618D02*
X372669D01*
X374904Y365724D02*
Y370876D01*
X281178Y309880D02*
Y737362D01*
X283464Y309880D02*
Y737362D01*
X271780Y379476D02*
X293081D01*
X285750Y309880D02*
Y737362D01*
X288036Y309880D02*
Y737362D01*
X290322Y309880D02*
Y737362D01*
X271780Y309880D02*
Y782320D01*
X272034Y309880D02*
Y782320D01*
X274320Y309880D02*
Y782320D01*
X276606Y309880D02*
Y782320D01*
X278892Y309880D02*
Y782320D01*
X292608Y309880D02*
Y737362D01*
X271780Y377190D02*
X293613D01*
X271780Y381762D02*
X293007D01*
X271780Y384048D02*
X293382D01*
X320040Y361637D02*
Y374963D01*
X315468Y367418D02*
Y375915D01*
X315987Y377190D02*
X319013D01*
X271780Y386334D02*
X294254D01*
X315346D02*
X319654D01*
X317754Y309880D02*
Y782320D01*
X315468Y386085D02*
Y782320D01*
X316218Y384048D02*
X318782D01*
X294894Y387445D02*
Y737362D01*
X271780Y388620D02*
X295767D01*
X271780Y390906D02*
X298355D01*
X297180Y390033D02*
Y737362D01*
X299466Y391546D02*
Y737362D01*
X301752Y392418D02*
Y737362D01*
X308610Y392187D02*
Y782320D01*
X304038Y392793D02*
Y737362D01*
X306324Y392719D02*
Y782320D01*
X320040Y387037D02*
Y782320D01*
X310896Y391124D02*
Y782320D01*
X313182Y389331D02*
Y782320D01*
X271780Y445770D02*
X343782D01*
X271780Y448056D02*
X343782D01*
X271780Y450342D02*
X343782D01*
X313833Y388620D02*
X321167D01*
X311245Y390906D02*
X323755D01*
X271780Y452628D02*
X343782D01*
X271780Y454914D02*
X343782D01*
X271780Y457200D02*
X343782D01*
X271780Y459486D02*
X343782D01*
X322326Y389813D02*
Y782320D01*
X271780Y461772D02*
X343782D01*
X271780Y464058D02*
X343782D01*
X271780Y466344D02*
X343782D01*
X340614Y361187D02*
Y375413D01*
X340324Y374904D02*
X345476D01*
X340746Y386334D02*
X345054D01*
X345186Y361187D02*
Y375413D01*
X341387Y377190D02*
X344413D01*
X341618Y384048D02*
X344182D01*
X340614Y386587D02*
Y782320D01*
X338328Y389579D02*
Y782320D01*
X339233Y388620D02*
X346567D01*
X342900Y309880D02*
Y782320D01*
X345186Y386587D02*
Y445382D01*
X347472Y389579D02*
Y445382D01*
X365760Y361637D02*
Y374963D01*
X366146Y386334D02*
X370454D01*
X365724Y374904D02*
X370876D01*
X370332Y360685D02*
Y375915D01*
X366787Y377190D02*
X369813D01*
X367018Y384048D02*
X369582D01*
X363474Y389813D02*
Y445382D01*
X364633Y388620D02*
X371967D01*
X368046Y309880D02*
Y782320D01*
X370332Y386085D02*
Y452115D01*
X365760Y387037D02*
Y445382D01*
X372618Y389331D02*
Y448869D01*
X336645Y390906D02*
X349155D01*
X349758Y391273D02*
Y445382D01*
X352044Y392270D02*
Y445382D01*
X358902Y392347D02*
Y445382D01*
X354330Y392750D02*
Y445382D01*
X356616Y392774D02*
Y445382D01*
X324612Y391413D02*
Y782320D01*
X326898Y392347D02*
Y782320D01*
X329184Y392774D02*
Y782320D01*
X333756Y392270D02*
Y782320D01*
X336042Y391273D02*
Y782320D01*
X331470Y392750D02*
Y782320D01*
X343782Y445382D02*
Y469018D01*
X361188Y391413D02*
Y445382D01*
X343782D02*
X367418D01*
X362045Y390906D02*
X374555D01*
X374904Y391124D02*
Y447076D01*
X367418Y450342D02*
X371375D01*
X367418Y448056D02*
X373513D01*
X367418Y452628D02*
X370102D01*
X367418Y461772D02*
X370102D01*
X367418Y464058D02*
X371375D01*
X367418Y445382D02*
Y469018D01*
X370332Y462285D02*
Y477515D01*
X372618Y465531D02*
Y474269D01*
X367418Y466344D02*
X373513D01*
X271780Y309880D02*
X642620D01*
X271780Y310896D02*
X642620D01*
X271780Y313182D02*
X642620D01*
X379476Y309880D02*
Y343881D01*
X381762Y309880D02*
Y343807D01*
X384048Y309880D02*
Y344182D01*
X386334Y309880D02*
Y345054D01*
X386587Y345186D02*
X400813D01*
X388620Y309880D02*
Y346567D01*
X390906Y309880D02*
Y349155D01*
X389579Y347472D02*
X397821D01*
X271780Y315468D02*
X642620D01*
X271780Y317754D02*
X642620D01*
X271780Y320040D02*
X642620D01*
X271780Y322326D02*
X642620D01*
X271780Y324612D02*
X642620D01*
X271780Y326898D02*
X642620D01*
X271780Y329184D02*
X642620D01*
X271780Y331470D02*
X642620D01*
X271780Y333756D02*
X642620D01*
X271780Y336042D02*
X642620D01*
X271780Y338328D02*
X642620D01*
X271780Y340614D02*
X642620D01*
X271780Y342900D02*
X642620D01*
X386334Y366146D02*
Y370454D01*
X377190Y366787D02*
Y369813D01*
X384048Y367018D02*
Y369582D01*
X391273Y349758D02*
X396127D01*
X389813Y363474D02*
X397587D01*
X387037Y365760D02*
X400364D01*
X387445Y390906D02*
X399955D01*
X386085Y370332D02*
X401315D01*
X388620Y364633D02*
Y371967D01*
X390033Y388620D02*
X397367D01*
X389331Y372618D02*
X398069D01*
X271780Y368046D02*
X642620D01*
X271780Y393192D02*
X642620D01*
X271780Y395478D02*
X642620D01*
X271780Y397764D02*
X642620D01*
X271780Y400050D02*
X642620D01*
X271780Y402336D02*
X642620D01*
X271780Y404622D02*
X642620D01*
X271780Y406908D02*
X642620D01*
X271780Y409194D02*
X642620D01*
X271780Y411480D02*
X642620D01*
X271780Y413766D02*
X642620D01*
X271780Y416052D02*
X642620D01*
X271780Y418338D02*
X642620D01*
X395478Y309880D02*
Y351086D01*
X397764Y309880D02*
Y347533D01*
X400050Y309880D02*
Y345633D01*
X402336Y309880D02*
Y344503D01*
X404622Y309880D02*
Y343917D01*
X406908Y309880D02*
Y343793D01*
X392270Y352044D02*
X395130D01*
X392347Y358902D02*
X395053D01*
X395478Y360114D02*
Y376486D01*
X406400Y345052D02*
Y355600D01*
X395852D02*
X406400D01*
Y366148D01*
X409194Y309880D02*
Y344117D01*
X411480Y309880D02*
Y344930D01*
X411987Y345186D02*
X496182D01*
X413766Y309880D02*
Y346358D01*
X416052Y309880D02*
Y348781D01*
X414979Y347472D02*
X496182D01*
X406400Y355600D02*
X416948D01*
X416673Y349758D02*
X496182D01*
X417670Y352044D02*
X496182D01*
X418150Y354330D02*
X496182D01*
X418174Y356616D02*
X496182D01*
X417747Y358902D02*
X496182D01*
X391413Y361188D02*
X395987D01*
X397764Y363667D02*
Y372933D01*
X400050Y365567D02*
Y371033D01*
X413766Y364842D02*
Y371758D01*
X402336Y366697D02*
Y369903D01*
X411480Y366270D02*
Y370330D01*
X390906Y362045D02*
Y374555D01*
X391124Y374904D02*
X396276D01*
X391546Y386334D02*
X395854D01*
X416052Y362419D02*
Y374181D01*
X392187Y377190D02*
X395213D01*
X392418Y384048D02*
X394982D01*
X412436Y365760D02*
X496182D01*
X414731Y372618D02*
X499669D01*
X411485Y370332D02*
X502915D01*
X416813Y361188D02*
X496182D01*
X415213Y363474D02*
X496182D01*
X416524Y374904D02*
X497876D01*
X416946Y386334D02*
X497454D01*
X415433Y388620D02*
X498967D01*
X412845Y390906D02*
X501555D01*
X418119Y379476D02*
X496281D01*
X417587Y377190D02*
X496813D01*
X418193Y381762D02*
X496207D01*
X417818Y384048D02*
X496582D01*
X377190Y392187D02*
Y446013D01*
X379476Y392719D02*
Y445481D01*
X381762Y392793D02*
Y445407D01*
X386334Y391546D02*
Y446654D01*
X384048Y392418D02*
Y445782D01*
X402336Y392097D02*
Y446103D01*
X393192Y309880D02*
Y782320D01*
X388620Y390033D02*
Y448167D01*
X390906Y387445D02*
Y450755D01*
X395478Y385514D02*
Y452686D01*
X397764Y389067D02*
Y449132D01*
X400050Y390967D02*
Y447233D01*
X271780Y420624D02*
X642620D01*
X271780Y422910D02*
X642620D01*
X271780Y425196D02*
X642620D01*
X404622Y392683D02*
Y445517D01*
X271780Y427482D02*
X642620D01*
X271780Y429768D02*
X642620D01*
X411480Y391670D02*
Y446530D01*
X406908Y392807D02*
Y445393D01*
X409194Y392483D02*
Y445717D01*
X418338Y309880D02*
Y552624D01*
X420624Y309880D02*
Y453358D01*
X413766Y390242D02*
Y447958D01*
X416052Y387819D02*
Y450381D01*
X367418Y445770D02*
X377997D01*
X388487Y448056D02*
X398913D01*
X384003Y445770D02*
X403397D01*
X390625Y450342D02*
X396775D01*
X391898Y452628D02*
X395502D01*
X391898Y461772D02*
X395502D01*
X390906Y463645D02*
Y476155D01*
X390625Y464058D02*
X396775D01*
X395478Y461714D02*
Y478086D01*
X397764Y465267D02*
Y474533D01*
X416052Y464019D02*
Y475781D01*
X271780Y432054D02*
X642620D01*
X271780Y434340D02*
X642620D01*
X271780Y436626D02*
X642620D01*
X271780Y438912D02*
X642620D01*
X271780Y441198D02*
X642620D01*
X271780Y443484D02*
X642620D01*
X413887Y448056D02*
X424313D01*
X409403Y445770D02*
X428797D01*
X417298Y452628D02*
X420902D01*
X416025Y450342D02*
X422175D01*
X417298Y461772D02*
X420902D01*
X416025Y464058D02*
X422175D01*
X425196Y309880D02*
Y447399D01*
X427482Y309880D02*
Y446199D01*
X429768Y309880D02*
Y445558D01*
X432054Y309880D02*
Y445385D01*
X434340Y309880D02*
Y445658D01*
X436626Y309880D02*
Y446412D01*
X422910Y309880D02*
Y449413D01*
X438912Y309880D02*
Y447761D01*
X441198Y309880D02*
Y450035D01*
X443484Y309880D02*
Y455425D01*
X445770Y309880D02*
Y454197D01*
X448056Y309880D02*
Y449713D01*
X452628Y309880D02*
Y446302D01*
X454914Y309880D02*
Y445605D01*
X457200Y309880D02*
Y445382D01*
X459486Y309880D02*
Y445605D01*
X461772Y309880D02*
Y446302D01*
X477774Y309880D02*
Y446412D01*
X450342Y309880D02*
Y447575D01*
X464058Y309880D02*
Y447575D01*
X466344Y309880D02*
Y449713D01*
X468630Y309880D02*
Y454197D01*
X470916Y309880D02*
Y455425D01*
X473202Y309880D02*
Y450035D01*
X475488Y309880D02*
Y447761D01*
X434803Y445770D02*
X454197D01*
X441425Y450342D02*
X447575D01*
X439287Y448056D02*
X449713D01*
X442698Y452628D02*
X446302D01*
X442698Y461772D02*
X446302D01*
X441425Y464058D02*
X447575D01*
X420624Y461042D02*
Y478758D01*
X422910Y464987D02*
Y474813D01*
X443484Y458975D02*
Y480825D01*
X445770Y460203D02*
Y479597D01*
X441198Y464365D02*
Y475435D01*
X448056Y464687D02*
Y475113D01*
X460203Y445770D02*
X479597D01*
X466825Y450342D02*
X472975D01*
X464687Y448056D02*
X475113D01*
X480060Y309880D02*
Y445658D01*
X468098Y452628D02*
X471702D01*
X468098Y461772D02*
X471702D01*
X466344Y464687D02*
Y475113D01*
X466825Y464058D02*
X472975D01*
X470916Y458975D02*
Y480825D01*
X468630Y460203D02*
Y479597D01*
X473202Y464365D02*
Y475435D01*
X271780Y468630D02*
X343782D01*
X271780Y473202D02*
X348435D01*
X271780Y470916D02*
X353825D01*
X349758Y469018D02*
Y472327D01*
X361188Y469018D02*
Y472187D01*
X363474Y469018D02*
Y473787D01*
X271780Y475488D02*
X346161D01*
X271780Y480060D02*
X344058D01*
X271780Y477774D02*
X344812D01*
X345186Y469018D02*
Y477013D01*
X271780Y482346D02*
X343785D01*
X347472Y469018D02*
Y474021D01*
X343782Y469018D02*
X367418D01*
Y468630D02*
X377997D01*
X357375Y470916D02*
X379225D01*
X377190Y468387D02*
Y471413D01*
X384003Y468630D02*
X403397D01*
X382775Y470916D02*
X404625D01*
X365038Y475488D02*
X371562D01*
X362765Y473202D02*
X373835D01*
X365760Y469018D02*
Y476563D01*
X374904Y467324D02*
Y472476D01*
X366388Y477774D02*
X370212D01*
X271780Y484632D02*
X343958D01*
X271780Y486918D02*
X344599D01*
X271780Y489204D02*
X345799D01*
X366601Y486918D02*
X369999D01*
X271780Y491490D02*
X347813D01*
X365401Y489204D02*
X371199D01*
X271780Y493776D02*
X351758D01*
X271780Y557784D02*
X412961D01*
X271780Y560070D02*
X412877D01*
X363387Y491490D02*
X373213D01*
X359442Y493776D02*
X377158D01*
X271780Y562356D02*
X412877D01*
X271780Y553212D02*
X416361D01*
X271780Y564642D02*
X412877D01*
X271780Y555498D02*
X413825D01*
X271780Y566928D02*
X412877D01*
X271780Y569214D02*
X412877D01*
X271780Y571500D02*
X412877D01*
X271780Y573786D02*
X412877D01*
X271780Y576072D02*
X412877D01*
X271780Y578358D02*
X412877D01*
X271780Y580644D02*
X412877D01*
X271780Y582930D02*
X412877D01*
X271780Y585216D02*
X412877D01*
X271780Y587502D02*
X412877D01*
X388487Y466344D02*
X398913D01*
X384048Y468618D02*
Y471182D01*
X386334Y467746D02*
Y472054D01*
X400050Y467167D02*
Y472633D01*
X402336Y468297D02*
Y471503D01*
X411480Y467870D02*
Y471930D01*
X388620Y466233D02*
Y473567D01*
X390438Y475488D02*
X396962D01*
X388165Y473202D02*
X399235D01*
X413766Y466442D02*
Y473358D01*
X391788Y477774D02*
X395612D01*
X392001Y486918D02*
X395399D01*
X413887Y466344D02*
X424313D01*
X409403Y468630D02*
X428797D01*
X408175Y470916D02*
X430025D01*
X425196Y467001D02*
Y472799D01*
X427482Y468201D02*
Y471599D01*
X436626Y467988D02*
Y471812D01*
X415839Y475488D02*
X422361D01*
X413565Y473202D02*
X424635D01*
X417188Y477774D02*
X421012D01*
X438912Y466638D02*
Y473162D01*
X420624Y486442D02*
Y552577D01*
X417401Y486918D02*
X420799D01*
X390801Y489204D02*
X396599D01*
X388787Y491490D02*
X398613D01*
X384842Y493776D02*
X402558D01*
X416201Y489204D02*
X421999D01*
X414187Y491490D02*
X424013D01*
X410242Y493776D02*
X427958D01*
X413766Y491842D02*
Y555595D01*
X416052Y489419D02*
Y553375D01*
X422910Y490387D02*
Y552577D01*
X425196Y492401D02*
Y552577D01*
X427482Y493601D02*
Y552577D01*
X429768Y494242D02*
Y552577D01*
X432054Y494415D02*
Y552577D01*
X425323Y576072D02*
X439944D01*
X438912Y492038D02*
Y552577D01*
X434340Y494142D02*
Y552577D01*
X436626Y493388D02*
Y552577D01*
X425323Y578358D02*
X437241D01*
X425323Y582930D02*
X435269D01*
X425323Y580644D02*
X435887D01*
X436626Y565023D02*
Y579217D01*
X438912Y565023D02*
Y576744D01*
X425323Y585216D02*
X435238D01*
X425323Y587502D02*
X435787D01*
X271780Y612648D02*
X410006D01*
X271780Y738378D02*
X280162D01*
X271780Y614934D02*
X409785D01*
X280162Y737362D02*
X304038D01*
X271780Y740664D02*
X280162D01*
X271780Y742950D02*
X280162D01*
Y737362D02*
Y761238D01*
X271780Y745236D02*
X280162D01*
X271780Y747522D02*
X280162D01*
X304038Y737362D02*
Y761238D01*
X292100Y738632D02*
Y749300D01*
X281432D02*
X292100D01*
X271780Y589788D02*
X412877D01*
X271780Y592074D02*
X412877D01*
X271780Y594360D02*
X412877D01*
X271780Y596646D02*
X412877D01*
X271780Y598932D02*
X412877D01*
X271780Y601218D02*
X412877D01*
X271780Y603504D02*
X412877D01*
X271780Y605790D02*
X412877D01*
X271780Y608076D02*
X412526D01*
X271780Y617220D02*
X410135D01*
X271780Y610362D02*
X410843D01*
X271780Y619506D02*
X411129D01*
X271780Y621792D02*
X413080D01*
X271780Y749808D02*
X280162D01*
X271780Y752094D02*
X280162D01*
X271780Y754380D02*
X280162D01*
X271780Y756666D02*
X280162D01*
X271780Y758952D02*
X280162D01*
X271780Y761238D02*
X280162D01*
X271780Y763524D02*
X280162D01*
X271780Y765810D02*
X280162D01*
X271780Y768096D02*
X280162D01*
Y762762D02*
Y782320D01*
X271780Y770382D02*
X280162D01*
X271780Y772668D02*
X280162D01*
Y761238D02*
X304038D01*
X271780Y774954D02*
X280162D01*
Y761238D02*
X304038D01*
X292100Y749300D02*
X302768D01*
X292100D02*
Y759968D01*
X280162Y762762D02*
X304038D01*
X271780Y777240D02*
X280162D01*
X271780Y779526D02*
X280162D01*
X271780Y781812D02*
X280162D01*
X292100Y764032D02*
Y774700D01*
X281432D02*
X292100D01*
X271780Y782320D02*
X280162D01*
X292100Y774700D02*
X302768D01*
X345186Y488187D02*
Y782320D01*
X347472Y491179D02*
Y782320D01*
X349758Y492873D02*
Y782320D01*
X352044Y493870D02*
Y782320D01*
X354330Y494350D02*
Y782320D01*
X356616Y494374D02*
Y782320D01*
X363474Y491413D02*
Y782320D01*
X358902Y493947D02*
Y782320D01*
X361188Y493013D02*
Y782320D01*
X370332Y487685D02*
Y782320D01*
X365760Y488637D02*
Y782320D01*
X372618Y490931D02*
Y782320D01*
X374904Y492724D02*
Y782320D01*
X377190Y493787D02*
Y782320D01*
X379476Y494319D02*
Y782320D01*
X411480Y493270D02*
Y609317D01*
X381762Y494393D02*
Y782320D01*
X384048Y494018D02*
Y782320D01*
X390906Y489045D02*
Y782320D01*
X386334Y493146D02*
Y782320D01*
X388620Y491633D02*
Y782320D01*
X395478Y487114D02*
Y782320D01*
X397764Y490667D02*
Y782320D01*
X400050Y492567D02*
Y782320D01*
X402336Y493697D02*
Y782320D01*
X304038Y737362D02*
Y761238D01*
Y762762D02*
Y782320D01*
Y762762D02*
Y782320D01*
X404622Y494283D02*
Y782320D01*
X406908Y494407D02*
Y782320D01*
X412877Y558800D02*
Y607745D01*
X409194Y494083D02*
Y782320D01*
X411480Y620043D02*
Y782320D01*
X413766Y622320D02*
Y782320D01*
X416052Y623485D02*
Y782320D01*
X422910Y623184D02*
Y782320D01*
X418338Y623967D02*
Y782320D01*
X420624Y623872D02*
Y782320D01*
X425323Y589788D02*
X437043D01*
X425323Y592074D02*
X439518D01*
X425323Y565023D02*
Y607745D01*
X427482Y565023D02*
Y610610D01*
X429768Y565023D02*
Y782320D01*
X425196Y621727D02*
Y782320D01*
X427482Y618750D02*
Y782320D01*
X432054Y565023D02*
Y782320D01*
X434340Y565023D02*
Y782320D01*
X436626Y589183D02*
Y782320D01*
X438912Y591656D02*
Y782320D01*
X439287Y466344D02*
X449713D01*
X441239Y475488D02*
X447761D01*
X438965Y473202D02*
X450035D01*
X442588Y477774D02*
X446412D01*
X442801Y486918D02*
X446199D01*
X441601Y489204D02*
X447399D01*
X439587Y491490D02*
X449413D01*
X435642Y493776D02*
X453358D01*
X443484Y484375D02*
Y552577D01*
X441198Y489765D02*
Y552577D01*
X445770Y485603D02*
Y552577D01*
X271780Y496062D02*
X552577D01*
X271780Y498348D02*
X552577D01*
X271780Y500634D02*
X552577D01*
X434803Y468630D02*
X454197D01*
X433575Y470916D02*
X455425D01*
X271780Y502920D02*
X552577D01*
X271780Y505206D02*
X552577D01*
X271780Y507492D02*
X552577D01*
X271780Y509778D02*
X552577D01*
X271780Y512064D02*
X552577D01*
X271780Y514350D02*
X552577D01*
X271780Y516636D02*
X552577D01*
X271780Y518922D02*
X552624D01*
X271780Y548640D02*
X521582D01*
X271780Y550926D02*
X521582D01*
X419100Y552577D02*
X521582D01*
X425323Y565023D02*
X521582D01*
X425323Y566928D02*
X521582D01*
X425323Y569214D02*
X521582D01*
X425323Y573786D02*
X527813D01*
X441198Y565023D02*
Y575487D01*
X443484Y565023D02*
Y574938D01*
X445770Y565023D02*
Y574969D01*
X271780Y521208D02*
X553375D01*
X271780Y523494D02*
X555333D01*
X271780Y525780D02*
X557619D01*
X271780Y528066D02*
X559905D01*
X271780Y530352D02*
X562191D01*
X271780Y532638D02*
X564477D01*
X271780Y534924D02*
X566763D01*
X271780Y537210D02*
X569049D01*
X271780Y539496D02*
X571335D01*
X271780Y541782D02*
X573621D01*
X271780Y544068D02*
X575907D01*
X271780Y546354D02*
X577977D01*
X425323Y571500D02*
X577977D01*
X450342Y466825D02*
Y472975D01*
X448056Y490087D02*
Y552577D01*
X452628Y468098D02*
Y471702D01*
X464058Y466825D02*
Y472975D01*
X461772Y468098D02*
Y471702D01*
X467988Y477774D02*
X471812D01*
X450342Y492225D02*
Y552577D01*
X452628Y493498D02*
Y552577D01*
X464058Y492225D02*
Y552577D01*
X470916Y484375D02*
Y552577D01*
X466344Y490087D02*
Y552577D01*
X468630Y485603D02*
Y552577D01*
X464687Y466344D02*
X475113D01*
X460203Y468630D02*
X479597D01*
X458975Y470916D02*
X480825D01*
X475488Y466638D02*
Y473162D01*
X464365Y473202D02*
X475435D01*
X477774Y467988D02*
Y471812D01*
X466638Y475488D02*
X473162D01*
X467001Y489204D02*
X472799D01*
X464987Y491490D02*
X474813D01*
X468201Y486918D02*
X471599D01*
X473202Y489765D02*
Y552577D01*
X475488Y492038D02*
Y552577D01*
X454914Y494195D02*
Y552577D01*
X448056Y565023D02*
Y575587D01*
X450342Y565023D02*
Y576941D01*
X461772Y493498D02*
Y552577D01*
X457200Y494418D02*
Y552577D01*
X459486Y494195D02*
Y552577D01*
X452628Y565023D02*
Y577977D01*
X454914Y565023D02*
Y577977D01*
X457200Y565023D02*
Y577977D01*
X459486Y565023D02*
Y577977D01*
X461772Y565023D02*
Y577977D01*
X464058Y565023D02*
Y577977D01*
X466344Y565023D02*
Y577977D01*
X461042Y493776D02*
X478758D01*
X468630Y565023D02*
Y577977D01*
X449056Y576072D02*
X524821D01*
X477774Y493388D02*
Y552577D01*
X470916Y565023D02*
Y577977D01*
X480060Y494142D02*
Y552577D01*
X451435Y577977D02*
X523353D01*
X451435Y590423D02*
X523353D01*
X449482Y592074D02*
X524587D01*
X473202Y565023D02*
Y577977D01*
X475488Y565023D02*
Y577977D01*
X477774Y565023D02*
Y577977D01*
X480060Y565023D02*
Y577977D01*
X271780Y624078D02*
X539077D01*
X271780Y626364D02*
X541363D01*
X271780Y628650D02*
X543649D01*
X271780Y630936D02*
X545935D01*
X271780Y633222D02*
X548221D01*
X271780Y635508D02*
X550507D01*
X271780Y637794D02*
X552577D01*
X271780Y649224D02*
X549767D01*
X271780Y646938D02*
X550681D01*
X271780Y651510D02*
X549482D01*
X271780Y653796D02*
X549767D01*
X271780Y656082D02*
X550681D01*
X271780Y640080D02*
X552577D01*
X271780Y642366D02*
X552577D01*
X271780Y644652D02*
X552492D01*
X271780Y658368D02*
X552492D01*
X271780Y660654D02*
X557008D01*
X271780Y662940D02*
X577977D01*
X271780Y665226D02*
X577977D01*
X271780Y667512D02*
X577977D01*
X271780Y669798D02*
X577977D01*
X271780Y672084D02*
X577977D01*
X271780Y674370D02*
X577977D01*
X271780Y676656D02*
X577977D01*
X271780Y678942D02*
X577977D01*
X271780Y692658D02*
X568541D01*
X271780Y697230D02*
X563969D01*
X271780Y694944D02*
X566255D01*
X271780Y699516D02*
X561683D01*
X271780Y704088D02*
X503250D01*
X271780Y701802D02*
X559397D01*
X271780Y706374D02*
X501299D01*
X271780Y708660D02*
X500305D01*
X271780Y710946D02*
X499955D01*
X271780Y713232D02*
X500176D01*
X271780Y715518D02*
X501013D01*
X271780Y717804D02*
X502696D01*
X271780Y720090D02*
X506478D01*
X271780Y681228D02*
X577977D01*
X271780Y685800D02*
X575399D01*
X271780Y683514D02*
X577685D01*
X271780Y688086D02*
X573113D01*
X271780Y690372D02*
X570827D01*
X271780Y722376D02*
X642620D01*
X271780Y724662D02*
X642620D01*
X271780Y726948D02*
X642620D01*
X271780Y729234D02*
X642620D01*
X271780Y731520D02*
X642620D01*
X271780Y733806D02*
X642620D01*
X304038Y738378D02*
X610362D01*
X271780Y736092D02*
X642620D01*
X441198Y592913D02*
Y782320D01*
X443484Y593462D02*
Y782320D01*
X445770Y593431D02*
Y782320D01*
X452628Y590423D02*
Y782320D01*
X448056Y592813D02*
Y782320D01*
X450342Y591459D02*
Y782320D01*
X454914Y590423D02*
Y782320D01*
X457200Y590423D02*
Y782320D01*
X459486Y590423D02*
Y782320D01*
X461772Y590423D02*
Y782320D01*
X464058Y590423D02*
Y782320D01*
X466344Y590423D02*
Y782320D01*
X425323Y594360D02*
X527177D01*
X425323Y596646D02*
X527177D01*
X425323Y598932D02*
X527177D01*
X425323Y601218D02*
X527177D01*
X425323Y603504D02*
X527177D01*
X425323Y605790D02*
X527177D01*
X468630Y590423D02*
Y782320D01*
X470916Y590423D02*
Y782320D01*
X425674Y608076D02*
X527177D01*
X473202Y590423D02*
Y782320D01*
X475488Y590423D02*
Y782320D01*
X477774Y590423D02*
Y782320D01*
X480060Y590423D02*
Y782320D01*
X427357Y610362D02*
X527224D01*
X427071Y619506D02*
X534505D01*
X425120Y621792D02*
X536791D01*
X428194Y612648D02*
X527975D01*
X428414Y614934D02*
X529933D01*
X428065Y617220D02*
X532219D01*
X304038Y740664D02*
X610362D01*
X304038Y742950D02*
X610362D01*
X304038Y745236D02*
X610362D01*
X304038Y747522D02*
X610362D01*
X304038Y749808D02*
X610362D01*
X304038Y752094D02*
X610362D01*
X304038Y754380D02*
X610362D01*
X304038Y756666D02*
X610362D01*
X304038Y758952D02*
X610362D01*
X304038Y761238D02*
X610362D01*
X304038Y763524D02*
X610362D01*
X304038Y765810D02*
X610362D01*
X304038Y768096D02*
X610362D01*
X304038Y770382D02*
X610362D01*
X304038Y772668D02*
X610362D01*
X304038Y774954D02*
X610362D01*
X304038Y777240D02*
X610362D01*
X304038Y779526D02*
X610362D01*
X304038Y781812D02*
X610362D01*
X304038Y782320D02*
X610362D01*
X498348Y309880D02*
Y343782D01*
X500634Y309880D02*
Y343782D01*
X502920Y309880D02*
Y343782D01*
X505206Y309880D02*
Y343782D01*
X507492Y309880D02*
Y343782D01*
X509778Y309880D02*
Y343782D01*
X482346Y309880D02*
Y445385D01*
X484632Y309880D02*
Y445558D01*
X486918Y309880D02*
Y446199D01*
X512064Y309880D02*
Y343782D01*
X496182D02*
Y367418D01*
X514350Y309880D02*
Y343782D01*
X516636Y309880D02*
Y343782D01*
X518922Y309880D02*
Y343782D01*
X496182D02*
X519818D01*
X525780Y309880D02*
Y346567D01*
X519818Y347472D02*
X524821D01*
X519818Y345186D02*
X527813D01*
X519818Y349758D02*
X523127D01*
X519818Y361188D02*
X522987D01*
X519818Y363474D02*
X524587D01*
X519818Y343782D02*
Y367418D01*
X523494Y309880D02*
Y349155D01*
Y362045D02*
Y374555D01*
X496182Y367418D02*
X519818D01*
X498348D02*
Y374181D01*
X500634Y367418D02*
Y371758D01*
X502920Y367418D02*
Y370330D01*
X514350Y367418D02*
Y371033D01*
X516636Y367418D02*
Y372933D01*
X505206Y392483D02*
Y445717D01*
X485603Y445770D02*
X504997D01*
X507492Y392807D02*
Y445393D01*
X518922Y367418D02*
Y376486D01*
X509778Y392683D02*
Y445517D01*
X512064Y392097D02*
Y446103D01*
X513085Y370332D02*
X528315D01*
X518124Y374904D02*
X523276D01*
X516331Y372618D02*
X525069D01*
X525780Y364633D02*
Y371967D01*
X519187Y377190D02*
X522213D01*
X519818Y365760D02*
X527364D01*
X514445Y390906D02*
X526955D01*
X511003Y445770D02*
X530397D01*
X519418Y384048D02*
X521982D01*
X518546Y386334D02*
X522854D01*
X517033Y388620D02*
X524367D01*
X528066Y309880D02*
Y345054D01*
X530352Y309880D02*
Y344182D01*
X532638Y309880D02*
Y343807D01*
X534924Y309880D02*
Y343881D01*
X537210Y309880D02*
Y344413D01*
X539496Y309880D02*
Y345476D01*
X541782Y309880D02*
Y347269D01*
Y363931D02*
Y372669D01*
X544068Y309880D02*
Y350515D01*
X544670Y352044D02*
X547530D01*
X544068Y360685D02*
Y375915D01*
X544747Y358902D02*
X547453D01*
X553212Y309880D02*
Y345187D01*
X538987Y345186D02*
X553213D01*
X555498Y309880D02*
Y344253D01*
X557784Y309880D02*
Y343826D01*
X560070Y309880D02*
Y343850D01*
X562356Y309880D02*
Y344330D01*
X541979Y347472D02*
X550221D01*
X543673Y349758D02*
X548527D01*
X542213Y363474D02*
X549987D01*
X548640Y309880D02*
Y349563D01*
X550926Y309880D02*
Y346787D01*
X543813Y361188D02*
X548387D01*
X548640Y361637D02*
Y374963D01*
X528066Y366146D02*
Y370454D01*
X530352Y367018D02*
Y369582D01*
X537210Y366787D02*
Y369813D01*
X539496Y365724D02*
Y370876D01*
X543524Y374904D02*
X548676D01*
X541731Y372618D02*
X550469D01*
X530352Y392418D02*
Y445782D01*
X532638Y392793D02*
Y445407D01*
X534924Y392719D02*
Y445481D01*
X544587Y377190D02*
X547613D01*
X544818Y384048D02*
X547382D01*
X537210Y392187D02*
Y446013D01*
X543946Y386334D02*
X548254D01*
X550926Y364413D02*
Y372187D01*
X539436Y365760D02*
X552763D01*
X538485Y370332D02*
X553715D01*
X553212Y366013D02*
Y370587D01*
X555498Y366947D02*
Y369653D01*
X562356Y366870D02*
Y369730D01*
X542433Y388620D02*
X549767D01*
X539845Y390906D02*
X552355D01*
X536403Y445770D02*
X555797D01*
X555498Y392347D02*
Y445853D01*
X562356Y392270D02*
Y445930D01*
X557784Y392774D02*
Y445426D01*
X560070Y392750D02*
Y445450D01*
X489204Y309880D02*
Y447399D01*
X491490Y309880D02*
Y449413D01*
X492225Y450342D02*
X498375D01*
X493776Y309880D02*
Y453358D01*
X493498Y452628D02*
X497102D01*
X498348Y387819D02*
Y450381D01*
X493498Y461772D02*
X497102D01*
X491490Y464987D02*
Y474813D01*
X492225Y464058D02*
X498375D01*
X496062Y309880D02*
Y552577D01*
X493776Y461042D02*
Y478758D01*
X498348Y464019D02*
Y475781D01*
X500634Y390242D02*
Y447958D01*
X490087Y448056D02*
X500513D01*
X502920Y391670D02*
Y446530D01*
X516636Y389067D02*
Y449132D01*
X514350Y390967D02*
Y447233D01*
X515487Y448056D02*
X525913D01*
X490087Y466344D02*
X500513D01*
X500634Y466442D02*
Y473358D01*
X518922Y385514D02*
Y452686D01*
X517625Y450342D02*
X523775D01*
X516636Y465267D02*
Y474533D01*
X517625Y464058D02*
X523775D01*
X489204Y467001D02*
Y472799D01*
X486918Y468201D02*
Y471599D01*
X489765Y473202D02*
X500835D01*
X502920Y467870D02*
Y471930D01*
X493388Y477774D02*
X497212D01*
X492038Y475488D02*
X498562D01*
X492401Y489204D02*
X498199D01*
X491490Y490387D02*
Y552577D01*
X490387Y491490D02*
X500213D01*
X493776Y486442D02*
Y552577D01*
X493601Y486918D02*
X496999D01*
X498348Y489419D02*
Y552577D01*
X485603Y468630D02*
X504997D01*
X484375Y470916D02*
X506225D01*
X509775D02*
X531625D01*
X515487Y466344D02*
X525913D01*
X512064Y468297D02*
Y471503D01*
X511003Y468630D02*
X530397D01*
X514350Y467167D02*
Y472633D01*
X515165Y473202D02*
X526235D01*
X517801Y489204D02*
X523599D01*
X517439Y475488D02*
X523961D01*
X516636Y490667D02*
Y552577D01*
X515787Y491490D02*
X525613D01*
X523494Y387445D02*
Y450755D01*
X518898Y452628D02*
X522502D01*
X525780Y390033D02*
Y448167D01*
X541782Y389331D02*
Y448869D01*
X528066Y391546D02*
Y446654D01*
X539496Y391124D02*
Y447076D01*
X521208Y309880D02*
Y552577D01*
X518922Y461714D02*
Y478086D01*
X518898Y461772D02*
X522502D01*
X523494Y463645D02*
Y476155D01*
X525780Y466233D02*
Y473567D01*
X541782Y465531D02*
Y474269D01*
X544068Y386085D02*
Y452115D01*
X543025Y450342D02*
X549175D01*
X540887Y448056D02*
X551313D01*
X548640Y387037D02*
Y451163D01*
X550926Y389813D02*
Y448387D01*
X553212Y391413D02*
Y446787D01*
X544298Y452628D02*
X547902D01*
X543025Y464058D02*
X549175D01*
X546354Y309880D02*
Y613753D01*
X544298Y461772D02*
X547902D01*
X544068Y462285D02*
Y477515D01*
X548640Y463237D02*
Y476563D01*
X528066Y467746D02*
Y472054D01*
X518788Y477774D02*
X522612D01*
X530352Y468618D02*
Y471182D01*
X539496Y467324D02*
Y472476D01*
X537210Y468387D02*
Y471413D01*
X544188Y477774D02*
X548012D01*
X518922Y487114D02*
Y552577D01*
X519001Y486918D02*
X522399D01*
X544068Y487685D02*
Y546982D01*
X544401Y486918D02*
X547799D01*
X523494Y489045D02*
Y546982D01*
X541782Y490931D02*
Y546982D01*
X540887Y466344D02*
X551313D01*
X536403Y468630D02*
X555797D01*
X535175Y470916D02*
X557025D01*
X553212Y467613D02*
Y472187D01*
X555498Y468547D02*
Y471253D01*
X562356Y468470D02*
Y471330D01*
X540565Y473202D02*
X551635D01*
X542839Y475488D02*
X549361D01*
X541187Y491490D02*
X551013D01*
X548640Y488637D02*
Y552763D01*
X550926Y466013D02*
Y473787D01*
X543201Y489204D02*
X548999D01*
X550926Y491413D02*
Y549987D01*
X564642Y309880D02*
Y345327D01*
X566928Y309880D02*
Y347021D01*
X567379Y347472D02*
X575621D01*
X569214Y309880D02*
Y350013D01*
X569073Y349758D02*
X573927D01*
X576072Y309880D02*
Y347021D01*
X569214Y361187D02*
Y375413D01*
X569213Y361188D02*
X573787D01*
X573786Y309880D02*
Y350013D01*
X570070Y352044D02*
X572930D01*
X570147Y358902D02*
X572853D01*
X578358Y309880D02*
Y345327D01*
X564387Y345186D02*
X578613D01*
X580644Y309880D02*
Y344330D01*
X582930Y309880D02*
Y343850D01*
X585216Y309880D02*
Y343826D01*
X587502Y309880D02*
Y344253D01*
X589788Y309880D02*
Y345187D01*
X589787Y345186D02*
X604013D01*
X592074Y309880D02*
Y346787D01*
X594360Y309880D02*
Y349563D01*
X594473Y349758D02*
X599327D01*
X592779Y347472D02*
X601021D01*
X566928Y364179D02*
Y372421D01*
X564642Y365873D02*
Y370727D01*
X567131Y372618D02*
X575869D01*
X567613Y363474D02*
X575387D01*
X568924Y374904D02*
X574076D01*
X576072Y364179D02*
Y372421D01*
X569346Y386334D02*
X573654D01*
X567833Y388620D02*
X575167D01*
X565245Y390906D02*
X577755D01*
X573786Y361187D02*
Y375413D01*
X569987Y377190D02*
X573013D01*
X570218Y384048D02*
X572782D01*
X564837Y365760D02*
X578163D01*
X578358Y365873D02*
Y370727D01*
X580644Y366870D02*
Y369730D01*
X593013Y363474D02*
X600787D01*
X587502Y366947D02*
Y369653D01*
X590237Y365760D02*
X603563D01*
X589788Y366013D02*
Y370587D01*
X563885Y370332D02*
X579115D01*
X589285D02*
X604515D01*
X592074Y364413D02*
Y372187D01*
X592531Y372618D02*
X601269D01*
X593233Y388620D02*
X600567D01*
X590645Y390906D02*
X603155D01*
X598932Y309880D02*
Y350515D01*
X601218Y309880D02*
Y347269D01*
X603504Y309880D02*
Y345476D01*
X605790Y309880D02*
Y344413D01*
X608076Y309880D02*
Y343881D01*
X610362Y309880D02*
Y343807D01*
X595470Y352044D02*
X598330D01*
X595547Y358902D02*
X598253D01*
X599052Y355600D02*
X609600D01*
Y345052D02*
Y355600D01*
X598932Y360685D02*
Y375915D01*
X609600Y355600D02*
Y366148D01*
X612648Y309880D02*
Y344182D01*
X614934Y309880D02*
Y345054D01*
X615187Y345186D02*
X642620D01*
X617220Y309880D02*
Y346567D01*
X619506Y309880D02*
Y349155D01*
X618179Y347472D02*
X642620D01*
X609600Y355600D02*
X620148D01*
X619873Y349758D02*
X642620D01*
X620870Y352044D02*
X642620D01*
X621350Y354330D02*
X642620D01*
X621374Y356616D02*
X642620D01*
X620947Y358902D02*
X642620D01*
X594613Y361188D02*
X599187D01*
X603504Y365724D02*
Y370876D01*
X605790Y366787D02*
Y369813D01*
X617220Y364633D02*
Y371967D01*
X612648Y367018D02*
Y369582D01*
X614934Y366146D02*
Y370454D01*
X594360Y361637D02*
Y374963D01*
X595387Y377190D02*
X598413D01*
X594324Y374904D02*
X599476D01*
X601218Y363931D02*
Y372669D01*
X619506Y362045D02*
Y374555D01*
X595618Y384048D02*
X598182D01*
X594746Y386334D02*
X599054D01*
X615636Y365760D02*
X642620D01*
X614685Y370332D02*
X642620D01*
X617931Y372618D02*
X642620D01*
X620013Y361188D02*
X642620D01*
X618413Y363474D02*
X642620D01*
X619724Y374904D02*
X642620D01*
X620146Y386334D02*
X642620D01*
X618633Y388620D02*
X642620D01*
X616045Y390906D02*
X642620D01*
X620787Y377190D02*
X642620D01*
X621319Y379476D02*
X642620D01*
X621393Y381762D02*
X642620D01*
X621018Y384048D02*
X642620D01*
X564642Y391273D02*
Y446927D01*
X566928Y389579D02*
Y448621D01*
X569214Y386587D02*
Y451613D01*
X573786Y386587D02*
Y451613D01*
X569698Y452628D02*
X573302D01*
X566928Y465779D02*
Y474021D01*
X569698Y461772D02*
X573302D01*
X571500Y309880D02*
Y522059D01*
X569214Y462787D02*
Y477013D01*
X573786Y462787D02*
Y477013D01*
X580644Y392270D02*
Y445930D01*
X561803Y445770D02*
X581197D01*
X582930Y392750D02*
Y445450D01*
X585216Y392774D02*
Y445426D01*
X587203Y445770D02*
X642620D01*
X566287Y448056D02*
X576713D01*
X568425Y450342D02*
X574575D01*
X566287Y466344D02*
X576713D01*
X576072Y389579D02*
Y448621D01*
X578358Y391273D02*
Y446927D01*
X568425Y464058D02*
X574575D01*
X564642Y467473D02*
Y472327D01*
X568601Y489204D02*
X574399D01*
X568238Y475488D02*
X574762D01*
X576072Y465779D02*
Y474021D01*
X569588Y477774D02*
X573412D01*
X569801Y486918D02*
X573199D01*
X566928Y491179D02*
Y517487D01*
X569214Y488187D02*
Y519773D01*
X573786Y488187D02*
Y524345D01*
X576072Y491179D02*
Y526631D01*
X578358Y467473D02*
Y472327D01*
X561803Y468630D02*
X581197D01*
X560575Y470916D02*
X582425D01*
X580644Y468470D02*
Y471330D01*
X587203Y468630D02*
X642620D01*
X585975Y470916D02*
X642620D01*
X565965Y473202D02*
X577035D01*
X566587Y491490D02*
X576413D01*
X584200Y472052D02*
Y482600D01*
X573652D02*
X584200D01*
Y493148D01*
Y482600D02*
X594748D01*
X592074Y389813D02*
Y448387D01*
X587502Y392347D02*
Y445853D01*
X589788Y391413D02*
Y446787D01*
X594360Y387037D02*
Y451163D01*
X612648Y392418D02*
Y737362D01*
X614934Y391546D02*
Y737362D01*
X596646Y309880D02*
Y782320D01*
X598932Y386085D02*
Y782320D01*
X601218Y389331D02*
Y782320D01*
X617220Y390033D02*
Y737362D01*
X603504Y391124D02*
Y782320D01*
X605790Y392187D02*
Y782320D01*
X621792Y309880D02*
Y737362D01*
X619506Y387445D02*
Y737362D01*
X624078Y309880D02*
Y737362D01*
X626364Y309880D02*
Y737362D01*
X628650Y309880D02*
Y737362D01*
X630936Y309880D02*
Y737362D01*
X633222Y309880D02*
Y737362D01*
X635508Y309880D02*
Y782320D01*
X637794Y309880D02*
Y782320D01*
X640080Y309880D02*
Y782320D01*
X642620Y309880D02*
Y782320D01*
X642366Y309880D02*
Y782320D01*
X591687Y448056D02*
X642620D01*
X587502Y468547D02*
Y471253D01*
X593825Y450342D02*
X642620D01*
X595098Y452628D02*
X642620D01*
X595795Y454914D02*
X642620D01*
X596018Y457200D02*
X642620D01*
X592074Y466013D02*
Y473787D01*
X589788Y467613D02*
Y472187D01*
X592074Y491413D02*
Y782320D01*
X608076Y392719D02*
Y782320D01*
X610362Y392793D02*
Y737362D01*
X594360Y463237D02*
Y476563D01*
Y488637D02*
Y782320D01*
X593825Y464058D02*
X642620D01*
X591687Y466344D02*
X642620D01*
X591365Y473202D02*
X642620D01*
X595795Y459486D02*
X642620D01*
X595098Y461772D02*
X642620D01*
X593638Y475488D02*
X642620D01*
X594988Y477774D02*
X642620D01*
X594001Y489204D02*
X642620D01*
X591987Y491490D02*
X642620D01*
X595742Y480060D02*
X642620D01*
X596015Y482346D02*
X642620D01*
X595842Y484632D02*
X642620D01*
X595201Y486918D02*
X642620D01*
X486442Y493776D02*
X504158D01*
X482346Y494415D02*
Y552577D01*
X484632Y494242D02*
Y552577D01*
X500634Y491842D02*
Y552577D01*
X486918Y493601D02*
Y552577D01*
X489204Y492401D02*
Y552577D01*
X482346Y565023D02*
Y577977D01*
X484632Y565023D02*
Y577977D01*
X486918Y565023D02*
Y577977D01*
X502920Y493270D02*
Y552577D01*
X505206Y494083D02*
Y552577D01*
X507492Y494407D02*
Y552577D01*
X525780Y491633D02*
Y546982D01*
X528066Y493146D02*
Y546982D01*
X511842Y493776D02*
X529558D01*
X537242D02*
X552577D01*
X530352Y494018D02*
Y546982D01*
X532638Y494393D02*
Y546982D01*
X514350Y492567D02*
Y552577D01*
X509778Y494283D02*
Y552577D01*
X512064Y493697D02*
Y552577D01*
X534924Y494319D02*
Y546982D01*
X537210Y493787D02*
Y546982D01*
X521582D02*
Y552577D01*
Y546982D02*
X545218D01*
X489204Y565023D02*
Y577977D01*
X491490Y565023D02*
Y577977D01*
X493776Y565023D02*
Y577977D01*
X496062Y565023D02*
Y577977D01*
X498348Y565023D02*
Y577977D01*
X500634Y565023D02*
Y577977D01*
X502920Y565023D02*
Y577977D01*
X505206Y565023D02*
Y577977D01*
X507492Y565023D02*
Y577977D01*
X509778Y565023D02*
Y577977D01*
X512064Y565023D02*
Y577977D01*
X514350Y565023D02*
Y577977D01*
X516636Y565023D02*
Y577977D01*
X518922Y565023D02*
Y577977D01*
X521582Y565023D02*
Y570618D01*
X545218D01*
X525780D02*
Y575167D01*
X528066Y570618D02*
Y573654D01*
X521208Y565023D02*
Y577977D01*
X523494Y570618D02*
Y577755D01*
X527177Y594247D02*
Y609600D01*
X539496Y492724D02*
Y546982D01*
X552577Y492647D02*
Y518160D01*
X555498Y523659D02*
Y547453D01*
X557784Y525945D02*
Y547026D01*
X545218Y548640D02*
X552763D01*
X545218Y553212D02*
X548387D01*
X545218Y550926D02*
X549987D01*
X553212Y520899D02*
Y548387D01*
X545218Y546982D02*
Y570618D01*
Y564642D02*
X548527D01*
X554406Y522566D02*
X577977Y546138D01*
X560070Y528231D02*
Y547050D01*
X562356Y530517D02*
Y547530D01*
X565023Y492647D02*
Y515582D01*
X564642Y532803D02*
Y548527D01*
X564837Y548640D02*
X577977D01*
X566928Y535089D02*
Y550221D01*
X567613Y550926D02*
X577977D01*
X569214Y537375D02*
Y553213D01*
X569213Y553212D02*
X577977D01*
X570147Y555498D02*
X577977D01*
X570574Y557784D02*
X577977D01*
X539496Y570618D02*
Y574076D01*
X541782Y570618D02*
Y575869D01*
X543673Y578358D02*
X548527D01*
X548640Y564837D02*
Y578163D01*
X544068Y570618D02*
Y579115D01*
X545218Y566928D02*
X550221D01*
X539623Y594247D02*
Y607022D01*
X541782Y592531D02*
Y609181D01*
X544670Y580644D02*
X547530D01*
X544747Y587502D02*
X547453D01*
X544068Y589285D02*
Y611467D01*
X543813Y589788D02*
X548387D01*
X545218Y569214D02*
X553213D01*
X553212Y569213D02*
Y573787D01*
X538987Y573786D02*
X553213D01*
X564642Y569073D02*
Y573927D01*
X555498Y570147D02*
Y572853D01*
X562356Y570070D02*
Y572930D01*
X541979Y576072D02*
X550221D01*
X542213Y592074D02*
X549987D01*
X539623Y594360D02*
X552763D01*
X550926Y567613D02*
Y575387D01*
X569214Y564387D02*
Y578613D01*
X566928Y567379D02*
Y575621D01*
X482346Y590423D02*
Y782320D01*
X484632Y590423D02*
Y782320D01*
X500634Y590423D02*
Y707701D01*
X502920Y590423D02*
Y704381D01*
X505206Y590423D02*
Y702815D01*
X507492Y590423D02*
Y702053D01*
X486918Y590423D02*
Y782320D01*
X489204Y590423D02*
Y782320D01*
X491490Y590423D02*
Y782320D01*
X493776Y590423D02*
Y782320D01*
X496062Y590423D02*
Y782320D01*
X498348Y590423D02*
Y782320D01*
X509778Y590423D02*
Y701896D01*
X512064Y590423D02*
Y702311D01*
X514350Y590423D02*
Y703389D01*
X516636Y590423D02*
Y704977D01*
X529006Y614006D02*
X552577Y637578D01*
X539623Y607022D02*
X563194Y630594D01*
X518922Y590423D02*
Y704977D01*
X521208Y590423D02*
Y704977D01*
X523494Y590645D02*
Y704977D01*
X525780Y593233D02*
Y704977D01*
X528066Y612805D02*
Y704977D01*
X530352Y615353D02*
Y704977D01*
X532638Y617639D02*
Y704977D01*
X500634Y714699D02*
Y782320D01*
X502920Y718019D02*
Y782320D01*
X505206Y719585D02*
Y782320D01*
X507492Y720347D02*
Y782320D01*
X509778Y720504D02*
Y782320D01*
X516636Y717423D02*
Y782320D01*
X512064Y720089D02*
Y782320D01*
X514350Y719011D02*
Y782320D01*
X518922Y717423D02*
Y782320D01*
X521208Y717423D02*
Y782320D01*
X523494Y717423D02*
Y782320D01*
X515290Y704088D02*
X557111D01*
X516205Y704977D02*
X556222D01*
X516205Y717423D02*
X558800D01*
X534924Y619925D02*
Y704977D01*
X537210Y622211D02*
Y704977D01*
X539496Y624497D02*
Y704977D01*
X525780Y717423D02*
Y782320D01*
X528066Y717423D02*
Y782320D01*
X530352Y717423D02*
Y782320D01*
X532638Y717423D02*
Y782320D01*
X534924Y717423D02*
Y782320D01*
X537210Y717423D02*
Y782320D01*
X539496Y717423D02*
Y782320D01*
X548640Y590237D02*
Y616039D01*
X550926Y593013D02*
Y618325D01*
X553212Y594613D02*
Y620611D01*
X555498Y595547D02*
Y622897D01*
X557784Y595974D02*
Y625183D01*
X560070Y595950D02*
Y627469D01*
X541782Y626783D02*
Y704977D01*
X544068Y629069D02*
Y704977D01*
X546354Y631355D02*
Y704977D01*
X548640Y633641D02*
Y704977D01*
X550926Y635927D02*
Y646527D01*
X552577Y637578D02*
Y644575D01*
X562356Y595470D02*
Y629755D01*
X566928Y592779D02*
Y646954D01*
X564642Y594473D02*
Y632856D01*
X565023Y635000D02*
Y644575D01*
X569214Y589787D02*
Y691985D01*
X571500Y539661D02*
Y689699D01*
X573786Y541947D02*
Y687413D01*
X576072Y544233D02*
Y685127D01*
X577977Y546138D02*
Y683222D01*
X550926Y656492D02*
Y704977D01*
X541782Y717423D02*
Y782320D01*
X553212Y658967D02*
Y704977D01*
X555498Y660223D02*
Y704977D01*
X557784Y660772D02*
Y703415D01*
X560070Y660741D02*
Y701129D01*
X544068Y717423D02*
Y782320D01*
X546354Y717423D02*
Y782320D01*
X548640Y717423D02*
Y782320D01*
X550926Y717423D02*
Y782320D01*
X553212Y717423D02*
Y782320D01*
X555498Y717423D02*
Y782320D01*
X557784Y717423D02*
Y782320D01*
X560070Y717292D02*
Y782320D01*
X566928Y656066D02*
Y694271D01*
X562356Y660123D02*
Y698843D01*
X564642Y658769D02*
Y696557D01*
X566928Y711873D02*
Y782320D01*
X562356Y716307D02*
Y782320D01*
X564642Y714159D02*
Y782320D01*
X573786Y705015D02*
Y782320D01*
X576072Y702729D02*
Y782320D01*
X569214Y709587D02*
Y782320D01*
X571500Y707301D02*
Y782320D01*
X565023Y493776D02*
X580358D01*
X565023Y496062D02*
X642620D01*
X565023Y498348D02*
X642620D01*
X578358Y492873D02*
Y528917D01*
X565023Y515582D02*
X588594Y539154D01*
X565023Y500634D02*
X642620D01*
X567379Y566928D02*
X577977D01*
X564387Y569214D02*
X577977D01*
X564387Y573786D02*
X577977D01*
X570550Y560070D02*
X577977D01*
X570070Y562356D02*
X577977D01*
X569073Y564642D02*
X577977D01*
X565023Y502920D02*
X642620D01*
X565023Y505206D02*
X642620D01*
X565023Y507492D02*
X642620D01*
X565023Y509778D02*
X642620D01*
X565023Y512064D02*
X642620D01*
X565023Y514350D02*
X642620D01*
X566077Y516636D02*
X642620D01*
X568363Y518922D02*
X642620D01*
X570649Y521208D02*
X642620D01*
X572935Y523494D02*
X642620D01*
X575221Y525780D02*
X642620D01*
X577507Y528066D02*
X642620D01*
X579793Y530352D02*
X642620D01*
X567379Y576072D02*
X577977D01*
X569073Y578358D02*
X577977D01*
X570070Y580644D02*
X577977D01*
X570550Y582930D02*
X577977D01*
X570574Y585216D02*
X577977D01*
X570147Y587502D02*
X577977D01*
X539623Y596646D02*
X577977D01*
X539623Y598932D02*
X577977D01*
X539623Y601218D02*
X577977D01*
X569213Y589788D02*
X577977D01*
X567613Y592074D02*
X577977D01*
X564837Y594360D02*
X577977D01*
X539623Y603504D02*
X577977D01*
X539623Y605790D02*
X577977D01*
X540677Y608076D02*
X577977D01*
X542963Y610362D02*
X577977D01*
X545249Y612648D02*
X577977D01*
X547535Y614934D02*
X577977D01*
X549821Y617220D02*
X577977D01*
X552107Y619506D02*
X577977D01*
X554393Y621792D02*
X577977D01*
X556679Y624078D02*
X577977D01*
X558965Y626364D02*
X577977D01*
X561251Y628650D02*
X577977D01*
X563513Y630936D02*
X577977D01*
X580644Y493870D02*
Y531203D01*
X582930Y494350D02*
Y533489D01*
X582079Y532638D02*
X642620D01*
X588042Y493776D02*
X642620D01*
X585216Y494374D02*
Y535775D01*
X584365Y534924D02*
X642620D01*
X587502Y493947D02*
Y538061D01*
X586651Y537210D02*
X642620D01*
X589788Y493013D02*
Y540821D01*
X588913Y539496D02*
X642620D01*
X590164Y541782D02*
X642620D01*
X590423Y544068D02*
X642620D01*
X590423Y546354D02*
X642620D01*
X590423Y548640D02*
X642620D01*
X590423Y550926D02*
X642620D01*
X590423Y553212D02*
X642620D01*
X590423Y555498D02*
X642620D01*
X590423Y557784D02*
X642620D01*
X590423Y560070D02*
X642620D01*
X590423Y562356D02*
X642620D01*
X590423Y564642D02*
X642620D01*
X590423Y566928D02*
X642620D01*
X590423Y569214D02*
X642620D01*
X590423Y571500D02*
X642620D01*
X590423Y573786D02*
X642620D01*
X590423Y576072D02*
X642620D01*
X590423Y578358D02*
X642620D01*
X590423Y580644D02*
X642620D01*
X590423Y582930D02*
X642620D01*
X590423Y585216D02*
X642620D01*
X590423Y587502D02*
X642620D01*
X590423Y589788D02*
X642620D01*
X590423Y592074D02*
X642620D01*
X590423Y594360D02*
X642620D01*
X590423Y596646D02*
X642620D01*
X590423Y598932D02*
X642620D01*
X590423Y601218D02*
X642620D01*
X590423Y603504D02*
X642620D01*
X590423Y605790D02*
X642620D01*
X590423Y608076D02*
X642620D01*
X590423Y610362D02*
X642620D01*
X590423Y612648D02*
X642620D01*
X590423Y614934D02*
X642620D01*
X590423Y617220D02*
X642620D01*
X590423Y619506D02*
X642620D01*
X590423Y621792D02*
X642620D01*
X590423Y624078D02*
X642620D01*
X590423Y626364D02*
X642620D01*
X590423Y628650D02*
X642620D01*
X564764Y633222D02*
X577977D01*
X565023Y635508D02*
X577977D01*
X565023Y637794D02*
X577977D01*
X565023Y640080D02*
X577977D01*
X565023Y642366D02*
X577977D01*
X565108Y644652D02*
X577977D01*
X566919Y646938D02*
X577977D01*
X566919Y656082D02*
X577977D01*
X565108Y658368D02*
X577977D01*
X567833Y649224D02*
X577977D01*
X568118Y651510D02*
X577977D01*
X567833Y653796D02*
X577977D01*
X590423Y630936D02*
X642620D01*
X590423Y633222D02*
X642620D01*
X590423Y635508D02*
X642620D01*
X590423Y637794D02*
X642620D01*
X590423Y640080D02*
X642620D01*
X590423Y642366D02*
X642620D01*
X590423Y644652D02*
X642620D01*
X590423Y646938D02*
X642620D01*
X590423Y649224D02*
X642620D01*
X590423Y651510D02*
X642620D01*
X590423Y653796D02*
X642620D01*
X590423Y656082D02*
X642620D01*
X590423Y658368D02*
X642620D01*
X560592Y660654D02*
X577977D01*
X590423D02*
X642620D01*
X590423Y662940D02*
X642620D01*
X588429Y690372D02*
X642620D01*
X556222Y704977D02*
X577977Y683222D01*
X578358Y700443D02*
Y782320D01*
X563206Y715594D02*
X588594Y690206D01*
X585216Y693585D02*
Y782320D01*
X587502Y691299D02*
Y782320D01*
X580644Y698157D02*
Y782320D01*
X582930Y695871D02*
Y782320D01*
X579285Y699516D02*
X642620D01*
X576999Y701802D02*
X642620D01*
X574713Y704088D02*
X642620D01*
X586143Y692658D02*
X642620D01*
X583857Y694944D02*
X642620D01*
X581571Y697230D02*
X642620D01*
X563283Y715518D02*
X642620D01*
X515844Y717804D02*
X642620D01*
X512062Y720090D02*
X642620D01*
X572427Y706374D02*
X642620D01*
X570141Y708660D02*
X642620D01*
X567855Y710946D02*
X642620D01*
X565569Y713232D02*
X642620D01*
X590423Y665226D02*
X642620D01*
X590423Y667512D02*
X642620D01*
X590423Y669798D02*
X642620D01*
X590423Y543560D02*
Y685800D01*
X622300Y738632D02*
Y749300D01*
X610362Y737362D02*
X634238D01*
X589788Y688539D02*
Y782320D01*
X610362Y737362D02*
Y761238D01*
Y737362D02*
Y761238D01*
X634238Y737362D02*
Y761238D01*
X611632Y749300D02*
X622300D01*
X632968D01*
X590423Y672084D02*
X642620D01*
X590423Y674370D02*
X642620D01*
X590423Y676656D02*
X642620D01*
X590423Y678942D02*
X642620D01*
X590423Y681228D02*
X642620D01*
X590423Y683514D02*
X642620D01*
X590423Y685800D02*
X642620D01*
X589988Y688086D02*
X642620D01*
X634238Y738378D02*
X642620D01*
X634238Y740664D02*
X642620D01*
X634238Y742950D02*
X642620D01*
X634238Y745236D02*
X642620D01*
X634238Y747522D02*
X642620D01*
X622300Y749300D02*
Y759968D01*
X610362Y761238D02*
X634238D01*
X610362D02*
X634238D01*
Y749808D02*
X642620D01*
X634238Y752094D02*
X642620D01*
X634238Y754380D02*
X642620D01*
X610362Y762762D02*
X634238D01*
X610362D02*
Y782320D01*
Y762762D02*
Y782320D01*
X622300Y764032D02*
Y774700D01*
X634238Y762762D02*
Y782320D01*
X611632Y774700D02*
X622300D01*
X632968D01*
X634238Y756666D02*
X642620D01*
X634238Y758952D02*
X642620D01*
X634238Y761238D02*
X642620D01*
X634238Y763524D02*
X642620D01*
X634238Y765810D02*
X642620D01*
X634238Y768096D02*
X642620D01*
X634238Y770382D02*
X642620D01*
X634238Y772668D02*
X642620D01*
X634238Y774954D02*
X642620D01*
X634238Y777240D02*
X642620D01*
X634238Y779526D02*
X642620D01*
X634238Y781812D02*
X642620D01*
X634238Y782320D02*
X642620D01*
X1059180D02*
X1239520D01*
X1059180Y309880D02*
X1239520D01*
X1059180Y425196D02*
X1082399D01*
X1059180Y427482D02*
X1081199D01*
X1081278Y309880D02*
Y427286D01*
X1059180Y429768D02*
X1080558D01*
X1059180Y432054D02*
X1080385D01*
X1059180Y434340D02*
X1080658D01*
X1081278Y436314D02*
Y452686D01*
X1059180Y436626D02*
X1081412D01*
X1059180Y438912D02*
X1082762D01*
X1059180Y420624D02*
X1088358D01*
X1059180Y422910D02*
X1084413D01*
X1083564Y309880D02*
Y423732D01*
X1085850Y309880D02*
Y421833D01*
X1088136Y309880D02*
Y420703D01*
X1059180Y441198D02*
X1085035D01*
X1083564Y439868D02*
Y449132D01*
X1085850Y441767D02*
Y447233D01*
X1088136Y442897D02*
Y446103D01*
X1059180Y450342D02*
X1082575D01*
X1059180Y452628D02*
X1081302D01*
X1059180Y454914D02*
X1080605D01*
X1059180Y457200D02*
X1080382D01*
X1059180Y459486D02*
X1080605D01*
X1059180Y461772D02*
X1081302D01*
X1059180Y464058D02*
X1082575D01*
X1081278Y461714D02*
Y478086D01*
X1059180Y477774D02*
X1081412D01*
X1059180Y475488D02*
X1082762D01*
X1059180Y443484D02*
X1090425D01*
X1059180Y445770D02*
X1089197D01*
X1059180Y448056D02*
X1084713D01*
X1059180Y466344D02*
X1084713D01*
X1059180Y468630D02*
X1089197D01*
X1059180Y470916D02*
X1090425D01*
X1059180Y473202D02*
X1085035D01*
X1083564Y465267D02*
Y474533D01*
X1085850Y467167D02*
Y472633D01*
X1090422Y309880D02*
Y420117D01*
X1092708Y309880D02*
Y419993D01*
X1094994Y309880D02*
Y420317D01*
X1097280Y309880D02*
Y421129D01*
X1106424Y309880D02*
Y419982D01*
X1099566Y309880D02*
Y422558D01*
X1097280Y442471D02*
Y446530D01*
X1101852Y309880D02*
Y424981D01*
X1099566Y441042D02*
Y447958D01*
X1101852Y438619D02*
Y450381D01*
X1096042Y420624D02*
X1105782D01*
X1099987Y422910D02*
X1105782D01*
X1108710Y309880D02*
Y419982D01*
X1102001Y425196D02*
X1105782D01*
X1110996Y309880D02*
Y419982D01*
X1101638Y438912D02*
X1105782D01*
X1099365Y441198D02*
X1105782D01*
Y419982D02*
Y443618D01*
X1103201Y427482D02*
X1105782D01*
X1102988Y436626D02*
X1105782D01*
X1093975Y443484D02*
X1105782D01*
X1088136Y468297D02*
Y471503D01*
X1106424Y443618D02*
Y453358D01*
X1103098Y452628D02*
X1106702D01*
X1103098Y461772D02*
X1106702D01*
X1099566Y466442D02*
Y473358D01*
X1097280Y467870D02*
Y471930D01*
X1106424Y461042D02*
Y478758D01*
X1101852Y464019D02*
Y475781D01*
X1102988Y477774D02*
X1106812D01*
X1099687Y448056D02*
X1110113D01*
X1101825Y450342D02*
X1107975D01*
X1108710Y443618D02*
Y449413D01*
X1101825Y464058D02*
X1107975D01*
X1110996Y443618D02*
Y447399D01*
X1099687Y466344D02*
X1110113D01*
X1099365Y473202D02*
X1110435D01*
X1108710Y464987D02*
Y474813D01*
X1101638Y475488D02*
X1108161D01*
X1110996Y467001D02*
Y472799D01*
X1059180Y309880D02*
Y782320D01*
X1060704Y309880D02*
Y782320D01*
X1062990Y309880D02*
Y782320D01*
X1065276Y309880D02*
Y782320D01*
X1067562Y309880D02*
Y782320D01*
X1069848Y309880D02*
Y782320D01*
X1072134Y309880D02*
Y782320D01*
X1074420Y309880D02*
Y782320D01*
X1076706Y309880D02*
Y782320D01*
X1078992Y309880D02*
Y782320D01*
X1059180Y480060D02*
X1080658D01*
X1059180Y482346D02*
X1080385D01*
X1059180Y484632D02*
X1080558D01*
X1059180Y486918D02*
X1081199D01*
X1059180Y489204D02*
X1082399D01*
X1059180Y491490D02*
X1084413D01*
X1059180Y493776D02*
X1088358D01*
X1081278Y487114D02*
Y503486D01*
X1059180Y502920D02*
X1081529D01*
X1059180Y505206D02*
X1080717D01*
X1059180Y507492D02*
X1080393D01*
X1059180Y509778D02*
X1080517D01*
X1059180Y512064D02*
X1081103D01*
X1059180Y514350D02*
X1082233D01*
X1059180Y530352D02*
X1080782D01*
X1059180Y532638D02*
X1080407D01*
X1059180Y534924D02*
X1080481D01*
X1059180Y537210D02*
X1081013D01*
X1059180Y498348D02*
X1085381D01*
X1059180Y500634D02*
X1082958D01*
X1059180Y516636D02*
X1084133D01*
X1059180Y523494D02*
X1085755D01*
X1059180Y518922D02*
X1087686D01*
X1059180Y525780D02*
X1083167D01*
X1059180Y528066D02*
X1081654D01*
X1059180Y539496D02*
X1082076D01*
X1059180Y541782D02*
X1083869D01*
X1083564Y490667D02*
Y499933D01*
X1085850Y492567D02*
Y498033D01*
X1099566Y491842D02*
Y498758D01*
X1088136Y493697D02*
Y496903D01*
X1097280Y493270D02*
Y497329D01*
X1101852Y489419D02*
Y501181D01*
X1081278Y512514D02*
Y528886D01*
X1104138Y309880D02*
Y782320D01*
X1106424Y486442D02*
Y504158D01*
X1103297Y512064D02*
X1106503D01*
X1099987Y491490D02*
X1109813D01*
X1099019Y498348D02*
X1110781D01*
X1103201Y486918D02*
X1106599D01*
X1102001Y489204D02*
X1107799D01*
X1110996Y492401D02*
Y498199D01*
X1101442Y500634D02*
X1108358D01*
X1102167Y514350D02*
X1107633D01*
X1108710Y490387D02*
Y500213D01*
X1106424Y511842D02*
Y529558D01*
X1102870Y502920D02*
X1106929D01*
X1083564Y516068D02*
Y525332D01*
X1085850Y517967D02*
Y523433D01*
X1099566Y517242D02*
Y524158D01*
X1088136Y519097D02*
Y522303D01*
X1097280Y518671D02*
Y522729D01*
X1081278Y537914D02*
Y554286D01*
X1083564Y541468D02*
Y550732D01*
X1101852Y514819D02*
Y526581D01*
Y540219D02*
Y551981D01*
X1103618Y530352D02*
X1106182D01*
X1100267Y516636D02*
X1109532D01*
X1101233Y525780D02*
X1108567D01*
X1108710Y515787D02*
Y525613D01*
X1102746Y528066D02*
X1107054D01*
X1110996Y517801D02*
Y523599D01*
X1102324Y539496D02*
X1107476D01*
X1100531Y541782D02*
X1109269D01*
X1103387Y537210D02*
X1106413D01*
X1106424Y537242D02*
Y554958D01*
X1108710Y541187D02*
Y551013D01*
X1059180Y331470D02*
X1178097D01*
X1059180Y333756D02*
X1173613D01*
X1059180Y336042D02*
X1171475D01*
X1059180Y340614D02*
X1169505D01*
X1059180Y338328D02*
X1170202D01*
X1059180Y342900D02*
X1169282D01*
X1059180Y345186D02*
X1169505D01*
X1059180Y347472D02*
X1170202D01*
X1059180Y349758D02*
X1171475D01*
X1059180Y352044D02*
X1173613D01*
X1059180Y309880D02*
X1239520D01*
X1059180Y310896D02*
X1239520D01*
X1059180Y313182D02*
X1239520D01*
X1059180Y315468D02*
X1239520D01*
X1059180Y317754D02*
X1239520D01*
X1059180Y320040D02*
X1239520D01*
X1059180Y322326D02*
X1239520D01*
X1059180Y324612D02*
X1239520D01*
X1059180Y326898D02*
X1239520D01*
X1059180Y329184D02*
X1239520D01*
X1059180Y363474D02*
X1170312D01*
X1059180Y365760D02*
X1169558D01*
X1059180Y368046D02*
X1169285D01*
X1059180Y370332D02*
X1169458D01*
X1059180Y372618D02*
X1170099D01*
X1059180Y388620D02*
X1170430D01*
X1059180Y390906D02*
X1169617D01*
X1059180Y393192D02*
X1169293D01*
X1059180Y395478D02*
X1169417D01*
X1059180Y397764D02*
X1170003D01*
X1059180Y354330D02*
X1178097D01*
X1059180Y356616D02*
X1179325D01*
X1059180Y358902D02*
X1173935D01*
X1059180Y374904D02*
X1171299D01*
X1059180Y361188D02*
X1171662D01*
X1059180Y377190D02*
X1173313D01*
X1059180Y379476D02*
X1177258D01*
X1059180Y381762D02*
X1239520D01*
X1059180Y386334D02*
X1171858D01*
X1059180Y384048D02*
X1174281D01*
X1113282Y309880D02*
Y419982D01*
X1115568Y309880D02*
Y419982D01*
X1117854Y309880D02*
Y419982D01*
X1120140Y309880D02*
Y419982D01*
X1122426Y309880D02*
Y419982D01*
X1124712Y309880D02*
Y419982D01*
X1105782D02*
X1129418D01*
X1126998Y309880D02*
Y419982D01*
X1129284Y309880D02*
Y419982D01*
X1129418D02*
Y443618D01*
X1059180Y400050D02*
X1171133D01*
X1059180Y402336D02*
X1173033D01*
X1059180Y404622D02*
X1176586D01*
X1059180Y406908D02*
X1239520D01*
X1059180Y409194D02*
X1239520D01*
X1059180Y411480D02*
X1239520D01*
X1059180Y413766D02*
X1239520D01*
X1059180Y416052D02*
X1239520D01*
X1059180Y418338D02*
X1239520D01*
X1129418Y420624D02*
X1239520D01*
X1105782Y443618D02*
X1129418D01*
X1095203Y445770D02*
X1114597D01*
X1129418Y441198D02*
X1169753D01*
X1113282Y443618D02*
Y446199D01*
X1122426Y443618D02*
Y446412D01*
X1124712Y443618D02*
Y447761D01*
X1125087Y448056D02*
X1167845D01*
X1126998Y443618D02*
Y450035D01*
X1128498Y452628D02*
X1163273D01*
X1127225Y450342D02*
X1165559D01*
X1129418Y422910D02*
X1239520D01*
X1129418Y425196D02*
X1239520D01*
X1129418Y427482D02*
X1239520D01*
X1129418Y429768D02*
X1239520D01*
X1129418Y432054D02*
X1239520D01*
X1129418Y434340D02*
X1175063D01*
X1120603Y445770D02*
X1169350D01*
X1129418Y436626D02*
X1172287D01*
X1129418Y443484D02*
X1169326D01*
X1129418Y438912D02*
X1170687D01*
X1095203Y468630D02*
X1114597D01*
X1093975Y470916D02*
X1115825D01*
X1124712Y466638D02*
Y473162D01*
X1113282Y468201D02*
Y471599D01*
X1122426Y467988D02*
Y471812D01*
X1096042Y493776D02*
X1113758D01*
X1113282Y493601D02*
Y496999D01*
X1126998Y464365D02*
Y475435D01*
X1124712Y492038D02*
Y498562D01*
X1126998Y489765D02*
Y500835D01*
X1119375Y470916D02*
X1148842D01*
X1127225Y464058D02*
X1151843D01*
X1120603Y468630D02*
X1148961D01*
X1125087Y466344D02*
X1149836D01*
X1124765Y473202D02*
X1148842D01*
X1127038Y475488D02*
X1148842D01*
X1127401Y489204D02*
X1148842D01*
X1125387Y491490D02*
X1148842D01*
X1096714Y518922D02*
X1113086D01*
X1122426Y493388D02*
Y497212D01*
X1113282Y519001D02*
Y522399D01*
X1122426Y518788D02*
Y522612D01*
X1098645Y523494D02*
X1111155D01*
X1126998Y515165D02*
Y526235D01*
X1124712Y517439D02*
Y523961D01*
X1126998Y540565D02*
Y551635D01*
X1121442Y493776D02*
X1148842D01*
X1059180Y496062D02*
X1148842D01*
X1124419Y498348D02*
X1148842D01*
X1126842Y500634D02*
X1148842D01*
X1125667Y516636D02*
X1148842D01*
X1122114Y518922D02*
X1148842D01*
X1059180Y521208D02*
X1148842D01*
X1124045Y523494D02*
X1148842D01*
X1126633Y525780D02*
X1148842D01*
X1125931Y541782D02*
X1148842D01*
X1129284Y443618D02*
Y455425D01*
Y458975D02*
Y480825D01*
X1143000Y309880D02*
Y638001D01*
X1145286Y309880D02*
Y635715D01*
X1147572Y309880D02*
Y633429D01*
X1131570Y309880D02*
Y649431D01*
X1133856Y309880D02*
Y647145D01*
X1136142Y309880D02*
Y644859D01*
X1138428Y309880D02*
Y642573D01*
X1140714Y309880D02*
Y640287D01*
X1129195Y454914D02*
X1160987D01*
X1128498Y461772D02*
X1154129D01*
X1152144Y309880D02*
Y463757D01*
X1129195Y459486D02*
X1156415D01*
X1129418Y457200D02*
X1158701D01*
X1149858Y309880D02*
Y466308D01*
X1148842Y469900D02*
Y546100D01*
X1150851Y465051D02*
X1169445Y446456D01*
X1128388Y477774D02*
X1148842D01*
X1128601Y486918D02*
X1148842D01*
X1129142Y480060D02*
X1148842D01*
X1129415Y482346D02*
X1148842D01*
X1129242Y484632D02*
X1148842D01*
X1128270Y502920D02*
X1148842D01*
X1129083Y505206D02*
X1148842D01*
X1129284Y484375D02*
Y506225D01*
Y509775D02*
Y531625D01*
Y535175D02*
Y557025D01*
X1127567Y514350D02*
X1148842D01*
X1128146Y528066D02*
X1148842D01*
X1129407Y507492D02*
X1148842D01*
X1129284Y509778D02*
X1148842D01*
X1128697Y512064D02*
X1148842D01*
X1129018Y530352D02*
X1148842D01*
X1127724Y539496D02*
X1148842D01*
X1129393Y532638D02*
X1148842D01*
X1129319Y534924D02*
X1148842D01*
X1128787Y537210D02*
X1148842D01*
X1059180Y550926D02*
X1083387D01*
X1059180Y553212D02*
X1081787D01*
X1059180Y555498D02*
X1080853D01*
X1059180Y557784D02*
X1080426D01*
X1059180Y560070D02*
X1080450D01*
X1059180Y562356D02*
X1080930D01*
X1059180Y564642D02*
X1081927D01*
X1081278Y563314D02*
Y579686D01*
X1059180Y566928D02*
X1083621D01*
X1083564Y566867D02*
Y576133D01*
X1059180Y544068D02*
X1087115D01*
X1059180Y548640D02*
X1086163D01*
X1085850Y543367D02*
Y548833D01*
X1059180Y569214D02*
X1086613D01*
X1088136Y544497D02*
Y547703D01*
X1059180Y573786D02*
X1086613D01*
X1085850Y568767D02*
Y574233D01*
X1088136Y569897D02*
Y573103D01*
X1059180Y578358D02*
X1081927D01*
X1059180Y580644D02*
X1080930D01*
X1059180Y582930D02*
X1080450D01*
X1059180Y585216D02*
X1080426D01*
X1059180Y587502D02*
X1080853D01*
X1059180Y605790D02*
X1081013D01*
X1059180Y608076D02*
X1080481D01*
X1081278Y588714D02*
Y605086D01*
X1059180Y610362D02*
X1080407D01*
X1059180Y612648D02*
X1080782D01*
X1059180Y576072D02*
X1083621D01*
X1059180Y589788D02*
X1081787D01*
X1059180Y592074D02*
X1083387D01*
X1059180Y594360D02*
X1086163D01*
X1088136Y595297D02*
Y598503D01*
X1059180Y598932D02*
X1087115D01*
X1059180Y601218D02*
X1083869D01*
X1083564Y592267D02*
Y601533D01*
X1059180Y603504D02*
X1082076D01*
X1085850Y594167D02*
Y599633D01*
X1099566Y542642D02*
Y549558D01*
X1097280Y544071D02*
Y548130D01*
X1102613Y553212D02*
X1107187D01*
X1103547Y555498D02*
X1106253D01*
X1103470Y562356D02*
X1106330D01*
X1099566Y568042D02*
Y574958D01*
X1097280Y569470D02*
Y573530D01*
X1106424Y562642D02*
Y580358D01*
X1101852Y565619D02*
Y577381D01*
X1102473Y564642D02*
X1107327D01*
X1097285Y544068D02*
X1112515D01*
X1098236Y548640D02*
X1111563D01*
X1110996Y543201D02*
Y548999D01*
X1101013Y550926D02*
X1108787D01*
X1113282Y544401D02*
Y547799D01*
X1100779Y566928D02*
X1109021D01*
X1097787Y569214D02*
X1112013D01*
X1108710Y566587D02*
Y576413D01*
X1110996Y568601D02*
Y574399D01*
X1113282Y569801D02*
Y573199D01*
X1102473Y578358D02*
X1107327D01*
X1097280Y594870D02*
Y598929D01*
X1103470Y580644D02*
X1106330D01*
X1103547Y587502D02*
X1106253D01*
X1102613Y589788D02*
X1107187D01*
X1101852Y591019D02*
Y602781D01*
X1099566Y593442D02*
Y600358D01*
X1106424Y588042D02*
Y605758D01*
X1103387Y605790D02*
X1106413D01*
X1103618Y612648D02*
X1106182D01*
X1097787Y573786D02*
X1112013D01*
X1098236Y594360D02*
X1111563D01*
X1100779Y576072D02*
X1109021D01*
X1101013Y592074D02*
X1108787D01*
X1113282Y595201D02*
Y598599D01*
X1097285Y598932D02*
X1112515D01*
X1100531Y601218D02*
X1109269D01*
X1108710Y591987D02*
Y601813D01*
X1102324Y603504D02*
X1107476D01*
X1110996Y594001D02*
Y599799D01*
X1059180Y614934D02*
X1081654D01*
X1059180Y617220D02*
X1083167D01*
X1081278Y614114D02*
Y630486D01*
X1059180Y630936D02*
X1081103D01*
X1059180Y628650D02*
X1082233D01*
X1059180Y633222D02*
X1080517D01*
X1059180Y635508D02*
X1080393D01*
X1059180Y637794D02*
X1080717D01*
X1081278Y639514D02*
Y655886D01*
X1059180Y640080D02*
X1081529D01*
X1059180Y619506D02*
X1085755D01*
X1059180Y624078D02*
X1087686D01*
X1085850Y619567D02*
Y625033D01*
X1088136Y620697D02*
Y623903D01*
X1059180Y626364D02*
X1084133D01*
X1059180Y642366D02*
X1082958D01*
X1083564Y617668D02*
Y626932D01*
Y643067D02*
Y652333D01*
X1059180Y651510D02*
X1084413D01*
X1059180Y653796D02*
X1082399D01*
X1059180Y656082D02*
X1081199D01*
X1059180Y658368D02*
X1080558D01*
X1059180Y660654D02*
X1080385D01*
X1059180Y662940D02*
X1080658D01*
X1059180Y665226D02*
X1081412D01*
X1081278Y664914D02*
Y782320D01*
X1059180Y667512D02*
X1082762D01*
X1083564Y668467D02*
Y782320D01*
X1059180Y644652D02*
X1085381D01*
X1059180Y649224D02*
X1088358D01*
X1085850Y644967D02*
Y650433D01*
X1088136Y646097D02*
Y649303D01*
X1081652Y660400D02*
X1092200D01*
X1059180Y669798D02*
X1085035D01*
X1059180Y672084D02*
X1090425D01*
X1085850Y670367D02*
Y782320D01*
X1088136Y671497D02*
Y782320D01*
X1099566Y618842D02*
Y625758D01*
X1097280Y620271D02*
Y624329D01*
X1106424Y613442D02*
Y631158D01*
X1101852Y616419D02*
Y628181D01*
X1102746Y614934D02*
X1107054D01*
X1101852Y641819D02*
Y653581D01*
X1099566Y644242D02*
Y651158D01*
X1103297Y630936D02*
X1106503D01*
X1106424Y638842D02*
Y656558D01*
X1102870Y640080D02*
X1106929D01*
X1098645Y619506D02*
X1111155D01*
X1096714Y624078D02*
X1113086D01*
X1101233Y617220D02*
X1108567D01*
X1100267Y626364D02*
X1109532D01*
X1110996Y619401D02*
Y625199D01*
X1101442Y642366D02*
X1108358D01*
X1099019Y644652D02*
X1110781D01*
X1108710Y617387D02*
Y627213D01*
X1102167Y628650D02*
X1107633D01*
X1108710Y642787D02*
Y652613D01*
X1092200Y649852D02*
Y660400D01*
X1090422Y672084D02*
Y782320D01*
X1097280Y645670D02*
Y649730D01*
X1092200Y660400D02*
Y670948D01*
Y660400D02*
X1102748D01*
X1094994Y671883D02*
Y782320D01*
X1092708Y672207D02*
Y782320D01*
X1101852Y667219D02*
Y782320D01*
X1097280Y671070D02*
Y782320D01*
X1099566Y669642D02*
Y782320D01*
X1099987Y651510D02*
X1109813D01*
X1102001Y653796D02*
X1107799D01*
X1110996Y644801D02*
Y650599D01*
X1103201Y656082D02*
X1106599D01*
X1102988Y665226D02*
X1106812D01*
X1101638Y667512D02*
X1108161D01*
X1099365Y669798D02*
X1110435D01*
X1106424Y664242D02*
Y782320D01*
X1108710Y668187D02*
Y782320D01*
X1110996Y670201D02*
Y782320D01*
X1122685Y544068D02*
X1148842D01*
X1124712Y542839D02*
Y549361D01*
X1122426Y544188D02*
Y548012D01*
Y569588D02*
Y573412D01*
Y594988D02*
Y598812D01*
X1126998Y565965D02*
Y577035D01*
X1124712Y568238D02*
Y574762D01*
Y593638D02*
Y600162D01*
X1059180Y546354D02*
X1148842D01*
X1123187Y569214D02*
X1148842D01*
X1123636Y548640D02*
X1148842D01*
X1126413Y550926D02*
X1148842D01*
X1126179Y566928D02*
X1148842D01*
X1059180Y571500D02*
X1148842D01*
X1123187Y573786D02*
X1148842D01*
X1126179Y576072D02*
X1148842D01*
X1126413Y592074D02*
X1148842D01*
X1123636Y594360D02*
X1148842D01*
X1124712Y619039D02*
Y625561D01*
X1113282Y620601D02*
Y623999D01*
X1122426Y620388D02*
Y624212D01*
X1113282Y646001D02*
Y649399D01*
X1096042Y649224D02*
X1113758D01*
X1124712Y644438D02*
Y650962D01*
X1122426Y645788D02*
Y649612D01*
X1125387Y651510D02*
X1129491D01*
X1059180Y596646D02*
X1148842D01*
X1059180Y621792D02*
X1148842D01*
X1122685Y598932D02*
X1148842D01*
X1125931Y601218D02*
X1148842D01*
X1124045Y619506D02*
X1148842D01*
X1059180Y646938D02*
X1134063D01*
X1121442Y649224D02*
X1131777D01*
X1122114Y624078D02*
X1148842D01*
X1124419Y644652D02*
X1136349D01*
X1125667Y626364D02*
X1148842D01*
X1128013Y553212D02*
X1148842D01*
X1128947Y555498D02*
X1148842D01*
X1129374Y557784D02*
X1148842D01*
X1129350Y560070D02*
X1148842D01*
X1128870Y562356D02*
X1148842D01*
X1127873Y564642D02*
X1148842D01*
X1126998Y591365D02*
Y602435D01*
X1148842Y546100D02*
Y632159D01*
X1129284Y560575D02*
Y582425D01*
Y585975D02*
Y607825D01*
X1127873Y578358D02*
X1148842D01*
X1128870Y580644D02*
X1148842D01*
X1129350Y582930D02*
X1148842D01*
X1129374Y585216D02*
X1148842D01*
X1128947Y587502D02*
X1148842D01*
X1128013Y589788D02*
X1148842D01*
X1127724Y603504D02*
X1148842D01*
X1128787Y605790D02*
X1148842D01*
X1129319Y608076D02*
X1148842D01*
X1129393Y610362D02*
X1148842D01*
X1129018Y612648D02*
X1148842D01*
X1126998Y616765D02*
Y627835D01*
X1129284Y611375D02*
Y633225D01*
X1129407Y635508D02*
X1145493D01*
X1129284Y633222D02*
X1147779D01*
X1126842Y642366D02*
X1138635D01*
X1126998Y642165D02*
Y653235D01*
X1129284Y636775D02*
Y651717D01*
X1128270Y640080D02*
X1140921D01*
X1129083Y637794D02*
X1143207D01*
X1128146Y614934D02*
X1148842D01*
X1126633Y617220D02*
X1148842D01*
X1127567Y628650D02*
X1148842D01*
X1128697Y630936D02*
X1148842D01*
X1153461Y646938D02*
X1169307D01*
X1127459Y653542D02*
X1148842Y632159D01*
X1144317Y656082D02*
X1172769D01*
X1151175Y649224D02*
X1169381D01*
X1148889Y651510D02*
X1169913D01*
X1146603Y653796D02*
X1170976D01*
X1059180Y674370D02*
X1169350D01*
X1059180Y676656D02*
X1169830D01*
X1059180Y678942D02*
X1170827D01*
X1059180Y694944D02*
X1169830D01*
X1059180Y692658D02*
X1170827D01*
X1059180Y697230D02*
X1169350D01*
X1059180Y699516D02*
X1169326D01*
X1059180Y701802D02*
X1169753D01*
X1059180Y704088D02*
X1170687D01*
X1059180Y717804D02*
X1170976D01*
X1059180Y681228D02*
X1172521D01*
X1059180Y683514D02*
X1175513D01*
X1059180Y685800D02*
X1188212D01*
X1059180Y690372D02*
X1172521D01*
X1059180Y688086D02*
X1175513D01*
X1059180Y706374D02*
X1172287D01*
X1059180Y708660D02*
X1175063D01*
X1059180Y710946D02*
X1188212D01*
X1059180Y715518D02*
X1172769D01*
X1059180Y713232D02*
X1176015D01*
X1059180Y720090D02*
X1169913D01*
X1059180Y722376D02*
X1169381D01*
X1059180Y724662D02*
X1169307D01*
X1059180Y726948D02*
X1169682D01*
X1059180Y729234D02*
X1170554D01*
X1059180Y745236D02*
X1170003D01*
X1059180Y747522D02*
X1169417D01*
X1059180Y749808D02*
X1169293D01*
X1059180Y752094D02*
X1169617D01*
X1059180Y754380D02*
X1170430D01*
X1059180Y731520D02*
X1172067D01*
X1059180Y733806D02*
X1174655D01*
X1059180Y736092D02*
X1188212D01*
X1059180Y740664D02*
X1173033D01*
X1059180Y738378D02*
X1176586D01*
X1059180Y742950D02*
X1171133D01*
X1059180Y756666D02*
X1171858D01*
X1059180Y758952D02*
X1174281D01*
X1059180Y761238D02*
X1239520D01*
X1059180Y763524D02*
X1239520D01*
X1127225Y667258D02*
X1130300D01*
X1126998Y667565D02*
Y782320D01*
X1136142Y664257D02*
Y782320D01*
X1133856Y666264D02*
Y782320D01*
X1143000Y657399D02*
Y782320D01*
X1138428Y661971D02*
Y782320D01*
X1140714Y659685D02*
Y782320D01*
X1135149Y665249D02*
X1160549Y639849D01*
X1135173Y665226D02*
X1172287D01*
X1142031Y658368D02*
X1176015D01*
X1137459Y662940D02*
X1175063D01*
X1139745Y660654D02*
X1188212D01*
X1145286Y655113D02*
Y782320D01*
X1127038Y667512D02*
X1170687D01*
X1152144Y648255D02*
Y782320D01*
X1147572Y652827D02*
Y782320D01*
X1149858Y650541D02*
Y782320D01*
X1093975Y672084D02*
X1115825D01*
X1113282Y671401D02*
Y782320D01*
X1124765Y669798D02*
X1169753D01*
X1115568Y672042D02*
Y782320D01*
X1117854Y672215D02*
Y782320D01*
X1122426Y671188D02*
Y782320D01*
X1120140Y671942D02*
Y782320D01*
X1129284Y667258D02*
Y782320D01*
X1124712Y669838D02*
Y782320D01*
X1131570Y667139D02*
Y782320D01*
X1059180Y765810D02*
X1239520D01*
X1059180Y768096D02*
X1239520D01*
X1119375Y672084D02*
X1169326D01*
X1059180Y770382D02*
X1239520D01*
X1059180Y772668D02*
X1239520D01*
X1059180Y774954D02*
X1239520D01*
X1059180Y777240D02*
X1239520D01*
X1059180Y779526D02*
X1239520D01*
X1059180Y781812D02*
X1239520D01*
X1059180Y782320D02*
X1239520D01*
X1170432Y309880D02*
Y337815D01*
X1172718Y309880D02*
Y334569D01*
X1175004Y309880D02*
Y332776D01*
X1172718Y351231D02*
Y359969D01*
X1161288Y309880D02*
Y454613D01*
X1163574Y309880D02*
Y452327D01*
X1165860Y309880D02*
Y450041D01*
X1168146Y309880D02*
Y447755D01*
X1170432Y347985D02*
Y363215D01*
X1177290Y309880D02*
Y331713D01*
X1179576Y309880D02*
Y331181D01*
X1181862Y309880D02*
Y331107D01*
X1184148Y309880D02*
Y331482D01*
X1184103Y331470D02*
X1194682D01*
X1175004Y353024D02*
Y358176D01*
X1186434Y309880D02*
Y332354D01*
X1177290Y354087D02*
Y357113D01*
X1184103Y354330D02*
X1194682D01*
X1170432Y373385D02*
Y388615D01*
X1172718Y376631D02*
Y385369D01*
X1175004Y378424D02*
Y383576D01*
X1177290Y379487D02*
Y382513D01*
X1181100Y383152D02*
Y393700D01*
X1170432Y398785D02*
Y439415D01*
X1172718Y402031D02*
Y436169D01*
X1175004Y403824D02*
Y434376D01*
X1177290Y404887D02*
Y433313D01*
X1179576Y405419D02*
Y432781D01*
X1170552Y393700D02*
X1181100D01*
X1184148Y354318D02*
Y356882D01*
Y379718D02*
Y382282D01*
X1181100Y393700D02*
X1191648D01*
X1181100D02*
Y404248D01*
X1181862Y405493D02*
Y432707D01*
X1184148Y405118D02*
Y433082D01*
X1188720Y309880D02*
Y333867D01*
X1188587Y333756D02*
X1194682D01*
X1191006Y309880D02*
Y336455D01*
X1190725Y336042D02*
X1194682D01*
X1191998Y338328D02*
X1194682D01*
X1188720Y351933D02*
Y359267D01*
X1186434Y353446D02*
Y357754D01*
X1194682Y331082D02*
Y354718D01*
X1191006Y349345D02*
Y361855D01*
X1191998Y347472D02*
X1194682D01*
X1190725Y349758D02*
X1194682D01*
X1188587Y352044D02*
X1194682D01*
X1195578Y309880D02*
Y331082D01*
X1197864Y309880D02*
Y331082D01*
Y354718D02*
Y360233D01*
X1190538Y361188D02*
X1197061D01*
X1191888Y363474D02*
X1195712D01*
X1195578Y354718D02*
Y363786D01*
X1192101Y372618D02*
X1195499D01*
X1195578Y372814D02*
Y389186D01*
X1186434Y378846D02*
Y383154D01*
Y404246D02*
Y433954D01*
X1191006Y374745D02*
Y387255D01*
X1188720Y377333D02*
Y384667D01*
X1187137Y434340D02*
X1194682D01*
X1188720Y402733D02*
Y435467D01*
X1189913Y436626D02*
X1194682D01*
X1191006Y400145D02*
Y438055D01*
X1191513Y438912D02*
X1194682D01*
X1191373Y450342D02*
X1194682D01*
X1190901Y374904D02*
X1196699D01*
X1190342Y386334D02*
X1197258D01*
X1197864Y376367D02*
Y385633D01*
X1192197Y397764D02*
X1195403D01*
X1191770Y388620D02*
X1195829D01*
X1189679Y452628D02*
X1194682D01*
X1186687Y454914D02*
X1194682D01*
X1195578Y398214D02*
Y432682D01*
X1191067Y400050D02*
X1196533D01*
X1197864Y401768D02*
Y432682D01*
X1154430Y309880D02*
Y461471D01*
X1156716Y309880D02*
Y459185D01*
X1159002Y309880D02*
Y456899D01*
X1166669Y468630D02*
X1169350D01*
X1164383Y470916D02*
X1169326D01*
X1162558Y472741D02*
Y539242D01*
Y473202D02*
X1169753D01*
X1168146Y467153D02*
Y539242D01*
X1163574Y471725D02*
Y539242D01*
X1165860Y469439D02*
Y539242D01*
X1162558Y472741D02*
X1170386Y464913D01*
X1162558Y475488D02*
X1170687D01*
X1176113Y459186D02*
X1179144Y456155D01*
X1162558Y477774D02*
X1172287D01*
X1162558Y480060D02*
X1175063D01*
X1170432Y474985D02*
Y490215D01*
X1172718Y478231D02*
Y486969D01*
X1175004Y480024D02*
Y485176D01*
X1162558Y486918D02*
X1172769D01*
X1162558Y489204D02*
X1170976D01*
X1162558Y491490D02*
X1169913D01*
X1162558Y493776D02*
X1169381D01*
X1162558Y496062D02*
X1169307D01*
X1162558Y498348D02*
X1169682D01*
X1162558Y500634D02*
X1170554D01*
X1170432Y500385D02*
Y539242D01*
X1162558Y502920D02*
X1172067D01*
X1162558Y539242D02*
X1171475D01*
X1162558Y484632D02*
X1176015D01*
X1162558Y505206D02*
X1174655D01*
X1177290Y481087D02*
Y484113D01*
X1170552Y495300D02*
X1181100D01*
X1162558Y534924D02*
X1177258D01*
X1162558Y537210D02*
X1173313D01*
X1172718Y503631D02*
Y537769D01*
X1175004Y505424D02*
Y535976D01*
X1184148Y455918D02*
Y458482D01*
X1191006Y450945D02*
Y463455D01*
X1186434Y455046D02*
Y459354D01*
X1188720Y453533D02*
Y460867D01*
X1186434Y480446D02*
Y484754D01*
X1184148Y481318D02*
Y483882D01*
X1193292Y309880D02*
Y575789D01*
X1188720Y478933D02*
Y486267D01*
X1191006Y476345D02*
Y488855D01*
X1189679Y461772D02*
X1197921D01*
X1191373Y464058D02*
X1196227D01*
X1194682Y432682D02*
Y456318D01*
X1195578D02*
Y465386D01*
X1197864Y456318D02*
Y461833D01*
X1191513Y475488D02*
X1196087D01*
X1189913Y477774D02*
X1197687D01*
X1192370Y466344D02*
X1195230D01*
X1192447Y473202D02*
X1195153D01*
X1195578Y474414D02*
Y490786D01*
X1181100Y484752D02*
Y495300D01*
X1179576Y507019D02*
Y534381D01*
X1181100Y495300D02*
X1191648D01*
X1181100D02*
Y505848D01*
X1181862Y507093D02*
Y534307D01*
X1177290Y506487D02*
Y534913D01*
X1184148Y506718D02*
Y534682D01*
X1191006Y501745D02*
Y539655D01*
X1186434Y505846D02*
Y535554D01*
X1188720Y504333D02*
Y537067D01*
X1191224Y489204D02*
X1196376D01*
X1192287Y491490D02*
X1195313D01*
X1192518Y498348D02*
X1195082D01*
X1195578Y499814D02*
Y534282D01*
X1191646Y500634D02*
X1195954D01*
X1184942Y534924D02*
X1194682D01*
X1188887Y537210D02*
X1194682D01*
Y534282D02*
Y557918D01*
X1190901Y539496D02*
X1194682D01*
X1192101Y541782D02*
X1194682D01*
X1200150Y309880D02*
Y331082D01*
X1202436Y309880D02*
Y331082D01*
X1204722Y309880D02*
Y331082D01*
X1207008Y309880D02*
Y331082D01*
X1209294Y309880D02*
Y331082D01*
X1182875Y356616D02*
X1204725D01*
X1188265Y358902D02*
X1199335D01*
X1200150Y354718D02*
Y358333D01*
X1188887Y377190D02*
X1198713D01*
X1200150Y378267D02*
Y383733D01*
X1194682Y331082D02*
X1218318D01*
X1194682Y354718D02*
X1218318D01*
X1211580Y309880D02*
Y331082D01*
X1213866Y309880D02*
Y331082D01*
X1208275Y356616D02*
X1239520D01*
X1211580Y354718D02*
Y357630D01*
X1213866Y354718D02*
Y359058D01*
X1213665Y358902D02*
X1239520D01*
X1214287Y377190D02*
X1239520D01*
X1184942Y379476D02*
X1202658D01*
X1185614Y404622D02*
X1201986D01*
X1202436Y379397D02*
Y382603D01*
X1189167Y402336D02*
X1198432D01*
X1187919Y384048D02*
X1199681D01*
X1200150Y403667D02*
Y432682D01*
X1202436Y404797D02*
Y432682D01*
X1204722Y405383D02*
Y432682D01*
X1207008Y405507D02*
Y432682D01*
X1209294Y405183D02*
Y432682D01*
X1211580Y378970D02*
Y383030D01*
X1210342Y379476D02*
X1239520D01*
X1213866Y377542D02*
Y384458D01*
X1213319Y384048D02*
X1239520D01*
X1214567Y402336D02*
X1239520D01*
X1194682Y432682D02*
X1218318D01*
X1213866Y402942D02*
Y432682D01*
X1211580Y404370D02*
Y432682D01*
X1211014Y404622D02*
X1239520D01*
X1216152Y309880D02*
Y331082D01*
X1218318Y331470D02*
X1239520D01*
X1218318Y333756D02*
X1239520D01*
X1218318Y336042D02*
X1239520D01*
X1218318Y338328D02*
X1239520D01*
X1218318Y340614D02*
X1239520D01*
X1216152Y354718D02*
Y361481D01*
X1218318Y331082D02*
Y354718D01*
Y342900D02*
X1239520D01*
X1218318Y345186D02*
X1239520D01*
X1218318Y347472D02*
X1239520D01*
X1215938Y361188D02*
X1239520D01*
X1218318Y349758D02*
X1239520D01*
X1218318Y352044D02*
X1239520D01*
X1218318Y354330D02*
X1239520D01*
X1217288Y363474D02*
X1239520D01*
X1218042Y365760D02*
X1239520D01*
X1218315Y368046D02*
X1239520D01*
X1218142Y370332D02*
X1239520D01*
X1217501Y372618D02*
X1239520D01*
X1216301Y374904D02*
X1239520D01*
X1215742Y386334D02*
X1239520D01*
X1216152Y375119D02*
Y386881D01*
X1217170Y388620D02*
X1239520D01*
X1217983Y390906D02*
X1239520D01*
X1216152Y400519D02*
Y432682D01*
X1216467Y400050D02*
X1239520D01*
X1218307Y393192D02*
X1239520D01*
X1218184Y395478D02*
X1239520D01*
X1217597Y397764D02*
X1239520D01*
X1218318Y434340D02*
X1239520D01*
X1218318Y436626D02*
X1239520D01*
X1218318Y438912D02*
X1239520D01*
X1218318Y441198D02*
X1239520D01*
X1218318Y443484D02*
X1239520D01*
X1218318Y445770D02*
X1239520D01*
X1218318Y448056D02*
X1239520D01*
X1218318Y450342D02*
X1239520D01*
X1218318Y452628D02*
X1239520D01*
X1218318Y454914D02*
X1239520D01*
X1186687Y459486D02*
X1200913D01*
X1186185Y484632D02*
X1201415D01*
X1200150Y456318D02*
Y459933D01*
X1187137Y480060D02*
X1200463D01*
X1202436Y480997D02*
Y484203D01*
X1189431Y486918D02*
X1198169D01*
X1190133Y502920D02*
X1197467D01*
X1197864Y477967D02*
Y487233D01*
Y503368D02*
Y534282D01*
X1200150Y479867D02*
Y485333D01*
X1194682Y456318D02*
X1218318D01*
X1178099Y457200D02*
X1239520D01*
X1211580Y456318D02*
Y459230D01*
X1212087Y459486D02*
X1239520D01*
X1212536Y480060D02*
X1239520D01*
X1162558Y482346D02*
X1239520D01*
X1211580Y480570D02*
Y484630D01*
X1211585Y484632D02*
X1239520D01*
X1162558Y507492D02*
X1239520D01*
X1162558Y509778D02*
X1239520D01*
X1187545Y505206D02*
X1200055D01*
X1200150Y505267D02*
Y534282D01*
X1202436Y506397D02*
Y534282D01*
X1204722Y506983D02*
Y534282D01*
X1194682D02*
X1218318D01*
X1211580Y505970D02*
Y534282D01*
X1207008Y507107D02*
Y534282D01*
X1209294Y506783D02*
Y534282D01*
X1162558Y512064D02*
X1239520D01*
X1162558Y514350D02*
X1239520D01*
X1162558Y516636D02*
X1239520D01*
X1162558Y518922D02*
X1239520D01*
X1162558Y521208D02*
X1239520D01*
X1162558Y523494D02*
X1239520D01*
X1162558Y525780D02*
X1239520D01*
X1162558Y528066D02*
X1239520D01*
X1162558Y530352D02*
X1239520D01*
X1162558Y532638D02*
X1239520D01*
X1213866Y456318D02*
Y460658D01*
X1216152Y456318D02*
Y463081D01*
X1218438Y309880D02*
Y575535D01*
X1218318Y432682D02*
Y456318D01*
X1220724Y309880D02*
Y577821D01*
X1223010Y309880D02*
Y580107D01*
X1225296Y309880D02*
Y782320D01*
X1227582Y309880D02*
Y782320D01*
X1229868Y309880D02*
Y782320D01*
X1232154Y309880D02*
Y782320D01*
X1215079Y461772D02*
X1239520D01*
X1216773Y464058D02*
X1239520D01*
X1217770Y466344D02*
X1239520D01*
X1218250Y468630D02*
X1239520D01*
X1218274Y470916D02*
X1239520D01*
X1234440Y309880D02*
Y782320D01*
X1217847Y473202D02*
X1239520D01*
X1236726Y309880D02*
Y782320D01*
X1239520Y309880D02*
Y782320D01*
X1239012Y309880D02*
Y782320D01*
X1215313Y477774D02*
X1239520D01*
X1213866Y479142D02*
Y486058D01*
X1216913Y475488D02*
X1239520D01*
X1216152Y476719D02*
Y488481D01*
X1214831Y486918D02*
X1239520D01*
X1216152Y502119D02*
Y534282D01*
X1213866Y504542D02*
Y534282D01*
X1216624Y489204D02*
X1239520D01*
X1218318Y534282D02*
Y557918D01*
X1217687Y491490D02*
X1239520D01*
X1217046Y500634D02*
X1239520D01*
X1215533Y502920D02*
X1239520D01*
X1218219Y493776D02*
X1239520D01*
X1218293Y496062D02*
X1239520D01*
X1217918Y498348D02*
X1239520D01*
X1212945Y505206D02*
X1239520D01*
X1218318Y534924D02*
X1239520D01*
X1218318Y537210D02*
X1239520D01*
X1218318Y539496D02*
X1239520D01*
X1218318Y541782D02*
X1239520D01*
X1162558Y552958D02*
X1171475D01*
X1162558Y553212D02*
X1171662D01*
X1162558Y564642D02*
X1171475D01*
X1162558Y569214D02*
X1169505D01*
X1162558Y566928D02*
X1170202D01*
X1162558Y571500D02*
X1169282D01*
X1162558Y573786D02*
X1169505D01*
X1162558Y552958D02*
Y635000D01*
Y576072D02*
X1170202D01*
X1162558Y592074D02*
X1170312D01*
X1162558Y555498D02*
X1173935D01*
X1162558Y557784D02*
X1179325D01*
X1162558Y560070D02*
X1178097D01*
X1162558Y578358D02*
X1171475D01*
X1162558Y562356D02*
X1173613D01*
X1162558Y580644D02*
X1173613D01*
X1162558Y582930D02*
X1178097D01*
X1162558Y585216D02*
X1179325D01*
X1162558Y589788D02*
X1171662D01*
X1162558Y587502D02*
X1173935D01*
X1162558Y594360D02*
X1169558D01*
X1162558Y596646D02*
X1169285D01*
X1162558Y598932D02*
X1169458D01*
X1162558Y601218D02*
X1170099D01*
X1162558Y603504D02*
X1171299D01*
X1162558Y605790D02*
X1173313D01*
X1161963Y637794D02*
X1174655D01*
X1162558Y608076D02*
X1177258D01*
X1162558Y610362D02*
X1188212D01*
X1162558Y612648D02*
X1188212D01*
X1162558Y614934D02*
X1188212D01*
X1162558Y617220D02*
X1188212D01*
X1162558Y619506D02*
X1188212D01*
X1162558Y621792D02*
X1188212D01*
X1162558Y624078D02*
X1188212D01*
X1162558Y626364D02*
X1188212D01*
X1162558Y628650D02*
X1188212D01*
X1162558Y630936D02*
X1188212D01*
X1162558Y633222D02*
X1188212D01*
X1162539Y635508D02*
X1188212D01*
X1175004Y556224D02*
Y561376D01*
X1186434Y556646D02*
Y560954D01*
X1177290Y557287D02*
Y560313D01*
X1184148Y557518D02*
Y560082D01*
X1170432Y552958D02*
Y566415D01*
X1191006Y552545D02*
Y565055D01*
X1172718Y554431D02*
Y563169D01*
X1188720Y555133D02*
Y562467D01*
X1188265Y555498D02*
X1194682D01*
X1182875Y557784D02*
X1194682D01*
X1191888Y550926D02*
X1194682D01*
X1190538Y553212D02*
X1194682D01*
X1188587Y562356D02*
X1199013D01*
X1190725Y564642D02*
X1196875D01*
X1191998Y566928D02*
X1195602D01*
X1195578Y557918D02*
Y566986D01*
X1197864Y557918D02*
Y563433D01*
X1170432Y576585D02*
Y591815D01*
X1172718Y579831D02*
Y588569D01*
X1175004Y581624D02*
Y586776D01*
X1177290Y582687D02*
Y585713D01*
X1181100Y586352D02*
Y596900D01*
X1170552D02*
X1181100D01*
X1177290Y608087D02*
Y636513D01*
X1181100Y596900D02*
Y607448D01*
X1179576Y608619D02*
Y635981D01*
X1181862Y608693D02*
Y635907D01*
X1184148Y582918D02*
Y585482D01*
X1182875Y585216D02*
X1186913D01*
X1192415Y574912D02*
X1197741Y580239D01*
X1184512Y582815D02*
X1188212Y586515D01*
X1199388Y584200D02*
Y587462D01*
X1184148Y608318D02*
Y636282D01*
X1184942Y608076D02*
X1188212D01*
X1155747Y644652D02*
X1169682D01*
X1154430Y645969D02*
Y782320D01*
X1156716Y643683D02*
Y782320D01*
X1161288Y638976D02*
Y782320D01*
X1159002Y641397D02*
Y782320D01*
X1163574Y552958D02*
Y782320D01*
X1165860Y552958D02*
Y782320D01*
X1168146Y552958D02*
Y782320D01*
X1160319Y640080D02*
X1172067D01*
X1158033Y642366D02*
X1170554D01*
X1170432Y601985D02*
Y642615D01*
X1172718Y605231D02*
Y639369D01*
X1175004Y607024D02*
Y637576D01*
X1170552Y647700D02*
X1181100D01*
X1170432Y652785D02*
Y668015D01*
X1172718Y656031D02*
Y664769D01*
X1175004Y657824D02*
Y662976D01*
X1170432Y678185D02*
Y693415D01*
X1172718Y681431D02*
Y690169D01*
X1175004Y683224D02*
Y688376D01*
X1172718Y706831D02*
Y715569D01*
X1175004Y708624D02*
Y713776D01*
X1170432Y703585D02*
Y718815D01*
Y728985D02*
Y744215D01*
X1172718Y732231D02*
Y740969D01*
X1170432Y754385D02*
Y782320D01*
X1172718Y757631D02*
Y782320D01*
X1177290Y658887D02*
Y661913D01*
Y684287D02*
Y687313D01*
Y709687D02*
Y712713D01*
X1175004Y734024D02*
Y739176D01*
Y759424D02*
Y782320D01*
X1170552Y749300D02*
X1181100D01*
Y637152D02*
Y647700D01*
Y658248D01*
X1186434Y607446D02*
Y637154D01*
X1184148Y659118D02*
Y661682D01*
X1186434Y658246D02*
Y662554D01*
X1184148Y684518D02*
Y687082D01*
X1177290Y735087D02*
Y738113D01*
X1186434Y683646D02*
Y687954D01*
X1184148Y709918D02*
Y712482D01*
Y735318D02*
Y737882D01*
X1188212Y606339D02*
Y638261D01*
Y657139D02*
Y663661D01*
X1199388Y659518D02*
Y663661D01*
X1188212Y682539D02*
Y689062D01*
X1199388Y682539D02*
Y689062D01*
X1186434Y709046D02*
Y713354D01*
Y734446D02*
Y738754D01*
X1188212Y707939D02*
Y714462D01*
Y733338D02*
Y736600D01*
X1199388Y707939D02*
Y714462D01*
X1181100Y738752D02*
Y749300D01*
X1177290Y760487D02*
Y782320D01*
X1181100Y749300D02*
Y759848D01*
X1185614Y738378D02*
X1188502D01*
X1179576Y761019D02*
Y782320D01*
X1181862Y761093D02*
Y782320D01*
X1188720Y758333D02*
Y782320D01*
X1184148Y760718D02*
Y782320D01*
X1186434Y759846D02*
Y782320D01*
X1181100Y749300D02*
X1191648D01*
X1189859Y740561D02*
X1195185Y745888D01*
X1191770Y754380D02*
X1195829D01*
X1190342Y756666D02*
X1197258D01*
X1191006Y755745D02*
Y782320D01*
X1187919Y758952D02*
X1199681D01*
X1193292Y743995D02*
Y782320D01*
X1195578Y753814D02*
Y782320D01*
X1197864Y757367D02*
Y782320D01*
X1194682Y557918D02*
X1218318D01*
X1184103Y560070D02*
X1203497D01*
X1200150Y557918D02*
Y561533D01*
X1211580Y557918D02*
Y560830D01*
X1213866Y557918D02*
Y562258D01*
X1199242Y582930D02*
X1203497D01*
X1216152Y557918D02*
Y564681D01*
X1200150Y581467D02*
Y586933D01*
X1209503Y560070D02*
X1239520D01*
X1213987Y562356D02*
X1239520D01*
X1218318Y544068D02*
X1239520D01*
X1218318Y546354D02*
X1239520D01*
X1218318Y548640D02*
X1239520D01*
X1216125Y564642D02*
X1239520D01*
X1217398Y566928D02*
X1239520D01*
X1218095Y569214D02*
X1239520D01*
X1217815Y574912D02*
X1223141Y580239D01*
X1218095Y573786D02*
X1239520D01*
X1199388Y585216D02*
X1204725D01*
X1202436Y582597D02*
Y585803D01*
X1208275Y585216D02*
X1212313D01*
X1209912Y582815D02*
X1213612Y586515D01*
X1212088Y624615D02*
Y635882D01*
X1199388Y659518D02*
X1218318D01*
X1216152Y620551D02*
Y635882D01*
X1213866Y622837D02*
Y635882D01*
X1212088D02*
X1218318D01*
X1212088Y624615D02*
X1223141Y613561D01*
X1212088Y626364D02*
X1239520D01*
X1217197Y619506D02*
X1239520D01*
X1214911Y621792D02*
X1239520D01*
X1212625Y624078D02*
X1239520D01*
X1212088Y628650D02*
X1239520D01*
X1199388Y660654D02*
X1239520D01*
X1212088Y630936D02*
X1239520D01*
X1212088Y633222D02*
X1239520D01*
X1212088Y635508D02*
X1239520D01*
X1218318Y550926D02*
X1239520D01*
X1218318Y553212D02*
X1239520D01*
X1218318Y555498D02*
X1239520D01*
X1218318Y557784D02*
X1239520D01*
X1218318Y571500D02*
X1239520D01*
X1218975Y576072D02*
X1239520D01*
X1221261Y578358D02*
X1239520D01*
X1224788Y584200D02*
Y609600D01*
X1223511Y580644D02*
X1239520D01*
X1224642Y582930D02*
X1239520D01*
X1224788Y585216D02*
X1239520D01*
X1224788Y587502D02*
X1239520D01*
X1224788Y589788D02*
X1239520D01*
X1224788Y592074D02*
X1239520D01*
X1224788Y594360D02*
X1239520D01*
X1224788Y596646D02*
X1239520D01*
X1224788Y598932D02*
X1239520D01*
X1224788Y601218D02*
X1239520D01*
X1224736Y610362D02*
X1239520D01*
X1223884Y612648D02*
X1239520D01*
X1224788Y603504D02*
X1239520D01*
X1224788Y605790D02*
X1239520D01*
X1224788Y608076D02*
X1239520D01*
X1219483Y617220D02*
X1239520D01*
X1218318Y635882D02*
Y659518D01*
X1221769Y614934D02*
X1239520D01*
X1218318Y637794D02*
X1239520D01*
X1218318Y640080D02*
X1239520D01*
X1218318Y642366D02*
X1239520D01*
X1218318Y644652D02*
X1239520D01*
X1218318Y646938D02*
X1239520D01*
X1218318Y649224D02*
X1239520D01*
X1218318Y651510D02*
X1239520D01*
X1218318Y653796D02*
X1239520D01*
X1218318Y656082D02*
X1239520D01*
X1218318Y658368D02*
X1239520D01*
X1200150Y659518D02*
Y663133D01*
X1202436Y684197D02*
Y687403D01*
X1211580Y659518D02*
Y662430D01*
Y683771D02*
Y687830D01*
X1213866Y659518D02*
Y663858D01*
X1200150Y683067D02*
Y688533D01*
Y708467D02*
Y713933D01*
X1213866Y682342D02*
Y689258D01*
X1202436Y709597D02*
Y712803D01*
X1211580Y709171D02*
Y713230D01*
X1212536Y662940D02*
X1239520D01*
X1212087Y683514D02*
X1239520D01*
X1199388Y685800D02*
X1239520D01*
X1212087Y688086D02*
X1239520D01*
X1213866Y707742D02*
Y714658D01*
X1212536Y708660D02*
X1239520D01*
X1199388Y734285D02*
X1203088Y737985D01*
X1200150Y759267D02*
Y782320D01*
X1213866Y733142D02*
Y740058D01*
X1202436Y760397D02*
Y782320D01*
X1211580Y734570D02*
Y738630D01*
X1204722Y760984D02*
Y782320D01*
X1207008Y761107D02*
Y782320D01*
X1213866Y758542D02*
Y782320D01*
X1209294Y760783D02*
Y782320D01*
X1211580Y759970D02*
Y782320D01*
X1199388Y710946D02*
X1239520D01*
X1211585Y713232D02*
X1239520D01*
X1212945Y733806D02*
X1239520D01*
X1201195Y736092D02*
X1239520D01*
X1211014Y738378D02*
X1239520D01*
X1213319Y758952D02*
X1239520D01*
X1216152Y659518D02*
Y666281D01*
X1215313Y665226D02*
X1239520D01*
X1216913Y667512D02*
X1239520D01*
X1217847Y669798D02*
X1239520D01*
X1218274Y672084D02*
X1239520D01*
X1218250Y674370D02*
X1239520D01*
X1216152Y679919D02*
Y691681D01*
X1223010Y613693D02*
Y782320D01*
X1218438Y618265D02*
Y782320D01*
X1220724Y615979D02*
Y782320D01*
X1215079Y681228D02*
X1239520D01*
X1215079Y690372D02*
X1239520D01*
X1217770Y676656D02*
X1239520D01*
X1216773Y678942D02*
X1239520D01*
X1216773Y692658D02*
X1239520D01*
X1217770Y694944D02*
X1239520D01*
X1216913Y704088D02*
X1239520D01*
X1218250Y697230D02*
X1239520D01*
X1218274Y699516D02*
X1239520D01*
X1217847Y701802D02*
X1239520D01*
X1215313Y706374D02*
X1239520D01*
X1214831Y715518D02*
X1239520D01*
X1216152Y705319D02*
Y717081D01*
X1216624Y717804D02*
X1239520D01*
X1217687Y720090D02*
X1239520D01*
X1216152Y730719D02*
Y742481D01*
Y756119D02*
Y782320D01*
X1218219Y722376D02*
X1239520D01*
X1218293Y724662D02*
X1239520D01*
X1217918Y726948D02*
X1239520D01*
X1215533Y731520D02*
X1239520D01*
X1214567Y740664D02*
X1239520D01*
X1217046Y729234D02*
X1239520D01*
X1216467Y742950D02*
X1239520D01*
X1217597Y745236D02*
X1239520D01*
X1217170Y754380D02*
X1239520D01*
X1215742Y756666D02*
X1239520D01*
X1218184Y747522D02*
X1239520D01*
X1218307Y749808D02*
X1239520D01*
X1217983Y752094D02*
X1239520D01*
X668020Y345186D02*
X686682D01*
X668020Y347472D02*
X686682D01*
X668020Y349758D02*
X686682D01*
X668020Y352044D02*
X686682D01*
X668020Y354330D02*
X686682D01*
X668020Y356616D02*
X686682D01*
X668020Y358902D02*
X686682D01*
X668020Y361188D02*
X686682D01*
Y343782D02*
Y367418D01*
X668020Y363474D02*
X686682D01*
X668020Y365760D02*
X686682D01*
X688086Y309880D02*
Y343782D01*
X690372Y309880D02*
Y343782D01*
X692658Y309880D02*
Y343782D01*
X694944Y309880D02*
Y343782D01*
X697230Y309880D02*
Y343782D01*
X699516Y309880D02*
Y343782D01*
X686682D02*
X710318D01*
X688086Y367418D02*
Y375413D01*
X686682Y367418D02*
X694182D01*
X701802Y309880D02*
Y343782D01*
X704088Y309880D02*
Y343782D01*
X706374Y309880D02*
Y343782D01*
X668020Y374904D02*
X688376D01*
X668020Y379476D02*
X686781D01*
X668020Y377190D02*
X687313D01*
X690372Y367418D02*
Y372421D01*
X668020Y381762D02*
X686707D01*
X668020Y384048D02*
X687082D01*
X668020Y386334D02*
X687954D01*
X668020Y395478D02*
X688182D01*
X668020Y388620D02*
X689467D01*
X668020Y397764D02*
X688182D01*
X668020Y400050D02*
X688182D01*
X668020Y402336D02*
X688182D01*
X668020Y368046D02*
X694182D01*
X668020Y372618D02*
X690169D01*
X668020Y370332D02*
X693415D01*
X692658Y367418D02*
Y370727D01*
X668020Y390906D02*
X692055D01*
X694182Y367418D02*
Y369999D01*
X668020Y393192D02*
X692912D01*
X688182Y394892D02*
X692912D01*
X690372Y389579D02*
Y394892D01*
X692658Y391273D02*
Y394892D01*
X692912Y391413D02*
Y394892D01*
X708660Y309880D02*
Y343782D01*
X720090Y309880D02*
Y344413D01*
X722376Y309880D02*
Y343881D01*
X724662Y309880D02*
Y343807D01*
X726948Y309880D02*
Y344182D01*
X710946Y309880D02*
Y351282D01*
X713232Y309880D02*
Y350515D01*
X715518Y309880D02*
Y347269D01*
X717804Y309880D02*
Y345476D01*
X729234Y309880D02*
Y345054D01*
X731520Y309880D02*
Y346567D01*
X742950Y309880D02*
Y345633D01*
X745236Y309880D02*
Y344503D01*
X747522Y309880D02*
Y343917D01*
X749808Y309880D02*
Y343793D01*
X752094Y309880D02*
Y344117D01*
X754380Y309880D02*
Y344930D01*
X733806Y309880D02*
Y349155D01*
X736092Y309880D02*
Y351282D01*
X738378Y309880D02*
Y351086D01*
X740664Y309880D02*
Y347533D01*
X756666Y309880D02*
Y346358D01*
X758952Y309880D02*
Y348781D01*
X710318Y345186D02*
X718313D01*
X710318Y349758D02*
X713627D01*
X710318Y347472D02*
X715321D01*
X729487Y345186D02*
X743713D01*
X734173Y349758D02*
X739027D01*
X732479Y347472D02*
X740721D01*
X710318Y343782D02*
Y351282D01*
X712899D01*
X761238Y309880D02*
Y351282D01*
X734901D02*
X738299D01*
X768096Y309880D02*
Y345799D01*
X770382Y309880D02*
Y344599D01*
X772668Y309880D02*
Y343958D01*
X774954Y309880D02*
Y343785D01*
X777240Y309880D02*
Y344058D01*
X779526Y309880D02*
Y344812D01*
X754887Y345186D02*
X769113D01*
X759573Y349758D02*
X764427D01*
X757879Y347472D02*
X766121D01*
X763524Y309880D02*
Y351282D01*
X760301D02*
X763699D01*
X765810Y309880D02*
Y347813D01*
X668020Y404622D02*
X688182D01*
X668020Y406908D02*
X688182D01*
X668020Y409194D02*
X688182D01*
X668020Y411480D02*
X688182D01*
X668020Y413766D02*
X688182D01*
X668020Y309880D02*
Y782320D01*
Y416052D02*
X688182D01*
X668020Y418338D02*
X688182D01*
X669798Y309880D02*
Y782320D01*
X672084Y309880D02*
Y782320D01*
X674370Y309880D02*
Y737362D01*
X668020Y420624D02*
X688182D01*
X668020Y422910D02*
X688182D01*
X668020Y425196D02*
X688182D01*
X668020Y427482D02*
X692912D01*
X668020Y429768D02*
X692912D01*
X668020Y432054D02*
X692912D01*
X668020Y434340D02*
X692912D01*
X668020Y436626D02*
X692912D01*
X668020Y438912D02*
X692912D01*
X668020Y441198D02*
X692912D01*
X668020Y443484D02*
X692912D01*
X668020Y445770D02*
X692912D01*
X668020Y448056D02*
X692912D01*
X668020Y475488D02*
X689062D01*
X668020Y473202D02*
X691335D01*
X668020Y477774D02*
X687712D01*
X668020Y480060D02*
X686958D01*
X668020Y482346D02*
X686685D01*
X668020Y484632D02*
X686858D01*
X668020Y486918D02*
X687499D01*
X668020Y489204D02*
X688699D01*
X668020Y491490D02*
X690713D01*
X668020Y498348D02*
X686682D01*
X668020Y500634D02*
X686682D01*
X668020Y450342D02*
X692912D01*
X668020Y452628D02*
X692912D01*
X668020Y454914D02*
X692912D01*
X668020Y457200D02*
X692912D01*
X668020Y459486D02*
X692912D01*
X668020Y461772D02*
X692912D01*
X668020Y464058D02*
X692935D01*
X668020Y466344D02*
X693661D01*
X668020Y468630D02*
X695677D01*
X668020Y470916D02*
X696725D01*
X668020Y493776D02*
X694658D01*
X668020Y496062D02*
X723109D01*
X688182Y394892D02*
Y406892D01*
Y413528D01*
Y406892D02*
Y413528D01*
X688086Y386587D02*
Y477013D01*
X688182Y413528D02*
Y425528D01*
X690372D02*
Y474021D01*
X676656Y309880D02*
Y737362D01*
X678942Y309880D02*
Y737362D01*
X681228Y309880D02*
Y737362D01*
X683514Y309880D02*
Y737362D01*
X685800Y309880D02*
Y737362D01*
X688086Y488187D02*
Y496182D01*
X688182Y425528D02*
X692912D01*
Y463550D01*
X694944Y467897D02*
Y471330D01*
X694559Y467511D02*
X697847Y470800D01*
X692658Y425528D02*
Y472327D01*
X709501Y486918D02*
X713965D01*
X710300Y483253D02*
X725019Y497971D01*
X710946Y483899D02*
Y782320D01*
X713232Y486185D02*
Y610482D01*
X690372Y491179D02*
Y496182D01*
X692658Y492873D02*
Y496182D01*
X704088Y493013D02*
Y496182D01*
X708301Y489204D02*
X716251D01*
X706374Y491413D02*
Y496182D01*
X706287Y491490D02*
X718537D01*
X708660Y488637D02*
Y496182D01*
X686682D02*
Y519818D01*
Y496182D02*
X710318D01*
X715518Y488471D02*
Y610482D01*
X710318Y496182D02*
Y519818D01*
X717804Y490757D02*
Y610482D01*
X702342Y493776D02*
X720823D01*
X710318Y498348D02*
X725433D01*
X733806Y499618D02*
Y609571D01*
X728980Y499618D02*
X735882D01*
X720090Y493043D02*
Y610482D01*
X722376Y495329D02*
Y610482D01*
X724662Y497615D02*
Y610482D01*
X726948Y499235D02*
Y610482D01*
X729234Y499618D02*
Y610482D01*
X731520Y499618D02*
Y610482D01*
X668020Y309880D02*
X1033780D01*
X795528D02*
Y344702D01*
X797814Y309880D02*
Y344005D01*
X800100Y309880D02*
Y343782D01*
X802386Y309880D02*
Y344005D01*
X781812Y309880D02*
Y346161D01*
X784098Y309880D02*
Y348435D01*
X786384Y309880D02*
Y353825D01*
X788670Y309880D02*
Y352597D01*
X790956Y309880D02*
Y348113D01*
X793242Y309880D02*
Y345975D01*
X668020Y310896D02*
X1033780D01*
X668020Y313182D02*
X1033780D01*
X668020Y315468D02*
X1033780D01*
X668020Y317754D02*
X1033780D01*
X668020Y320040D02*
X1033780D01*
X668020Y322326D02*
X1033780D01*
X668020Y324612D02*
X1033780D01*
X668020Y326898D02*
X1033780D01*
X668020Y329184D02*
X1033780D01*
X668020Y331470D02*
X1033780D01*
X668020Y333756D02*
X1033780D01*
X668020Y336042D02*
X1033780D01*
X784973Y349758D02*
X789827D01*
X783279Y347472D02*
X791521D01*
X785970Y352044D02*
X788830D01*
X786047Y358902D02*
X788753D01*
X786015Y359012D02*
X791341Y364339D01*
X788670Y358603D02*
Y361667D01*
X793242Y365225D02*
Y371375D01*
X792988Y368300D02*
Y371562D01*
X668020Y338328D02*
X1033780D01*
X668020Y340614D02*
X1033780D01*
X668020Y342900D02*
X1033780D01*
X780287Y345186D02*
X794513D01*
X800100Y345052D02*
Y355600D01*
X789552D02*
X800100D01*
X792982Y368046D02*
X883418D01*
X800100Y355600D02*
X810648D01*
X795528Y366498D02*
Y370102D01*
X800100Y355600D02*
Y366148D01*
X804672Y309880D02*
Y344702D01*
X806958Y309880D02*
Y345975D01*
X805687Y345186D02*
X839082D01*
X809244Y309880D02*
Y348113D01*
X808679Y347472D02*
X839082D01*
X810373Y349758D02*
X839082D01*
X811530Y309880D02*
Y352597D01*
X811370Y352044D02*
X839082D01*
X811850Y354330D02*
X839082D01*
Y343782D02*
Y367418D01*
X811530Y358603D02*
Y377997D01*
X811874Y356616D02*
X839082D01*
X841248Y309880D02*
Y343782D01*
X843534Y309880D02*
Y343782D01*
X845820Y309880D02*
Y343782D01*
X848106Y309880D02*
Y343782D01*
X850392Y309880D02*
Y343782D01*
X852678Y309880D02*
Y343782D01*
X854964Y309880D02*
Y343782D01*
X811447Y358902D02*
X839082D01*
Y343782D02*
X862718D01*
X857250Y309880D02*
Y343782D01*
X859536Y309880D02*
Y343782D01*
X861822Y309880D02*
Y343782D01*
X806136Y365760D02*
X839082D01*
X804672Y366498D02*
Y370102D01*
X806958Y365225D02*
Y371375D01*
X810513Y361188D02*
X839082D01*
X808913Y363474D02*
X839082D01*
X808431Y372618D02*
X842569D01*
X809244Y363087D02*
Y373513D01*
X811287Y377190D02*
X839713D01*
X810224Y374904D02*
X840776D01*
X841248Y367418D02*
Y374181D01*
X811819Y379476D02*
X839181D01*
X811893Y381762D02*
X839107D01*
X839082Y367418D02*
X862718D01*
X843534D02*
Y371758D01*
X805185Y370332D02*
X845815D01*
X845820Y367418D02*
Y370330D01*
X857250Y367418D02*
Y371033D01*
X855985Y370332D02*
X883412D01*
X859536Y367418D02*
Y372933D01*
X859231Y372618D02*
X883412D01*
X861024Y374904D02*
X883412D01*
X861822Y367418D02*
Y376486D01*
X862619Y379476D02*
X883412D01*
X862693Y381762D02*
X883412D01*
X805688Y393192D02*
X883412D01*
X805688Y395478D02*
X883412D01*
X805688Y397764D02*
X883412D01*
X805688Y400050D02*
X883412D01*
X804672Y464223D02*
Y526141D01*
X805688Y402336D02*
X883412D01*
X805688Y432054D02*
X878682D01*
X805688Y404622D02*
X883412D01*
X805688Y406908D02*
X883412D01*
X805688Y409194D02*
X883412D01*
X805688Y411480D02*
X883412D01*
X805688Y413766D02*
X883412D01*
X805688Y416052D02*
X883412D01*
X805688Y418338D02*
X883412D01*
X805688Y420624D02*
X883412D01*
X805688Y422910D02*
X883412D01*
X804783Y464058D02*
X884316D01*
X805688Y425196D02*
X883412D01*
X805688Y427482D02*
X883412D01*
X805688Y429768D02*
X883412D01*
X787908Y481105D02*
X804041Y464971D01*
X787908Y481105D02*
Y500380D01*
X795528Y473485D02*
Y524687D01*
X802669Y466344D02*
X886431D01*
X800383Y468630D02*
X888717D01*
X798097Y470916D02*
X891003D01*
X793242Y475771D02*
Y525943D01*
X788670Y480343D02*
Y535657D01*
X790956Y478057D02*
Y528418D01*
X802386Y466627D02*
Y524787D01*
X797814Y471199D02*
Y524137D01*
X800100Y468913D02*
Y524169D01*
X788953Y480060D02*
X896112D01*
X787908Y482346D02*
X896112D01*
X787908Y484632D02*
X896112D01*
X795811Y473202D02*
X893289D01*
X793525Y475488D02*
X895575D01*
X791239Y477774D02*
X896112D01*
X787908Y486918D02*
X896112D01*
X787908Y489204D02*
X896112D01*
X787908Y491490D02*
X896112D01*
X787908Y493776D02*
X896112D01*
X787908Y496062D02*
X896495D01*
X787908Y498348D02*
X898153D01*
X813816Y309880D02*
Y524085D01*
X809244Y388487D02*
Y525429D01*
X811530Y384003D02*
Y524435D01*
X816102Y309880D02*
Y524306D01*
X818388Y309880D02*
Y525143D01*
X820674Y309880D02*
Y526826D01*
X822960Y309880D02*
Y530608D01*
X825246Y309880D02*
Y581661D01*
X827532Y309880D02*
Y581246D01*
X829818Y309880D02*
Y581403D01*
X832104Y309880D02*
Y582165D01*
X834390Y309880D02*
Y583731D01*
X811518Y384048D02*
X839482D01*
X810646Y386334D02*
X840354D01*
X809133Y388620D02*
X841867D01*
X862318Y384048D02*
X883412D01*
X861446Y386334D02*
X883412D01*
X859933Y388620D02*
X883412D01*
X836676Y309880D02*
Y584962D01*
X838962Y309880D02*
Y584962D01*
X861822Y385514D02*
Y584962D01*
X841248Y387819D02*
Y584962D01*
X859536Y389067D02*
Y584962D01*
X805688Y391413D02*
Y461010D01*
Y434340D02*
X878682D01*
X805688Y436626D02*
X878682D01*
X806958Y390625D02*
Y527380D01*
X843534Y390242D02*
Y584962D01*
X806545Y390906D02*
X844455D01*
X845820Y391670D02*
Y584962D01*
X848106Y392483D02*
Y584962D01*
X850392Y392807D02*
Y584962D01*
X857250Y390967D02*
Y584962D01*
X852678Y392683D02*
Y584962D01*
X854964Y392097D02*
Y584962D01*
X805688Y438912D02*
X878682D01*
X805688Y441198D02*
X878682D01*
X805688Y443484D02*
X878682D01*
X857345Y390906D02*
X883412D01*
X805688Y445770D02*
X878682D01*
X805688Y448056D02*
X878682D01*
X805688Y450342D02*
X878682D01*
X805688Y452628D02*
X878682D01*
X805688Y454914D02*
X878682D01*
X805688Y457200D02*
X878682D01*
X805688Y459486D02*
X878682D01*
X805636Y461772D02*
X883464D01*
X668020Y502920D02*
X686682D01*
X668020Y505206D02*
X686682D01*
X668020Y507492D02*
X686682D01*
X668020Y509778D02*
X686682D01*
X668020Y512064D02*
X686682D01*
X668020Y514350D02*
X686682D01*
X668020Y516636D02*
X686682D01*
X668020Y518922D02*
X686682D01*
X668020Y562356D02*
X764038D01*
X668020Y564642D02*
X764032D01*
X668020Y566928D02*
X764032D01*
X668020Y548640D02*
X775687D01*
X668020Y553212D02*
X771115D01*
X668020Y550926D02*
X773401D01*
X668020Y555498D02*
X768829D01*
X668020Y560070D02*
X764643D01*
X668020Y557784D02*
X766543D01*
X668020Y569214D02*
X764032D01*
X668020Y571500D02*
X764032D01*
X668020Y573786D02*
X764032D01*
X668020Y576072D02*
X764032D01*
X668020Y578358D02*
X764032D01*
X668020Y580644D02*
X764032D01*
X668020Y610362D02*
X733015D01*
X668020Y612648D02*
X712082D01*
X668020Y614934D02*
X712082D01*
X668020Y617220D02*
X712082D01*
X668020Y619506D02*
X712082D01*
X668020Y621792D02*
X712082D01*
X668020Y624078D02*
X712082D01*
X668020Y626364D02*
X712082D01*
X668020Y628650D02*
X712082D01*
X668020Y630936D02*
X712082D01*
X668020Y633222D02*
X712082D01*
X668020Y635508D02*
X731012D01*
X668020Y582930D02*
X764032D01*
X668020Y585216D02*
X764032D01*
X668020Y587502D02*
X764032D01*
X668020Y589788D02*
X762479D01*
X668020Y594360D02*
X757907D01*
X668020Y592074D02*
X760193D01*
X668020Y596646D02*
X755621D01*
X668020Y601218D02*
X751049D01*
X668020Y598932D02*
X753335D01*
X668020Y603504D02*
X739873D01*
X668020Y608076D02*
X735301D01*
X668020Y605790D02*
X737587D01*
X710318Y500634D02*
X735882D01*
X710318Y502920D02*
X735882D01*
X710318Y505206D02*
X735882D01*
Y500328D02*
Y507728D01*
X710318Y507492D02*
X735882D01*
X710318Y509778D02*
X737652D01*
X710318Y512064D02*
X739115D01*
X738378Y511213D02*
Y604999D01*
X740664Y513099D02*
Y602749D01*
X742950Y513588D02*
Y601618D01*
Y513588D02*
X774700D01*
X758952D02*
Y593315D01*
X761238Y513588D02*
Y591029D01*
X763524Y513588D02*
Y588743D01*
X765810Y513588D02*
Y558517D01*
X768096Y513588D02*
Y556231D01*
X745236Y513588D02*
Y601472D01*
X747522Y513588D02*
Y601472D01*
X749808Y513588D02*
Y601472D01*
X752094Y513588D02*
Y600173D01*
X754380Y513588D02*
Y597887D01*
X756666Y513588D02*
Y595601D01*
X686682Y519818D02*
X710318D01*
X712082Y610482D02*
Y634118D01*
X668020Y637794D02*
X717455D01*
X712082Y634118D02*
X731012D01*
X717804D02*
Y637576D01*
X729234Y634118D02*
Y637154D01*
X668020Y640080D02*
X714867D01*
X668020Y644652D02*
X712482D01*
X668020Y642366D02*
X713354D01*
X713232Y634118D02*
Y642615D01*
X715518Y634118D02*
Y639369D01*
X731012Y634118D02*
Y638261D01*
X764032Y562610D02*
Y588235D01*
X770382Y513588D02*
Y553945D01*
X772668Y513588D02*
Y551659D01*
X774954Y513582D02*
Y549373D01*
X712082Y610482D02*
X732895D01*
X740259Y603119D01*
X750795Y601472D02*
X764032Y588235D01*
X744220Y601472D02*
X750795D01*
X668020Y646938D02*
X712107D01*
X668020Y649224D02*
X712181D01*
X673862Y737362D02*
X697738D01*
X668020Y738378D02*
X673862D01*
X668020Y740664D02*
X673862D01*
X668020Y742950D02*
X673862D01*
X668020Y745236D02*
X673862D01*
X668020Y747522D02*
X673862D01*
Y737362D02*
Y761238D01*
X685800Y738632D02*
Y749300D01*
X675132D02*
X685800D01*
X668020Y651510D02*
X712713D01*
X668020Y653796D02*
X713776D01*
X668020Y656082D02*
X715569D01*
X668020Y658368D02*
X718815D01*
X668020Y660654D02*
X734031D01*
X668020Y662940D02*
X736317D01*
X668020Y665226D02*
X738603D01*
X668020Y667512D02*
X740889D01*
X668020Y669798D02*
X743175D01*
X668020Y672084D02*
X745461D01*
X668020Y674370D02*
X747747D01*
X668020Y676656D02*
X750293D01*
X668020Y749808D02*
X673862D01*
X668020Y752094D02*
X673862D01*
X668020Y754380D02*
X673862D01*
X668020Y756666D02*
X673862D01*
X668020Y758952D02*
X673862D01*
X668020Y761238D02*
X673862D01*
X668020Y763524D02*
X673862D01*
X668020Y765810D02*
X673862D01*
X668020Y768096D02*
X673862D01*
Y762762D02*
Y782320D01*
X668020Y770382D02*
X673862D01*
X668020Y772668D02*
X673862D01*
Y761238D02*
X697738D01*
X668020Y774954D02*
X673862D01*
Y761238D02*
X697738D01*
X685800Y749300D02*
X696468D01*
X685800D02*
Y759968D01*
X673862Y762762D02*
X697738D01*
X668020Y777240D02*
X673862D01*
X668020Y779526D02*
X673862D01*
X668020Y781812D02*
X673862D01*
X685800Y764032D02*
Y774700D01*
X668020Y782320D02*
X673862D01*
X675132Y774700D02*
X685800D01*
X688086Y519818D02*
Y737362D01*
X690372Y519818D02*
Y737362D01*
X692658Y519818D02*
Y737362D01*
X694944Y519818D02*
Y737362D01*
X697230Y519818D02*
Y737362D01*
X699516Y519818D02*
Y782320D01*
X701802Y519818D02*
Y782320D01*
X704088Y519818D02*
Y782320D01*
X706374Y519818D02*
Y782320D01*
X708660Y519818D02*
Y782320D01*
X713232Y652785D02*
Y782320D01*
X715518Y656031D02*
Y782320D01*
X717804Y657824D02*
Y782320D01*
X728985Y658368D02*
X731917D01*
X732659Y659281D02*
X749149Y675771D01*
X720090Y658887D02*
Y782320D01*
X722376Y659419D02*
Y782320D01*
X724662Y659493D02*
Y782320D01*
X731520Y657648D02*
Y782320D01*
X726948Y659118D02*
Y782320D01*
X729234Y658246D02*
Y782320D01*
X697738Y737362D02*
Y761238D01*
X685800Y774700D02*
X696468D01*
X697738Y762762D02*
Y782320D01*
X733806Y660429D02*
Y782320D01*
X736092Y662715D02*
Y782320D01*
X738378Y665001D02*
Y782320D01*
X740664Y667287D02*
Y782320D01*
X742950Y669573D02*
Y782320D01*
X745236Y671859D02*
Y782320D01*
X747522Y674145D02*
Y782320D01*
X749808Y676338D02*
Y782320D01*
X752094Y677325D02*
Y782320D01*
X754380Y677418D02*
Y782320D01*
X756666Y677418D02*
Y782320D01*
X758952Y677418D02*
Y782320D01*
X761238Y677418D02*
Y782320D01*
X763524Y677418D02*
Y782320D01*
X765810Y677418D02*
Y782320D01*
X768096Y677418D02*
Y782320D01*
X770382Y677418D02*
Y782320D01*
X772668Y677418D02*
Y782320D01*
X774954Y677418D02*
Y782320D01*
X778661Y511941D02*
X786261Y504341D01*
X779526Y511077D02*
Y544801D01*
X777240Y512977D02*
Y547087D01*
X668020Y525780D02*
X793467D01*
X786384Y504215D02*
Y537943D01*
X781812Y508791D02*
Y542515D01*
X784098Y506505D02*
Y540229D01*
X783111Y507492D02*
X913682D01*
X780825Y509778D02*
X915452D01*
X778535Y512064D02*
X916915D01*
X787902Y500634D02*
X913682D01*
X787297Y502920D02*
X913682D01*
X785397Y505206D02*
X913682D01*
X710318Y514350D02*
X1033780D01*
X668020Y521208D02*
X1033780D01*
X668020Y523494D02*
X1033780D01*
X710318Y516636D02*
X1033780D01*
X710318Y518922D02*
X1033780D01*
X668020Y530352D02*
X790025D01*
X668020Y537210D02*
X787117D01*
X668020Y534924D02*
X789403D01*
X668020Y539496D02*
X784831D01*
X668020Y544068D02*
X780259D01*
X668020Y541782D02*
X782545D01*
X668020Y546354D02*
X777973D01*
X784098Y571275D02*
Y578329D01*
Y573786D02*
X788641D01*
X788670Y566703D02*
Y573757D01*
X784098Y571275D02*
Y578329D01*
X786384Y568989D02*
Y576043D01*
X668020Y528066D02*
X791190D01*
X668020Y532638D02*
X789543D01*
X765679Y558649D02*
X789606Y534721D01*
X790731Y564642D02*
X916827D01*
X786159Y569214D02*
X793473D01*
X788445Y566928D02*
X797890D01*
X784098Y571275D02*
X812749Y542624D01*
X784098Y571500D02*
X790927D01*
X784098Y578329D02*
X792329Y570099D01*
X790956Y564417D02*
Y571471D01*
X804193Y525780D02*
X808707D01*
X802386Y552987D02*
Y564847D01*
X804672Y550701D02*
Y564753D01*
X806958Y548415D02*
Y565235D01*
X813816Y542715D02*
Y587707D01*
X809244Y546129D02*
Y566400D01*
X811530Y543843D02*
Y568677D01*
X822960Y536192D02*
Y582738D01*
X816102Y542494D02*
Y587613D01*
X820674Y539974D02*
Y584843D01*
X819433Y525780D02*
X1033780D01*
X821710Y528066D02*
X1033780D01*
X822573Y537210D02*
X1033780D01*
X822875Y530352D02*
X1033780D01*
X823357Y532638D02*
X1033780D01*
X823262Y534924D02*
X1033780D01*
X809019Y546354D02*
X1033780D01*
X804447Y550926D02*
X918287D01*
X806733Y548640D02*
X921064D01*
X821117Y539496D02*
X1033780D01*
X818140Y541782D02*
X1033780D01*
X811305Y544068D02*
X1033780D01*
X795528Y559845D02*
Y568504D01*
X793242Y562131D02*
Y569356D01*
X799875Y555498D02*
X915753D01*
X797814Y557559D02*
Y566993D01*
X800100Y555273D02*
Y565536D01*
X811530Y579403D02*
Y582647D01*
X811721Y582930D02*
X822677D01*
X812799Y585216D02*
X820400D01*
X835497Y584962D02*
X889000D01*
X797589Y557784D02*
X915326D01*
X795303Y560070D02*
X915350D01*
X793017Y562356D02*
X915830D01*
X802161Y553212D02*
X916687D01*
X809930Y566928D02*
X918521D01*
X811881Y569214D02*
X921513D01*
X812875Y571500D02*
X1033780D01*
X810484Y580644D02*
X915830D01*
X812167Y578358D02*
X916827D01*
X813225Y573786D02*
X921513D01*
X833403Y582930D02*
X915350D01*
X813004Y576072D02*
X918521D01*
X668020Y678942D02*
X823439D01*
X668020Y681228D02*
X825725D01*
X668020Y683514D02*
X828011D01*
X668020Y685800D02*
X830297D01*
X668020Y688086D02*
X832583D01*
X668020Y690372D02*
X834869D01*
X668020Y692658D02*
X837155D01*
X668020Y694944D02*
X839441D01*
X668020Y697230D02*
X841727D01*
X668020Y699516D02*
X844013D01*
X668020Y701802D02*
X846299D01*
X668020Y704088D02*
X848585D01*
X668020Y706374D02*
X850871D01*
X668020Y708660D02*
X853157D01*
X668020Y710946D02*
X855443D01*
X668020Y713232D02*
X855472D01*
X668020Y715518D02*
X855472D01*
X668020Y717804D02*
X855472D01*
X668020Y720090D02*
X855472D01*
X668020Y722376D02*
X855565D01*
X668020Y724662D02*
X856552D01*
X668020Y726948D02*
X858745D01*
X668020Y729234D02*
X861031D01*
X668020Y731520D02*
X863317D01*
X668020Y733806D02*
X864817D01*
X668020Y736092D02*
X864493D01*
X697738Y738378D02*
X864616D01*
X697738Y740664D02*
X865203D01*
X697738Y742950D02*
X866333D01*
X697738Y745236D02*
X868232D01*
X697738Y747522D02*
X871786D01*
X697738Y749808D02*
X1004062D01*
X697738Y752094D02*
X1004062D01*
X697738Y754380D02*
X1004062D01*
X697738Y756666D02*
X1004062D01*
X697738Y758952D02*
X1004062D01*
X697738Y761238D02*
X1004062D01*
X697738Y763524D02*
X1004062D01*
X697738Y765810D02*
X1004062D01*
X697738Y768096D02*
X1004062D01*
X697738Y770382D02*
X1004062D01*
X697738Y772668D02*
X1004062D01*
X697738Y774954D02*
X1004062D01*
X697738Y777240D02*
X1004062D01*
X697738Y779526D02*
X1004062D01*
X697738Y781812D02*
X1004062D01*
X697738Y782320D02*
X1004062D01*
X777240Y677418D02*
Y782320D01*
X779526Y677418D02*
Y782320D01*
X781812Y677418D02*
Y782320D01*
X784098Y677418D02*
Y782320D01*
X786384Y677418D02*
Y782320D01*
X788670Y677418D02*
Y782320D01*
X790956Y677418D02*
Y782320D01*
X793242Y677418D02*
Y782320D01*
X795528Y677418D02*
Y782320D01*
X797814Y677418D02*
Y782320D01*
X800100Y677418D02*
Y782320D01*
X802386Y677418D02*
Y782320D01*
X813214Y587502D02*
X819235D01*
X804672Y677418D02*
Y782320D01*
X753110Y677418D02*
X821915D01*
X818388Y541657D02*
Y588095D01*
X806958Y677418D02*
Y782320D01*
X809244Y677418D02*
Y782320D01*
X811530Y677418D02*
Y782320D01*
X813816Y677418D02*
Y782320D01*
X816102Y677418D02*
Y782320D01*
X818388Y677418D02*
Y782320D01*
X820674Y677418D02*
Y782320D01*
X822960Y678463D02*
Y782320D01*
X825246Y680749D02*
Y782320D01*
X827532Y683035D02*
Y782320D01*
X829818Y685321D02*
Y782320D01*
X832104Y687607D02*
Y782320D01*
X834390Y689893D02*
Y782320D01*
X836676Y692179D02*
Y782320D01*
X838962Y694465D02*
Y782320D01*
X841248Y696751D02*
Y782320D01*
X843534Y699037D02*
Y782320D01*
X845820Y701323D02*
Y782320D01*
X821915Y677418D02*
X855472Y710975D01*
X848106Y703609D02*
Y782320D01*
X855472Y710975D02*
Y721360D01*
X857119Y725321D02*
X864985Y733188D01*
X850392Y705895D02*
Y782320D01*
X852678Y708181D02*
Y782320D01*
X854964Y710467D02*
Y782320D01*
X857250Y725453D02*
Y782320D01*
X859536Y727739D02*
Y782320D01*
X861822Y730025D02*
Y782320D01*
X891540Y309880D02*
Y343782D01*
X893826Y309880D02*
Y343782D01*
X896112Y309880D02*
Y343782D01*
X898398Y309880D02*
Y343782D01*
X900684Y309880D02*
Y343782D01*
X880110Y309880D02*
Y430452D01*
X862718Y343782D02*
Y367418D01*
X882396Y309880D02*
Y430452D01*
X884682Y309880D02*
Y364753D01*
X886968Y309880D02*
Y362429D01*
X889254Y309880D02*
Y360143D01*
X902970Y309880D02*
Y343782D01*
X905256Y309880D02*
Y343782D01*
X907542Y309880D02*
Y343782D01*
X909828Y309880D02*
Y343782D01*
X912114Y309880D02*
Y343782D01*
X925830Y309880D02*
Y343850D01*
X914400Y309880D02*
Y351282D01*
X916686Y309880D02*
Y350013D01*
X918972Y309880D02*
Y347021D01*
X921258Y309880D02*
Y345327D01*
X923544Y309880D02*
Y344330D01*
X928116Y309880D02*
Y343826D01*
X862718Y345186D02*
X889882D01*
X862718Y347472D02*
X889882D01*
X862718Y349758D02*
X889882D01*
Y343782D02*
Y359515D01*
X862718Y363474D02*
X885923D01*
X862718Y361188D02*
X888209D01*
X862718Y365760D02*
X884023D01*
X862087Y377190D02*
X883412D01*
X878682Y430452D02*
X883412D01*
Y368300D02*
Y430452D01*
X889882Y343782D02*
X913518D01*
Y347472D02*
X918521D01*
X913518Y345186D02*
X921513D01*
X913518Y343782D02*
Y351282D01*
X916099D01*
X913518Y349758D02*
X916827D01*
X862718Y352044D02*
X889882D01*
X862718Y354330D02*
X889882D01*
X862718Y356616D02*
X889882D01*
X862718Y358902D02*
X889882D01*
X885059Y364339D02*
X889882Y359515D01*
X930402Y309880D02*
Y344253D01*
X932688Y309880D02*
Y345187D01*
X948690Y309880D02*
Y344413D01*
X950976Y309880D02*
Y343881D01*
X953262Y309880D02*
Y343807D01*
X955548Y309880D02*
Y344182D01*
X934974Y309880D02*
Y346787D01*
X937260Y309880D02*
Y349563D01*
X939546Y309880D02*
Y351282D01*
X941832Y309880D02*
Y350515D01*
X944118Y309880D02*
Y347269D01*
X946404Y309880D02*
Y345476D01*
X957834Y309880D02*
Y345054D01*
X973836Y309880D02*
Y344503D01*
X976122Y309880D02*
Y343917D01*
X978408Y309880D02*
Y343793D01*
X980694Y309880D02*
Y344117D01*
X982980Y309880D02*
Y344930D01*
X960120Y309880D02*
Y346567D01*
X962406Y309880D02*
Y349155D01*
X964692Y309880D02*
Y351282D01*
X966978Y309880D02*
Y351086D01*
X969264Y309880D02*
Y347533D01*
X971550Y309880D02*
Y345633D01*
X932687Y345186D02*
X946913D01*
X937373Y349758D02*
X942227D01*
X935679Y347472D02*
X943921D01*
X958087Y345186D02*
X972313D01*
X962773Y349758D02*
X967627D01*
X961079Y347472D02*
X969321D01*
X938101Y351282D02*
X941499D01*
X963501D02*
X966899D01*
X982218Y366601D02*
Y369999D01*
X982980Y366270D02*
Y370330D01*
X983488Y391413D02*
Y394892D01*
X985266Y309880D02*
Y346358D01*
Y364842D02*
Y371758D01*
Y390242D02*
Y394892D01*
X987552Y309880D02*
Y348781D01*
Y362419D02*
Y374181D01*
Y387819D02*
Y394892D01*
X983488D02*
X988218D01*
Y406892D01*
X983488Y425528D02*
X988218D01*
Y406892D02*
Y413528D01*
Y406892D02*
Y413528D01*
Y425528D01*
X864108Y309880D02*
Y584962D01*
X878682Y430452D02*
Y442452D01*
Y449088D01*
Y442452D02*
Y449088D01*
Y461088D01*
X866394Y309880D02*
Y584962D01*
X868680Y309880D02*
Y584962D01*
X870966Y309880D02*
Y584962D01*
X873252Y309880D02*
Y584962D01*
X875538Y309880D02*
Y584962D01*
X877824Y309880D02*
Y584962D01*
X878682Y461088D02*
X883412D01*
X880110D02*
Y584962D01*
X885059Y464971D02*
X896112Y476025D01*
Y494030D01*
X882396Y461088D02*
Y584962D01*
X884682Y464557D02*
Y584962D01*
X886968Y466881D02*
Y584962D01*
X889254Y469167D02*
Y584968D01*
X891540Y471453D02*
Y585573D01*
X893826Y473739D02*
Y587473D01*
X896112Y476025D02*
Y494030D01*
Y589759D01*
X898398Y498538D02*
Y592045D01*
X901700Y499618D02*
X913682D01*
X900684Y499525D02*
Y594331D01*
X902970Y499618D02*
Y596617D01*
X905256Y499618D02*
Y598903D01*
X907542Y499618D02*
Y601189D01*
X909828Y499618D02*
Y603475D01*
X912114Y499618D02*
Y605761D01*
X913682Y500328D02*
Y507728D01*
X920750Y513588D02*
X955040D01*
X925830D02*
Y547050D01*
X928116Y513588D02*
Y547026D01*
X916686Y511835D02*
Y553213D01*
Y564387D02*
Y578613D01*
X918972Y513298D02*
Y550221D01*
X921258Y513588D02*
Y548527D01*
X923544Y513588D02*
Y547530D01*
X957834Y512839D02*
Y548254D01*
X972058Y483645D02*
Y496570D01*
X959001Y511941D02*
X970411Y500531D01*
X964692Y506251D02*
Y782320D01*
X960120Y510823D02*
Y549767D01*
X962406Y508537D02*
Y552355D01*
X971550Y498898D02*
Y701233D01*
X966978Y503965D02*
Y706686D01*
X969264Y501679D02*
Y703132D01*
X972058Y483645D02*
X975135Y480568D01*
X983488Y425528D02*
Y443709D01*
X985266Y425528D02*
Y441931D01*
X978408Y479664D02*
Y699393D01*
X973836Y481867D02*
Y700103D01*
X976122Y480516D02*
Y699517D01*
X985266Y472977D02*
Y701958D01*
X980694Y477549D02*
Y699717D01*
X982980Y475263D02*
Y700529D01*
X930402Y513588D02*
Y547453D01*
X932688Y513588D02*
Y548387D01*
X934974Y513588D02*
Y549987D01*
X937260Y513588D02*
Y552763D01*
X941832Y513588D02*
Y553715D01*
X937513Y553212D02*
X942087D01*
X938447Y555498D02*
X941153D01*
X937260Y564837D02*
Y578163D01*
X937373Y564642D02*
X942227D01*
X939546Y513588D02*
Y615442D01*
X938370Y562356D02*
X941230D01*
X941832Y563885D02*
Y579115D01*
X946404Y513588D02*
Y548676D01*
X933137Y548640D02*
X946463D01*
X948690Y513588D02*
Y547613D01*
X950976Y513588D02*
Y547081D01*
X953262Y513588D02*
Y547007D01*
X955548Y513565D02*
Y547382D01*
X935913Y550926D02*
X943687D01*
X935679Y566928D02*
X943921D01*
X944118Y513588D02*
Y550469D01*
Y567131D02*
Y575869D01*
X962406Y565245D02*
Y577755D01*
X988173Y349758D02*
X993027D01*
X992124Y309880D02*
Y351758D01*
X989170Y352044D02*
X992030D01*
X994410Y309880D02*
Y347813D01*
X988313Y361188D02*
X992887D01*
X989247Y358902D02*
X991953D01*
X992124Y359442D02*
Y377158D01*
X988024Y374904D02*
X993176D01*
X983487Y345186D02*
X997713D01*
X986479Y347472D02*
X994721D01*
X983936Y365760D02*
X997263D01*
X996696Y309880D02*
Y345799D01*
X986713Y363474D02*
X994487D01*
X992752Y355600D02*
X1003300D01*
X982218Y368046D02*
X1033780D01*
X986231Y372618D02*
X994969D01*
X982985Y370332D02*
X998215D01*
X994410Y363387D02*
Y373213D01*
X986933Y388620D02*
X994267D01*
X984345Y390906D02*
X996855D01*
X989087Y377190D02*
X992113D01*
X989318Y384048D02*
X991882D01*
X988446Y386334D02*
X992754D01*
X988218Y420624D02*
X991482D01*
X988218Y422910D02*
X991482D01*
X988218Y425196D02*
X991482D01*
X992124Y384842D02*
Y419982D01*
X994410Y388787D02*
Y419982D01*
X991482D02*
X1015118D01*
X983488Y393192D02*
X1033780D01*
X988218Y395478D02*
X1033780D01*
X988218Y397764D02*
X1033780D01*
X988218Y400050D02*
X1033780D01*
X988218Y402336D02*
X1033780D01*
X988218Y404622D02*
X1033780D01*
X988218Y406908D02*
X1033780D01*
X988218Y409194D02*
X1033780D01*
X988218Y411480D02*
X1033780D01*
X988218Y413766D02*
X1033780D01*
X988218Y416052D02*
X1033780D01*
X988218Y418338D02*
X1033780D01*
X998982Y309880D02*
Y344599D01*
X1001268Y309880D02*
Y343958D01*
X1003554Y309880D02*
Y343785D01*
X1005840Y309880D02*
Y344058D01*
X1008126Y309880D02*
Y344812D01*
X1010412Y309880D02*
Y346161D01*
X1003300Y345052D02*
Y355600D01*
X996696Y365401D02*
Y371199D01*
X1003300Y355600D02*
X1013848D01*
X1012698Y309880D02*
Y348435D01*
X1003300Y355600D02*
Y366148D01*
X1012698Y362765D02*
Y373835D01*
X1008887Y345186D02*
X1033780D01*
X1011879Y347472D02*
X1033780D01*
X1013573Y349758D02*
X1033780D01*
X1014984Y309880D02*
Y353825D01*
X1014570Y352044D02*
X1033780D01*
X1015050Y354330D02*
X1033780D01*
X1013713Y361188D02*
X1033780D01*
X1012113Y363474D02*
X1033780D01*
X1009336Y365760D02*
X1033780D01*
X1015074Y356616D02*
X1033780D01*
X1014984Y357375D02*
Y379225D01*
X1014647Y358902D02*
X1033780D01*
X998982Y366601D02*
Y369999D01*
X996696Y390801D02*
Y419982D01*
X998982Y392001D02*
Y419982D01*
X1010412Y365038D02*
Y371562D01*
X1001268Y392642D02*
Y419982D01*
X1008126Y366388D02*
Y370212D01*
Y391788D02*
Y419982D01*
X1003554Y392815D02*
Y419982D01*
X1005840Y392542D02*
Y419982D01*
X1014984Y382775D02*
Y419982D01*
X1010412Y390438D02*
Y419982D01*
X1012698Y388165D02*
Y419982D01*
X1008385Y370332D02*
X1033780D01*
X1011631Y372618D02*
X1033780D01*
X1013424Y374904D02*
X1033780D01*
X1014487Y377190D02*
X1033780D01*
X1015019Y379476D02*
X1033780D01*
X1015093Y381762D02*
X1033780D01*
X1013846Y386334D02*
X1033780D01*
X1012333Y388620D02*
X1033780D01*
X1009745Y390906D02*
X1033780D01*
X1014718Y384048D02*
X1033780D01*
X1015118Y420624D02*
X1033780D01*
X1015118Y422910D02*
X1033780D01*
X983488Y427482D02*
X991482D01*
X983488Y429768D02*
X991482D01*
Y419982D02*
Y435715D01*
X983488Y436626D02*
X990571D01*
X983488Y432054D02*
X991482D01*
X987552Y425528D02*
Y439645D01*
X983488Y438912D02*
X988285D01*
X979321Y478921D02*
X989461Y468781D01*
X989838Y309880D02*
Y437359D01*
X987552Y470691D02*
Y704381D01*
X989838Y468367D02*
Y782320D01*
X983488Y434340D02*
X991482D01*
X983488Y443709D02*
X991482Y435715D01*
X991108Y451895D02*
X999385Y443618D01*
X991108Y451895D02*
Y464820D01*
Y464058D02*
X993675D01*
X990896Y466344D02*
X995813D01*
X987327Y470916D02*
X1033780D01*
X985041Y473202D02*
X1033780D01*
X982755Y475488D02*
X1033780D01*
X989608Y468630D02*
X1000297D01*
X972058Y484632D02*
X1033780D01*
X972058Y486918D02*
X1033780D01*
X972058Y489204D02*
X1033780D01*
X980469Y477774D02*
X1033780D01*
X977688Y480060D02*
X1033780D01*
X973357Y482346D02*
X1033780D01*
X972058Y491490D02*
X1033780D01*
X970309Y500634D02*
X1033780D01*
X968023Y502920D02*
X1033780D01*
X972058Y493776D02*
X1033780D01*
X972058Y496062D02*
X1033780D01*
X971768Y498348D02*
X1033780D01*
X961165Y509778D02*
X1033780D01*
X958875Y512064D02*
X1033780D01*
X958537Y548640D02*
X1033780D01*
X965737Y505206D02*
X1033780D01*
X963451Y507492D02*
X1033780D01*
X961313Y550926D02*
X1033780D01*
X962913Y553212D02*
X1033780D01*
X963847Y555498D02*
X1033780D01*
X962773Y564642D02*
X1033780D01*
X964274Y557784D02*
X1033780D01*
X964250Y560070D02*
X1033780D01*
X963770Y562356D02*
X1033780D01*
X999385Y443618D02*
X1015118D01*
X1008126D02*
Y446412D01*
X1010412Y443618D02*
Y447761D01*
X1015118Y419982D02*
Y443618D01*
X1012698D02*
Y450035D01*
X1014984Y443618D02*
Y455425D01*
X1017270Y309880D02*
Y737362D01*
X1019556Y309880D02*
Y737362D01*
X1021842Y309880D02*
Y737362D01*
X1024128Y309880D02*
Y737362D01*
X1026414Y309880D02*
Y737362D01*
X1028700Y309880D02*
Y782320D01*
X1015118Y425196D02*
X1033780D01*
X1015118Y427482D02*
X1033780D01*
X1015118Y429768D02*
X1033780D01*
X1015118Y432054D02*
X1033780D01*
X1015118Y434340D02*
X1033780D01*
X1015118Y436626D02*
X1033780D01*
X1015118Y438912D02*
X1033780D01*
X1015118Y441198D02*
X1033780D01*
X1015118Y443484D02*
X1033780D01*
X1030986Y309880D02*
Y782320D01*
X1033272Y309880D02*
Y782320D01*
X1033780Y309880D02*
Y782320D01*
X997233Y445770D02*
X1000297D01*
X1005840Y468742D02*
Y737362D01*
X1012698Y464365D02*
Y737362D01*
X1008126Y467988D02*
Y737362D01*
X1010412Y466638D02*
Y737362D01*
X992124Y461042D02*
Y782320D01*
X994410Y464987D02*
Y782320D01*
X996696Y467001D02*
Y782320D01*
X998982Y468201D02*
Y782320D01*
X1001268Y468842D02*
Y782320D01*
X1003554Y469015D02*
Y782320D01*
X1006303Y445770D02*
X1033780D01*
X1010787Y448056D02*
X1033780D01*
X1012925Y450342D02*
X1033780D01*
X1014198Y452628D02*
X1033780D01*
X1014895Y454914D02*
X1033780D01*
X1015118Y457200D02*
X1033780D01*
X1012925Y464058D02*
X1033780D01*
X1010787Y466344D02*
X1033780D01*
X1006303Y468630D02*
X1033780D01*
X1014984Y458975D02*
Y737362D01*
X1014895Y459486D02*
X1033780D01*
X1014198Y461772D02*
X1033780D01*
X918972Y567379D02*
Y575621D01*
X890666Y585216D02*
X915326D01*
X921258Y569073D02*
Y573927D01*
X892961Y586609D02*
X918341Y611989D01*
X893855Y587502D02*
X915753D01*
X896141Y589788D02*
X916687D01*
X916686Y589787D02*
Y610333D01*
X898427Y592074D02*
X918287D01*
X900713Y594360D02*
X921064D01*
X923544Y570070D02*
Y572930D01*
Y595470D02*
Y611030D01*
X932687Y569214D02*
X946913D01*
X925830Y595950D02*
Y610550D01*
X930402Y570147D02*
Y572853D01*
X921258Y594473D02*
Y612027D01*
X928116Y595974D02*
Y610526D01*
X930402Y595547D02*
Y610953D01*
X931614Y633222D02*
X947986D01*
X872385Y699382D02*
X888118D01*
Y701802D02*
X894535D01*
X888118Y699516D02*
X899925D01*
X893826Y697738D02*
Y702387D01*
X888118Y704088D02*
X892262D01*
X896112Y697738D02*
Y700787D01*
X888118Y706374D02*
X890912D01*
X888118Y715518D02*
X890699D01*
X888118Y717804D02*
X891899D01*
X891540Y697738D02*
Y705163D01*
X888118Y720090D02*
X893913D01*
X901700Y700652D02*
Y711200D01*
X923544Y658970D02*
Y661641D01*
X925830Y659450D02*
Y663927D01*
X931418Y633301D02*
Y636699D01*
X932185Y658368D02*
X947415D01*
X870741Y697738D02*
X905735D01*
X891152Y711200D02*
X901700D01*
X903475Y699516D02*
X907513D01*
X928116Y659474D02*
Y666213D01*
X905735Y697738D02*
X908812Y700815D01*
X930402Y659047D02*
Y668499D01*
X934974Y567613D02*
Y575387D01*
X932688Y569213D02*
Y573787D01*
X937373Y578358D02*
X942227D01*
X938370Y580644D02*
X941230D01*
X938447Y587502D02*
X941153D01*
X937513Y589788D02*
X942087D01*
X934974Y593013D02*
Y613487D01*
X932688Y594613D02*
Y611887D01*
X936725Y615442D02*
X942875D01*
X941832Y589285D02*
Y615442D01*
X937260Y590237D02*
Y615442D01*
X936342Y614934D02*
X943258D01*
X932687Y573786D02*
X946913D01*
X935679Y576072D02*
X943921D01*
X933137Y594360D02*
X946463D01*
X946404Y568924D02*
Y574076D01*
X935913Y592074D02*
X943687D01*
X948690Y569987D02*
Y573013D01*
X944118Y592531D02*
Y613969D01*
X936725Y629158D02*
X942875D01*
X933919Y612648D02*
X945681D01*
X946404Y594324D02*
Y612176D01*
X948690Y595387D02*
Y611113D01*
X950976Y595919D02*
Y610581D01*
X937260Y629158D02*
Y641664D01*
X932688Y632713D02*
Y637287D01*
X934974Y631113D02*
Y638887D01*
X941832Y629158D02*
Y642615D01*
X938518Y644652D02*
X941082D01*
X937646Y642366D02*
X941954D01*
X937260Y653736D02*
Y675357D01*
X932688Y658113D02*
Y670785D01*
X934974Y656513D02*
Y673071D01*
X939546Y629158D02*
Y677643D01*
X938287Y651510D02*
X941313D01*
X941832Y652785D02*
Y679929D01*
X935167Y630936D02*
X944433D01*
X936133Y640080D02*
X943467D01*
X933545Y637794D02*
X946055D01*
X944118Y630631D02*
Y639369D01*
X946404Y632424D02*
Y637576D01*
X948690Y633487D02*
Y636513D01*
X937224Y653796D02*
X942376D01*
X935431Y656082D02*
X944169D01*
X944118Y656031D02*
Y682215D01*
X946404Y657824D02*
Y684501D01*
X948690Y658887D02*
Y686787D01*
X950976Y659419D02*
Y689073D01*
X870621Y723018D02*
X888118D01*
X870621D02*
X872888Y725285D01*
X888118Y699382D02*
Y723018D01*
X882396D02*
Y726476D01*
X884682Y723018D02*
Y728269D01*
X886968Y723018D02*
Y731515D01*
X864108Y732311D02*
Y782320D01*
X889254Y697738D02*
Y782320D01*
X891540Y717236D02*
Y730564D01*
X886971Y731520D02*
X891030D01*
X888118Y722376D02*
X897858D01*
X872265Y724662D02*
X908864D01*
X901700Y711200D02*
Y721748D01*
X898398Y722547D02*
Y725253D01*
X905542Y722376D02*
X908812D01*
X885542Y729234D02*
X892458D01*
X883119Y726948D02*
X894881D01*
X893826Y720013D02*
Y727787D01*
X896112Y721613D02*
Y726187D01*
X901700Y726052D02*
Y736600D01*
X866394Y743045D02*
Y782320D01*
X868680Y745633D02*
Y782320D01*
X887397Y740664D02*
X890603D01*
X870966Y747146D02*
Y782320D01*
X873252Y748018D02*
Y782320D01*
X880110Y747787D02*
Y782320D01*
X875538Y748393D02*
Y782320D01*
X877824Y748319D02*
Y782320D01*
X886968Y741685D02*
Y782320D01*
X882396Y746724D02*
Y782320D01*
X884682Y744931D02*
Y782320D01*
X886267Y742950D02*
X891733D01*
X884368Y745236D02*
X893633D01*
X880814Y747522D02*
X897186D01*
X891152Y736600D02*
X901700D01*
Y747148D01*
Y736600D02*
X912248D01*
X891540Y742636D02*
Y782320D01*
X893826Y745413D02*
Y782320D01*
X896112Y747013D02*
Y782320D01*
X898398Y747947D02*
Y782320D01*
X900684Y748374D02*
Y782320D01*
X902970Y748350D02*
Y782320D01*
X908812Y720639D02*
Y723900D01*
X905256Y722470D02*
Y725330D01*
X907542Y721473D02*
Y726327D01*
X919988Y721585D02*
X923688Y725285D01*
X923544Y722470D02*
Y725141D01*
X930402Y722547D02*
Y725253D01*
X910459Y727861D02*
X915785Y733188D01*
X932688Y721613D02*
Y726187D01*
X914400Y731803D02*
Y782320D01*
X912797Y740664D02*
X916003D01*
X930942Y722376D02*
X934212D01*
X923065Y724662D02*
X934264D01*
X934212Y720639D02*
Y723900D01*
X945388Y721585D02*
X949088Y725285D01*
X935859Y727861D02*
X941185Y733188D01*
X939546Y731549D02*
Y782320D01*
X938197Y740664D02*
X941403D01*
X907542Y746873D02*
Y782320D01*
X905256Y747870D02*
Y782320D01*
X906214Y747522D02*
X922586D01*
X911667Y742950D02*
X917133D01*
X909828Y745179D02*
Y782320D01*
X909768Y745236D02*
X919033D01*
X912114Y742187D02*
Y782320D01*
X916686Y742187D02*
Y782320D01*
X918972Y745179D02*
Y782320D01*
X921258Y746873D02*
Y782320D01*
X923544Y747870D02*
Y782320D01*
X925830Y748350D02*
Y782320D01*
X931614Y747522D02*
X947986D01*
X928116Y748374D02*
Y782320D01*
X930402Y747947D02*
Y782320D01*
X937067Y742950D02*
X942533D01*
X932688Y747013D02*
Y782320D01*
X935167Y745236D02*
X944433D01*
X941832Y741685D02*
Y782320D01*
X934974Y745413D02*
Y782320D01*
X937260Y742636D02*
Y782320D01*
X944118Y744931D02*
Y782320D01*
X946404Y746724D02*
Y782320D01*
X948690Y747787D02*
Y782320D01*
X953262Y595993D02*
Y610507D01*
X957834Y569346D02*
Y573654D01*
X955548Y570218D02*
Y572782D01*
Y595618D02*
Y610882D01*
X941952Y647700D02*
X952500D01*
X957834Y594746D02*
Y611754D01*
X952500Y637152D02*
Y647700D01*
X955548Y633718D02*
Y636282D01*
X902999Y596646D02*
X1033780D01*
X905285Y598932D02*
X1033780D01*
X907571Y601218D02*
X1033780D01*
X958087Y569214D02*
X1033780D01*
X958087Y573786D02*
X1033780D01*
X909857Y603504D02*
X1033780D01*
X912143Y605790D02*
X1033780D01*
X914429Y608076D02*
X1033780D01*
X916715Y610362D02*
X1033780D01*
X957014Y633222D02*
X1033780D01*
X931418Y635508D02*
X1033780D01*
X922557Y660654D02*
X1033780D01*
X924843Y662940D02*
X1033780D01*
X927129Y665226D02*
X1033780D01*
X952500Y647700D02*
X963048D01*
X952500D02*
Y658248D01*
X957585Y658368D02*
X1033780D01*
X919988Y658085D02*
X956441Y694539D01*
X953262Y659493D02*
Y691359D01*
X929415Y667512D02*
X1033780D01*
X955548Y659118D02*
Y693645D01*
X931701Y669798D02*
X1033780D01*
X933987Y672084D02*
X1033780D01*
X936273Y674370D02*
X1033780D01*
X938559Y676656D02*
X1033780D01*
X940845Y678942D02*
X1033780D01*
X943131Y681228D02*
X1033780D01*
X945417Y683514D02*
X1033780D01*
X947703Y685800D02*
X1033780D01*
X949989Y688086D02*
X1033780D01*
X952275Y690372D02*
X1033780D01*
X954561Y692658D02*
X1033780D01*
X956811Y694944D02*
X1033780D01*
X961079Y566928D02*
X1033780D01*
X960120Y567833D02*
Y575167D01*
X961079Y576072D02*
X1033780D01*
X962773Y578358D02*
X1033780D01*
X963770Y580644D02*
X1033780D01*
X964250Y582930D02*
X1033780D01*
X962406Y590645D02*
Y615855D01*
X960120Y593233D02*
Y613267D01*
Y631333D02*
Y638667D01*
X964274Y585216D02*
X1033780D01*
X962406Y628745D02*
Y641255D01*
X963847Y587502D02*
X1033780D01*
X961313Y592074D02*
X1033780D01*
X958537Y594360D02*
X1033780D01*
X959319Y612648D02*
X1033780D01*
X962913Y589788D02*
X1033780D01*
X961742Y614934D02*
X1033780D01*
X963170Y617220D02*
X1033780D01*
X963983Y619506D02*
X1033780D01*
X962467Y628650D02*
X1033780D01*
X960567Y630936D02*
X1033780D01*
X964307Y621792D02*
X1033780D01*
X964184Y624078D02*
X1033780D01*
X963597Y626364D02*
X1033780D01*
X957834Y632846D02*
Y637154D01*
Y658246D02*
Y696834D01*
X958945Y637794D02*
X1033780D01*
X961533Y640080D02*
X1033780D01*
X963046Y642366D02*
X1033780D01*
X963918Y644652D02*
X1033780D01*
X960120Y656733D02*
Y702167D01*
X959665Y701802D02*
X970735D01*
X962406Y654145D02*
Y704755D01*
X963288Y706374D02*
X967112D01*
X961938Y704088D02*
X968462D01*
X962624Y653796D02*
X1033780D01*
X960831Y656082D02*
X1033780D01*
X957942Y697230D02*
X1033780D01*
X964293Y646938D02*
X1033780D01*
X964219Y649224D02*
X1033780D01*
X963687Y651510D02*
X1033780D01*
X979675Y699516D02*
X1033780D01*
X985065Y701802D02*
X1033780D01*
X987338Y704088D02*
X1033780D01*
X988688Y706374D02*
X1033780D01*
X989442Y708660D02*
X1033780D01*
X989715Y710946D02*
X1033780D01*
X955548Y722618D02*
Y725182D01*
X963501Y715518D02*
X966899D01*
X962301Y717804D02*
X968099D01*
X960287Y720090D02*
X970113D01*
X960120Y720233D02*
Y727567D01*
X957834Y721746D02*
Y726054D01*
X966978Y715714D02*
Y732086D01*
X962406Y717645D02*
Y730155D01*
X969264Y719268D02*
Y728532D01*
X956342Y722376D02*
X974058D01*
X948465Y724662D02*
X1033780D01*
X985687Y720090D02*
X1033780D01*
X973836Y722297D02*
Y725503D01*
X981742Y722376D02*
X1033780D01*
X971550Y721167D02*
Y726633D01*
X959319Y726948D02*
X971081D01*
X985266Y720442D02*
Y727358D01*
X982980Y721870D02*
Y725929D01*
X984719Y726948D02*
X1033780D01*
X961742Y729234D02*
X968658D01*
X950976Y748319D02*
Y782320D01*
X963170Y731520D02*
X967230D01*
X963597Y740664D02*
X966803D01*
X962467Y742950D02*
X967933D01*
X957834Y747146D02*
Y782320D01*
X953262Y748393D02*
Y782320D01*
X955548Y748018D02*
Y782320D01*
X966978Y741114D02*
Y782320D01*
X960120Y745633D02*
Y782320D01*
X962406Y743045D02*
Y782320D01*
X960567Y745236D02*
X969833D01*
X969264Y744668D02*
Y782320D01*
X957014Y747522D02*
X973386D01*
X985967Y745236D02*
X1004062D01*
X971550Y746567D02*
Y782320D01*
X982414Y747522D02*
X1004062D01*
X973836Y747697D02*
Y782320D01*
X976122Y748283D02*
Y782320D01*
X978408Y748407D02*
Y782320D01*
X985266Y745842D02*
Y782320D01*
X980694Y748083D02*
Y782320D01*
X982980Y747271D02*
Y782320D01*
X987552Y718019D02*
Y729781D01*
X988997Y740664D02*
X1004062D01*
X987867Y742950D02*
X1004062D01*
Y737362D02*
X1027938D01*
X989584Y738378D02*
X1004062D01*
X1016000Y738632D02*
Y749300D01*
X1004062Y737362D02*
Y761238D01*
X987552Y743419D02*
Y782320D01*
X1005332Y749300D02*
X1016000D01*
X1027938Y737362D02*
Y761238D01*
X1016000Y749300D02*
Y759968D01*
Y749300D02*
X1026668D01*
X988901Y715518D02*
X1033780D01*
X987701Y717804D02*
X1033780D01*
X987142Y729234D02*
X1033780D01*
X989542Y713232D02*
X1033780D01*
X988570Y731520D02*
X1033780D01*
X989383Y733806D02*
X1033780D01*
X989707Y736092D02*
X1033780D01*
X1027938Y738378D02*
X1033780D01*
X1027938Y740664D02*
X1033780D01*
X1027938Y742950D02*
X1033780D01*
X1027938Y745236D02*
X1033780D01*
X1027938Y747522D02*
X1033780D01*
X1027938Y749808D02*
X1033780D01*
X1004062Y761238D02*
X1027938D01*
X1004062D02*
X1027938D01*
Y752094D02*
X1033780D01*
X1027938Y754380D02*
X1033780D01*
X1027938Y756666D02*
X1033780D01*
X1004062Y762762D02*
X1027938D01*
X1004062D02*
Y782320D01*
X1005332Y774700D02*
X1016000D01*
X1027938Y762762D02*
Y782320D01*
X1016000Y764032D02*
Y774700D01*
X1026668D01*
X1027938Y758952D02*
X1033780D01*
X1027938Y761238D02*
X1033780D01*
X1027938Y763524D02*
X1033780D01*
X1027938Y765810D02*
X1033780D01*
X1027938Y768096D02*
X1033780D01*
X1027938Y770382D02*
X1033780D01*
X1027938Y772668D02*
X1033780D01*
X1027938Y774954D02*
X1033780D01*
X1027938Y777240D02*
X1033780D01*
X1027938Y779526D02*
X1033780D01*
X1027938Y781812D02*
X1033780D01*
X1027938Y782320D02*
X1033780D01*
D23*
X952500Y636270D02*
Y659130D01*
X800100Y344170D02*
Y367030D01*
X1003300Y344170D02*
Y367030D01*
X901700Y699770D02*
Y748030D01*
X890270Y736600D02*
X913130D01*
X941070Y647700D02*
X963930D01*
X991870Y355600D02*
X1014730D01*
X788670D02*
X811530D01*
X1092200Y650240D02*
Y670560D01*
X1082040Y660400D02*
X1102360D01*
X1181100Y739140D02*
Y759460D01*
X1170940Y749300D02*
X1191260D01*
X1181100Y636270D02*
Y659130D01*
X1169670Y647700D02*
X1181100D01*
Y586740D02*
Y607060D01*
X1170940Y596900D02*
X1181100D01*
Y485140D02*
Y505460D01*
X1170940Y495300D02*
X1191260D01*
X572770Y482600D02*
X595630D01*
X598170Y355600D02*
X622300D01*
X609600Y342900D02*
Y367030D01*
X406400Y342900D02*
Y367030D01*
X394970Y355600D02*
X417830D01*
X584200Y471170D02*
Y495300D01*
X1170940Y393700D02*
X1191260D01*
X1181100Y383540D02*
Y403860D01*
X1155700Y469900D02*
X1181100Y444500D01*
X1155700Y469900D02*
Y635000D01*
Y546100D02*
X1181100D01*
X927100Y622300D02*
X952500D01*
X1117600Y660400D02*
X1130300D01*
X1155700Y635000D01*
X890270Y711200D02*
X901700D01*
D24*
X558800D02*
X584200Y685800D01*
X558800Y518160D02*
X584200Y543560D01*
X558800Y482600D02*
Y518160D01*
X509270Y711200D02*
X558800D01*
X444500Y584200D02*
X533400D01*
Y609600D02*
X558800Y635000D01*
X419100Y558800D02*
X533400D01*
X419100D02*
Y614680D01*
X558800Y635000D02*
Y651510D01*
X533400Y584200D02*
Y609600D01*
X584200Y543560D02*
Y685800D01*
D25*
X292100Y760095D02*
D03*
X622300D02*
D03*
X685800D02*
D03*
X1016000D02*
D03*
D26*
X723900Y622300D02*
D03*
X901700Y355600D02*
D03*
X304800D02*
D03*
X508000D02*
D03*
X355600Y457200D02*
D03*
X533400Y558800D02*
D03*
X698500Y508000D02*
D03*
X1206500Y444500D02*
D03*
Y342900D02*
D03*
Y546100D02*
D03*
X698500Y355600D02*
D03*
X1117600Y431800D02*
D03*
X1206500Y647700D02*
D03*
X1003300Y431800D02*
D03*
X850900Y355600D02*
D03*
X876300Y711200D02*
D03*
D27*
X723900Y647700D02*
D03*
X749300Y622300D02*
D03*
Y647700D02*
D03*
X774700Y622300D02*
D03*
Y647700D02*
D03*
X800100Y622300D02*
D03*
Y647700D02*
D03*
X825500Y622300D02*
D03*
Y647700D02*
D03*
X850900Y622300D02*
D03*
Y647700D02*
D03*
X876300Y622300D02*
D03*
Y647700D02*
D03*
X901700Y622300D02*
D03*
Y647700D02*
D03*
X927100Y622300D02*
D03*
Y647700D02*
D03*
X952500Y622300D02*
D03*
Y647700D02*
D03*
Y584200D02*
D03*
Y558800D02*
D03*
X927100Y584200D02*
D03*
X977900Y381000D02*
D03*
Y355600D02*
D03*
X952500Y381000D02*
D03*
Y355600D02*
D03*
X927100Y381000D02*
D03*
Y355600D02*
D03*
X901700Y381000D02*
D03*
X749300D02*
D03*
Y355600D02*
D03*
X723900D02*
D03*
X304800Y381000D02*
D03*
X330200Y355600D02*
D03*
Y381000D02*
D03*
X355600Y355600D02*
D03*
Y381000D02*
D03*
X381000Y355600D02*
D03*
Y381000D02*
D03*
X406400Y355600D02*
D03*
Y381000D02*
D03*
X508000D02*
D03*
X533400Y355600D02*
D03*
Y381000D02*
D03*
X558800Y355600D02*
D03*
Y381000D02*
D03*
X584200Y355600D02*
D03*
Y381000D02*
D03*
X609600Y355600D02*
D03*
Y381000D02*
D03*
X584200Y482600D02*
D03*
Y457200D02*
D03*
X558800Y482600D02*
D03*
Y457200D02*
D03*
X533400Y482600D02*
D03*
Y457200D02*
D03*
X508000Y482600D02*
D03*
Y457200D02*
D03*
X482600Y482600D02*
D03*
Y457200D02*
D03*
X457200Y482600D02*
D03*
Y457200D02*
D03*
X431800Y482600D02*
D03*
Y457200D02*
D03*
X406400Y482600D02*
D03*
Y457200D02*
D03*
X381000Y482600D02*
D03*
Y457200D02*
D03*
X355600Y482600D02*
D03*
X533400Y584200D02*
D03*
X558800Y558800D02*
D03*
Y584200D02*
D03*
X698500Y482600D02*
D03*
X1181100Y444500D02*
D03*
X1206500Y469900D02*
D03*
X1181100D02*
D03*
Y495300D02*
D03*
Y342900D02*
D03*
X1206500Y368300D02*
D03*
X1181100D02*
D03*
X1206500Y393700D02*
D03*
X1181100D02*
D03*
Y546100D02*
D03*
X1206500Y571500D02*
D03*
X1181100D02*
D03*
X1206500Y596900D02*
D03*
X1181100D02*
D03*
X1206500Y495300D02*
D03*
X698500Y381000D02*
D03*
X723900D02*
D03*
X774700Y355600D02*
D03*
Y381000D02*
D03*
X1092200Y660400D02*
D03*
X1117600D02*
D03*
X1092200Y635000D02*
D03*
X1117600D02*
D03*
X1092200Y609600D02*
D03*
X1117600D02*
D03*
X1092200Y584200D02*
D03*
X1117600D02*
D03*
X1092200Y558800D02*
D03*
X1117600D02*
D03*
X1092200Y533400D02*
D03*
X1117600D02*
D03*
X1092200Y508000D02*
D03*
X1117600D02*
D03*
X1092200Y482600D02*
D03*
X1117600D02*
D03*
X1092200Y457200D02*
D03*
X1117600D02*
D03*
X1092200Y431800D02*
D03*
X1181100Y647700D02*
D03*
X1206500Y673100D02*
D03*
X1181100D02*
D03*
X1206500Y698500D02*
D03*
X1181100D02*
D03*
X1206500Y723900D02*
D03*
X1181100D02*
D03*
X1206500Y749300D02*
D03*
X1181100D02*
D03*
X800100Y355600D02*
D03*
X1003300D02*
D03*
X800100Y381000D02*
D03*
X1003300D02*
D03*
Y457200D02*
D03*
X901700Y711200D02*
D03*
Y736600D02*
D03*
X927100Y711200D02*
D03*
Y736600D02*
D03*
X952500Y711200D02*
D03*
Y736600D02*
D03*
X977900Y711200D02*
D03*
Y736600D02*
D03*
X850900Y381000D02*
D03*
X876300Y736600D02*
D03*
D28*
X927100Y558800D02*
D03*
D29*
X685800Y749300D02*
D03*
Y774700D02*
D03*
X1016000D02*
D03*
Y749300D02*
D03*
X622300D02*
D03*
Y774700D02*
D03*
X292100Y749300D02*
D03*
Y774700D02*
D03*
D30*
X977900Y596900D02*
D03*
X984250Y571500D02*
D03*
X824230Y431800D02*
D03*
X1079500Y749300D02*
D03*
X1104900D02*
D03*
X1130300D02*
D03*
X1140460Y612140D02*
D03*
Y629920D02*
D03*
X803910Y588010D02*
D03*
Y574040D02*
D03*
X815340Y596900D02*
D03*
X828040Y590550D02*
D03*
X1079500Y342900D02*
D03*
X1140460Y487680D02*
D03*
Y502920D02*
D03*
X1130300Y342900D02*
D03*
X1104900D02*
D03*
X908050Y546100D02*
D03*
X984250Y520700D02*
D03*
Y546100D02*
D03*
X800100Y515620D02*
D03*
X774700Y527050D02*
D03*
X800100Y497840D02*
D03*
X825500Y520700D02*
D03*
X850900D02*
D03*
X876300D02*
D03*
X984250Y495300D02*
D03*
X908050Y571500D02*
D03*
X939800Y603250D02*
D03*
X1140460Y594360D02*
D03*
X798830Y533400D02*
D03*
X814070D02*
D03*
X749300Y527050D02*
D03*
X723900D02*
D03*
D31*
X509270Y711200D02*
D03*
X444500Y584200D02*
D03*
X419100Y614680D02*
D03*
X558800Y651510D02*
D03*
X495300Y514350D02*
D03*
X520700D02*
D03*
X469900D02*
D03*
X387350Y546100D02*
D03*
X425450D02*
D03*
X387350Y571500D02*
D03*
X406400D02*
D03*
Y546100D02*
D03*
X425450Y520700D02*
D03*
X431800Y596900D02*
D03*
X419100Y652780D02*
D03*
X393700D02*
D03*
X469900Y647700D02*
D03*
Y622300D02*
D03*
X444500D02*
D03*
X387350Y520700D02*
D03*
X406400D02*
D03*
X444500Y393700D02*
D03*
D32*
X742950Y474380D02*
D03*
X755650D02*
D03*
X742950Y500980D02*
D03*
X755660D02*
D03*
X920750Y474380D02*
D03*
X933450D02*
D03*
X920750Y500980D02*
D03*
X933460D02*
D03*
D33*
X755650Y494080D02*
D03*
Y487680D02*
D03*
Y481280D02*
D03*
X742950D02*
D03*
Y487680D02*
D03*
Y494080D02*
D03*
X933450D02*
D03*
Y487680D02*
D03*
Y481280D02*
D03*
X920750D02*
D03*
Y494080D02*
D03*
Y487680D02*
D03*
D34*
X977900Y416210D02*
D03*
Y404210D02*
D03*
X965200Y451770D02*
D03*
Y439770D02*
D03*
X952500Y416210D02*
D03*
Y404210D02*
D03*
X939800Y451770D02*
D03*
Y439770D02*
D03*
X927100Y416210D02*
D03*
Y404210D02*
D03*
X914400Y451770D02*
D03*
Y439770D02*
D03*
X901700Y416210D02*
D03*
Y404210D02*
D03*
X889000Y451770D02*
D03*
Y439770D02*
D03*
X774700Y416210D02*
D03*
Y404210D02*
D03*
X749300Y416210D02*
D03*
Y404210D02*
D03*
X762000Y451770D02*
D03*
Y439770D02*
D03*
X723900Y416210D02*
D03*
Y404210D02*
D03*
X736600Y451770D02*
D03*
Y439770D02*
D03*
X698500Y416210D02*
D03*
Y404210D02*
D03*
X711200Y451770D02*
D03*
Y439770D02*
D03*
X787400Y451770D02*
D03*
Y439770D02*
D03*
M02*
