%FSLAX44Y44*%
%MOMM*%
%SFA1B1*%

%IPPOS*%
%ADD38R,0.705599X2.555595*%
%ADD39R,1.855596X1.655597*%
%ADD40O,0.705599X2.555595*%
%ADD41R,1.455597X1.355597*%
%ADD42R,1.355597X1.455597*%
%ADD43R,1.305597X1.255597*%
%ADD44R,1.255597X1.305597*%
%ADD45R,2.155596X2.055596*%
%ADD46R,2.055596X2.155596*%
%ADD47O,0.990598X2.387595*%
%ADD48R,0.990598X2.387595*%
%ADD49R,1.655597X1.855596*%
%ADD50R,1.879596X1.879596*%
%ADD51C,1.855596*%
%ADD52R,1.855596X1.855596*%
%ADD53C,1.855596*%
%ADD58C,0.127000*%
%LNu2s_hvpp-1*%
%LPD*%
G54D38*
X650333Y258666D03*
G54D58*
X0Y0D02*
X1021266D01*
Y1015678*
X0*
Y0*
G54D39*
X900523Y122166D03*
Y141166D03*
G54D40*
X643983Y258666D03*
X504284Y160666D03*
X510633D03*
X516983D03*
X523333D03*
X529683D03*
X536033D03*
X542383D03*
X548733D03*
X555083D03*
X561433D03*
X567783D03*
X574133D03*
X580483D03*
X586833D03*
X593183D03*
X599533D03*
X605883D03*
X612233D03*
X618583D03*
X624933D03*
X631283D03*
X637633D03*
X643983D03*
X650333D03*
X504284Y258666D03*
X510633D03*
X516983D03*
X523333D03*
X529683D03*
X536033D03*
X542383D03*
X548733D03*
X555083D03*
X561433D03*
X567783D03*
X574133D03*
X580483D03*
X586833D03*
X593183D03*
X599533D03*
X605883D03*
X612233D03*
X618583D03*
X624933D03*
X631283D03*
X637633D03*
G54D41*
X702793Y179926D03*
X719793D03*
X130514Y417416D03*
X113514D03*
X130514Y442816D03*
X113514D03*
X154154Y417416D03*
X171154D03*
Y442816D03*
X154154D03*
G54D42*
X199484Y272246D03*
Y255246D03*
X100424Y358116D03*
Y375116D03*
X349344Y273516D03*
Y256516D03*
X313784Y373356D03*
Y390356D03*
X583023Y119846D03*
Y102846D03*
G54D43*
X264454Y381856D03*
X289454Y372356D03*
Y391356D03*
G54D44*
X359504Y141626D03*
X350004Y116626D03*
X369004D03*
G54D45*
X196944Y351366D03*
Y381866D03*
G54D46*
X151234Y300576D03*
X120734D03*
G54D47*
X135984Y392016D03*
X123284D03*
X161384Y338676D03*
X148684D03*
X135984D03*
X123284D03*
X148684Y392016D03*
G54D48*
X161384Y392016D03*
G54D49*
X244544Y381856D03*
X225544D03*
X720793Y158336D03*
X701793D03*
G54D50*
X47084Y480916D03*
Y455516D03*
X377284Y480916D03*
Y455516D03*
X770983D03*
Y480916D03*
X440784D03*
Y455516D03*
G54D51*
X631283Y442816D03*
X605883Y87216D03*
X732883Y442816D03*
Y417416D03*
X707483Y442816D03*
Y417416D03*
X682083Y442816D03*
Y417416D03*
X656683Y442816D03*
Y417416D03*
X758283Y163416D03*
Y87216D03*
X555083D03*
X758283Y61816D03*
X555083D03*
X936083Y455516D03*
X961483D03*
X936083Y430116D03*
X961483D03*
X936083Y404716D03*
X961483D03*
X936083Y379316D03*
X961483D03*
X936083Y353916D03*
X847183Y138016D03*
X872583Y163416D03*
X847183D03*
X872583Y188816D03*
X847183D03*
X872583Y214216D03*
X847183D03*
X872583Y239616D03*
X847183D03*
X872583Y265016D03*
X847183D03*
X872583Y290416D03*
X847183D03*
X872583Y315816D03*
X847183D03*
X872583Y341216D03*
X847183D03*
X872583Y366616D03*
X847183D03*
X529683Y87216D03*
Y61816D03*
X478884Y87216D03*
X453484D03*
X961483Y201516D03*
X936083Y303116D03*
X961483D03*
X936083Y277716D03*
X961483D03*
X936083Y252316D03*
Y99916D03*
X961483D03*
X936083Y74516D03*
X961483D03*
X936083Y49116D03*
Y201516D03*
Y176116D03*
X961483D03*
X936083Y150716D03*
X453484Y188816D03*
X313784Y290416D03*
Y265016D03*
X288384Y290416D03*
X110584Y188816D03*
X135984Y163416D03*
Y188816D03*
X161384Y163416D03*
Y188816D03*
X186784Y163416D03*
Y188816D03*
X212184Y163416D03*
Y188816D03*
X237584Y163416D03*
Y188816D03*
X262984Y163416D03*
Y188816D03*
X288384Y163416D03*
Y188816D03*
X313784Y163416D03*
Y188816D03*
X339184Y163416D03*
Y188816D03*
X364584Y87216D03*
Y61816D03*
X339184Y87216D03*
Y61816D03*
X313784Y87216D03*
Y61816D03*
X288384Y87216D03*
Y61816D03*
X262984Y87216D03*
X161384D03*
Y61816D03*
X135984Y87216D03*
Y61816D03*
X110584Y87216D03*
Y61816D03*
X85184Y87216D03*
Y61816D03*
X59784Y87216D03*
X478884Y61816D03*
X504284D03*
Y87216D03*
X656683D03*
X682083Y61816D03*
Y87216D03*
X707483Y61816D03*
Y87216D03*
X732883Y61816D03*
Y87216D03*
X682083Y290416D03*
X707483Y265016D03*
Y290416D03*
Y353916D03*
Y328516D03*
X682083Y353916D03*
Y328516D03*
X656683Y353916D03*
Y328516D03*
X631283Y353916D03*
Y328516D03*
X605883Y353916D03*
Y328516D03*
X580483Y353916D03*
Y328516D03*
X555083Y353916D03*
Y328516D03*
X529683Y353916D03*
Y328516D03*
X504284Y353916D03*
Y328516D03*
X478884Y353916D03*
G54D52*
X631283Y417416D03*
X605883Y61816D03*
X758283Y138016D03*
X961483Y353916D03*
X872583Y138016D03*
X453484Y61816D03*
X961483Y252316D03*
Y49116D03*
Y150716D03*
X453484Y214216D03*
X288384Y265016D03*
X110584Y163416D03*
X262984Y61816D03*
X59784D03*
X656683D03*
X478884Y328516D03*
G54D53*
X682083Y265016D03*
G54D38*
X650333Y756505D03*
G54D39*
X900523Y620004D03*
Y639004D03*
G54D40*
X643983Y756505D03*
X504284Y658504D03*
X510633D03*
X516983D03*
X523333D03*
X529683D03*
X536033D03*
X542383D03*
X548733D03*
X555083D03*
X561433D03*
X567783D03*
X574133D03*
X580483D03*
X586833D03*
X593183D03*
X599533D03*
X605883D03*
X612233D03*
X618583D03*
X624933D03*
X631283D03*
X637633D03*
X643983D03*
X650333D03*
X504284Y756505D03*
X510633D03*
X516983D03*
X523333D03*
X529683D03*
X536033D03*
X542383D03*
X548733D03*
X555083D03*
X561433D03*
X567783D03*
X574133D03*
X580483D03*
X586833D03*
X593183D03*
X599533D03*
X605883D03*
X612233D03*
X618583D03*
X624933D03*
X631283D03*
X637633D03*
G54D41*
X702793Y677765D03*
X719793D03*
X130514Y915255D03*
X113514D03*
X130514Y940655D03*
X113514D03*
X154154Y915255D03*
X171154D03*
Y940655D03*
X154154D03*
G54D42*
X199484Y770084D03*
Y753084D03*
X100424Y855954D03*
Y872954D03*
X349344Y771354D03*
Y754354D03*
X313784Y871194D03*
Y888194D03*
X583023Y617684D03*
Y600684D03*
G54D43*
X264454Y879695D03*
X289454Y870194D03*
Y889194D03*
G54D44*
X359504Y639464D03*
X350004Y614464D03*
X369004D03*
G54D45*
X196944Y849204D03*
Y879704D03*
G54D46*
X151234Y798415D03*
X120734D03*
G54D47*
X135984Y889855D03*
X123284D03*
X161384Y836515D03*
X148684D03*
X135984D03*
X123284D03*
X148684Y889855D03*
G54D48*
X161384Y889855D03*
G54D49*
X244544Y879695D03*
X225544D03*
X720793Y656175D03*
X701793D03*
G54D50*
X47084Y978755D03*
Y953355D03*
X377284Y978755D03*
Y953355D03*
X770983D03*
Y978755D03*
X440784D03*
Y953355D03*
G54D51*
X631283Y940655D03*
X605883Y585055D03*
X732883Y940655D03*
Y915255D03*
X707483Y940655D03*
Y915255D03*
X682083Y940655D03*
Y915255D03*
X656683Y940655D03*
Y915255D03*
X758283Y661255D03*
Y585055D03*
X555083D03*
X758283Y559655D03*
X555083D03*
X936083Y953355D03*
X961483D03*
X936083Y927955D03*
X961483D03*
X936083Y902555D03*
X961483D03*
X936083Y877155D03*
X961483D03*
X936083Y851755D03*
X847183Y635855D03*
X872583Y661255D03*
X847183D03*
X872583Y686655D03*
X847183D03*
X872583Y712055D03*
X847183D03*
X872583Y737455D03*
X847183D03*
X872583Y762855D03*
X847183D03*
X872583Y788255D03*
X847183D03*
X872583Y813655D03*
X847183D03*
X872583Y839055D03*
X847183D03*
X872583Y864455D03*
X847183D03*
X529683Y585055D03*
Y559655D03*
X478884Y585055D03*
X453484D03*
X961483Y699355D03*
X936083Y800955D03*
X961483D03*
X936083Y775555D03*
X961483D03*
X936083Y750155D03*
Y597755D03*
X961483D03*
X936083Y572355D03*
X961483D03*
X936083Y546955D03*
Y699355D03*
Y673955D03*
X961483D03*
X936083Y648555D03*
X453484Y686655D03*
X313784Y788255D03*
Y762855D03*
X288384Y788255D03*
X110584Y686655D03*
X135984Y661255D03*
Y686655D03*
X161384Y661255D03*
Y686655D03*
X186784Y661255D03*
Y686655D03*
X212184Y661255D03*
Y686655D03*
X237584Y661255D03*
Y686655D03*
X262984Y661255D03*
Y686655D03*
X288384Y661255D03*
Y686655D03*
X313784Y661255D03*
Y686655D03*
X339184Y661255D03*
Y686655D03*
X364584Y585055D03*
Y559655D03*
X339184Y585055D03*
Y559655D03*
X313784Y585055D03*
Y559655D03*
X288384Y585055D03*
Y559655D03*
X262984Y585055D03*
X161384D03*
Y559655D03*
X135984Y585055D03*
Y559655D03*
X110584Y585055D03*
Y559655D03*
X85184Y585055D03*
Y559655D03*
X59784Y585055D03*
X478884Y559655D03*
X504284D03*
Y585055D03*
X656683D03*
X682083Y559655D03*
Y585055D03*
X707483Y559655D03*
Y585055D03*
X732883Y559655D03*
Y585055D03*
X682083Y788255D03*
X707483Y762855D03*
Y788255D03*
Y851755D03*
Y826355D03*
X682083Y851755D03*
Y826355D03*
X656683Y851755D03*
Y826355D03*
X631283Y851755D03*
Y826355D03*
X605883Y851755D03*
Y826355D03*
X580483Y851755D03*
Y826355D03*
X555083Y851755D03*
Y826355D03*
X529683Y851755D03*
Y826355D03*
X504284Y851755D03*
Y826355D03*
X478884Y851755D03*
G54D52*
X631283Y915255D03*
X605883Y559655D03*
X758283Y635855D03*
X961483Y851755D03*
X872583Y635855D03*
X453484Y559655D03*
X961483Y750155D03*
Y546955D03*
Y648555D03*
X453484Y712055D03*
X288384Y762855D03*
X110584Y661255D03*
X262984Y559655D03*
X59784D03*
X656683D03*
X478884Y826355D03*
G54D53*
X682083Y762855D03*
M02*