%FSLAX44Y44*%
%MOMM*%
%SFA1B1*%

%IPPOS*%
%ADD10C,0.253999*%
%ADD36C,0.200000*%
%ADD37C,0.203200*%
%ADD58C,0.127000*%
%LNu2s_hvpp-1*%
%LPD*%
G54D10*
X167734Y368521D02*
D01*
X167513Y368513*
X167292Y368490*
X167074Y368451*
X166859Y368398*
X166648Y368329*
X166442Y368246*
X166243Y368149*
X166052Y368038*
X165868Y367914*
X165693Y367778*
X165528Y367630*
X165374Y367470*
X165232Y367301*
X165102Y367121*
X164984Y366933*
X164880Y366738*
X164790Y366535*
X164714Y366327*
X164653Y366114*
X164607Y365897*
X164576Y365678*
X164561Y365457*
Y365235*
X164576Y365014*
X164607Y364795*
X164653Y364578*
X164714Y364365*
X164790Y364157*
X164880Y363954*
X164984Y363758*
X165102Y363571*
X165232Y363391*
X165374Y363221*
X165528Y363062*
X165693Y362914*
X165868Y362777*
X166052Y362653*
X166243Y362543*
X166442Y362445*
X166648Y362362*
X166859Y362294*
X167074Y362240*
X167292Y362202*
X167513Y362179*
X167734Y362171*
G54D58*
X0Y0D02*
X1021266D01*
Y1015678*
X0*
Y0*
G54D10*
X669383Y379316D02*
X720183D01*
Y404716*
X669383Y366616D02*
Y404716D01*
X567783Y392016D02*
X669383D01*
X116934Y370426D02*
X167734D01*
Y368521D02*
Y372966D01*
Y357726D02*
Y362171D01*
X116934Y357726D02*
X167734D01*
X116934D02*
Y372966D01*
X167734*
X567783Y366616D02*
Y392016D01*
X466184D02*
X567783D01*
X466184Y366616D02*
Y392016D01*
X755740Y196431D02*
X745583D01*
Y188814*
X750661Y191353*
X753200*
X755740Y188814*
Y183735*
X753200Y181196*
X748122*
X745583Y183735*
X760818Y196431D02*
Y186274D01*
X765896Y181196*
X770975Y186274*
Y196431*
X897988Y386933D02*
Y381854D01*
Y384393*
X910684*
X913223Y381854*
Y379315*
X910684Y376776*
X897988Y392011D02*
Y402168D01*
Y397089*
X913223*
Y407246D02*
X903066D01*
X897988Y412324*
X903066Y417403*
X913223*
X905605*
Y407246*
X900527Y432638D02*
X897988Y430099D01*
Y425020*
X900527Y422481*
X910684*
X913223Y425020*
Y430099*
X910684Y432638*
X905605*
Y427560*
X897988Y158336D02*
Y168493D01*
Y163414*
X913223*
Y173571D02*
X897988D01*
Y181189*
X900527Y183728*
X905605*
X908145Y181189*
Y173571*
X897988Y188806D02*
Y193884D01*
Y191345*
X913223*
Y188806*
Y193884*
Y56736D02*
X897988D01*
Y64354*
X900527Y66893*
X905605*
X908145Y64354*
Y56736*
X897988Y71971D02*
X913223D01*
Y79589*
X910684Y82128*
X900527*
X897988Y79589*
Y71971*
Y87206D02*
Y92284D01*
Y89745*
X913223*
Y87206*
Y92284*
X897988Y262476D02*
Y267554D01*
Y265015*
X913223*
Y262476*
Y267554*
X900527Y285329D02*
X897988Y282789D01*
Y277711*
X900527Y275172*
X903066*
X905605Y277711*
Y282789*
X908145Y285329*
X910684*
X913223Y282789*
Y277711*
X910684Y275172*
X913223Y290407D02*
X897988D01*
Y298025*
X900527Y300564*
X905605*
X908145Y298025*
Y290407*
X322671Y124045D02*
Y134202D01*
X320132Y136741*
X315053*
X312514Y134202*
Y124045*
X315053Y121506*
X320132*
X317592Y126584D02*
X322671Y121506D01*
X320132D02*
X322671Y124045D01*
X327749Y121506D02*
X332827D01*
X330288*
Y136741*
X327749Y134202*
X213454Y257396D02*
Y272631D01*
X221071*
X223611Y270092*
Y265013*
X221071Y262474*
X213454*
X218532D02*
X223611Y257396D01*
X236307D02*
Y272631D01*
X228689Y265013*
X238846*
X59784Y399631D02*
Y386935D01*
X62323Y384396*
X67402*
X69941Y386935*
Y399631*
X75019Y384396D02*
X80097D01*
X77558*
Y399631*
X75019Y397092*
X82641Y305652D02*
X80101Y308191D01*
X75023*
X72484Y305652*
Y295495*
X75023Y292956*
X80101*
X82641Y295495*
X87719Y292956D02*
X92797D01*
X90258*
Y308191*
X87719Y305652*
X194401Y328512D02*
X191862Y331051D01*
X186783*
X184244Y328512*
Y318355*
X186783Y315816*
X191862*
X194401Y318355*
X209636Y315816D02*
X199479D01*
X209636Y325973*
Y328512*
X207097Y331051*
X202018*
X199479Y328512*
X69941Y369152D02*
X67402Y371691D01*
X62323*
X59784Y369152*
Y358995*
X62323Y356456*
X67402*
X69941Y358995*
X75019Y369152D02*
X77558Y371691D01*
X82637*
X85176Y369152*
Y366613*
X82637Y364074*
X80097*
X82637*
X85176Y361534*
Y358995*
X82637Y356456*
X77558*
X75019Y358995*
X226154Y398366D02*
Y413601D01*
X233771*
X236311Y411062*
Y405984*
X233771Y403444*
X226154*
X231232D02*
X236311Y398366D01*
X241389D02*
X246467D01*
X243928*
Y413601*
X241389Y411062*
X301084Y403446D02*
Y418681D01*
X308701*
X311241Y416142*
Y411063*
X308701Y408524*
X301084*
X306162D02*
X311241Y403446D01*
X326476D02*
X316319D01*
X326476Y413603*
Y416142*
X323937Y418681*
X318858*
X316319Y416142*
X363314Y258666D02*
Y273901D01*
X370931*
X373471Y271362*
Y266283*
X370931Y263744*
X363314*
X368392D02*
X373471Y258666D01*
X378549Y271362D02*
X381088Y273901D01*
X386167*
X388706Y271362*
Y268823*
X386167Y266283*
X383627*
X386167*
X388706Y263744*
Y261205*
X386167Y258666*
X381088*
X378549Y261205*
X273141Y343755D02*
Y353912D01*
X270601Y356451*
X265523*
X262984Y353912*
Y343755*
X265523Y341216*
X270601*
X268062Y346294D02*
X273141Y341216D01*
X270601D02*
X273141Y343755D01*
X288376Y341216D02*
X278219D01*
X288376Y351373*
Y353912*
X285837Y356451*
X280758*
X278219Y353912*
X81371Y422492D02*
X78832Y425031D01*
X73753*
X71214Y422492*
Y412335*
X73753Y409796*
X78832*
X81371Y412335*
X94067Y409796D02*
Y425031D01*
X86449Y417414*
X96606*
X81371Y447892D02*
X78832Y450431D01*
X73753*
X71214Y447892*
Y437735*
X73753Y435196*
X78832*
X81371Y437735*
X96606Y450431D02*
X86449D01*
Y442814*
X91527Y445353*
X94067*
X96606Y442814*
Y437735*
X94067Y435196*
X88988*
X86449Y437735*
X198211Y422492D02*
X195671Y425031D01*
X190593*
X188054Y422492*
Y412335*
X190593Y409796*
X195671*
X198211Y412335*
X213446Y425031D02*
X208367Y422492D01*
X203289Y417414*
Y412335*
X205828Y409796*
X210907*
X213446Y412335*
Y414874*
X210907Y417414*
X203289*
X198211Y447892D02*
X195671Y450431D01*
X190593*
X188054Y447892*
Y437735*
X190593Y435196*
X195671*
X198211Y437735*
X203289Y450431D02*
X213446D01*
Y447892*
X203289Y437735*
Y435196*
X454754Y425031D02*
X464911D01*
X459832*
Y409796*
X469989Y419953D02*
Y409796D01*
Y414874*
X472528Y417414*
X475067Y419953*
X477607*
X487763D02*
X492842D01*
X495381Y417414*
Y409796*
X487763*
X485224Y412335*
X487763Y414874*
X495381*
X500459Y409796D02*
Y419953D01*
X508077*
X510616Y417414*
Y409796*
X515693D02*
X523311D01*
X525850Y412335*
X523311Y414874*
X518233*
X515693Y417414*
X518233Y419953*
X525850*
X530928Y409796D02*
X536007D01*
X533467*
Y425031*
X530928*
X546163Y419953D02*
X551242D01*
X553781Y417414*
Y409796*
X546163*
X543624Y412335*
X546163Y414874*
X553781*
X561398Y422492D02*
Y419953D01*
X558859*
X563938*
X561398*
Y412335*
X563938Y409796*
X574094D02*
X579173D01*
X581712Y412335*
Y417414*
X579173Y419953*
X574094*
X571555Y417414*
Y412335*
X574094Y409796*
X586790Y419953D02*
Y409796D01*
Y414874*
X589329Y417414*
X591869Y419953*
X594408*
X456024Y450431D02*
Y435196D01*
X466181*
X478877D02*
X473798D01*
X471259Y437735*
Y442814*
X473798Y445353*
X478877*
X481416Y442814*
Y440274*
X471259*
X486494Y445353D02*
X491573Y435196D01*
X496651Y445353*
X509347Y435196D02*
X504268D01*
X501729Y437735*
Y442814*
X504268Y445353*
X509347*
X511885Y442814*
Y440274*
X501729*
X516963Y435196D02*
X522042D01*
X519503*
Y450431*
X516963*
X683353Y231996D02*
Y247231D01*
X690970*
X693510Y244692*
Y239613*
X690970Y237074*
X683353*
X708745Y244692D02*
X706206Y247231D01*
X701127*
X698588Y244692*
Y234535*
X701127Y231996*
X706206*
X708745Y234535*
X682083Y384396D02*
Y399631D01*
X689700*
X692240Y397092*
Y392014*
X689700Y389474*
X682083*
X707475Y397092D02*
X704936Y399631D01*
X699857*
X697318Y397092*
Y386935*
X699857Y384396*
X704936*
X707475Y386935*
X694783Y106266D02*
Y121501D01*
X702401*
X704940Y118962*
Y113884*
X702401Y111344*
X694783*
X710018Y121501D02*
Y106266D01*
X717636*
X720175Y108805*
Y111344*
X717636Y113884*
X710018*
X717636*
X720175Y116423*
Y118962*
X717636Y121501*
X710018*
X491584Y106266D02*
Y121501D01*
X499202*
X501741Y118962*
Y113884*
X499202Y111344*
X491584*
X506819Y121501D02*
Y106266D01*
X514436*
X516975Y108805*
Y118962*
X514436Y121501*
X506819*
X605883Y371696D02*
Y386931D01*
X613501*
X616040Y384392*
Y379314*
X613501Y376774*
X605883*
X621118Y386931D02*
Y371696D01*
X628736*
X631275Y374235*
Y376774*
X628736Y379314*
X621118*
X628736*
X631275Y381853*
Y384392*
X628736Y386931*
X621118*
X504284Y371696D02*
Y386931D01*
X511900*
X514440Y384392*
Y379314*
X511900Y376774*
X504284*
X519518Y386931D02*
Y371696D01*
X527136*
X529675Y374235*
Y384392*
X527136Y386931*
X519518*
X831948Y61816D02*
X844644D01*
X847183Y64355*
Y69434*
X844644Y71973*
X831948*
X847183Y87208D02*
Y77051D01*
X837026Y87208*
X834487*
X831948Y84669*
Y79590*
X834487Y77051*
Y102443D02*
X831948Y99904D01*
Y94825*
X834487Y92286*
X837026*
X839566Y94825*
Y99904*
X842105Y102443*
X844644*
X847183Y99904*
Y94825*
X844644Y92286*
X456024Y475831D02*
Y463135D01*
X458563Y460596*
X463642*
X466181Y463135*
Y475831*
X481416Y460596D02*
X471259D01*
X481416Y470753*
Y473292*
X478877Y475831*
X473798*
X471259Y473292*
X496651D02*
X494112Y475831D01*
X489033*
X486494Y473292*
Y470753*
X489033Y468214*
X494112*
X496651Y465674*
Y463135*
X494112Y460596*
X489033*
X486494Y463135*
X516963Y475831D02*
X527120Y460596D01*
Y475831D02*
X516963Y460596D01*
X532198Y475831D02*
Y460596D01*
X542355*
X547433Y475831D02*
X557590D01*
X552512*
Y460596*
X577904Y475831D02*
Y465674D01*
X582982Y460596*
X588060Y465674*
Y475831*
X600756Y460596D02*
X595678D01*
X593139Y463135*
Y468214*
X595678Y470753*
X600756*
X603295Y468214*
Y465674*
X593139*
X608374Y470753D02*
Y460596D01*
Y465674*
X610913Y468214*
X613452Y470753*
X615991*
X623609Y460596D02*
X631226D01*
X633766Y463135*
X631226Y465674*
X626148*
X623609Y468214*
X626148Y470753*
X633766*
X638844Y460596D02*
X643922D01*
X641383*
Y470753*
X638844*
X654079Y460596D02*
X659157D01*
X661696Y463135*
Y468214*
X659157Y470753*
X654079*
X651540Y468214*
Y463135*
X654079Y460596*
X666775D02*
Y470753D01*
X674392*
X676931Y468214*
Y460596*
X697245D02*
X702323D01*
X699784*
Y475831*
X697245Y473292*
X709941Y460596D02*
Y463135D01*
X712480*
Y460596*
X709941*
X722637Y473292D02*
X725176Y475831D01*
X730254*
X732794Y473292*
Y463135*
X730254Y460596*
X725176*
X722637Y463135*
Y473292*
X737872Y460596D02*
X742950D01*
X740411*
Y475831*
X737872Y473292*
X59784Y475831D02*
Y463135D01*
X62323Y460596*
X67402*
X69941Y463135*
Y475831*
X85176Y460596D02*
X75019D01*
X85176Y470753*
Y473292*
X82637Y475831*
X77558*
X75019Y473292*
X100411D02*
X97872Y475831D01*
X92793*
X90254Y473292*
Y470753*
X92793Y468214*
X97872*
X100411Y465674*
Y463135*
X97872Y460596*
X92793*
X90254Y463135*
X120724Y475831D02*
Y460596D01*
Y468214*
X130881*
Y475831*
Y460596*
X135959Y475831D02*
Y465674D01*
X141038Y460596*
X146116Y465674*
Y475831*
X151194Y460596D02*
Y475831D01*
X158812*
X161351Y473292*
Y468214*
X158812Y465674*
X151194*
X166430Y460596D02*
Y475831D01*
X174047*
X176586Y473292*
Y468214*
X174047Y465674*
X166430*
X196900Y475831D02*
Y465674D01*
X201978Y460596*
X207056Y465674*
Y475831*
X219752Y460596D02*
X214674D01*
X212135Y463135*
Y468214*
X214674Y470753*
X219752*
X222291Y468214*
Y465674*
X212135*
X227370Y470753D02*
Y460596D01*
Y465674*
X229909Y468214*
X232448Y470753*
X234987*
X242605Y460596D02*
X250222D01*
X252762Y463135*
X250222Y465674*
X245144*
X242605Y468214*
X245144Y470753*
X252762*
X257840Y460596D02*
X262918D01*
X260379*
Y470753*
X257840*
X273075Y460596D02*
X278153D01*
X280693Y463135*
Y468214*
X278153Y470753*
X273075*
X270536Y468214*
Y463135*
X273075Y460596*
X285771D02*
Y470753D01*
X293388*
X295928Y468214*
Y460596*
X316241D02*
X321319D01*
X318780*
Y475831*
X316241Y473292*
X328937Y460596D02*
Y463135D01*
X331476*
Y460596*
X328937*
X341633Y473292D02*
X344172Y475831D01*
X349250*
X351789Y473292*
Y463135*
X349250Y460596*
X344172*
X341633Y463135*
Y473292*
X356868Y460596D02*
X361946D01*
X359407*
Y475831*
X356868Y473292*
G54D36*
X653508Y211253D02*
D01*
X653397Y211249*
X653287Y211237*
X653178Y211218*
X653070Y211191*
X652965Y211157*
X652862Y211116*
X652763Y211067*
X652667Y211012*
X652575Y210950*
X652487Y210881*
X652405Y210808*
X652328Y210728*
X652257Y210643*
X652192Y210553*
X652133Y210459*
X652081Y210362*
X652036Y210260*
X651998Y210156*
X651968Y210050*
X651945Y209941*
X651929Y209832*
X651922Y209721*
Y209610*
X651929Y209500*
X651945Y209390*
X651968Y209282*
X651998Y209175*
X652036Y209071*
X652081Y208970*
X652133Y208872*
X652192Y208778*
X652257Y208689*
X652328Y208604*
X652405Y208524*
X652487Y208450*
X652575Y208382*
X652667Y208320*
X652763Y208265*
X652862Y208216*
X652965Y208175*
X653070Y208140*
X653178Y208114*
X653287Y208094*
X653397Y208083*
X653508Y208078*
X593183Y99916D02*
X618583D01*
Y49116D02*
Y99916D01*
X593183Y49116D02*
X618583D01*
X593183D02*
Y99916D01*
X618583Y404716D02*
X745583D01*
X618583Y455516D02*
X745583D01*
X618583Y404716D02*
Y455516D01*
X745583Y404716D02*
Y455516D01*
Y176116D02*
X770983D01*
Y125316D02*
Y176116D01*
X745583Y125316D02*
X770983D01*
X745583D02*
Y176116D01*
X974183Y341216D02*
Y468216D01*
X923383Y341216D02*
Y468216D01*
Y341216D02*
X974183D01*
X923383Y468216D02*
X974183D01*
X889023Y151666D02*
X912023D01*
X889023Y111666D02*
X912023D01*
X889023Y135666D02*
Y151666D01*
X912023Y135666D02*
Y151666D01*
Y111666D02*
Y127666D01*
X889023Y111666D02*
Y127666D01*
X834483Y379316D02*
X885283D01*
Y125316D02*
Y144366D01*
X834483Y125316D02*
X885283D01*
X834483D02*
Y144366D01*
Y379316*
X885283Y144366D02*
Y379316D01*
X974183Y267133D02*
Y315816D01*
Y239616D02*
Y315816D01*
X923383Y239616D02*
Y315816D01*
Y239616D02*
X974183D01*
X923383Y315816D02*
X974183D01*
Y63933D02*
Y112616D01*
Y36416D02*
Y112616D01*
X923383Y36416D02*
Y112616D01*
Y36416D02*
X974183D01*
X923383Y112616D02*
X974183D01*
Y165533D02*
Y214216D01*
Y138016D02*
Y214216D01*
X923383Y138016D02*
Y214216D01*
Y138016D02*
X974183D01*
X923383Y214216D02*
X974183D01*
X440784Y176116D02*
X466184D01*
X440784D02*
Y226916D01*
X466184*
Y176116D02*
Y226916D01*
X715293Y170926D02*
X729293D01*
X715293Y188926D02*
X729293D01*
X693293D02*
X707293D01*
X693293Y170926D02*
X707293D01*
X729293D02*
Y188926D01*
X693293Y170926D02*
Y188926D01*
X275684Y303116D02*
X326484D01*
X275684Y252316D02*
Y303116D01*
X326484Y252316D02*
Y303116D01*
X275684Y252316D02*
X326484D01*
X351884Y150716D02*
Y201516D01*
X97884Y150716D02*
X116934D01*
X97884D02*
Y201516D01*
X116934*
X351884*
X116934Y150716D02*
X351884D01*
X250284Y49116D02*
X377284D01*
X250284Y99916D02*
X377284D01*
X250284Y49116D02*
Y99916D01*
X377284Y49116D02*
Y99916D01*
X47084Y49116D02*
X174084D01*
X47084Y99916D02*
X174084D01*
X47084Y49116D02*
Y99916D01*
X174084Y49116D02*
Y99916D01*
X260954Y361856D02*
X292954D01*
X260954D02*
Y373856D01*
Y401856D02*
X292954D01*
X260954Y389856D02*
Y401856D01*
X339504Y113126D02*
Y145126D01*
X351504*
X379504Y113126D02*
Y145126D01*
X367504D02*
X379504D01*
X91424Y384616D02*
X109424D01*
X91424Y348616D02*
X109424D01*
X91424Y370616D02*
Y384616D01*
X109424Y370616D02*
Y384616D01*
Y348616D02*
Y362616D01*
X91424Y348616D02*
Y362616D01*
X182944Y395616D02*
X210944D01*
X182944Y397616D02*
X210944D01*
X182944D02*
Y373616D01*
X210944Y397616D02*
Y373616D01*
X182944Y337616D02*
X210944D01*
X182944D02*
Y359616D01*
X210944Y337616D02*
Y359616D01*
X106984Y286576D02*
Y314576D01*
X104984Y286576D02*
Y314576D01*
Y286576D02*
X128984D01*
X104984Y314576D02*
X128984D01*
X164984Y286576D02*
Y314576D01*
X142984Y286576D02*
X164984D01*
X142984Y314576D02*
X164984D01*
X190484Y281746D02*
X208484D01*
X190484Y245746D02*
X208484D01*
X190484Y267746D02*
Y281746D01*
X208484Y267746D02*
Y281746D01*
Y245746D02*
Y259746D01*
X190484Y245746D02*
Y259746D01*
X340344Y247016D02*
X358344D01*
X340344Y283016D02*
X358344D01*
Y247016D02*
Y261016D01*
X340344Y247016D02*
Y261016D01*
Y269016D02*
Y283016D01*
X358344Y269016D02*
Y283016D01*
X304784Y399856D02*
X322784D01*
X304784Y363856D02*
X322784D01*
X304784Y385856D02*
Y399856D01*
X322784Y385856D02*
Y399856D01*
Y363856D02*
Y377856D01*
X304784Y363856D02*
Y377856D01*
X215044Y393356D02*
X231044D01*
X215044Y370356D02*
X231044D01*
X239044D02*
X255044D01*
X239044Y393356D02*
X255044D01*
X215044Y370356D02*
Y393356D01*
X255044Y370356D02*
Y393356D01*
X104014Y426416D02*
X118014D01*
X104014Y408416D02*
X118014D01*
X126014D02*
X140014D01*
X126014Y426416D02*
X140014D01*
X104014Y408416D02*
Y426416D01*
X140014Y408416D02*
Y426416D01*
X104014Y451816D02*
X118014D01*
X104014Y433816D02*
X118014D01*
X126014D02*
X140014D01*
X126014Y451816D02*
X140014D01*
X104014Y433816D02*
Y451816D01*
X140014Y433816D02*
Y451816D01*
X166654Y408416D02*
X180654D01*
X166654Y426416D02*
X180654D01*
X144654D02*
X158654D01*
X144654Y408416D02*
X158654D01*
X180654D02*
Y426416D01*
X144654Y408416D02*
Y426416D01*
Y451816D02*
X158654D01*
X144654Y433816D02*
X158654D01*
X166654D02*
X180654D01*
X166654Y451816D02*
X180654D01*
X144654Y433816D02*
Y451816D01*
X180654Y433816D02*
Y451816D01*
X567783Y49116D02*
Y99916D01*
X440784Y49116D02*
Y99916D01*
X567783*
X440784Y49116D02*
X567783D01*
X770983D02*
Y99916D01*
X643983Y49116D02*
Y99916D01*
X770983*
X643983Y49116D02*
X770983D01*
X669383Y252316D02*
X720183D01*
Y303116*
X669383Y252316D02*
Y303116D01*
X720183*
X501109Y239316D02*
X653508D01*
X501109Y180016D02*
Y239316D01*
Y180016D02*
X653508D01*
Y208078*
Y211253D02*
Y239316D01*
X485234Y315816D02*
X720183D01*
X485234Y366616D02*
X720183D01*
X466184D02*
X485234D01*
X466184Y315816D02*
Y366616D01*
Y315816D02*
X485234D01*
X720183D02*
Y366616D01*
X691293Y169836D02*
X707293D01*
X691293Y146836D02*
X707293D01*
X715293D02*
X731293D01*
X715293Y169836D02*
X731293D01*
X691293Y146836D02*
Y169836D01*
X731293Y146836D02*
Y169836D01*
X574023Y93346D02*
X592023D01*
X574023Y129346D02*
X592023D01*
Y93346D02*
Y107346D01*
X574023Y93346D02*
Y107346D01*
Y115346D02*
Y129346D01*
X592023Y115346D02*
Y129346D01*
G54D37*
X748123Y437736D02*
X752355D01*
X750239*
Y450432*
X748123Y448316*
X758703D02*
X760819Y450432D01*
X765051*
X767167Y448316*
Y439852*
X765051Y437736*
X760819*
X758703Y439852*
Y448316*
X748123Y414452D02*
X750239Y412336D01*
X754471*
X756587Y414452*
Y422916*
X754471Y425032*
X750239*
X748123Y422916*
Y420800*
X750239Y418684*
X756587*
X610963Y412336D02*
X615195D01*
X613079*
Y425032*
X610963Y422916*
X614347Y437736D02*
X605883D01*
X614347Y446200*
Y448316*
X612231Y450432*
X607999*
X605883Y448316*
X941163Y470756D02*
Y474988D01*
Y472872*
X928467*
X930583Y470756*
Y481336D02*
X928467Y483452D01*
Y487684*
X930583Y489800*
X939047*
X941163Y487684*
Y483452*
X939047Y481336*
X930583*
X964447Y470756D02*
X966563Y472872D01*
Y477104*
X964447Y479220*
X955983*
X953867Y477104*
Y472872*
X955983Y470756*
X958099*
X960215Y472872*
Y479220*
X966563Y333596D02*
Y337828D01*
Y335712*
X953867*
X955983Y333596*
X941163Y336980D02*
Y328516D01*
X932699Y336980*
X930583*
X928467Y334864*
Y330632*
X930583Y328516*
X852263Y390320D02*
Y381856D01*
X843799Y390320*
X841683*
X839567Y388204*
Y383972*
X841683Y381856*
Y394552D02*
X839567Y396668D01*
Y400900*
X841683Y403016*
X850147*
X852263Y400900*
Y396668*
X850147Y394552*
X841683*
X877663Y381856D02*
Y386088D01*
Y383972*
X864967*
X867083Y381856*
X875547Y392436D02*
X877663Y394552D01*
Y398784*
X875547Y400900*
X867083*
X864967Y398784*
Y394552*
X867083Y392436*
X869199*
X871315Y394552*
Y400900*
X877663Y112616D02*
Y116848D01*
Y114732*
X864967*
X867083Y112616*
X852263Y121080D02*
Y112616D01*
X843799Y121080*
X841683*
X839567Y118964*
Y114732*
X841683Y112616*
X966563Y231996D02*
Y236228D01*
Y234112*
X953867*
X955983Y231996*
X941163Y235380D02*
Y226916D01*
X932699Y235380*
X930583*
X928467Y233264*
Y229032*
X930583Y226916*
X953867Y326820D02*
Y318356D01*
X960215*
X958099Y322588*
Y324704*
X960215Y326820*
X964447*
X966563Y324704*
Y320472*
X964447Y318356*
X928467Y326820D02*
X930583Y322588D01*
X934815Y318356*
X939047*
X941163Y320472*
Y324704*
X939047Y326820*
X936931*
X934815Y324704*
Y318356*
X966563Y28796D02*
Y33028D01*
Y30912*
X953867*
X955983Y28796*
X941163Y32180D02*
Y23716D01*
X932699Y32180*
X930583*
X928467Y30064*
Y25832*
X930583Y23716*
X953867Y123620D02*
Y115156D01*
X960215*
X958099Y119388*
Y121504*
X960215Y123620*
X964447*
X966563Y121504*
Y117272*
X964447Y115156*
X928467Y123620D02*
X930583Y119388D01*
X934815Y115156*
X939047*
X941163Y117272*
Y121504*
X939047Y123620*
X936931*
X934815Y121504*
Y115156*
X966563Y130396D02*
Y134628D01*
Y132512*
X953867*
X955983Y130396*
X941163Y133780D02*
Y125316D01*
X932699Y133780*
X930583*
X928467Y131664*
Y127432*
X930583Y125316*
X953867Y225220D02*
Y216756D01*
X960215*
X958099Y220988*
Y223104*
X960215Y225220*
X964447*
X966563Y223104*
Y218872*
X964447Y216756*
X928467Y225220D02*
X930583Y220988D01*
X934815Y216756*
X939047*
X941163Y218872*
Y223104*
X939047Y225220*
X936931*
X934815Y223104*
Y216756*
X268064Y259936D02*
X272296D01*
X270180*
Y272632*
X268064Y270516*
X271448Y285336D02*
X262984D01*
X271448Y293800*
Y295916*
X269332Y298032*
X265100*
X262984Y295916*
X335372Y285336D02*
Y298032D01*
X329024Y291684*
X337488*
X329024Y270516D02*
X331140Y272632D01*
X335372*
X337488Y270516*
Y268400*
X335372Y266284*
X333256*
X335372*
X337488Y264168*
Y262052*
X335372Y259936*
X331140*
X329024Y262052*
X362888Y183736D02*
X354424D01*
X362888Y192200*
Y194316*
X360772Y196432*
X356540*
X354424Y194316*
X367120D02*
X369236Y196432D01*
X373468*
X375584Y194316*
Y185852*
X373468Y183736*
X369236*
X367120Y185852*
Y194316*
X354424Y158336D02*
X358656D01*
X356540*
Y171032*
X354424Y168916*
X365004Y160452D02*
X367120Y158336D01*
X371352*
X373468Y160452*
Y168916*
X371352Y171032*
X367120*
X365004Y168916*
Y166800*
X367120Y164684*
X373468*
X85184Y158336D02*
X89416D01*
X87300*
Y171032*
X85184Y168916*
X93648Y183736D02*
X85184D01*
X93648Y192200*
Y194316*
X91532Y196432*
X87300*
X85184Y194316*
X379824Y82136D02*
X384056D01*
X381940*
Y94832*
X379824Y92716*
X390404D02*
X392520Y94832D01*
X396752*
X398868Y92716*
Y84252*
X396752Y82136*
X392520*
X390404Y84252*
Y92716*
X379824Y58852D02*
X381940Y56736D01*
X386172*
X388288Y58852*
Y67316*
X386172Y69432*
X381940*
X379824Y67316*
Y65200*
X381940Y63084*
X388288*
X242664Y56736D02*
X246896D01*
X244780*
Y69432*
X242664Y67316*
X246048Y82136D02*
X237584D01*
X246048Y90600*
Y92716*
X243932Y94832*
X239700*
X237584Y92716*
X176624Y82136D02*
X180856D01*
X178740*
Y94832*
X176624Y92716*
X187204D02*
X189320Y94832D01*
X193552*
X195668Y92716*
Y84252*
X193552Y82136*
X189320*
X187204Y84252*
Y92716*
X176624Y58852D02*
X178740Y56736D01*
X182972*
X185088Y58852*
Y67316*
X182972Y69432*
X178740*
X176624Y67316*
Y65200*
X178740Y63084*
X185088*
X39464Y56736D02*
X43696D01*
X41580*
Y69432*
X39464Y67316*
X42848Y82136D02*
X34384D01*
X42848Y90600*
Y92716*
X40732Y94832*
X36500*
X34384Y92716*
X436548Y82136D02*
X428084D01*
X436548Y90600*
Y92716*
X434432Y94832*
X430200*
X428084Y92716*
X433164Y56736D02*
X437396D01*
X435280*
Y69432*
X433164Y67316*
X570323Y58852D02*
X572439Y56736D01*
X576671*
X578787Y58852*
Y67316*
X576671Y69432*
X572439*
X570323Y67316*
Y65200*
X572439Y63084*
X578787*
X570323Y82136D02*
X574555D01*
X572439*
Y94832*
X570323Y92716*
X580903D02*
X583019Y94832D01*
X587251*
X589367Y92716*
Y84252*
X587251Y82136*
X583019*
X580903Y84252*
Y92716*
X639747Y82136D02*
X631283D01*
X639747Y90600*
Y92716*
X637631Y94832*
X633399*
X631283Y92716*
X636363Y56736D02*
X640595D01*
X638479*
Y69432*
X636363Y67316*
X773523Y58852D02*
X775639Y56736D01*
X779871*
X781987Y58852*
Y67316*
X779871Y69432*
X775639*
X773523Y67316*
Y65200*
X775639Y63084*
X781987*
X773523Y82136D02*
X777755D01*
X775639*
Y94832*
X773523Y92716*
X784103D02*
X786219Y94832D01*
X790451*
X792567Y92716*
Y84252*
X790451Y82136*
X786219*
X784103Y84252*
Y92716*
X722723Y270516D02*
X724839Y272632D01*
X729071*
X731187Y270516*
Y268400*
X729071Y266284*
X726955*
X729071*
X731187Y264168*
Y262052*
X729071Y259936*
X724839*
X722723Y262052*
X729071Y285336D02*
Y298032D01*
X722723Y291684*
X731187*
X665147Y285336D02*
X656683D01*
X665147Y293800*
Y295916*
X663031Y298032*
X658799*
X656683Y295916*
X661763Y259936D02*
X665995D01*
X663879*
Y272632*
X661763Y270516*
X461948Y348836D02*
X453484D01*
X461948Y357300*
Y359416*
X459832Y361532*
X455600*
X453484Y359416*
Y323436D02*
X457716D01*
X455600*
Y336132*
X453484Y334016*
X722723Y323436D02*
X726955D01*
X724839*
Y336132*
X722723Y334016*
X733303Y325552D02*
X735419Y323436D01*
X739651*
X741767Y325552*
Y334016*
X739651Y336132*
X735419*
X733303Y334016*
Y331900*
X735419Y329784*
X741767*
X731187Y348836D02*
X722723D01*
X731187Y357300*
Y359416*
X729071Y361532*
X724839*
X722723Y359416*
X735419D02*
X737535Y361532D01*
X741767*
X743883Y359416*
Y350952*
X741767Y348836*
X737535*
X735419Y350952*
Y359416*
G54D10*
X167734Y866360D02*
D01*
X167513Y866352*
X167292Y866329*
X167074Y866290*
X166859Y866236*
X166648Y866168*
X166442Y866085*
X166243Y865988*
X166052Y865877*
X165868Y865753*
X165693Y865617*
X165528Y865468*
X165374Y865309*
X165232Y865139*
X165102Y864960*
X164984Y864772*
X164880Y864576*
X164790Y864374*
X164714Y864165*
X164653Y863953*
X164607Y863736*
X164576Y863516*
X164561Y863295*
Y863074*
X164576Y862853*
X164607Y862633*
X164653Y862416*
X164714Y862203*
X164790Y861995*
X164880Y861793*
X164984Y861597*
X165102Y861409*
X165232Y861230*
X165374Y861060*
X165528Y860901*
X165693Y860752*
X165868Y860616*
X166052Y860492*
X166243Y860381*
X166442Y860284*
X166648Y860201*
X166859Y860132*
X167074Y860079*
X167292Y860040*
X167513Y860017*
X167734Y860010*
X669383Y877155D02*
X720183D01*
Y902555*
X669383Y864455D02*
Y902555D01*
X567783Y889855D02*
X669383D01*
X116934Y868265D02*
X167734D01*
Y866360D02*
Y870805D01*
Y855565D02*
Y860010D01*
X116934Y855565D02*
X167734D01*
X116934D02*
Y870805D01*
X167734*
X567783Y864455D02*
Y889855D01*
X466184D02*
X567783D01*
X466184Y864455D02*
Y889855D01*
X755740Y694269D02*
X745583D01*
Y686652*
X750661Y689191*
X753200*
X755740Y686652*
Y681573*
X753200Y679035*
X748122*
X745583Y681573*
X760818Y694269D02*
Y684112D01*
X765896Y679035*
X770975Y684112*
Y694269*
X897988Y884771D02*
Y879692D01*
Y882231*
X910684*
X913223Y879692*
Y877153*
X910684Y874615*
X897988Y889849D02*
Y900006D01*
Y894927*
X913223*
Y905084D02*
X903066D01*
X897988Y910162*
X903066Y915241*
X913223*
X905605*
Y905084*
X900527Y930476D02*
X897988Y927937D01*
Y922858*
X900527Y920319*
X910684*
X913223Y922858*
Y927937*
X910684Y930476*
X905605*
Y925398*
X897988Y656175D02*
Y666331D01*
Y661252*
X913223*
Y671409D02*
X897988D01*
Y679027*
X900527Y681566*
X905605*
X908145Y679027*
Y671409*
X897988Y686644D02*
Y691722D01*
Y689183*
X913223*
Y686644*
Y691722*
Y554575D02*
X897988D01*
Y562192*
X900527Y564731*
X905605*
X908145Y562192*
Y554575*
X897988Y569809D02*
X913223D01*
Y577427*
X910684Y579966*
X900527*
X897988Y577427*
Y569809*
Y585044D02*
Y590122D01*
Y587583*
X913223*
Y585044*
Y590122*
X897988Y760315D02*
Y765392D01*
Y762853*
X913223*
Y760315*
Y765392*
X900527Y783167D02*
X897988Y780627D01*
Y775549*
X900527Y773010*
X903066*
X905605Y775549*
Y780627*
X908145Y783167*
X910684*
X913223Y780627*
Y775549*
X910684Y773010*
X913223Y788245D02*
X897988D01*
Y795863*
X900527Y798402*
X905605*
X908145Y795863*
Y788245*
X322671Y621883D02*
Y632040D01*
X320132Y634579*
X315053*
X312514Y632040*
Y621883*
X315053Y619345*
X320132*
X317592Y624422D02*
X322671Y619345D01*
X320132D02*
X322671Y621883D01*
X327749Y619345D02*
X332827D01*
X330288*
Y634579*
X327749Y632040*
X213454Y755235D02*
Y770469D01*
X221071*
X223611Y767930*
Y762851*
X221071Y760312*
X213454*
X218532D02*
X223611Y755235D01*
X236307D02*
Y770469D01*
X228689Y762851*
X238846*
X59784Y897469D02*
Y884773D01*
X62323Y882235*
X67402*
X69941Y884773*
Y897469*
X75019Y882235D02*
X80097D01*
X77558*
Y897469*
X75019Y894930*
X82641Y803490D02*
X80101Y806029D01*
X75023*
X72484Y803490*
Y793333*
X75023Y790795*
X80101*
X82641Y793333*
X87719Y790795D02*
X92797D01*
X90258*
Y806029*
X87719Y803490*
X194401Y826350D02*
X191862Y828889D01*
X186783*
X184244Y826350*
Y816193*
X186783Y813655*
X191862*
X194401Y816193*
X209636Y813655D02*
X199479D01*
X209636Y823811*
Y826350*
X207097Y828889*
X202018*
X199479Y826350*
X69941Y866990D02*
X67402Y869529D01*
X62323*
X59784Y866990*
Y856833*
X62323Y854295*
X67402*
X69941Y856833*
X75019Y866990D02*
X77558Y869529D01*
X82637*
X85176Y866990*
Y864451*
X82637Y861912*
X80097*
X82637*
X85176Y859372*
Y856833*
X82637Y854295*
X77558*
X75019Y856833*
X226154Y896205D02*
Y911439D01*
X233771*
X236311Y908900*
Y903822*
X233771Y901282*
X226154*
X231232D02*
X236311Y896205D01*
X241389D02*
X246467D01*
X243928*
Y911439*
X241389Y908900*
X301084Y901285D02*
Y916519D01*
X308701*
X311241Y913980*
Y908901*
X308701Y906362*
X301084*
X306162D02*
X311241Y901285D01*
X326476D02*
X316319D01*
X326476Y911441*
Y913980*
X323937Y916519*
X318858*
X316319Y913980*
X363314Y756505D02*
Y771739D01*
X370931*
X373471Y769200*
Y764121*
X370931Y761582*
X363314*
X368392D02*
X373471Y756505D01*
X378549Y769200D02*
X381088Y771739D01*
X386167*
X388706Y769200*
Y766661*
X386167Y764121*
X383627*
X386167*
X388706Y761582*
Y759043*
X386167Y756505*
X381088*
X378549Y759043*
X273141Y841593D02*
Y851750D01*
X270601Y854289*
X265523*
X262984Y851750*
Y841593*
X265523Y839055*
X270601*
X268062Y844132D02*
X273141Y839055D01*
X270601D02*
X273141Y841593D01*
X288376Y839055D02*
X278219D01*
X288376Y849211*
Y851750*
X285837Y854289*
X280758*
X278219Y851750*
X81371Y920330D02*
X78832Y922869D01*
X73753*
X71214Y920330*
Y910173*
X73753Y907635*
X78832*
X81371Y910173*
X94067Y907635D02*
Y922869D01*
X86449Y915252*
X96606*
X81371Y945730D02*
X78832Y948269D01*
X73753*
X71214Y945730*
Y935573*
X73753Y933035*
X78832*
X81371Y935573*
X96606Y948269D02*
X86449D01*
Y940652*
X91527Y943191*
X94067*
X96606Y940652*
Y935573*
X94067Y933035*
X88988*
X86449Y935573*
X198211Y920330D02*
X195671Y922869D01*
X190593*
X188054Y920330*
Y910173*
X190593Y907635*
X195671*
X198211Y910173*
X213446Y922869D02*
X208367Y920330D01*
X203289Y915252*
Y910173*
X205828Y907635*
X210907*
X213446Y910173*
Y912712*
X210907Y915252*
X203289*
X198211Y945730D02*
X195671Y948269D01*
X190593*
X188054Y945730*
Y935573*
X190593Y933035*
X195671*
X198211Y935573*
X203289Y948269D02*
X213446D01*
Y945730*
X203289Y935573*
Y933035*
X454754Y922869D02*
X464911D01*
X459832*
Y907635*
X469989Y917791D02*
Y907635D01*
Y912712*
X472528Y915252*
X475067Y917791*
X477607*
X487763D02*
X492842D01*
X495381Y915252*
Y907635*
X487763*
X485224Y910173*
X487763Y912712*
X495381*
X500459Y907635D02*
Y917791D01*
X508077*
X510616Y915252*
Y907635*
X515693D02*
X523311D01*
X525850Y910173*
X523311Y912712*
X518233*
X515693Y915252*
X518233Y917791*
X525850*
X530928Y907635D02*
X536007D01*
X533467*
Y922869*
X530928*
X546163Y917791D02*
X551242D01*
X553781Y915252*
Y907635*
X546163*
X543624Y910173*
X546163Y912712*
X553781*
X561398Y920330D02*
Y917791D01*
X558859*
X563938*
X561398*
Y910173*
X563938Y907635*
X574094D02*
X579173D01*
X581712Y910173*
Y915252*
X579173Y917791*
X574094*
X571555Y915252*
Y910173*
X574094Y907635*
X586790Y917791D02*
Y907635D01*
Y912712*
X589329Y915252*
X591869Y917791*
X594408*
X456024Y948269D02*
Y933035D01*
X466181*
X478877D02*
X473798D01*
X471259Y935573*
Y940652*
X473798Y943191*
X478877*
X481416Y940652*
Y938112*
X471259*
X486494Y943191D02*
X491573Y933035D01*
X496651Y943191*
X509347Y933035D02*
X504268D01*
X501729Y935573*
Y940652*
X504268Y943191*
X509347*
X511885Y940652*
Y938112*
X501729*
X516963Y933035D02*
X522042D01*
X519503*
Y948269*
X516963*
X683353Y729835D02*
Y745069D01*
X690970*
X693510Y742530*
Y737451*
X690970Y734912*
X683353*
X708745Y742530D02*
X706206Y745069D01*
X701127*
X698588Y742530*
Y732373*
X701127Y729835*
X706206*
X708745Y732373*
X682083Y882235D02*
Y897469D01*
X689700*
X692240Y894930*
Y889852*
X689700Y887312*
X682083*
X707475Y894930D02*
X704936Y897469D01*
X699857*
X697318Y894930*
Y884773*
X699857Y882235*
X704936*
X707475Y884773*
X694783Y604105D02*
Y619339D01*
X702401*
X704940Y616800*
Y611722*
X702401Y609182*
X694783*
X710018Y619339D02*
Y604105D01*
X717636*
X720175Y606643*
Y609182*
X717636Y611722*
X710018*
X717636*
X720175Y614261*
Y616800*
X717636Y619339*
X710018*
X491584Y604105D02*
Y619339D01*
X499202*
X501741Y616800*
Y611722*
X499202Y609182*
X491584*
X506819Y619339D02*
Y604105D01*
X514436*
X516975Y606643*
Y616800*
X514436Y619339*
X506819*
X605883Y869535D02*
Y884769D01*
X613501*
X616040Y882230*
Y877152*
X613501Y874612*
X605883*
X621118Y884769D02*
Y869535D01*
X628736*
X631275Y872073*
Y874612*
X628736Y877152*
X621118*
X628736*
X631275Y879691*
Y882230*
X628736Y884769*
X621118*
X504284Y869535D02*
Y884769D01*
X511900*
X514440Y882230*
Y877152*
X511900Y874612*
X504284*
X519518Y884769D02*
Y869535D01*
X527136*
X529675Y872073*
Y882230*
X527136Y884769*
X519518*
X831948Y559655D02*
X844644D01*
X847183Y562193*
Y567272*
X844644Y569811*
X831948*
X847183Y585046D02*
Y574889D01*
X837026Y585046*
X834487*
X831948Y582507*
Y577428*
X834487Y574889*
Y600281D02*
X831948Y597742D01*
Y592663*
X834487Y590124*
X837026*
X839566Y592663*
Y597742*
X842105Y600281*
X844644*
X847183Y597742*
Y592663*
X844644Y590124*
X456024Y973669D02*
Y960973D01*
X458563Y958435*
X463642*
X466181Y960973*
Y973669*
X481416Y958435D02*
X471259D01*
X481416Y968591*
Y971130*
X478877Y973669*
X473798*
X471259Y971130*
X496651D02*
X494112Y973669D01*
X489033*
X486494Y971130*
Y968591*
X489033Y966052*
X494112*
X496651Y963512*
Y960973*
X494112Y958435*
X489033*
X486494Y960973*
X516963Y973669D02*
X527120Y958435D01*
Y973669D02*
X516963Y958435D01*
X532198Y973669D02*
Y958435D01*
X542355*
X547433Y973669D02*
X557590D01*
X552512*
Y958435*
X577904Y973669D02*
Y963512D01*
X582982Y958435*
X588060Y963512*
Y973669*
X600756Y958435D02*
X595678D01*
X593139Y960973*
Y966052*
X595678Y968591*
X600756*
X603295Y966052*
Y963512*
X593139*
X608374Y968591D02*
Y958435D01*
Y963512*
X610913Y966052*
X613452Y968591*
X615991*
X623609Y958435D02*
X631226D01*
X633766Y960973*
X631226Y963512*
X626148*
X623609Y966052*
X626148Y968591*
X633766*
X638844Y958435D02*
X643922D01*
X641383*
Y968591*
X638844*
X654079Y958435D02*
X659157D01*
X661696Y960973*
Y966052*
X659157Y968591*
X654079*
X651540Y966052*
Y960973*
X654079Y958435*
X666775D02*
Y968591D01*
X674392*
X676931Y966052*
Y958435*
X697245D02*
X702323D01*
X699784*
Y973669*
X697245Y971130*
X709941Y958435D02*
Y960973D01*
X712480*
Y958435*
X709941*
X722637Y971130D02*
X725176Y973669D01*
X730254*
X732794Y971130*
Y960973*
X730254Y958435*
X725176*
X722637Y960973*
Y971130*
X737872Y958435D02*
X742950D01*
X740411*
Y973669*
X737872Y971130*
X59784Y973669D02*
Y960973D01*
X62323Y958435*
X67402*
X69941Y960973*
Y973669*
X85176Y958435D02*
X75019D01*
X85176Y968591*
Y971130*
X82637Y973669*
X77558*
X75019Y971130*
X100411D02*
X97872Y973669D01*
X92793*
X90254Y971130*
Y968591*
X92793Y966052*
X97872*
X100411Y963512*
Y960973*
X97872Y958435*
X92793*
X90254Y960973*
X120724Y973669D02*
Y958435D01*
Y966052*
X130881*
Y973669*
Y958435*
X135959Y973669D02*
Y963512D01*
X141038Y958435*
X146116Y963512*
Y973669*
X151194Y958435D02*
Y973669D01*
X158812*
X161351Y971130*
Y966052*
X158812Y963512*
X151194*
X166430Y958435D02*
Y973669D01*
X174047*
X176586Y971130*
Y966052*
X174047Y963512*
X166430*
X196900Y973669D02*
Y963512D01*
X201978Y958435*
X207056Y963512*
Y973669*
X219752Y958435D02*
X214674D01*
X212135Y960973*
Y966052*
X214674Y968591*
X219752*
X222291Y966052*
Y963512*
X212135*
X227370Y968591D02*
Y958435D01*
Y963512*
X229909Y966052*
X232448Y968591*
X234987*
X242605Y958435D02*
X250222D01*
X252762Y960973*
X250222Y963512*
X245144*
X242605Y966052*
X245144Y968591*
X252762*
X257840Y958435D02*
X262918D01*
X260379*
Y968591*
X257840*
X273075Y958435D02*
X278153D01*
X280693Y960973*
Y966052*
X278153Y968591*
X273075*
X270536Y966052*
Y960973*
X273075Y958435*
X285771D02*
Y968591D01*
X293388*
X295928Y966052*
Y958435*
X316241D02*
X321319D01*
X318780*
Y973669*
X316241Y971130*
X328937Y958435D02*
Y960973D01*
X331476*
Y958435*
X328937*
X341633Y971130D02*
X344172Y973669D01*
X349250*
X351789Y971130*
Y960973*
X349250Y958435*
X344172*
X341633Y960973*
Y971130*
X356868Y958435D02*
X361946D01*
X359407*
Y973669*
X356868Y971130*
G54D36*
X653508Y709091D02*
D01*
X653397Y709088*
X653287Y709076*
X653178Y709057*
X653070Y709030*
X652965Y708996*
X652862Y708954*
X652763Y708906*
X652667Y708850*
X652575Y708788*
X652487Y708720*
X652405Y708646*
X652328Y708566*
X652257Y708481*
X652192Y708392*
X652133Y708298*
X652081Y708200*
X652036Y708099*
X651998Y707995*
X651968Y707888*
X651945Y707780*
X651929Y707670*
X651922Y707560*
Y707449*
X651929Y707338*
X651945Y707229*
X651968Y707121*
X651998Y707014*
X652036Y706910*
X652081Y706809*
X652133Y706711*
X652192Y706617*
X652257Y706527*
X652328Y706442*
X652405Y706363*
X652487Y706289*
X652575Y706220*
X652667Y706158*
X652763Y706103*
X652862Y706055*
X652965Y706013*
X653070Y705979*
X653178Y705952*
X653287Y705933*
X653397Y705921*
X653508Y705916*
X593183Y597755D02*
X618583D01*
Y546955D02*
Y597755D01*
X593183Y546955D02*
X618583D01*
X593183D02*
Y597755D01*
X618583Y902555D02*
X745583D01*
X618583Y953355D02*
X745583D01*
X618583Y902555D02*
Y953355D01*
X745583Y902555D02*
Y953355D01*
Y673955D02*
X770983D01*
Y623155D02*
Y673955D01*
X745583Y623155D02*
X770983D01*
X745583D02*
Y673955D01*
X974183Y839055D02*
Y966055D01*
X923383Y839055D02*
Y966055D01*
Y839055D02*
X974183D01*
X923383Y966055D02*
X974183D01*
X889023Y649504D02*
X912023D01*
X889023Y609504D02*
X912023D01*
X889023Y633504D02*
Y649504D01*
X912023Y633504D02*
Y649504D01*
Y609504D02*
Y625504D01*
X889023Y609504D02*
Y625504D01*
X834483Y877155D02*
X885283D01*
Y623155D02*
Y642205D01*
X834483Y623155D02*
X885283D01*
X834483D02*
Y642205D01*
Y877155*
X885283Y642205D02*
Y877155D01*
X974183Y764971D02*
Y813655D01*
Y737455D02*
Y813655D01*
X923383Y737455D02*
Y813655D01*
Y737455D02*
X974183D01*
X923383Y813655D02*
X974183D01*
Y561771D02*
Y610455D01*
Y534255D02*
Y610455D01*
X923383Y534255D02*
Y610455D01*
Y534255D02*
X974183D01*
X923383Y610455D02*
X974183D01*
Y663371D02*
Y712055D01*
Y635855D02*
Y712055D01*
X923383Y635855D02*
Y712055D01*
Y635855D02*
X974183D01*
X923383Y712055D02*
X974183D01*
X440784Y673955D02*
X466184D01*
X440784D02*
Y724755D01*
X466184*
Y673955D02*
Y724755D01*
X715293Y668764D02*
X729293D01*
X715293Y686764D02*
X729293D01*
X693293D02*
X707293D01*
X693293Y668764D02*
X707293D01*
X729293D02*
Y686764D01*
X693293Y668764D02*
Y686764D01*
X275684Y800955D02*
X326484D01*
X275684Y750155D02*
Y800955D01*
X326484Y750155D02*
Y800955D01*
X275684Y750155D02*
X326484D01*
X351884Y648555D02*
Y699355D01*
X97884Y648555D02*
X116934D01*
X97884D02*
Y699355D01*
X116934*
X351884*
X116934Y648555D02*
X351884D01*
X250284Y546955D02*
X377284D01*
X250284Y597755D02*
X377284D01*
X250284Y546955D02*
Y597755D01*
X377284Y546955D02*
Y597755D01*
X47084Y546955D02*
X174084D01*
X47084Y597755D02*
X174084D01*
X47084Y546955D02*
Y597755D01*
X174084Y546955D02*
Y597755D01*
X260954Y859694D02*
X292954D01*
X260954D02*
Y871694D01*
Y899694D02*
X292954D01*
X260954Y887694D02*
Y899694D01*
X339504Y610964D02*
Y642964D01*
X351504*
X379504Y610964D02*
Y642964D01*
X367504D02*
X379504D01*
X91424Y882454D02*
X109424D01*
X91424Y846454D02*
X109424D01*
X91424Y868454D02*
Y882454D01*
X109424Y868454D02*
Y882454D01*
Y846454D02*
Y860454D01*
X91424Y846454D02*
Y860454D01*
X182944Y893454D02*
X210944D01*
X182944Y895454D02*
X210944D01*
X182944D02*
Y871454D01*
X210944Y895454D02*
Y871454D01*
X182944Y835454D02*
X210944D01*
X182944D02*
Y857454D01*
X210944Y835454D02*
Y857454D01*
X106984Y784414D02*
Y812414D01*
X104984Y784414D02*
Y812414D01*
Y784414D02*
X128984D01*
X104984Y812414D02*
X128984D01*
X164984Y784414D02*
Y812414D01*
X142984Y784414D02*
X164984D01*
X142984Y812414D02*
X164984D01*
X190484Y779584D02*
X208484D01*
X190484Y743584D02*
X208484D01*
X190484Y765584D02*
Y779584D01*
X208484Y765584D02*
Y779584D01*
Y743584D02*
Y757584D01*
X190484Y743584D02*
Y757584D01*
X340344Y744854D02*
X358344D01*
X340344Y780854D02*
X358344D01*
Y744854D02*
Y758854D01*
X340344Y744854D02*
Y758854D01*
Y766854D02*
Y780854D01*
X358344Y766854D02*
Y780854D01*
X304784Y897694D02*
X322784D01*
X304784Y861694D02*
X322784D01*
X304784Y883694D02*
Y897694D01*
X322784Y883694D02*
Y897694D01*
Y861694D02*
Y875694D01*
X304784Y861694D02*
Y875694D01*
X215044Y891194D02*
X231044D01*
X215044Y868194D02*
X231044D01*
X239044D02*
X255044D01*
X239044Y891194D02*
X255044D01*
X215044Y868194D02*
Y891194D01*
X255044Y868194D02*
Y891194D01*
X104014Y924254D02*
X118014D01*
X104014Y906254D02*
X118014D01*
X126014D02*
X140014D01*
X126014Y924254D02*
X140014D01*
X104014Y906254D02*
Y924254D01*
X140014Y906254D02*
Y924254D01*
X104014Y949654D02*
X118014D01*
X104014Y931654D02*
X118014D01*
X126014D02*
X140014D01*
X126014Y949654D02*
X140014D01*
X104014Y931654D02*
Y949654D01*
X140014Y931654D02*
Y949654D01*
X166654Y906254D02*
X180654D01*
X166654Y924254D02*
X180654D01*
X144654D02*
X158654D01*
X144654Y906254D02*
X158654D01*
X180654D02*
Y924254D01*
X144654Y906254D02*
Y924254D01*
Y949654D02*
X158654D01*
X144654Y931654D02*
X158654D01*
X166654D02*
X180654D01*
X166654Y949654D02*
X180654D01*
X144654Y931654D02*
Y949654D01*
X180654Y931654D02*
Y949654D01*
X567783Y546955D02*
Y597755D01*
X440784Y546955D02*
Y597755D01*
X567783*
X440784Y546955D02*
X567783D01*
X770983D02*
Y597755D01*
X643983Y546955D02*
Y597755D01*
X770983*
X643983Y546955D02*
X770983D01*
X669383Y750155D02*
X720183D01*
Y800955*
X669383Y750155D02*
Y800955D01*
X720183*
X501109Y737154D02*
X653508D01*
X501109Y677854D02*
Y737154D01*
Y677854D02*
X653508D01*
Y705916*
Y709091D02*
Y737154D01*
X485234Y813655D02*
X720183D01*
X485234Y864455D02*
X720183D01*
X466184D02*
X485234D01*
X466184Y813655D02*
Y864455D01*
Y813655D02*
X485234D01*
X720183D02*
Y864455D01*
X691293Y667674D02*
X707293D01*
X691293Y644674D02*
X707293D01*
X715293D02*
X731293D01*
X715293Y667674D02*
X731293D01*
X691293Y644674D02*
Y667674D01*
X731293Y644674D02*
Y667674D01*
X574023Y591184D02*
X592023D01*
X574023Y627184D02*
X592023D01*
Y591184D02*
Y605184D01*
X574023Y591184D02*
Y605184D01*
Y613184D02*
Y627184D01*
X592023Y613184D02*
Y627184D01*
G54D37*
X748123Y935575D02*
X752355D01*
X750239*
Y948270*
X748123Y946154*
X758703D02*
X760819Y948270D01*
X765051*
X767167Y946154*
Y937690*
X765051Y935575*
X760819*
X758703Y937690*
Y946154*
X748123Y912290D02*
X750239Y910175D01*
X754471*
X756587Y912290*
Y920754*
X754471Y922870*
X750239*
X748123Y920754*
Y918638*
X750239Y916522*
X756587*
X610963Y910175D02*
X615195D01*
X613079*
Y922870*
X610963Y920754*
X614347Y935575D02*
X605883D01*
X614347Y944038*
Y946154*
X612231Y948270*
X607999*
X605883Y946154*
X941163Y968595D02*
Y972826D01*
Y970710*
X928467*
X930583Y968595*
Y979174D02*
X928467Y981290D01*
Y985522*
X930583Y987638*
X939047*
X941163Y985522*
Y981290*
X939047Y979174*
X930583*
X964447Y968595D02*
X966563Y970710D01*
Y974942*
X964447Y977058*
X955983*
X953867Y974942*
Y970710*
X955983Y968595*
X958099*
X960215Y970710*
Y977058*
X966563Y831435D02*
Y835666D01*
Y833550*
X953867*
X955983Y831435*
X941163Y834818D02*
Y826355D01*
X932699Y834818*
X930583*
X928467Y832702*
Y828470*
X930583Y826355*
X852263Y888158D02*
Y879695D01*
X843799Y888158*
X841683*
X839567Y886042*
Y881810*
X841683Y879695*
Y892390D02*
X839567Y894506D01*
Y898738*
X841683Y900854*
X850147*
X852263Y898738*
Y894506*
X850147Y892390*
X841683*
X877663Y879695D02*
Y883926D01*
Y881810*
X864967*
X867083Y879695*
X875547Y890274D02*
X877663Y892390D01*
Y896622*
X875547Y898738*
X867083*
X864967Y896622*
Y892390*
X867083Y890274*
X869199*
X871315Y892390*
Y898738*
X877663Y610455D02*
Y614686D01*
Y612570*
X864967*
X867083Y610455*
X852263Y618918D02*
Y610455D01*
X843799Y618918*
X841683*
X839567Y616802*
Y612570*
X841683Y610455*
X966563Y729835D02*
Y734066D01*
Y731950*
X953867*
X955983Y729835*
X941163Y733218D02*
Y724755D01*
X932699Y733218*
X930583*
X928467Y731102*
Y726870*
X930583Y724755*
X953867Y824658D02*
Y816195D01*
X960215*
X958099Y820426*
Y822542*
X960215Y824658*
X964447*
X966563Y822542*
Y818310*
X964447Y816195*
X928467Y824658D02*
X930583Y820426D01*
X934815Y816195*
X939047*
X941163Y818310*
Y822542*
X939047Y824658*
X936931*
X934815Y822542*
Y816195*
X966563Y526635D02*
Y530866D01*
Y528750*
X953867*
X955983Y526635*
X941163Y530018D02*
Y521555D01*
X932699Y530018*
X930583*
X928467Y527902*
Y523670*
X930583Y521555*
X953867Y621458D02*
Y612995D01*
X960215*
X958099Y617226*
Y619342*
X960215Y621458*
X964447*
X966563Y619342*
Y615110*
X964447Y612995*
X928467Y621458D02*
X930583Y617226D01*
X934815Y612995*
X939047*
X941163Y615110*
Y619342*
X939047Y621458*
X936931*
X934815Y619342*
Y612995*
X966563Y628235D02*
Y632466D01*
Y630350*
X953867*
X955983Y628235*
X941163Y631618D02*
Y623155D01*
X932699Y631618*
X930583*
X928467Y629502*
Y625270*
X930583Y623155*
X953867Y723058D02*
Y714595D01*
X960215*
X958099Y718826*
Y720942*
X960215Y723058*
X964447*
X966563Y720942*
Y716710*
X964447Y714595*
X928467Y723058D02*
X930583Y718826D01*
X934815Y714595*
X939047*
X941163Y716710*
Y720942*
X939047Y723058*
X936931*
X934815Y720942*
Y714595*
X268064Y757775D02*
X272296D01*
X270180*
Y770470*
X268064Y768354*
X271448Y783175D02*
X262984D01*
X271448Y791638*
Y793754*
X269332Y795870*
X265100*
X262984Y793754*
X335372Y783175D02*
Y795870D01*
X329024Y789522*
X337488*
X329024Y768354D02*
X331140Y770470D01*
X335372*
X337488Y768354*
Y766238*
X335372Y764122*
X333256*
X335372*
X337488Y762006*
Y759890*
X335372Y757775*
X331140*
X329024Y759890*
X362888Y681575D02*
X354424D01*
X362888Y690038*
Y692154*
X360772Y694270*
X356540*
X354424Y692154*
X367120D02*
X369236Y694270D01*
X373468*
X375584Y692154*
Y683690*
X373468Y681575*
X369236*
X367120Y683690*
Y692154*
X354424Y656175D02*
X358656D01*
X356540*
Y668870*
X354424Y666754*
X365004Y658290D02*
X367120Y656175D01*
X371352*
X373468Y658290*
Y666754*
X371352Y668870*
X367120*
X365004Y666754*
Y664638*
X367120Y662522*
X373468*
X85184Y656175D02*
X89416D01*
X87300*
Y668870*
X85184Y666754*
X93648Y681575D02*
X85184D01*
X93648Y690038*
Y692154*
X91532Y694270*
X87300*
X85184Y692154*
X379824Y579975D02*
X384056D01*
X381940*
Y592670*
X379824Y590554*
X390404D02*
X392520Y592670D01*
X396752*
X398868Y590554*
Y582090*
X396752Y579975*
X392520*
X390404Y582090*
Y590554*
X379824Y556690D02*
X381940Y554575D01*
X386172*
X388288Y556690*
Y565154*
X386172Y567270*
X381940*
X379824Y565154*
Y563038*
X381940Y560922*
X388288*
X242664Y554575D02*
X246896D01*
X244780*
Y567270*
X242664Y565154*
X246048Y579975D02*
X237584D01*
X246048Y588438*
Y590554*
X243932Y592670*
X239700*
X237584Y590554*
X176624Y579975D02*
X180856D01*
X178740*
Y592670*
X176624Y590554*
X187204D02*
X189320Y592670D01*
X193552*
X195668Y590554*
Y582090*
X193552Y579975*
X189320*
X187204Y582090*
Y590554*
X176624Y556690D02*
X178740Y554575D01*
X182972*
X185088Y556690*
Y565154*
X182972Y567270*
X178740*
X176624Y565154*
Y563038*
X178740Y560922*
X185088*
X39464Y554575D02*
X43696D01*
X41580*
Y567270*
X39464Y565154*
X42848Y579975D02*
X34384D01*
X42848Y588438*
Y590554*
X40732Y592670*
X36500*
X34384Y590554*
X436548Y579975D02*
X428084D01*
X436548Y588438*
Y590554*
X434432Y592670*
X430200*
X428084Y590554*
X433164Y554575D02*
X437396D01*
X435280*
Y567270*
X433164Y565154*
X570323Y556690D02*
X572439Y554575D01*
X576671*
X578787Y556690*
Y565154*
X576671Y567270*
X572439*
X570323Y565154*
Y563038*
X572439Y560922*
X578787*
X570323Y579975D02*
X574555D01*
X572439*
Y592670*
X570323Y590554*
X580903D02*
X583019Y592670D01*
X587251*
X589367Y590554*
Y582090*
X587251Y579975*
X583019*
X580903Y582090*
Y590554*
X639747Y579975D02*
X631283D01*
X639747Y588438*
Y590554*
X637631Y592670*
X633399*
X631283Y590554*
X636363Y554575D02*
X640595D01*
X638479*
Y567270*
X636363Y565154*
X773523Y556690D02*
X775639Y554575D01*
X779871*
X781987Y556690*
Y565154*
X779871Y567270*
X775639*
X773523Y565154*
Y563038*
X775639Y560922*
X781987*
X773523Y579975D02*
X777755D01*
X775639*
Y592670*
X773523Y590554*
X784103D02*
X786219Y592670D01*
X790451*
X792567Y590554*
Y582090*
X790451Y579975*
X786219*
X784103Y582090*
Y590554*
X722723Y768354D02*
X724839Y770470D01*
X729071*
X731187Y768354*
Y766238*
X729071Y764122*
X726955*
X729071*
X731187Y762006*
Y759890*
X729071Y757775*
X724839*
X722723Y759890*
X729071Y783175D02*
Y795870D01*
X722723Y789522*
X731187*
X665147Y783175D02*
X656683D01*
X665147Y791638*
Y793754*
X663031Y795870*
X658799*
X656683Y793754*
X661763Y757775D02*
X665995D01*
X663879*
Y770470*
X661763Y768354*
X461948Y846675D02*
X453484D01*
X461948Y855138*
Y857254*
X459832Y859370*
X455600*
X453484Y857254*
Y821275D02*
X457716D01*
X455600*
Y833970*
X453484Y831854*
X722723Y821275D02*
X726955D01*
X724839*
Y833970*
X722723Y831854*
X733303Y823390D02*
X735419Y821275D01*
X739651*
X741767Y823390*
Y831854*
X739651Y833970*
X735419*
X733303Y831854*
Y829738*
X735419Y827622*
X741767*
X731187Y846675D02*
X722723D01*
X731187Y855138*
Y857254*
X729071Y859370*
X724839*
X722723Y857254*
X735419D02*
X737535Y859370D01*
X741767*
X743883Y857254*
Y848790*
X741767Y846675*
X737535*
X735419Y848790*
Y857254*
M02*