%FSLAX44Y44*%
%MOMM*%
%SFA1B1*%

%IPPOS*%
%ADD10C,0.253999*%
%ADD36C,0.200000*%
%ADD58C,0.127000*%
%LNu2s_hvpp-1*%
%LPD*%
G54D10*
X517618Y224503D02*
Y239738D01*
X510001*
X507462Y237199*
Y232121*
X510001Y229581*
X517618*
G54D58*
X0Y0D02*
X1021266D01*
Y1015678*
X0*
Y0*
G54D10*
X512540Y229581D02*
X507462Y224503D01*
X502384D02*
Y239738D01*
X492227Y224503*
Y239738*
X487149Y224503D02*
X482070D01*
X484610*
Y239738*
X487149Y237199*
X695418Y224503D02*
Y239738D01*
X687801*
X685261Y237199*
Y232121*
X687801Y229581*
X695418*
X690340D02*
X685261Y224503D01*
X680183D02*
Y239738D01*
X670026Y224503*
Y239738*
X654791Y224503D02*
X664948D01*
X654791Y234660*
Y237199*
X657330Y239738*
X662409*
X664948Y237199*
X913223Y432656D02*
X897988D01*
Y425038*
X900527Y422499*
X905605*
X908145Y425038*
Y432656*
X903066Y417421D02*
X913223D01*
X908145*
X905605Y414882*
X903066Y412343*
Y409803*
X913223Y399647D02*
Y394568D01*
X910684Y392029*
X905605*
X903066Y394568*
Y399647*
X905605Y402186*
X910684*
X913223Y399647*
X918301Y381872D02*
Y379333D01*
X915762Y376794*
X903066*
Y384412*
X905605Y386951*
X910684*
X913223Y384412*
Y376794*
X903066Y371716D02*
X913223D01*
X908145*
X905605Y369177*
X903066Y366637*
Y364098*
Y353942D02*
Y348863D01*
X905605Y346324*
X913223*
Y353942*
X910684Y356481*
X908145Y353942*
Y346324*
X913223Y341246D02*
X903066D01*
Y338706*
X905605Y336167*
X913223*
X905605*
X903066Y333628*
X905605Y331089*
X913223*
Y326011D02*
X903066D01*
Y323471*
X905605Y320932*
X913223*
X905605*
X903066Y318393*
X905605Y315854*
X913223*
Y310775D02*
Y305697D01*
Y308236*
X903066*
Y310775*
X913223Y298080D02*
X903066D01*
Y290462*
X905605Y287923*
X913223*
X918301Y277766D02*
Y275227D01*
X915762Y272688*
X903066*
Y280305*
X905605Y282844*
X910684*
X913223Y280305*
Y272688*
X918301Y252374D02*
X903066D01*
Y244757*
X905605Y242218*
X910684*
X913223Y244757*
Y252374*
Y237139D02*
Y232061D01*
Y234600*
X903066*
Y237139*
X913223Y224443D02*
X903066D01*
Y216826*
X905605Y214287*
X913223*
Y206669D02*
Y201591D01*
X910684Y199052*
X905605*
X903066Y201591*
Y206669*
X905605Y209208*
X910684*
X913223Y206669*
X903066Y193973D02*
X910684D01*
X913223Y191434*
Y183817*
X903066*
X900527Y176199D02*
X903066D01*
Y178738*
Y173660*
Y176199*
X910684*
X913223Y173660*
X903066Y148268D02*
Y143190D01*
X905605Y140651*
X913223*
Y148268*
X910684Y150807*
X908145Y148268*
Y140651*
X897988Y125415D02*
X913223D01*
Y133033*
X910684Y135572*
X905605*
X903066Y133033*
Y125415*
Y117798D02*
Y112719D01*
X905605Y110180*
X913223*
Y117798*
X910684Y120337*
X908145Y117798*
Y110180*
X918301Y105102D02*
X903066D01*
Y97484*
X905605Y94945*
X910684*
X913223Y97484*
Y105102*
X900527Y87328D02*
X903066D01*
Y89867*
Y84789*
Y87328*
X910684*
X913223Y84789*
Y69554D02*
Y74632D01*
X910684Y77171*
X905605*
X903066Y74632*
Y69554*
X905605Y67014*
X908145*
Y77171*
X903066Y61936D02*
X913223D01*
X908145*
X905605Y59397*
X903066Y56858*
Y54318*
G54D36*
X531883Y135986D02*
X552883D01*
X531883Y167986D02*
X552883D01*
X531883Y135986D02*
Y149986D01*
X552883Y135986D02*
Y149986D01*
Y153986D02*
Y167986D01*
X531883Y153986D02*
Y167986D01*
X455684Y135986D02*
X476684D01*
X455684Y167986D02*
X476684D01*
X455684Y135986D02*
Y149986D01*
X476684Y135986D02*
Y149986D01*
Y153986D02*
Y167986D01*
X455684Y153986D02*
Y167986D01*
X442984Y100426D02*
X463984D01*
X442984Y132426D02*
X463984D01*
X442984Y100426D02*
Y114426D01*
X463984Y100426D02*
Y114426D01*
Y118426D02*
Y132426D01*
X442984Y118426D02*
Y132426D01*
X481084Y135986D02*
X502084D01*
X481084Y167986D02*
X502084D01*
X481084Y135986D02*
Y149986D01*
X502084Y135986D02*
Y149986D01*
Y153986D02*
Y167986D01*
X481084Y153986D02*
Y167986D01*
X468384Y100426D02*
X489384D01*
X468384Y132426D02*
X489384D01*
X468384Y100426D02*
Y114426D01*
X489384Y100426D02*
Y114426D01*
Y118426D02*
Y132426D01*
X468384Y118426D02*
Y132426D01*
X506484Y135986D02*
X527483D01*
X506484Y167986D02*
X527483D01*
X506484Y135986D02*
Y149986D01*
X527483Y135986D02*
Y149986D01*
Y153986D02*
Y167986D01*
X506484Y153986D02*
Y167986D01*
X493784Y100426D02*
X514783D01*
X493784Y132426D02*
X514783D01*
X493784Y100426D02*
Y114426D01*
X514783Y100426D02*
Y114426D01*
Y118426D02*
Y132426D01*
X493784Y118426D02*
Y132426D01*
X519183Y100426D02*
X540183D01*
X519183Y132426D02*
X540183D01*
X519183Y100426D02*
Y114426D01*
X540183Y100426D02*
Y114426D01*
Y118426D02*
Y132426D01*
X519183Y118426D02*
Y132426D01*
X633483Y135986D02*
X654483D01*
X633483Y167986D02*
X654483D01*
X633483Y135986D02*
Y149986D01*
X654483Y135986D02*
Y149986D01*
Y153986D02*
Y167986D01*
X633483Y153986D02*
Y167986D01*
X646183Y100426D02*
X667183D01*
X646183Y132426D02*
X667183D01*
X646183Y100426D02*
Y114426D01*
X667183Y100426D02*
Y114426D01*
Y118426D02*
Y132426D01*
X646183Y118426D02*
Y132426D01*
X658883Y135986D02*
X679883D01*
X658883Y167986D02*
X679883D01*
X658883Y135986D02*
Y149986D01*
X679883Y135986D02*
Y149986D01*
Y153986D02*
Y167986D01*
X658883Y153986D02*
Y167986D01*
X671583Y100426D02*
X692583D01*
X671583Y132426D02*
X692583D01*
X671583Y100426D02*
Y114426D01*
X692583Y100426D02*
Y114426D01*
Y118426D02*
Y132426D01*
X671583Y118426D02*
Y132426D01*
X684283Y135986D02*
X705283D01*
X684283Y167986D02*
X705283D01*
X684283Y135986D02*
Y149986D01*
X705283Y135986D02*
Y149986D01*
Y153986D02*
Y167986D01*
X684283Y153986D02*
Y167986D01*
X696983Y100426D02*
X717983D01*
X696983Y132426D02*
X717983D01*
X696983Y100426D02*
Y114426D01*
X717983Y100426D02*
Y114426D01*
Y118426D02*
Y132426D01*
X696983Y118426D02*
Y132426D01*
X709683Y135986D02*
X730683D01*
X709683Y167986D02*
X730683D01*
X709683Y135986D02*
Y149986D01*
X730683Y135986D02*
Y149986D01*
Y153986D02*
Y167986D01*
X709683Y153986D02*
Y167986D01*
X722383Y100426D02*
X743383D01*
X722383Y132426D02*
X743383D01*
X722383Y100426D02*
Y114426D01*
X743383Y100426D02*
Y114426D01*
Y118426D02*
Y132426D01*
X722383Y118426D02*
Y132426D01*
X667083Y171896D02*
X697083D01*
X667083D02*
Y215896D01*
X697083Y171896D02*
Y215896D01*
X667083D02*
X697083D01*
X489284Y171896D02*
X519283D01*
X489284D02*
Y215896D01*
X519283Y171896D02*
Y215896D01*
X489284D02*
X519283D01*
G54D10*
X517618Y722342D02*
Y737576D01*
X510001*
X507462Y735037*
Y729959*
X510001Y727419*
X517618*
X512540D02*
X507462Y722342D01*
X502384D02*
Y737576D01*
X492227Y722342*
Y737576*
X487149Y722342D02*
X482070D01*
X484610*
Y737576*
X487149Y735037*
X695418Y722342D02*
Y737576D01*
X687801*
X685261Y735037*
Y729959*
X687801Y727419*
X695418*
X690340D02*
X685261Y722342D01*
X680183D02*
Y737576D01*
X670026Y722342*
Y737576*
X654791Y722342D02*
X664948D01*
X654791Y732498*
Y735037*
X657330Y737576*
X662409*
X664948Y735037*
X913223Y930495D02*
X897988D01*
Y922876*
X900527Y920337*
X905605*
X908145Y922876*
Y930495*
X903066Y915259D02*
X913223D01*
X908145*
X905605Y912720*
X903066Y910181*
Y907641*
X913223Y897485D02*
Y892406D01*
X910684Y889867*
X905605*
X903066Y892406*
Y897485*
X905605Y900024*
X910684*
X913223Y897485*
X918301Y879710D02*
Y877171D01*
X915762Y874632*
X903066*
Y882250*
X905605Y884789*
X910684*
X913223Y882250*
Y874632*
X903066Y869554D02*
X913223D01*
X908145*
X905605Y867015*
X903066Y864475*
Y861936*
Y851780D02*
Y846701D01*
X905605Y844162*
X913223*
Y851780*
X910684Y854319*
X908145Y851780*
Y844162*
X913223Y839084D02*
X903066D01*
Y836544*
X905605Y834005*
X913223*
X905605*
X903066Y831466*
X905605Y828927*
X913223*
Y823849D02*
X903066D01*
Y821309*
X905605Y818770*
X913223*
X905605*
X903066Y816231*
X905605Y813692*
X913223*
Y808613D02*
Y803535D01*
Y806074*
X903066*
Y808613*
X913223Y795918D02*
X903066D01*
Y788300*
X905605Y785761*
X913223*
X918301Y775604D02*
Y773065D01*
X915762Y770526*
X903066*
Y778143*
X905605Y780682*
X910684*
X913223Y778143*
Y770526*
X918301Y750212D02*
X903066D01*
Y742595*
X905605Y740056*
X910684*
X913223Y742595*
Y750212*
Y734977D02*
Y729899D01*
Y732438*
X903066*
Y734977*
X913223Y722281D02*
X903066D01*
Y714664*
X905605Y712125*
X913223*
Y704507D02*
Y699429D01*
X910684Y696890*
X905605*
X903066Y699429*
Y704507*
X905605Y707046*
X910684*
X913223Y704507*
X903066Y691811D02*
X910684D01*
X913223Y689272*
Y681655*
X903066*
X900527Y674037D02*
X903066D01*
Y676576*
Y671498*
Y674037*
X910684*
X913223Y671498*
X903066Y646106D02*
Y641028D01*
X905605Y638489*
X913223*
Y646106*
X910684Y648645*
X908145Y646106*
Y638489*
X897988Y623253D02*
X913223D01*
Y630871*
X910684Y633410*
X905605*
X903066Y630871*
Y623253*
Y615636D02*
Y610557D01*
X905605Y608018*
X913223*
Y615636*
X910684Y618175*
X908145Y615636*
Y608018*
X918301Y602940D02*
X903066D01*
Y595322*
X905605Y592783*
X910684*
X913223Y595322*
Y602940*
X900527Y585166D02*
X903066D01*
Y587705*
Y582627*
Y585166*
X910684*
X913223Y582627*
Y567392D02*
Y572470D01*
X910684Y575009*
X905605*
X903066Y572470*
Y567392*
X905605Y564852*
X908145*
Y575009*
X903066Y559774D02*
X913223D01*
X908145*
X905605Y557235*
X903066Y554696*
Y552156*
G54D36*
X531883Y633824D02*
X552883D01*
X531883Y665824D02*
X552883D01*
X531883Y633824D02*
Y647824D01*
X552883Y633824D02*
Y647824D01*
Y651824D02*
Y665824D01*
X531883Y651824D02*
Y665824D01*
X455684Y633824D02*
X476684D01*
X455684Y665824D02*
X476684D01*
X455684Y633824D02*
Y647824D01*
X476684Y633824D02*
Y647824D01*
Y651824D02*
Y665824D01*
X455684Y651824D02*
Y665824D01*
X442984Y598264D02*
X463984D01*
X442984Y630264D02*
X463984D01*
X442984Y598264D02*
Y612264D01*
X463984Y598264D02*
Y612264D01*
Y616264D02*
Y630264D01*
X442984Y616264D02*
Y630264D01*
X481084Y633824D02*
X502084D01*
X481084Y665824D02*
X502084D01*
X481084Y633824D02*
Y647824D01*
X502084Y633824D02*
Y647824D01*
Y651824D02*
Y665824D01*
X481084Y651824D02*
Y665824D01*
X468384Y598264D02*
X489384D01*
X468384Y630264D02*
X489384D01*
X468384Y598264D02*
Y612264D01*
X489384Y598264D02*
Y612264D01*
Y616264D02*
Y630264D01*
X468384Y616264D02*
Y630264D01*
X506484Y633824D02*
X527483D01*
X506484Y665824D02*
X527483D01*
X506484Y633824D02*
Y647824D01*
X527483Y633824D02*
Y647824D01*
Y651824D02*
Y665824D01*
X506484Y651824D02*
Y665824D01*
X493784Y598264D02*
X514783D01*
X493784Y630264D02*
X514783D01*
X493784Y598264D02*
Y612264D01*
X514783Y598264D02*
Y612264D01*
Y616264D02*
Y630264D01*
X493784Y616264D02*
Y630264D01*
X519183Y598264D02*
X540183D01*
X519183Y630264D02*
X540183D01*
X519183Y598264D02*
Y612264D01*
X540183Y598264D02*
Y612264D01*
Y616264D02*
Y630264D01*
X519183Y616264D02*
Y630264D01*
X633483Y633824D02*
X654483D01*
X633483Y665824D02*
X654483D01*
X633483Y633824D02*
Y647824D01*
X654483Y633824D02*
Y647824D01*
Y651824D02*
Y665824D01*
X633483Y651824D02*
Y665824D01*
X646183Y598264D02*
X667183D01*
X646183Y630264D02*
X667183D01*
X646183Y598264D02*
Y612264D01*
X667183Y598264D02*
Y612264D01*
Y616264D02*
Y630264D01*
X646183Y616264D02*
Y630264D01*
X658883Y633824D02*
X679883D01*
X658883Y665824D02*
X679883D01*
X658883Y633824D02*
Y647824D01*
X679883Y633824D02*
Y647824D01*
Y651824D02*
Y665824D01*
X658883Y651824D02*
Y665824D01*
X671583Y598264D02*
X692583D01*
X671583Y630264D02*
X692583D01*
X671583Y598264D02*
Y612264D01*
X692583Y598264D02*
Y612264D01*
Y616264D02*
Y630264D01*
X671583Y616264D02*
Y630264D01*
X684283Y633824D02*
X705283D01*
X684283Y665824D02*
X705283D01*
X684283Y633824D02*
Y647824D01*
X705283Y633824D02*
Y647824D01*
Y651824D02*
Y665824D01*
X684283Y651824D02*
Y665824D01*
X696983Y598264D02*
X717983D01*
X696983Y630264D02*
X717983D01*
X696983Y598264D02*
Y612264D01*
X717983Y598264D02*
Y612264D01*
Y616264D02*
Y630264D01*
X696983Y616264D02*
Y630264D01*
X709683Y633824D02*
X730683D01*
X709683Y665824D02*
X730683D01*
X709683Y633824D02*
Y647824D01*
X730683Y633824D02*
Y647824D01*
Y651824D02*
Y665824D01*
X709683Y651824D02*
Y665824D01*
X722383Y598264D02*
X743383D01*
X722383Y630264D02*
X743383D01*
X722383Y598264D02*
Y612264D01*
X743383Y598264D02*
Y612264D01*
Y616264D02*
Y630264D01*
X722383Y616264D02*
Y630264D01*
X667083Y669734D02*
X697083D01*
X667083D02*
Y713734D01*
X697083Y669734D02*
Y713734D01*
X667083D02*
X697083D01*
X489284Y669734D02*
X519283D01*
X489284D02*
Y713734D01*
X519283Y669734D02*
Y713734D01*
X489284D02*
X519283D01*
M02*